<svg width="31" height="31" viewBox="0 0 31 31" xmlns="http://www.w3.org/2000/svg"><title>building</title><g opacity=".3"><path d="M21.725 28.375H7.578a.505.505 0 0 0-.505.505v1.01a.505.505 0 0 0 1.01 0v-.505h13.642a.505.505 0 0 0 0-1.01zm-10.61-15.662c0 .278.226.505.505.505h2.021a.505.505 0 0 0 .505-.505V9.68a.505.505 0 0 0-.505-.505h-2.02a.505.505 0 0 0-.506.505v3.032zm1.01-2.526h1.01v2.02h-1.01v-2.02zM6.568 6.145H.505A.505.505 0 0 0 0 6.65v10.104a.505.505 0 0 0 1.01 0V7.155h5.558a.505.505 0 0 0 0-1.01zM24.25 24.838c0 .279.227.505.506.505h2.02a.505.505 0 0 0 .506-.505v-3.031a.505.505 0 0 0-.505-.506h-2.021a.505.505 0 0 0-.505.506v3.03zm1.011-2.526h1.01v2.02h-1.01v-2.02zM2.526 18.27C.03 18.27 0 24.772 0 24.838c0 1.22.87 2.24 2.02 2.475v2.577a.505.505 0 0 0 1.011 0v-2.577a2.53 2.53 0 0 0 2.021-2.475c0-.066-.029-6.568-2.526-6.568zm0 8.084c-.835 0-1.516-.68-1.516-1.516 0-2.517.676-5.558 1.516-5.558s1.516 3.04 1.516 5.558c0 .836-.68 1.516-1.516 1.516zm3.031-11.115h-2.02a.505.505 0 0 0-.506.505v1.01a.505.505 0 0 0 1.01 0v-.505h1.011v2.526a.505.505 0 0 0 1.01 0v-3.031a.505.505 0 0 0-.505-.505zm19.199-2.021h2.02a.505.505 0 0 0 .506-.505V9.68a.505.505 0 0 0-.505-.505h-2.021a.505.505 0 0 0-.505.505v3.032c0 .279.226.505.505.505zm.505-3.031h1.01v2.02h-1.01v-2.02z"/><path d="M5.557 9.176h-2.02a.505.505 0 0 0-.506.505v3.032c0 .278.227.505.506.505h2.02a.505.505 0 0 0 .506-.505V9.68a.505.505 0 0 0-.506-.505zm-.505 3.031h-1.01v-2.02h1.01v2.02zm11.115.506c0 .278.226.505.505.505h2.021a.505.505 0 0 0 .505-.505V9.68a.505.505 0 0 0-.505-.505h-2.02a.505.505 0 0 0-.506.505v3.032zm1.01-2.526h1.011v2.02h-1.01v-2.02zm12.631-4.042h-6.063a.505.505 0 0 0 0 1.01h5.558v20.302a1.496 1.496 0 0 0-.765-.07 2.006 2.006 0 0 0-1.761-1.033c-.75 0-1.413.405-1.761 1.033a1.518 1.518 0 0 0-1.775 1.493c0 .835.68 1.515 1.515 1.515h4.042c.835 0 1.515-.68 1.515-1.515V6.65a.505.505 0 0 0-.505-.505zm-1.01 23.24h-4.042a.506.506 0 0 1 0-1.01.5.5 0 0 1 .274.082.507.507 0 0 0 .766-.31 1.004 1.004 0 1 1 1.962 0 .504.504 0 0 0 .766.31c.329-.212.779.047.779.423a.506.506 0 0 1-.505.505zM16.672 7.155h2.021a.505.505 0 0 0 .505-.505V3.619a.505.505 0 0 0-.505-.506h-2.02a.505.505 0 0 0-.506.506V6.65c0 .279.226.505.505.505zm.506-3.031h1.01v2.02h-1.01v-2.02zm-1.011 14.651c0 .28.226.505.505.505h2.021a.505.505 0 0 0 .505-.505v-3.031a.505.505 0 0 0-.505-.505h-2.02a.505.505 0 0 0-.506.505v3.031zm1.01-2.526h1.011v2.021h-1.01v-2.02zM11.62 7.155h2.021a.505.505 0 0 0 .505-.505V3.619a.505.505 0 0 0-.505-.506h-2.02a.505.505 0 0 0-.506.506V6.65c0 .279.226.505.505.505zm.505-3.031h1.01v2.02h-1.01v-2.02zm2.673 20.356a.531.531 0 0 0-.147.358c0 .131.056.263.147.359.096.09.227.146.359.146a.531.531 0 0 0 .358-.146.531.531 0 0 0 .147-.359.531.531 0 0 0-.147-.359.529.529 0 0 0-.717 0zm-3.683-5.705c0 .28.226.505.505.505h2.021a.505.505 0 0 0 .505-.505v-3.031a.505.505 0 0 0-.505-.505h-2.02a.505.505 0 0 0-.506.505v3.031zm1.01-2.526h1.01v2.021h-1.01v-2.02z"/><path d="M10.104 21.807c0 .278.227.505.506.505h1.515v4.547a.505.505 0 0 0 1.01 0v-4.547h4.043v4.547a.505.505 0 0 0 1.01 0v-4.547h1.516a.505.505 0 0 0 0-1.01H10.61a.505.505 0 0 0-.506.505zm14.146-3.032c0 .28.227.505.506.505h2.02a.505.505 0 0 0 .506-.505v-3.031a.505.505 0 0 0-.505-.505h-2.021a.505.505 0 0 0-.505.505v3.031zm1.011-2.526h1.01v2.021h-1.01v-2.02z"/><path d="M21.725.082H8.589a.505.505 0 0 0-.505.505V26.86a.505.505 0 0 0 1.01 0V1.092h12.125V26.86a.505.505 0 0 0 1.01 0V.587a.505.505 0 0 0-.504-.505z"/></g></svg>