<svg width="43" height="22" viewBox="0 0 43 22" xmlns="http://www.w3.org/2000/svg"><title>car</title><g opacity=".3"><path d="M28.891 18.308H14.174a.644.644 0 0 1 0-1.287H28.89a.644.644 0 0 1 0 1.287z"/><path d="M10.672 21.812a4.151 4.151 0 0 1-4.148-4.147 4.15 4.15 0 0 1 4.148-4.148 4.15 4.15 0 0 1 4.147 4.148 4.151 4.151 0 0 1-4.147 4.147zm0-7.007a2.862 2.862 0 0 0-2.86 2.86 2.862 2.862 0 0 0 2.86 2.86 2.862 2.862 0 0 0 2.86-2.86 2.862 2.862 0 0 0-2.86-2.86zm21.723 7.007a4.151 4.151 0 0 1-4.148-4.147 4.15 4.15 0 0 1 4.148-4.148 4.15 4.15 0 0 1 4.147 4.148 4.151 4.151 0 0 1-4.147 4.147zm0-7.007a2.862 2.862 0 0 0-2.86 2.86 2.862 2.862 0 0 0 2.86 2.86 2.862 2.862 0 0 0 2.86-2.86 2.862 2.862 0 0 0-2.86-2.86z"/><path d="M28.896 18.308h-14.72a.644.644 0 0 1 0-1.287h14.722a.644.644 0 1 1-.002 1.287z"/><path d="M38.99 18.308h-3.096a.644.644 0 0 1 0-1.287h3.096c.797 0 1.464-.572 1.586-1.36l.608-3.885a1.595 1.595 0 0 0-.313-1.227 1.6 1.6 0 0 0-1.101-.618l-9.35-1.013a.654.654 0 0 1-.344-.147l-7.8-6.555a2.686 2.686 0 0 0-1.722-.627H7.71c-.588 0-1.137.29-1.47.775l-4.672 6.81c-.233.34-.325.75-.261 1.157l.832 5.331a1.6 1.6 0 0 0 1.587 1.36h3.436a.644.644 0 0 1 0 1.288H3.728a2.882 2.882 0 0 1-2.861-2.448L.035 10.53a2.884 2.884 0 0 1 .472-2.085l4.672-6.81A3.068 3.068 0 0 1 7.71.303h12.845c.932 0 1.838.33 2.55.93l7.648 6.428 9.154.993a2.866 2.866 0 0 1 1.985 1.115c.485.634.686 1.419.564 2.21l-.608 3.884a2.878 2.878 0 0 1-2.858 2.445z"/><path d="M24.807 9.419H6.177a.644.644 0 0 1 0-1.288h18.63a.644.644 0 0 1 0 1.288z"/></g></svg>