<svg width="26" height="22" viewBox="0 0 26 22" xmlns="http://www.w3.org/2000/svg"><title>danger</title><path d="M24.853 19.253l-11-18.244a1.536 1.536 0 0 0-2.632 0l-11 18.244a1.536 1.536 0 0 0 1.315 2.33h22.002a1.536 1.536 0 0 0 1.315-2.33zM12.545 6.577c.632 0 1.166.357 1.166.988 0 1.928-.226 4.698-.226 6.626 0 .502-.551.713-.94.713-.518 0-.956-.211-.956-.713 0-1.928-.226-4.698-.226-6.626 0-.631.518-.988 1.182-.988zm.016 11.94a1.248 1.248 0 0 1-1.247-1.248c0-.68.535-1.247 1.247-1.247.664 0 1.231.566 1.231 1.247 0 .664-.567 1.247-1.23 1.247z" opacity=".2"/></svg>