<svg width="35" height="32" viewBox="0 0 35 32" xmlns="http://www.w3.org/2000/svg"><title>family</title><g transform="translate(.426)" opacity=".3"><path d="M10.65 11.123a.506.506 0 0 0-.711.075c-.204.252-.475.39-.763.39-.288 0-.559-.139-.763-.39a.506.506 0 0 0-.786.637c.394.486.959.765 1.549.765s1.154-.279 1.549-.765a.506.506 0 0 0-.074-.712zM6.864 8.12a.506.506 0 0 0-.506.506v.578a.506.506 0 0 0 1.012 0v-.578a.506.506 0 0 0-.506-.506zm4.624 0a.506.506 0 0 0-.506.506v.578a.506.506 0 1 0 1.012 0v-.578a.506.506 0 0 0-.506-.506zm15.924 5.893a.506.506 0 0 0-.711.074c-.205.252-.476.391-.763.391-.288 0-.559-.139-.763-.39a.506.506 0 1 0-.786.637c.394.486.959.765 1.549.765s1.154-.279 1.549-.765a.506.506 0 0 0-.075-.712zm-3.786-3.003a.506.506 0 0 0-.506.506v.578a.506.506 0 0 0 1.012 0v-.578a.506.506 0 0 0-.506-.506zm4.624 0a.506.506 0 0 0-.506.506v.578a.506.506 0 1 0 1.012 0v-.578a.506.506 0 0 0-.506-.506z"/><path d="M33.128 21.014l-3.964-1.585c-.021-.008-.041-.02-.061-.03 2.737-.623 4.034-1.664 4.091-1.712a.506.506 0 0 0 .18-.462c-.005-.04-.573-4.057-.573-8.02a6.872 6.872 0 0 0-6.863-6.865 6.872 6.872 0 0 0-6.864 6.864c0 1.037-.047 2.306-.124 3.506l-1.104.553-3.242-1.621-.029-.012c.155-.45.255-.924.292-1.415a1.665 1.665 0 0 0 1.173-1.589 1.66 1.66 0 0 0-.578-1.258V4.002c0-.93-.47-1.8-1.24-2.322A2.224 2.224 0 0 0 12.065.028H7.442A4.557 4.557 0 0 0 2.89 4.58v2.788a1.658 1.658 0 0 0-.578 1.258c0 .746.494 1.379 1.172 1.588a5.706 5.706 0 0 0 2.296 4.151v1.399l-4.184 1.255A2.226 2.226 0 0 0 0 19.164v5.646c0 .28.227.506.506.506h.072v5.852a.506.506 0 0 0 1.012 0v-5.852h1.878v5.852a.506.506 0 0 0 1.012 0v-8.723c0-.444-.13-.873-.376-1.242l-.865-1.297a.506.506 0 0 0-.842.56l.865 1.298c.135.202.206.438.206.681v1.86H1.012v-5.14c0-.547.351-1.02.875-1.177l1.737-.521a5.732 5.732 0 0 0 5.552 4.381 5.68 5.68 0 0 0 2.705-.682c.303.413.79.682 1.34.682h.073v.072c0 1.696.933 3.177 2.312 3.96v.825c0 .032-.02.059-.05.069l-1.887.629a2.237 2.237 0 0 0-1.531 2.125v1.64a.506.506 0 0 0 1.012 0v-1.64c0-.53.337-.998.84-1.165l.554-.185a3.975 3.975 0 0 0 6.603 0l.555.185c.502.167.84.635.84 1.165v1.64a.506.506 0 0 0 1.012 0v-1.64c0-.966-.616-1.82-1.532-2.125l-1.887-.63a.072.072 0 0 1-.05-.067v-.826a4.57 4.57 0 0 0 2.142-2.73 5.127 5.127 0 0 0 8.593-1.968l1.932.772c.469.187.772.635.772 1.14v2.366h-1.879v-.65a.506.506 0 0 0-1.011 0v6.358a.506.506 0 0 0 1.011 0v-4.696h1.3v4.696a.506.506 0 0 0 1.012 0v-4.696h.072a.506.506 0 0 0 .506-.506v-2.872a2.23 2.23 0 0 0-1.407-2.08zM20.086 9.204a5.859 5.859 0 0 1 5.852-5.852 5.859 5.859 0 0 1 5.852 5.852c0 3.397.409 6.831.542 7.857-.454.297-1.614.95-3.576 1.379v-.805a5.73 5.73 0 0 0 2.748-3.695c.094-.413.142-.84.142-1.268 0-2.86-2.068-3.27-4.068-3.667-1.273-.252-2.588-.514-3.636-1.352a.506.506 0 0 0-.822.395c0 .014-.022 1.345-1.929 1.822a.506.506 0 0 0 .246.981c1.595-.399 2.246-1.294 2.512-1.967 1.097.65 2.326.894 3.432 1.114 2.137.424 3.253.736 3.253 2.674 0 .353-.04.704-.117 1.044a4.714 4.714 0 0 1-1.63 2.61 4.643 4.643 0 0 1-2.95 1.042c-.99 0-1.932-.303-2.732-.878a5.716 5.716 0 0 0-1.385-2.134v-2.262a.506.506 0 0 0-.732-.452l-1.093.546c.06-1.054.09-2.055.09-2.984zm.722 3.709v1.83l-1.831-.915 1.83-.915zm-5.924 0l1.83.915-1.83.916v-1.831zm-2.746 5.54v.48a1.66 1.66 0 0 0-.578 1.253c-.72.426-1.54.65-2.384.65a4.715 4.715 0 0 1-4.58-3.66l1.249-.375a3.401 3.401 0 0 0 3.33 2.735 3.398 3.398 0 0 0 3.012-1.829c-.032.246-.05.495-.05.745zm-5.346-2.314v-1.172a5.672 5.672 0 0 0 2.384.523c.85 0 1.658-.187 2.384-.522v1.172a2.387 2.387 0 0 1-2.384 2.384 2.387 2.387 0 0 1-2.384-2.377v-.008zm2.384-1.66A4.701 4.701 0 0 1 4.48 9.781a.506.506 0 0 0-.506-.506.65.65 0 0 1 0-1.3H5.13c.218 0 .41-.14.48-.346l.464-1.393c1.163-.026 4.767-.19 6.796-1.204a.506.506 0 1 0-.452-.905C10.24 5.216 5.753 5.23 5.708 5.23a.506.506 0 0 0-.48.346l-.463 1.388h-.791l-.072.002V4.58a3.544 3.544 0 0 1 3.54-3.54h4.624a1.22 1.22 0 0 1 1.207 1.035.506.506 0 0 0 .25.362c.572.322.927.922.927 1.565v2.964a1.598 1.598 0 0 0-.072-.002H13.8a.506.506 0 0 0 0 1.012h.578a.65.65 0 0 1 0 1.3.506.506 0 0 0-.506.506 4.701 4.701 0 0 1-4.696 4.696zm3.396 1.661v-1.775a5.754 5.754 0 0 0 1.3-1.344v1.335a5.716 5.716 0 0 0-1.304 1.925 3.36 3.36 0 0 0 .004-.14zm7.566 11.701a2.96 2.96 0 0 1-4.584 0l.323-.107c.443-.148.74-.561.74-1.028v-.404a4.537 4.537 0 0 0 2.457 0v.404c0 .467.298.88.741 1.028l.323.107zm1.754-7.005a.506.506 0 0 0-.506.506v.578a3.544 3.544 0 0 1-3.54 3.54 3.544 3.544 0 0 1-3.54-3.54v-.578a.506.506 0 0 0-.506-.506h-.578a.65.65 0 0 1-.65-.65c0-.23.122-.44.326-.558a.503.503 0 0 0 .12-.099c1.25-.036 5.304-.271 7.969-1.794a.506.506 0 0 0-.502-.878c-2.334 1.334-6.002 1.6-7.335 1.654v-.059a4.7 4.7 0 0 1 .8-2.62.504.504 0 0 0 .654.183l3.242-1.621 3.242 1.62a.506.506 0 0 0 .653-.182 4.7 4.7 0 0 1 .8 2.62v.738c0 .18.097.347.252.438a.64.64 0 0 1 .327.558.65.65 0 0 1-.65.65h-.578zm4.046 2.89c-1.4 0-2.7-.713-3.457-1.878a1.664 1.664 0 0 0 1.65-1.662c0-.483-.215-.94-.577-1.253v-.48c0-.204-.011-.407-.033-.608a5.712 5.712 0 0 0 4.223.24v.74c0 .684.41 1.29 1.044 1.543l1.091.437a4.116 4.116 0 0 1-3.941 2.921z"/><path d="M19.32 22.683a.506.506 0 0 0-.711.074c-.205.252-.475.391-.763.391-.288 0-.559-.139-.763-.39a.506.506 0 0 0-.786.637c.394.486.959.765 1.549.765s1.154-.279 1.549-.765a.506.506 0 0 0-.075-.712z"/><circle cx="16.121" cy="20.766" r="1"/><circle cx="19.561" cy="20.766" r="1"/></g></svg>