<svg width="31" height="31" viewBox="0 0 31 31" xmlns="http://www.w3.org/2000/svg"><title>flat</title><g opacity=".3"><path d="M29.905 24.939l-7.15-3.337c-.01-.012-.023-.02-.034-.031a.6.6 0 0 0-.038-.033c-.009-.007-.016-.016-.026-.022-.016-.011-.034-.017-.051-.025-.01-.005-.017-.012-.026-.017l-3.543-1.518-5.636-2.416 1.556-.518 3.782 1.565 10.373 4.292a.489.489 0 0 0 .463-.046.495.495 0 0 0 .22-.41V6.614c0-.2-.12-.38-.305-.456l-3.952-1.636L15.165.231A.481.481 0 0 0 15.052.2h-.003a.497.497 0 0 0-.22.018l-.01.001L0 5.159l.313.937L14.48 1.372v14.766l-1.975.659v-4.254a.495.495 0 0 0-.638-.473L.506 15.528a.494.494 0 0 0-.35.473v7.903c0 .19.11.364.28.446l5.256 2.513-2.283 1.038a.493.493 0 0 0-.006.896l2.966 1.405.422-.893-2.004-.95 2.067-.94 4.944 2.365c.014.007.03.01.044.014l.049.017c.028.007.057.01.086.013.012 0 .023.004.035.004l.012-.002a.5.5 0 0 0 .09-.013c.013-.003.026-.003.039-.007.013-.004.025-.01.038-.016.005-.002.01 0 .015-.003l10.373-4.445a.492.492 0 0 0 .3-.454V22.75l5.636 2.63-8.804 4.002.409.9 9.78-4.446a.494.494 0 0 0 .005-.897zm-4.062-6.962V5.719l2.964 1.226v14.738l-2.964-1.227v-2.48zm-.988 2.07l-4.586-1.897 2.575-.643 2.011.804v1.737zm-3.458-3.197v-3.921l.988-.247v3.92l-.988.248zm3.458.397l-1.482-.593v-3.876l.741.297.741.296v3.876zm0-4.94l-.74-.296-.742-.297v-.912l1.482.593v.912zm-5.434-9.246l5.434 2.249v5.021l-1.482-.593V8.097h-.988v1.59l-2.964.741V3.061zm0 8.386l2.964-.741v.957l-2.964.74v-.956zm0 1.976l.988-.247v3.92l-.988.248v-3.921zM15.47 1.426l2.964 1.227V17.39l-2.964-1.227V1.426zm-3.486 16.582l5.617 2.407-8.824 3.864-6.766-3.236.76-.232 2.964-.902 1.262-.384.714-.217 2.964-.902 1.309-.398zM3.12 19.672v-1.34l1.976-.658v1.397l-1.976.601zm4.94-1.503v-1.318l1.976-.659v1.375l-.824.25-1.152.352zm-6.916-1.802l10.374-3.157v3.907l-.494.15v-1.76a.493.493 0 0 0-.65-.47l-2.964.989a.494.494 0 0 0-.338.469v1.975l-.988.3v-1.78a.494.494 0 0 0-.65-.47l-2.964.989a.494.494 0 0 0-.338.469v1.996l-.988.3v-3.906zm10.374 12.187l-4.444-2.126-5.93-2.835v-1.869l10.374 4.961v1.87zm.505-2.722l-2.07-.99 8.892-3.893 2.286.98-9.108 3.903zm9.868-1.265l-9.385 4.022V26.7l9.385-4.022v1.889z"/><path d="M10.819 4.238a.494.494 0 0 0-.445-.068L1.482 7.134a.494.494 0 0 0-.338.469v5.928a.494.494 0 0 0 .65.468l8.892-2.963a.494.494 0 0 0 .338-.47V4.64a.494.494 0 0 0-.205-.4zm-.783 5.973l-7.904 2.635V7.959l7.904-2.634v4.886z"/><path d="M8.204 7.253l-1.76 1.76-1.192-.397a.497.497 0 0 0-.43.058l-1.482.988.548.822 1.28-.854 1.253.417c.178.06.374.013.506-.12l1.975-1.975-.698-.699z"/></g></svg>