<svg width="43" height="27" viewBox="0 0 43 27" xmlns="http://www.w3.org/2000/svg"><title>hands</title><g opacity=".3"><path d="M33.474 18.168c-.832-1.735-3.808-4.143-6.684-6.47-1.604-1.296-3.12-2.522-4.086-3.488a.883.883 0 0 0-.924-.207c-.595.216-.962.382-1.252.511-.442.198-.59.265-1.185.325a.883.883 0 0 0-.647.387c-1.249 1.867-2.542 1.708-3.406 1.418-.275-.092-.325-.21-.351-.323-.186-.775.745-2.58 1.952-3.787 2.87-2.872 4.35-3.591 7.477-2.194a103.233 103.233 0 0 0 7.137 2.84.885.885 0 0 0 .581-1.67 99.097 99.097 0 0 1-6.995-2.785c-4.05-1.81-6.273-.618-9.447 2.558-1.209 1.208-2.85 3.653-2.426 5.446.182.763.72 1.328 1.518 1.592 2.001.66 3.827.028 5.188-1.777.561-.087.867-.214 1.326-.42.166-.075.36-.162.619-.266 1.01.949 2.374 2.053 3.81 3.213 2.596 2.1 5.541 4.482 6.204 5.86.326.68-.025 1.123-.264 1.326-.35.3-.828.396-1.088.214a.884.884 0 0 0-1.38.821c.06.562-.453.884-.676.995-.565.286-1.155.237-1.376.032a.883.883 0 1 0-1.482.563c-.053.58-.482 1.136-1.042 1.353-.27.103-.663.165-1.014-.157a.894.894 0 0 0-.807-.205.882.882 0 0 0-.62.557c-.034.088-.11.3-.937.3-.588 0-1.646-.398-2.164-.74-.62-.408-4.508-3.309-7.866-6.121-.471-.398-1.287-1.249-2.008-2.001-.64-.668-1.224-1.274-1.524-1.528a.884.884 0 0 0-1.141 1.35c.273.23.803.79 1.388 1.4.788.823 1.602 1.675 2.15 2.134 3.289 2.754 7.242 5.727 8.03 6.244.65.428 2.05 1.028 3.135 1.028.871 0 1.54-.2 2.005-.59a2.75 2.75 0 0 0 2.009-.02 3.48 3.48 0 0 0 1.839-1.698c.695.148 1.492.044 2.216-.32.709-.357 1.221-.903 1.475-1.54.703.037 1.428-.212 2.026-.727 1.015-.867 1.294-2.216.707-3.433z"/><path d="M17.664 3.533H9.715a.884.884 0 0 0 0 1.766h7.95a.884.884 0 0 0 0-1.766zm18.398 12.755a.881.881 0 0 0-1.226-.24l-2.582 1.734a.884.884 0 0 0 .985 1.467l2.583-1.735a.884.884 0 0 0 .24-1.226zm-5.483 4.215c-.632-.498-3.46-3.393-5.21-5.216a.882.882 0 1 0-1.275 1.222c.454.473 4.459 4.648 5.39 5.382a.88.88 0 0 0 .545.19.883.883 0 0 0 .55-1.578zm-3.529 1.772c-1.059-.847-3.717-3.671-4.318-4.325a.885.885 0 0 0-1.302 1.196c.032.034 3.205 3.459 4.515 4.508a.888.888 0 0 0 1.242-.138.885.885 0 0 0-.137-1.241zm-3.516 1.778c-1.26-1.061-3.836-3.805-4.34-4.343a.883.883 0 1 0-1.291 1.206c.724.776 3.19 3.39 4.492 4.489a.88.88 0 0 0 1.245-.106.884.884 0 0 0-.106-1.246z"/><path d="M10.323 2.008C8.81.574 2.756.11.936.001A.883.883 0 0 0 0 .882v15.899c0 .487.396.883.883.883h5.3c.381 0 .72-.245.839-.61.129-.395 3.172-9.736 3.573-14.329a.879.879 0 0 0-.272-.717zm-4.785 13.89H1.766V1.83c2.84.224 5.902.712 7.015 1.252-.468 3.869-2.586 10.742-3.243 12.816zM41.511 1.766c-6.935 0-10.782 1.775-10.943 1.85a.879.879 0 0 0-.471.549.89.89 0 0 0 .097.717c1.091 1.758 4.51 11.52 5.167 13.9a.883.883 0 0 0 .851.649h5.3a.884.884 0 0 0 .883-.884V2.65a.882.882 0 0 0-.884-.883zm-.883 15.898h-3.755c-.838-2.727-3.31-9.839-4.69-12.778 1.348-.458 4.243-1.244 8.445-1.343v14.121z"/></g></svg>