<svg width="38" height="33" viewBox="0 0 38 33" xmlns="http://www.w3.org/2000/svg"><title>market</title><g opacity=".3"><path d="M26.685 17.863H21.58a2.535 2.535 0 0 0-2.532 2.533v3.914a2.535 2.535 0 0 0 2.532 2.532h5.104a2.535 2.535 0 0 0 2.533-2.532v-3.914a2.535 2.535 0 0 0-2.533-2.533zm.69 6.447c0 .383-.314.69-.69.69H21.58a.693.693 0 0 1-.69-.69v-3.914c0-.384.314-.691.69-.691h5.104c.384 0 .69.314.69.69v3.915z"/><path d="M37.56 10.748a.855.855 0 0 0-.123-.452L31.85.472a.926.926 0 0 0-.798-.468H6.5a.91.91 0 0 0-.798.468l-5.58 9.824a.931.931 0 0 0-.122.452 5.387 5.387 0 0 0 3.223 4.928v16.2c0 .507.415.922.921.922h29.264a.924.924 0 0 0 .92-.921V15.79c0-.039 0-.07-.007-.1a5.402 5.402 0 0 0 3.239-4.943zM7.038 1.853h23.477l4.366 7.683H2.678l4.36-7.683zM26.73 11.37a3.538 3.538 0 0 1-3.484 2.916 3.538 3.538 0 0 1-3.485-2.916h6.969zm-8.926 0a3.538 3.538 0 0 1-3.484 2.916 3.552 3.552 0 0 1-3.492-2.916h6.976zm-15.902 0H8.88a3.546 3.546 0 0 1-3.492 2.916 3.53 3.53 0 0 1-3.485-2.916zm13.57 19.586h-5.296v-9.939c0-.721.583-1.312 1.312-1.312h2.678c.722 0 1.313.583 1.313 1.312v9.939h-.008zm17.014 0H17.314v-9.939a3.16 3.16 0 0 0-3.154-3.154h-2.68a3.16 3.16 0 0 0-3.154 3.154v9.947H5.065V16.128a5.38 5.38 0 0 0 4.789-2.371 5.38 5.38 0 0 0 8.934 0 5.367 5.367 0 0 0 8.918 0 5.38 5.38 0 0 0 4.466 2.379c.108 0 .208-.008.315-.008v14.828zm-.315-16.662a3.538 3.538 0 0 1-3.484-2.916h6.976a3.56 3.56 0 0 1-3.492 2.916z"/></g></svg>