<svg width="34" height="34" viewBox="0 0 34 34" xmlns="http://www.w3.org/2000/svg"><title>plan</title><g transform="translate(0 .063)" opacity=".3"><path d="M7.902 3.95A3.956 3.956 0 0 0 3.95 0 3.956 3.956 0 0 0 0 3.95v25.4h.002L0 29.383A3.921 3.921 0 0 0 3.917 33.3H33.3V3.95H7.902zm-6.773 0c0-1.366.977-2.507 2.269-2.765a.558.558 0 0 0 .553.508.559.559 0 0 0 .553-.508A2.826 2.826 0 0 1 6.773 3.95v22.635a3.94 3.94 0 0 0-3.228-1.167c-.06.006-.119.018-.178.027-.072.01-.145.02-.216.034-.078.016-.153.038-.229.058-.05.014-.1.024-.15.04-.093.03-.185.065-.276.102l-.085.031a3.912 3.912 0 0 0-.328.16l-.014.006c-.348.19-.665.428-.94.709V3.951zM32.17 32.17H3.917c-1.537 0-2.788-1.25-2.788-2.821a2.825 2.825 0 0 1 2.822-2.822 2.825 2.825 0 0 1 2.822 2.822h1.129V5.079H32.17v27.092z"/><path d="M25.972 11.853a.566.566 0 0 0 .787-.136.566.566 0 0 0-.136-.787l-.922-.65a.566.566 0 0 0-.652.923l.923.65zm2.768 1.953a.563.563 0 1 0 .65-.923l-.923-.65a.566.566 0 0 0-.651.922l.923.65zm-7.857 9.334c0 .312.252.565.564.565h1.129a.564.564 0 1 0 0-1.13h-1.129a.564.564 0 0 0-.564.565zm7.901-7.685v1.129a.564.564 0 1 0 1.13 0v-1.13a.564.564 0 1 0-1.13 0zM23.205 9.9a.566.566 0 0 0 .787-.135.566.566 0 0 0-.135-.788l-.923-.65a.566.566 0 0 0-.652.923l.923.65zm1.065 13.24c0 .312.251.565.564.565h1.128a.564.564 0 1 0 0-1.13h-1.128a.564.564 0 0 0-.565.565zm-7.902 0a.564.564 0 0 0-.565-.564h-1.129a.564.564 0 1 0 0 1.129h1.13a.564.564 0 0 0 .564-.565zm12.981-2.605a.564.564 0 0 0 .564-.565v-1.129a.564.564 0 1 0-1.129 0v1.13c0 .311.253.564.565.564zm-8.91-12.588a.566.566 0 0 0 .786-.135.566.566 0 0 0-.135-.787l-.922-.651a.566.566 0 0 0-.652.923l.923.65zm8.345 14.629h-.564a.564.564 0 1 0 0 1.129h1.693v-1.477a.564.564 0 1 0-1.129 0v.348zm-17.496 1.129h1.129a.564.564 0 1 0 0-1.13h-1.129a.564.564 0 1 0 0 1.13zm-1.128-7.902a.564.564 0 0 0 .564-.564V14.11a.564.564 0 1 0-1.13 0v1.129c0 .312.253.564.565.564zm1.383-2.669a.566.566 0 0 0 .325-.104l.922-.65a.565.565 0 0 0-.651-.923l-.923.65a.565.565 0 0 0 .327 1.027zm2.767-1.954a.566.566 0 0 0 .325-.103l.922-.65a.565.565 0 0 0-.652-.923l-.922.65a.565.565 0 0 0 .327 1.027zm-4.15 8.01a.564.564 0 0 0 .564-.565v-1.129a.564.564 0 1 0-1.13 0v1.13c0 .311.253.564.565.564zm6.916-9.962a.566.566 0 0 0 .326-.103l.922-.651a.565.565 0 0 0-.652-.923l-.922.65a.565.565 0 0 0 .326 1.027zm.42 13.912c0 .312.253.565.565.565h1.129a.564.564 0 1 0 0-1.13h-1.13a.564.564 0 0 0-.564.565zm-7.336-.564a.564.564 0 0 0 .564-.564v-1.13a.564.564 0 1 0-1.13 0v1.13c0 .312.253.564.565.564zm12.98 7.902h7.338v-4.516H23.14v4.516zm1.13-3.387h5.079v2.258h-5.08V27.09zM12.417 16.932v1.129a.564.564 0 1 0 1.129 0v-1.129a.564.564 0 1 0-1.13 0zm5.079-1.693a.564.564 0 0 0-.564.564v1.129a.564.564 0 1 0 1.129 0v-1.129a.564.564 0 0 0-.565-.564zm-3.386 1.129h1.129a.564.564 0 1 0 0-1.13H14.11a.564.564 0 1 0 0 1.13zm.564 3.95a.564.564 0 0 0-.564-.564h-1.129a.564.564 0 1 0 0 1.129h1.129a.564.564 0 0 0 .564-.565zm1.694.565h1.128a.564.564 0 0 0 .565-.565V19.19a.564.564 0 1 0-1.129 0v.564h-.564a.564.564 0 1 0 0 1.129zm6.208-5.08c0 .312.252.565.564.565h1.13a.564.564 0 1 0 0-1.13h-1.13a.564.564 0 0 0-.564.565zm3.386 0v1.129a.564.564 0 1 0 1.13 0v-1.129a.564.564 0 1 0-1.13 0zm.565 5.08a.564.564 0 0 0 .564-.565V19.19a.564.564 0 1 0-1.129 0v.564h-.564a.564.564 0 1 0 0 1.129h1.129zm-4.515-2.258a.564.564 0 0 0 .564-.564v-1.129a.564.564 0 1 0-1.129 0v1.129c0 .312.252.564.565.564zm0 2.258h1.128a.564.564 0 1 0 0-1.13h-1.128a.564.564 0 1 0 0 1.13zm-.565 5.079h-2.822a.564.564 0 1 0 0 1.13h2.822a.564.564 0 1 0 0-1.13zm0 1.694h-3.95a.564.564 0 1 0 0 1.128h3.95a.564.564 0 1 0 0-1.128zm0 1.693h-5.644a.564.564 0 1 0 0 1.129h5.644a.564.564 0 1 0 0-1.13z"/><circle cx="2.258" cy="2.822" r="1"/><circle cx="5.644" cy="2.822" r="1"/><circle cx="3.951" cy="4.515" r="1"/><circle cx="2.258" cy="6.208" r="1"/><circle cx="5.644" cy="6.208" r="1"/><circle cx="2.258" cy="9.595" r="1"/><circle cx="5.644" cy="9.595" r="1"/><circle cx="3.951" cy="7.902" r="1"/><circle cx="3.951" cy="11.288" r="1"/><circle cx="2.258" cy="12.981" r="1"/><circle cx="5.644" cy="12.981" r="1"/><circle cx="2.258" cy="16.368" r="1"/><circle cx="5.644" cy="16.368" r="1"/><circle cx="3.951" cy="14.674" r="1"/><circle cx="3.951" cy="18.061" r="1"/><circle cx="2.258" cy="19.754" r="1"/><circle cx="5.644" cy="19.754" r="1"/><circle cx="2.258" cy="23.14" r="1"/><circle cx="5.644" cy="23.14" r="1"/><circle cx="3.951" cy="21.447" r="1"/><circle cx="3.951" cy="24.834" r="1"/></g></svg>