<svg width="28" height="28" viewBox="0 0 28 28" xmlns="http://www.w3.org/2000/svg"><title>time</title><g opacity=".3"><path d="M13.59.347C6.095.347 0 6.443 0 13.937c0 7.492 6.096 13.588 13.59 13.588 7.492 0 13.588-6.096 13.588-13.589S21.082.347 13.59.347zm0 26.272C6.595 26.62.905 20.93.905 13.936c0-6.993 5.69-12.683 12.683-12.683 6.993 0 12.683 5.69 12.683 12.683 0 6.994-5.69 12.683-12.683 12.683z"/><path d="M14.042 12.134V7.54a.453.453 0 1 0-.906 0v4.594a1.81 1.81 0 0 0-1.294 1.295H8.606a.453.453 0 1 0 0 .906h3.236a1.81 1.81 0 0 0 1.747 1.358c1 0 1.812-.812 1.812-1.811a1.81 1.81 0 0 0-1.359-1.748zm-.453 2.653a.907.907 0 0 1 0-1.811.907.907 0 0 1 0 1.811zm.001-9.965c.25 0 .452-.202.452-.453v-.453a.453.453 0 1 0-.906 0v.453c0 .25.203.453.453.453zm0 18.118a.453.453 0 0 0-.454.454v.453a.453.453 0 1 0 .906 0v-.453a.453.453 0 0 0-.453-.453zm9.964-9.511h-.453a.453.453 0 1 0 0 .906h.453a.453.453 0 1 0 0-.906zm-19.477 0h-.453a.453.453 0 1 0 0 .906h.453a.453.453 0 1 0 0-.906zm16.238-6.915l-.32.32a.452.452 0 1 0 .64.641l.32-.32a.452.452 0 1 0-.64-.64zM6.543 20.287l-.32.32a.452.452 0 1 0 .64.641l.32-.32a.452.452 0 1 0-.64-.64zm14.092 0a.452.452 0 1 0-.64.64l.32.321a.452.452 0 0 0 .64 0 .452.452 0 0 0 0-.64l-.32-.32zM6.863 6.514a.452.452 0 1 0-.64.641l.32.32a.452.452 0 0 0 .64 0 .452.452 0 0 0 0-.64l-.32-.32z"/></g></svg>