<svg width="38" height="29" viewBox="0 0 38 29" xmlns="http://www.w3.org/2000/svg"><title>trees</title><path d="M36.698 27.753h-7.771v-3.685c1.697-.228 3.2-1.288 4.075-2.895 1.162-.265 2.218-.938 2.998-1.917a6.145 6.145 0 0 0 1.315-3.824c0-2.135-1.093-4.111-2.813-5.138-.18-3.56-2.924-6.399-6.267-6.399a5.927 5.927 0 0 0-3.01.828.6.6 0 1 0 .61 1.034 4.726 4.726 0 0 1 2.4-.661c2.794 0 5.07 2.493 5.076 5.559a.6.6 0 0 0 .329.534c1.503.761 2.475 2.426 2.475 4.243 0 2.292-1.553 4.277-3.612 4.616a.6.6 0 0 0-.443.332c-.643 1.335-1.807 2.238-3.133 2.473v-5.31l2.954-2.717a.6.6 0 1 0-.813-.883l-2.141 1.969v-4.007a.6.6 0 0 0-1.2 0v7.264L25.585 17.2a.6.6 0 1 0-.812.884l2.954 2.716v2.08c-1.415-.181-2.664-1.118-3.333-2.535a.6.6 0 0 0-.418-.33c-1.992-.423-3.437-2.35-3.437-4.583 0-1.76.888-3.354 2.317-4.158a.6.6 0 0 0 .304-.58v-.029c0-1.25.369-2.431 1.067-3.416a.6.6 0 1 0-.98-.694 7.037 7.037 0 0 0-1.283 3.857c-1.628 1.062-2.625 2.952-2.625 5.02 0 2.69 1.707 5.032 4.1 5.687.901 1.697 2.494 2.794 4.288 2.97v3.664h-.38a3.799 3.799 0 0 0-2.657-3.399 3.555 3.555 0 0 0-2.452-1.956 3.566 3.566 0 0 0-3.464-2.788 3.54 3.54 0 0 0-3.087 1.8 3.665 3.665 0 0 0-2.97 1.72 3.008 3.008 0 0 0-2.597-1.966v-1.578c1.62-.225 3.055-1.239 3.893-2.772 1.113-.257 2.125-.903 2.873-1.841a5.909 5.909 0 0 0 1.264-3.678c0-2.048-1.046-3.944-2.694-4.933C15.277 2.946 12.642.225 9.432.225a5.702 5.702 0 0 0-3.425 1.148.6.6 0 0 0 .717.963 4.51 4.51 0 0 1 2.708-.91c2.66 0 4.828 2.375 4.833 5.296a.6.6 0 0 0 .33.534c1.43.724 2.355 2.31 2.355 4.04 0 2.182-1.477 4.071-3.436 4.394a.6.6 0 0 0-.443.332c-.608 1.26-1.702 2.116-2.951 2.348v-5.043l2.82-2.593a.6.6 0 0 0-.813-.883l-2.007 1.846V7.919a.6.6 0 0 0-1.2 0v6.896L6.911 12.97a.6.6 0 1 0-.812.883l2.82 2.593v1.952c-1.335-.183-2.51-1.07-3.143-2.41a.6.6 0 0 0-.418-.33c-1.895-.403-3.27-2.237-3.27-4.363 0-1.676.845-3.193 2.205-3.958a.6.6 0 0 0 .305-.579l-.001-.026a5.71 5.71 0 0 1 .682-2.718.6.6 0 1 0-1.055-.574 6.88 6.88 0 0 0-.823 3.035C1.844 7.497.89 9.312.89 11.295c0 2.583 1.638 4.833 3.934 5.467.864 1.619 2.384 2.67 4.096 2.845v1.717a2.98 2.98 0 0 0-1.58 1.292 3.066 3.066 0 0 0-2.863 2.58 3.867 3.867 0 0 0-2.169 2.556H1.49a.6.6 0 0 0 0 1.2h35.208a.6.6 0 0 0 0-1.2zm-33.132 0a2.662 2.662 0 0 1 1.656-1.56.6.6 0 0 0 .415-.553 1.875 1.875 0 0 1 2.025-1.822.6.6 0 0 0 .597-.366 1.784 1.784 0 0 1 1.649-1.096c.926 0 1.709.723 1.78 1.646a.6.6 0 0 0 .552.552c.164.012.322.048.472.103h.002l.082.034.018.007.075.035.025.013c.034.017.068.036.1.056.018.01.037.02.054.032l.04.027a1.845 1.845 0 0 1 .158.121l.019.016a1.794 1.794 0 0 1 .244.265l.012.015c.046.064.089.13.127.2l.015.029a1.759 1.759 0 0 1 .095.216l.002.003a.6.6 0 0 0 .438.383c.053.011.106.025.158.041l.05.017c.034.012.068.023.102.037l.057.025.089.04.058.031a1.87 1.87 0 0 1 .34.233l.048.042.071.068.041.042.076.086.027.032c.033.04.064.083.094.126l.017.028.066.105.026.05c.016.03.032.06.046.09.01.02.017.039.025.058a1.948 1.948 0 0 1 .136.462l.004.03H3.566zm13.394 0c0-.006-.002-.012-.003-.017a3.106 3.106 0 0 0-.027-.214l-.002-.012a3.133 3.133 0 0 0-.044-.213l-.002-.01a3.193 3.193 0 0 0-.059-.205l-.007-.022a3.116 3.116 0 0 0-.07-.194l-.012-.027a3.132 3.132 0 0 0-.192-.389l-.015-.026a3.153 3.153 0 0 0-.11-.171l-.013-.02a3.238 3.238 0 0 0-.125-.169l-.008-.01a3.194 3.194 0 0 0-.142-.165l-.001-.002a3.241 3.241 0 0 0-.152-.153l-.013-.013a3.214 3.214 0 0 0-.156-.136l-.021-.018a3.183 3.183 0 0 0-.161-.122l-.026-.018a3.136 3.136 0 0 0-.375-.224l-.025-.012a3.156 3.156 0 0 0-.191-.088l-.018-.006a3.128 3.128 0 0 0-.208-.077l-.01-.018a2.963 2.963 0 0 0-.076-.144l-.042-.07a3.23 3.23 0 0 0-.22-.315l-.039-.047c-.05-.06-.103-.12-.158-.176l-.028-.03-.085-.08a2.977 2.977 0 0 0-.132-.115l-.063-.05-.078-.059a2.968 2.968 0 0 0-.116-.079l-.03-.02a2.465 2.465 0 0 1 2.307-1.202.6.6 0 0 0 .598-.366 2.343 2.343 0 0 1 2.164-1.438c1.217 0 2.244.95 2.338 2.16a.6.6 0 0 0 .552.553 2.349 2.349 0 0 1 2.022 1.54.6.6 0 0 0 .438.382 2.588 2.588 0 0 1 2.02 2.307H16.96z" opacity=".3"/></svg>