<svg width="230" height="37" viewBox="0 0 230 37" xmlns="http://www.w3.org/2000/svg"><title>703700BC-9115-4C58-A200-61F1169D32A4</title><g fill="none" fill-rule="evenodd"><path d="M17.367 13.807c-.885-2.093-1.627-3.544-2.227-4.352a3.038 3.038 0 1 0-4.142 4.146c.847.599 2.424 1.396 4.73 2.392 1.342.697 2.013 1.37 2.013 2.016 0 .589-.555 1.17-1.663 1.744-2.456 1.008-4.13 1.843-5.02 2.504a3.038 3.038 0 1 0 4.146 4.142c.57-.807 1.322-2.278 2.254-4.413.757-1.497 1.482-2.239 2.176-2.227.679.013 1.342.748 1.99 2.206a16.033 16.033 0 0 1 .259.623l.005-.005c.773 1.776 1.43 3.028 1.972 3.757a3.038 3.038 0 1 0 4.142-4.146c-.693-.49-1.874-1.112-3.543-1.867l.011-.01-.222-.085a79.16 79.16 0 0 0-1.16-.509c-1.225-.615-1.837-1.247-1.837-1.895 0-.617.554-1.21 1.663-1.782a62.85 62.85 0 0 0 1.556-.66h-.001c1.626-.72 2.784-1.336 3.474-1.848a3.038 3.038 0 1 0-4.146-4.142c-.585.826-1.358 2.347-2.32 4.562-.758 1.631-1.439 2.447-2.041 2.447-.665 0-1.353-.868-2.065-2.603l-.004.005zm11.324 3.112a.689.689 0 0 0-.177 1.276c3.465.138 6.846 1.47 7.987 4.006 1.969 4.377-3.778 6.652-4.4 7.383-.624.73-3.178 7.083-7.757 4.998-2.428-1.105-3.852-4.261-4.221-7.481a.998.998 0 0 0-1.357.052c-.268 3.235-1.587 6.277-3.967 7.348-4.377 1.969-6.652-3.778-7.383-4.4-.73-.624-7.083-3.178-4.998-7.757 1.205-2.645 4.843-4.1 8.348-4.295a1 1 0 0 1 .117-.039l.161-.043a.474.474 0 0 0-.013-.92l-1.215-.284c-3.223-.274-6.25-1.592-7.317-3.964C.53 8.422 6.277 6.147 6.9 5.416c.624-.73 3.178-7.083 7.757-4.998 2.453 1.117 3.882 4.328 4.233 7.583a.688.688 0 0 0 1.328.08C20.44 4.76 21.764 1.595 24.2.498c4.377-1.969 6.652 3.778 7.383 4.4.73.624 7.083 3.178 4.998 7.757-1.152 2.53-4.532 3.97-7.89 4.263z" fill="#00AFC9"/><path d="M54 25.806V12.194h2.941v13.612H54zm9.19 0V12.194h2.71l6.264 8.381v-8.38h2.903v13.61h-2.502l-6.474-8.652v8.653h-2.903zm22.251.097l-5.405-13.709h3.247l3.495 9.587 3.495-9.587h3.17l-5.405 13.709h-2.597zm12.97-.097V12.194h10.084v2.664h-7.162v2.761h6.302v2.664h-6.302v2.859h7.257v2.664H98.411zm20.457.194a8.42 8.42 0 0 1-5.672-2.178l1.738-2.12c1.203 1.012 2.464 1.654 3.991 1.654 1.204 0 1.93-.487 1.93-1.323 0-.758-.46-1.147-2.694-1.73-2.692-.7-4.43-1.459-4.43-4.2 0-2.47 1.948-4.103 4.679-4.103 1.948 0 3.61.622 4.965 1.73l-1.528 2.256c-1.184-.836-2.349-1.342-3.475-1.342-1.127 0-1.72.525-1.72 1.225 0 .895.574 1.187 2.885 1.79 2.711.719 4.24 1.71 4.24 4.122 0 2.702-2.025 4.219-4.909 4.219zm13.2-.194v-10.85H128v-2.762h11.076v2.762h-4.067v10.85h-2.941zm9.838 0v-3.112H145v3.112h-3.094z" fill="#333"/><path d="M152.376 24.865L147 11.232h3.23l3.475 9.533 3.477-9.533h3.153l-5.376 13.633h-2.583zm12.89-.097V11.232h2.925v13.536h-2.926zm13.725.193a8.375 8.375 0 0 1-5.642-2.165l1.729-2.108c1.196 1.005 2.45 1.643 3.97 1.643 1.196 0 1.918-.483 1.918-1.314 0-.755-.456-1.141-2.678-1.721-2.678-.697-4.407-1.45-4.407-4.177 0-2.456 1.938-4.08 4.654-4.08 1.937 0 3.59.618 4.939 1.72l-1.52 2.244c-1.178-.832-2.336-1.334-3.457-1.334-1.12 0-1.71.522-1.71 1.218 0 .89.57 1.18 2.869 1.779 2.697.715 4.217 1.701 4.217 4.1 0 2.687-2.014 4.195-4.882 4.195zm10.306-.193V11.232h2.925v13.536h-2.925zm15.454.232c-4.103 0-7.047-3.113-7.047-7 0-3.848 2.982-7 7.085-7s7.047 3.113 7.047 7c0 3.848-2.982 7-7.085 7zm.038-2.746c2.356 0 3.99-1.895 3.99-4.254 0-2.32-1.672-4.254-4.028-4.254-2.355 0-3.989 1.895-3.989 4.254 0 2.32 1.672 4.254 4.027 4.254zm12.396 2.514V11.232h2.697l6.23 8.334v-8.334H229v13.536h-2.488l-6.44-8.605v8.605h-2.887z" fill="#00AFC9"/></g></svg>