<svg width="149" height="90" viewBox="0 0 149 90" xmlns="http://www.w3.org/2000/svg" xmlns:xlink="http://www.w3.org/1999/xlink"><title>D71C7A7B-5A42-448A-87C1-1BFC7CB975BD</title><defs><path d="M.922 24.41l34.69-22.19a10 10 0 0 1 10.776 0l34.69 22.19A2 2 0 0 1 82 26.095V72.01a2 2 0 0 1-2 2H2a2 2 0 0 1-2-2V26.095a2 2 0 0 1 .922-1.685z" id="a"/></defs><g fill="none" fill-rule="evenodd"><g fill="#000" fill-opacity=".04"><rect y="32" width="61" height="16" rx="8"/><path d="M19.5 63.985a8 8 0 0 0 0-15.97c.165-.01.332-.015.5-.015h50a8 8 0 1 1 0 16H20c-.168 0-.335-.005-.5-.015z"/><rect x="12" y="64" width="61" height="16" rx="8"/><rect x="90" y="64" width="38" height="16" rx="8"/><rect x="98" y="32" width="30" height="16" rx="8"/><rect x="133" y="32" width="16" height="16" rx="8"/><rect x="57" width="46" height="16" rx="8"/><path d="M67 16h24a8 8 0 1 0 0 16H67a8 8 0 1 0 0-16z"/><rect x="32" width="16" height="16" rx="8"/></g><g transform="translate(31 15)"><use fill="#FFF" xlink:href="#a"/><path stroke="#9BC5CC" stroke-width="3" d="M1.73 25.674a.5.5 0 0 0-.23.42V72.01a.5.5 0 0 0 .5.5h78a.5.5 0 0 0 .5-.5V26.095a.5.5 0 0 0-.23-.421L45.58 3.484a8.5 8.5 0 0 0-9.16 0L1.73 25.674z"/></g><path d="M111.737 87.7L77.769 58.206a9 9 0 0 0-11.801 0L32 87.7" stroke="#9BC5CC" stroke-width="3"/><path d="M39.41 45.86V28.63a1 1 0 0 1 1-1h63.314a1 1 0 0 1 1 1v17.23" stroke="#9BC5CC" stroke-width="3" fill="#FFF"/><path d="M31.827 40.787L61.02 62.16" stroke="#9BC5CC" stroke-width="3"/><path d="M47 35h28.484M47 41h49m-49 6h49" stroke="#00AFC9" stroke-width="3"/><path d="M112.169 40.592L82.627 62.241" stroke="#9BC5CC" stroke-width="3"/></g></svg>