<svg width="187" height="187" viewBox="0 0 187 187" xmlns="http://www.w3.org/2000/svg" xmlns:xlink="http://www.w3.org/1999/xlink"><title>9D15A610-3557-4708-A9A9-DF2E47237583</title><defs><path id="a" d="M7.315 37H19.26L21 73.532H5z"/><path id="b" d="M5 31h16v9H5z"/><path id="c" d="M3 67h20v9H3z"/><path id="d" d="M40.315 37H52.26L54 73.532H38z"/><path id="e" d="M38 31h16v9H38z"/><path id="f" d="M36 67h20v9H36z"/><path id="g" d="M72.315 37H84.26L86 73.532H70z"/><path id="h" d="M70 31h16v9H70z"/><path id="i" d="M68 67h20v9H68z"/><path id="j" d="M46.5 0L88 23.936V27H5v-3.064z"/><path id="k" d="M0 73h91v12H0z"/><path id="l" d="M0 24h91v10H0z"/></defs><g fill="none" fill-rule="evenodd"><circle fill="#FFF" cx="93.5" cy="93.5" r="93.5"/><g fill="#000" fill-opacity=".08" transform="translate(19 45)"><rect y="32" width="61" height="16" rx="8"/><path d="M47 64H20c-.168 0-.335-.005-.5-.015a8 8 0 0 0 0-15.97c.165-.01.332-.015.5-.015h27a8 8 0 1 0 0 16z"/><rect x="12" y="64" width="61" height="16" rx="8"/><rect x="90" y="64" width="38" height="16" rx="8"/><rect x="98" y="32" width="30" height="16" rx="8"/><rect x="133" y="32" width="16" height="16" rx="8"/><rect x="57" width="46" height="16" rx="8"/><path d="M67 16h24a8 8 0 1 0 0 16H67a8 8 0 1 0 0-16z"/><rect x="32" width="16" height="16" rx="8"/></g><g transform="translate(48 50)"><use fill="#FFF" xlink:href="#a"/><path stroke="#9BC5CC" stroke-width="3" d="M8.723 38.5L6.598 72.032h12.829L17.829 38.5H8.723z"/></g><g transform="translate(48 50)"><use fill="#FFF" xlink:href="#b"/><path stroke="#9BC5CC" stroke-width="3" d="M6.5 32.5h13v6h-13z"/></g><g transform="translate(48 50)"><use fill="#FFF" xlink:href="#c"/><path stroke="#9BC5CC" stroke-width="3" d="M4.5 68.5h17v6h-17z"/></g><g transform="translate(48 50)"><use fill="#FFF" xlink:href="#d"/><path stroke="#9BC5CC" stroke-width="3" d="M41.723 38.5l-2.125 33.532h12.829L50.829 38.5h-9.106z"/></g><g transform="translate(48 50)"><use fill="#FFF" xlink:href="#e"/><path stroke="#9BC5CC" stroke-width="3" d="M39.5 32.5h13v6h-13z"/></g><g transform="translate(48 50)"><use fill="#FFF" xlink:href="#f"/><path stroke="#9BC5CC" stroke-width="3" d="M37.5 68.5h17v6h-17z"/></g><g transform="translate(48 50)"><use fill="#FFF" xlink:href="#g"/><path stroke="#9BC5CC" stroke-width="3" d="M73.723 38.5l-2.125 33.532h12.829L82.829 38.5h-9.106z"/></g><g transform="translate(48 50)"><use fill="#FFF" xlink:href="#h"/><path stroke="#9BC5CC" stroke-width="3" d="M71.5 32.5h13v6h-13z"/></g><g transform="translate(48 50)"><use fill="#FFF" xlink:href="#i"/><path stroke="#9BC5CC" stroke-width="3" d="M69.5 68.5h17v6h-17z"/></g><g transform="translate(48 50)"><use fill="#FFF" xlink:href="#j"/><path stroke="#9BC5CC" stroke-width="3" d="M46.5 1.732l-40 23.07v.698h80v-.698l-40-23.07z"/></g><g transform="translate(48 50)"><use fill="#FFF" xlink:href="#k"/><path stroke="#9BC5CC" stroke-width="3" d="M1.5 74.5h88v9h-88z"/></g><g transform="translate(48 50)"><use fill="#FFF" xlink:href="#l"/><path stroke="#9BC5CC" stroke-width="3" d="M1.5 25.5h88v7h-88z"/></g></g></svg>