<svg width="230" height="37" viewBox="0 0 230 37" xmlns="http://www.w3.org/2000/svg"><title>599D8BBF-40EC-48B1-AC05-2C54A83488C0</title><g fill="none" fill-rule="evenodd"><path d="M17.367 13.807c-.885-2.093-1.627-3.544-2.227-4.352a3.038 3.038 0 1 0-4.142 4.146c.847.599 2.424 1.396 4.73 2.392 1.342.697 2.013 1.37 2.013 2.016 0 .589-.555 1.17-1.663 1.744-2.456 1.008-4.13 1.843-5.02 2.504a3.038 3.038 0 1 0 4.146 4.142c.57-.807 1.322-2.278 2.254-4.413.757-1.497 1.482-2.239 2.176-2.227.679.013 1.342.748 1.99 2.206a16.033 16.033 0 0 1 .259.623l.005-.005c.773 1.776 1.43 3.028 1.972 3.757a3.038 3.038 0 1 0 4.142-4.146c-.693-.49-1.874-1.112-3.543-1.867l.011-.01-.222-.085a79.16 79.16 0 0 0-1.16-.509c-1.225-.615-1.837-1.247-1.837-1.895 0-.617.554-1.21 1.663-1.782a62.85 62.85 0 0 0 1.556-.66h-.001c1.626-.72 2.784-1.336 3.474-1.848a3.038 3.038 0 1 0-4.146-4.142c-.585.826-1.358 2.347-2.32 4.562-.758 1.631-1.439 2.447-2.041 2.447-.665 0-1.353-.868-2.065-2.603l-.004.005zm11.324 3.112a.689.689 0 0 0-.177 1.276c3.465.138 6.846 1.47 7.987 4.006 1.969 4.377-3.778 6.652-4.4 7.383-.624.73-3.178 7.083-7.757 4.998-2.428-1.105-3.852-4.261-4.221-7.481a.998.998 0 0 0-1.357.052c-.268 3.235-1.587 6.277-3.967 7.348-4.377 1.969-6.652-3.778-7.383-4.4-.73-.624-7.083-3.178-4.998-7.757 1.205-2.645 4.843-4.1 8.348-4.295a1 1 0 0 1 .117-.039l.161-.043a.474.474 0 0 0-.013-.92l-1.215-.284c-3.223-.274-6.25-1.592-7.317-3.964C.53 8.422 6.277 6.147 6.9 5.416c.624-.73 3.178-7.083 7.757-4.998 2.453 1.117 3.882 4.328 4.233 7.583a.688.688 0 0 0 1.328.08C20.44 4.76 21.764 1.595 24.2.498c4.377-1.969 6.652 3.778 7.383 4.4.73.624 7.083 3.178 4.998 7.757-1.152 2.53-4.532 3.97-7.89 4.263z" fill="#00AFC9"/><path d="M53.729 25V11.7h2.926V25h-2.926zm9.142 0V11.7h2.698l6.232 8.189V11.7h2.888V25H72.2l-6.44-8.455V25h-2.89zm22.139.095L79.633 11.7h3.23l3.477 9.367 3.477-9.367h3.154l-5.377 13.395H85.01zM97.914 25V11.7h10.032v2.603h-7.125v2.698h6.27v2.603h-6.27v2.793h7.22V25H97.914zm20.352.19c-2.014 0-4.047-.703-5.643-2.128l1.73-2.071c1.196.988 2.45 1.615 3.97 1.615 1.197 0 1.92-.475 1.92-1.292 0-.741-.457-1.121-2.68-1.691-2.679-.684-4.408-1.425-4.408-4.104 0-2.413 1.938-4.009 4.655-4.009 1.938 0 3.591.608 4.94 1.691l-1.52 2.204c-1.178-.817-2.337-1.311-3.458-1.311-1.12 0-1.71.513-1.71 1.197 0 .874.57 1.159 2.87 1.748 2.697.703 4.217 1.672 4.217 4.028 0 2.641-2.014 4.123-4.883 4.123zM131.4 25V14.398h-4.047V11.7h11.02v2.698h-4.047V25H131.4zm9.788 0v-3.04h3.078V25h-3.078z" fill="#FFF"/><path d="M151.887 25.095L146.51 11.7h3.23l3.477 9.367 3.477-9.367h3.154l-5.377 13.395h-2.584zM164.78 25V11.7h2.926V25h-2.926zm13.729.19c-2.014 0-4.047-.703-5.643-2.128l1.729-2.071c1.197.988 2.45 1.615 3.97 1.615 1.198 0 1.92-.475 1.92-1.292 0-.741-.456-1.121-2.68-1.691-2.678-.684-4.407-1.425-4.407-4.104 0-2.413 1.938-4.009 4.655-4.009 1.938 0 3.59.608 4.94 1.691l-1.52 2.204c-1.178-.817-2.337-1.311-3.458-1.311s-1.71.513-1.71 1.197c0 .874.57 1.159 2.869 1.748 2.698.703 4.218 1.672 4.218 4.028 0 2.641-2.014 4.123-4.883 4.123zm10.308-.19V11.7h2.926V25h-2.926zm15.458.228c-4.104 0-7.049-3.059-7.049-6.878 0-3.781 2.983-6.878 7.087-6.878 4.104 0 7.05 3.059 7.05 6.878 0 3.781-2.984 6.878-7.088 6.878zm.038-2.698c2.356 0 3.99-1.862 3.99-4.18 0-2.28-1.672-4.18-4.028-4.18s-3.99 1.862-3.99 4.18c0 2.28 1.672 4.18 4.028 4.18zM216.712 25V11.7h2.698l6.232 8.189V11.7h2.888V25h-2.49l-6.44-8.455V25h-2.888z" fill="#00AFC9"/></g></svg>