<svg width="30" height="34" viewBox="0 0 30 34" xmlns="http://www.w3.org/2000/svg" xmlns:xlink="http://www.w3.org/1999/xlink"><title>Vector</title><desc>Created using Figma</desc><g fill="#FFF"><use xlink:href="#a"/><use xlink:href="#b"/></g><defs><path id="a" d="M14.851 7.777a.981.981 0 0 0 0-1.961.982.982 0 0 0-.983.98c0 .542.44.98.983.98z"/><path id="b" d="M27.145 25.288l-7.33-3.31a8.273 8.273 0 0 0 3.341-6.378c.438-.156.838-.41 1.172-.75a3.07 3.07 0 0 0 .883-2.162 3.07 3.07 0 0 0-.883-2.161 3.094 3.094 0 0 0-1.167-.75V5.601h-.021v-.55C23.14 2.264 20.868 0 18.075 0h-6.468C8.814 0 6.543 2.265 6.543 5.05v4.727a3.09 3.09 0 0 0-1.168.75 3.07 3.07 0 0 0-.883 2.161A3.097 3.097 0 0 0 6.547 15.6 8.277 8.277 0 0 0 10 22.062l-7.145 3.227A4.855 4.855 0 0 0 0 29.702V34h1.998v-4.298a2.86 2.86 0 0 1 1.681-2.6l2.834-1.28-1.01 4.84L9.89 34h5.085l-2.101-5.283h4.25L15.022 34h5.086l4.387-3.338-1.01-4.84 2.836 1.28a2.859 2.859 0 0 1 1.681 2.6V34H30v-4.298c0-1.898-1.12-3.63-2.855-4.414zM21.163 8.193v.904a3.963 3.963 0 0 1-1.574-1.504h1.553v.6h.02zm-9.556-6.2h6.468a3.066 3.066 0 0 1 3.067 3.057v.551h-2.134a4.332 4.332 0 0 0-4.156-3.12 4.332 4.332 0 0 0-4.157 3.12H8.54v-.55a3.066 3.066 0 0 1 3.067-3.059zm5.57 4.922a2.33 2.33 0 0 1-4.655-.119 2.328 2.328 0 0 1 2.33-2.322 2.328 2.328 0 0 1 2.329 2.322l-.002.082-.009.002.008.035zm-7.105.678c-.31.5-.796 1.075-1.531 1.498V7.593h1.531zm-1.531 7.745v-1.526l-.975-.024a1.108 1.108 0 0 1-1.076-1.1c0-.592.483-1.085 1.076-1.1l.975-.023v-.283a6.136 6.136 0 0 0 2.778-1.999 4.328 4.328 0 0 0 7.039.037 5.786 5.786 0 0 0 2.805 1.934v.31l.974.024a1.108 1.108 0 0 1 1.076 1.1c0 .592-.482 1.086-1.076 1.1l-.974.024v1.526c0 3.47-2.832 6.293-6.312 6.293-3.48 0-6.31-2.823-6.31-6.293zm2.024 16.67l-2.85-2.169 1.051-5.034.34-.154 2.928 7.357h-1.469zm1.516-5.283l-1.152-2.897 1.352-.61a8.31 8.31 0 0 0 2.57.406 8.29 8.29 0 0 0 2.877-.513l-.042.092 1.383.625-1.152 2.897H12.08zm7.352 5.283h-1.469l2.927-7.357.34.154 1.051 5.034-2.85 2.169z"/></defs></svg>