<svg width="38" height="21" viewBox="0 0 38 21" xmlns="http://www.w3.org/2000/svg" xmlns:xlink="http://www.w3.org/1999/xlink"><title>Vector</title><desc>Created using Figma</desc><use xlink:href="#a" fill="#497393"/><defs><path id="a" d="M37.15 7.025h-1.042c.122-.54.2-1.189.207-2.014 0-.067-.002-.135-.004-.205l-.004-.155c-.059-1.597-.672-2.782-1.881-3.624C33.452.364 32.093 0 30.556 0c-1.18 0-2.42.24-3.324.643C26.52.325 25.595.108 24.62.03a1.033 1.033 0 0 0-.08-.003l-1.567.02a.96.96 0 0 0-.084.006c-1.12.13-2.108.466-2.862.98a4.348 4.348 0 0 0-1.03.997 4.385 4.385 0 0 0-1.037-1.002C16.987.364 15.63 0 14.091 0c-1.18 0-2.42.24-3.324.643C10.054.325 9.13.108 8.155.03a.979.979 0 0 0-.078-.003L6.51.047a.96.96 0 0 0-.086.006c-1.12.129-2.107.466-2.862.98-1.203.837-1.816 2.022-1.872 3.65l-.006.334c.006.822.082 1.469.204 2.008H.849a.855.855 0 0 0-.849.86c0 .473.381.857.85.857h1.692c.074.141.15.28.226.42l.096.175c.588 1.02 1.16 2.2 1.144 4.381-.004 3.26.604 4.976 1.116 5.844.53.894.929 1.437 2.01 1.437 1.03 0 1.632-.876 1.692-1.72.04-.394.046-.839.054-1.31.016-1.038.037-2.329.425-3.65.044-.152.315-.915 1.323-.915l.101.002c1.145.053 1.482.88 1.505.935.384 1.3.55 2.807.445 4.03-.079.907.099 1.606.529 2.08a1.647 1.647 0 0 0 1.19.549h.002c.982 0 1.429-.464 2.01-1.44.51-.865 1.119-2.582 1.117-5.845-.015-2.177.557-3.357 1.153-4.395l.086-.158c.077-.139.153-.278.226-.42h.015c.074.142.15.28.226.42l.097.176c.587 1.02 1.159 2.2 1.142 4.38-.004 3.26.605 4.977 1.117 5.845.53.893.928 1.437 2.01 1.437 1.03 0 1.631-.877 1.693-1.721.039-.393.046-.838.052-1.309.017-1.038.037-2.33.426-3.65.044-.153.314-.915 1.323-.915l.102.002c1.145.052 1.482.88 1.503.935.385 1.3.551 2.806.446 4.03-.08.907.098 1.606.528 2.079.462.509 1.03.549 1.191.549h.001c.982 0 1.43-.463 2.01-1.439.511-.866 1.119-2.582 1.117-5.846-.014-2.176.558-3.356 1.155-4.395l.086-.158a23.7 23.7 0 0 0 .225-.419h1.693c.47 0 .85-.384.85-.858a.856.856 0 0 0-.85-.86zm-17.294-2.31c.047-1.335.601-1.896 1.131-2.264.513-.35 1.222-.587 2.054-.688l1.482-.02c.779.068 1.525.243 2.056.487l.28.126 2.072 1.11a.85.85 0 0 0 1.15-.355.863.863 0 0 0-.352-1.16l-.279-.15a8.121 8.121 0 0 1 1.153-.085c1.14 0 2.187.268 2.865.73.536.373 1.092.934 1.14 2.249l.007.308c-.009.913-.105 1.519-.267 2.022h-4.046V5.66a.855.855 0 0 0-.85-.858h-4.408a.854.854 0 0 0-.851.858v1.366h-4.077c-.161-.502-.258-1.105-.264-2.014l.004-.297zm6.037 1.803h2.709v2.734h-2.71V6.518zM3.386 5.01l.005-.297c.047-1.334.602-1.895 1.131-2.263.513-.35 1.223-.587 2.054-.688l1.483-.02c.779.068 1.524.243 2.056.487l.28.126 2.07 1.11a.843.843 0 0 0 1.15-.355.862.862 0 0 0-.351-1.16l-.279-.15a8.122 8.122 0 0 1 1.153-.085c1.14 0 2.187.268 2.866.73.536.373 1.09.934 1.139 2.249l.007.308c-.008.913-.105 1.519-.266 2.022h-4.046V5.66a.854.854 0 0 0-.85-.858H8.58a.854.854 0 0 0-.85.858v1.366H3.65c-.162-.502-.258-1.105-.264-2.014zm6.043 1.507h2.708v2.734H9.43V6.518zm6.397 7.202c.002 3.02-.55 4.406-.876 4.96-.29.488-.401.583-.41.593a.39.39 0 0 1-.085.009c-.03-.045-.128-.234-.082-.76.125-1.452-.061-3.155-.518-4.698a3.313 3.313 0 0 0-3.048-2.133c-.06-.002-.12-.004-.179-.004a3.005 3.005 0 0 0-2.957 2.163c-.45 1.526-.472 2.95-.49 4.092-.008.452-.013.844-.048 1.188a.45.45 0 0 1-.043.151l-.085-.002c-.009 0-.012.001-.013.002-.05-.042-.161-.183-.407-.599-.329-.557-.88-1.943-.876-4.956.018-2.428-.603-3.864-1.225-4.984H7.73v1.367c0 .474.381.859.85.859h4.409c.469 0 .85-.385.85-.859V8.742h3.213c-.627 1.132-1.241 2.566-1.225 4.978zm16.464 0c.002 3.02-.548 4.406-.875 4.96-.29.488-.4.583-.411.593a.367.367 0 0 1-.084.009c-.03-.045-.128-.234-.082-.76.125-1.452-.06-3.155-.518-4.698a3.314 3.314 0 0 0-3.048-2.133c-.061-.002-.12-.004-.178-.004a3.008 3.008 0 0 0-2.96 2.163c-.447 1.526-.47 2.95-.489 4.092-.008.452-.013.844-.047 1.188a.475.475 0 0 1-.043.151l-.085-.002c-.009 0-.013.001-.013.002-.051-.042-.161-.183-.407-.599-.329-.557-.88-1.943-.877-4.956.019-2.428-.601-3.864-1.223-4.984h3.242v1.367c0 .474.381.859.851.859h4.408c.47 0 .851-.385.851-.859V8.742h3.214c-.626 1.132-1.241 2.566-1.226 4.978z"/></defs></svg>