<svg width="20" height="20" viewBox="0 0 20 20" xmlns="http://www.w3.org/2000/svg" xmlns:xlink="http://www.w3.org/1999/xlink"><title>chat</title><desc>Created using Figma</desc><use xlink:href="#a" fill="#497393"/><use xlink:href="#b" transform="translate(5.422 9)" fill="#497393"/><use xlink:href="#c" transform="translate(5.75 4)" fill="#497393"/><use xlink:href="#d" transform="translate(11.75 4)" fill="#497393"/><defs><path id="a" d="M18 0H2a2 2 0 0 0-2 2v12c0 1.103.896 2 2 2h2v4l5.334-4H18c1.104 0 2-.897 2-2V2a2 2 0 0 0-2-2zm0 14H8.666L6 16v-2H2V2h16v12z"/><path id="b" d="M4.578 3a4.997 4.997 0 0 0 4.578-3H0a4.997 4.997 0 0 0 4.578 3z"/><path id="c" d="M1.25 2.5a1.25 1.25 0 1 0 0-2.5 1.25 1.25 0 0 0 0 2.5z"/><path id="d" d="M1.25 2.5a1.25 1.25 0 1 0 0-2.5 1.25 1.25 0 0 0 0 2.5z"/></defs></svg>