<svg width="34" height="29" viewBox="0 0 34 29" xmlns="http://www.w3.org/2000/svg" xmlns:xlink="http://www.w3.org/1999/xlink"><title>command</title><desc>Created using Figma</desc><use xlink:href="#a" transform="translate(23.106 8.6)" fill="#497393"/><use xlink:href="#b" transform="translate(0 17.12)" fill="#497393"/><use xlink:href="#a" transform="translate(2.567 8.6)" fill="#497393"/><use xlink:href="#c" transform="translate(10.966)" fill="#497393"/><defs><path id="a" d="M4.163 8.383c2.296 0 4.164-1.88 4.164-4.191C8.327 1.88 6.459 0 4.163 0 1.868 0 0 1.88 0 4.192c0 2.31 1.868 4.191 4.163 4.191zm0-6.287c1.148 0 2.082.94 2.082 2.096a2.091 2.091 0 0 1-2.082 2.095 2.091 2.091 0 0 1-2.081-2.095 2.09 2.09 0 0 1 2.081-2.096z"/><path id="b" d="M27.27 1.956a6.67 6.67 0 0 0-3.68 1.105A8.633 8.633 0 0 0 17 0a8.633 8.633 0 0 0-6.59 3.06 6.67 6.67 0 0 0-3.68-1.104C3.02 1.956 0 4.996 0 8.733V9.78h15.96v2.096h2.08V9.78H34V8.733c0-3.737-3.02-6.777-6.73-6.777zM8.39 7.685H2.2c.473-2.079 2.325-3.633 4.53-3.633.905 0 1.778.264 2.525.752a8.708 8.708 0 0 0-.866 2.88zm7.57 0h-5.47c.447-2.822 2.666-5.057 5.47-5.506v5.506zm2.08 0V2.179c2.804.45 5.023 2.684 5.47 5.506h-5.47zm7.57 0a8.705 8.705 0 0 0-.865-2.881 4.607 4.607 0 0 1 2.524-.752c2.206 0 4.058 1.554 4.532 3.633h-6.19z"/><path id="c" d="M.83 9.789c0 2.889 2.334 5.239 5.204 5.239 2.87 0 5.204-2.35 5.204-5.24V7.714L12.04.357H10.5L8.379 2.12 6.023 0 3.666 2.12 1.546.357H0l.83 7.358V9.79zm8.326 0c0 1.733-1.4 3.143-3.122 3.143S2.91 11.522 2.91 9.79V8.74h6.245v1.048zM3.72 4.882l2.303-2.071 2.302 2.071 1.24-1.03-.305 2.793H2.804L2.49 3.86l1.23 1.022z"/></defs></svg>