<svg width="26" height="38" viewBox="0 0 26 38" xmlns="http://www.w3.org/2000/svg" xmlns:xlink="http://www.w3.org/1999/xlink"><title>Vector</title><desc>Created using Figma</desc><g fill="#497393"><use xlink:href="#a"/><use xlink:href="#b"/></g><defs><path id="a" d="M1.342 12.963c.123.29.277.565.426.83.13.23.263.47.373.714.144.318.46.523.81.523h4.398c.7 0 1.988-.372 2.385-1.767a.894.894 0 0 0 .034-.242v-1.497a.968.968 0 0 0-.005-.096c-.001 0 .005-.165.063-.229.034-.04.148-.082.357-.082h5.633c.208 0 .32.041.357.08.048.05.069.18.066.231a.947.947 0 0 0-.006.096v1.497c0 .081.011.163.034.242.397 1.395 1.685 1.767 2.384 1.767h4.1c.293 0 1.308-.147 2.064-2.044.92-2.31 1.004-3.149 1.178-5.99a3.77 3.77 0 0 0 0-.394l-.005-.173c-.083-2.235-.909-3.82-2.605-4.994C22.01.51 20.083 0 17.959 0h-.07c-1.706 0-3.503.35-4.798.933L13 .973l-.083-.036C11.904.474 10.56.157 9.13.04a1.166 1.166 0 0 0-.084-.003L6.744.068a.823.823 0 0 0-.088.006c-1.587.18-2.984.651-4.045 1.37C.921 2.608.094 4.192.011 6.443l-.005.139c-.006.15-.01.293 0 .428.252 3.136.601 4.222 1.336 5.953zm.438-6.31l.006-.16c.062-1.672.61-2.746 1.827-3.584.81-.548 1.916-.917 3.2-1.067l2.215-.03c1.197.101 2.344.37 3.162.743l.422.187 3.06 1.623a.889.889 0 0 0 1.302-.783.887.887 0 0 0-.472-.785l-1.318-.7a11.73 11.73 0 0 1 2.708-.323h.07c1.748 0 3.362.412 4.422 1.127 1.222.845 1.77 1.92 1.833 3.571l.006.197c.002.073.006.143.002.215-.16 2.603-.203 3.304-1.056 5.445-.25.627-.473.855-.561.926h-3.954c-.119-.002-.492-.037-.646-.383v-1.318c.013-.23.008-.961-.512-1.54-.275-.307-.79-.672-1.68-.672h-5.633c-.888 0-1.402.365-1.678.67-.52.58-.525 1.312-.511 1.542v1.317c-.155.348-.53.382-.65.384H3.5l-.183-.33a6.898 6.898 0 0 1-.34-.657c-.671-1.58-.968-2.51-1.198-5.399-.007-.066 0-.14.002-.217z"/><path id="b" d="M4.087 29.825c-.077 3.103.86 5.274 1.426 6.295.733 1.306 1.188 1.879 2.461 1.879 1.26 0 1.919-1.111 1.997-2.13.047-.515.057-.96.066-1.391.022-1.018.043-1.98.573-3.898.216-.752.46-1.606.929-2.365.262-.422.82-.836 1.34-.838.401.006.762.28 1.072.815a8.55 8.55 0 0 1 .936 2.369c.21.968.343 2.112.449 3.032.064.558.115 1 .172 1.315.368 2.008 1.315 3.092 2.019 3.092 1.206 0 1.733-.58 2.46-1.882.78-1.401 1.314-3.73 1.425-6.23.101-2.287.4-3.1.877-4.238a.85.85 0 0 0 .035-.1c.884-3.092.7-5.468-.547-7.06-1.165-1.487-3.233-2.223-5.99-2.12a.887.887 0 0 0-.854.92.879.879 0 0 0 .918.854c1.511-.057 3.518.15 4.528 1.441.872 1.112.957 2.938.252 5.428-.543 1.299-.881 2.292-.992 4.796-.098 2.17-.57 4.31-1.202 5.446-.319.57-.482.805-.619.903-.164-.24-.408-.716-.564-1.568a22.351 22.351 0 0 1-.156-1.2c-.112-.959-.248-2.151-.48-3.207a10.37 10.37 0 0 0-1.133-2.88c-.846-1.458-1.98-1.69-2.582-1.699-1.252-.035-2.349.829-2.874 1.678-.6.968-.89 1.99-1.139 2.854-.58 2.103-.605 3.223-.629 4.304-.01.42-.017.814-.06 1.28-.014.195-.125.505-.228.505-.333 0-.367 0-.912-.968-.477-.86-1.268-2.703-1.202-5.385l.008-.263c.055-2.204.081-3.22-.485-4.584-.38-1.164-1.029-4.431.386-6.046.916-1.045 2.637-1.337 5.115-.869l1.229.394v2.228l-1.083-1.082-1.255 1.255 2.598 2.597a.885.885 0 0 0 1.255 0l2.598-2.598-1.254-1.254-1.084 1.082v-6.775h-1.774v2.681l-.74-.236a1.135 1.135 0 0 0-.102-.027c-3.168-.608-5.47-.127-6.837 1.432-2.382 2.72-.793 7.6-.724 7.807.008.02.015.042.024.062.432 1.03.414 1.75.36 3.885l-.007.264z"/></defs></svg>