<svg width="38" height="38" viewBox="0 0 38 38" xmlns="http://www.w3.org/2000/svg" xmlns:xlink="http://www.w3.org/1999/xlink"><title>noun_675646_cc</title><desc>Created using Figma</desc><use xlink:href="#a" transform="translate(4.299 6.87)" fill="#497393"/><use xlink:href="#b" transform="translate(28.457)" fill="#497393"/><use xlink:href="#c" transform="translate(9.05 11.03)" fill="#497393"/><use xlink:href="#d" transform="translate(0 1.42)" fill="#497393"/><defs><path id="a" d="M.008 6.737l-.005.22C.002 7.056 0 7.15 0 7.25c.026 3.246.763 4.576 1.617 6.116l.142.256c.922 1.591 1.82 3.429 1.797 6.824-.005 4.855.898 7.396 1.659 8.677.838 1.394 1.354 2.005 2.774 2.005 1.35 0 2.147-1.163 2.235-2.292.058-.578.068-1.242.08-1.946.025-1.597.057-3.585.653-5.596l.018-.058c.249-.812.53-1.734 1.073-2.551.312-.468.973-.943 1.634-.943.519 0 .974.31 1.352.919.527.85.843 1.766 1.103 2.625.6 2.015.86 4.35.694 6.245-.111 1.27.13 2.24.718 2.88a2.16 2.16 0 0 0 1.559.717c1.342 0 1.94-.619 2.773-2.008.759-1.276 1.663-3.816 1.659-8.68-.023-3.387.876-5.227 1.81-6.838l.125-.228c.855-1.54 1.592-2.871 1.621-6.132 0-.113-.002-.229-.004-.35l-.003-.18c-.087-2.335-.95-3.99-2.722-5.213C22.934.533 20.924 0 18.705 0h-.062c-1.787 0-3.662.365-5.01.974l-.085.037-.079-.035C12.405.494 11.002.162 9.52.043a.849.849 0 0 0-.087-.002L7.037.072a.86.86 0 0 0-.094.006C5.287.265 3.83.756 2.721 1.505.956 2.725.094 4.379.008 6.737zm3.78-3.67c.84-.568 1.987-.95 3.323-1.105l2.303-.03c1.236.102 2.426.38 3.281.769l.441.196 3.182 1.688a.947.947 0 0 0 1.278-.391.945.945 0 0 0-.392-1.278l-1.324-.702a12.254 12.254 0 0 1 2.764-.324h.063c1.818 0 3.496.429 4.595 1.17 1.267.874 1.835 1.986 1.899 3.701l.002.169c.003.107.004.211.005.304-.025 2.773-.596 3.801-1.384 5.224l-.119.215c-1.007 1.74-2.08 3.919-2.054 7.775.005 4.661-.87 6.828-1.392 7.702-.643 1.074-.764 1.088-1.136 1.088-.26-.03-.497-.523-.407-1.541.188-2.152-.091-4.686-.767-6.955-.285-.938-.663-2.04-1.307-3.076-.725-1.17-1.776-1.813-2.959-1.813-1.397 0-2.618.898-3.209 1.788-.694 1.047-1.032 2.153-1.305 3.043l-.02.064c-.672 2.268-.706 4.4-.733 6.112-.012.692-.022 1.29-.073 1.81 0 .007-.067.568-.352.568-.452 0-.499 0-1.152-1.084-.521-.878-1.395-3.047-1.39-7.7.026-3.865-1.046-6.043-2.043-7.762l-.134-.243C2.484 11.027 1.914 10 1.892 7.242l.007-.461c.062-1.734.63-2.846 1.89-3.715z"/><path id="b" d="M.938 6.758c.302.006 2.889.168 2.889 3.926a.945.945 0 0 0 1.89 0c0-3.763 2.593-3.92 2.88-3.926a.946.946 0 0 0 0-1.89c-2.827 0-2.88-3.767-2.88-3.925A.945.945 0 0 0 4.773 0h-.002a.945.945 0 0 0-.944.94c-.001.162-.054 3.93-2.881 3.93H.933a.945.945 0 0 0 .005 1.89zM4.772 4.56c.281.479.636.92 1.078 1.28a4.651 4.651 0 0 0-1.078 1.172A4.677 4.677 0 0 0 3.694 5.84a4.71 4.71 0 0 0 1.078-1.28z"/><path id="c" d="M.938 6.653c.293.007 2.805.166 2.805 3.821a.946.946 0 0 0 1.89 0c0-3.662 2.52-3.815 2.8-3.82a.945.945 0 0 0 0-1.89c-2.747 0-2.798-3.668-2.8-3.821A.943.943 0 0 0 4.691 0H4.69a.947.947 0 0 0-.946.94c0 .157-.052 3.824-2.798 3.824H.93a.944.944 0 0 0 .008 1.889zm3.751-2.13c.27.451.605.868 1.022 1.21-.373.29-.723.656-1.022 1.111-.3-.455-.65-.821-1.022-1.11A4.604 4.604 0 0 0 4.69 4.521z"/><path id="d" d="M.945 5.259c.174 0 1.703.068 1.703 2.425a.945.945 0 0 0 1.89 0c0-2.262 1.43-2.417 1.703-2.425a.945.945 0 1 0 0-1.89c-1.636 0-1.7-2.181-1.703-2.427 0-.52-.421-.94-.94-.942h-.004c-.52 0-.942.42-.946.94-.002.248-.066 2.429-1.703 2.429a.945.945 0 1 0 0 1.89zm2.649-1.284c.091.122.191.24.3.349a3.37 3.37 0 0 0-.3.32 3.53 3.53 0 0 0-.301-.32c.108-.11.208-.227.3-.35z"/></defs></svg>