<svg width="34" height="30" viewBox="0 0 34 30" xmlns="http://www.w3.org/2000/svg" xmlns:xlink="http://www.w3.org/1999/xlink"><title>dollar</title><desc>Created using Figma</desc><use xlink:href="#a" transform="translate(10.408 4.432)" fill="#497393"/><use xlink:href="#b" fill="#497393"/><use xlink:href="#c" transform="translate(0 23.864)" fill="#497393"/><use xlink:href="#c" transform="translate(0 27.955)" fill="#497393"/><defs><path id="a" d="M6.592 0C2.957 0 0 2.906 0 6.477c0 3.572 2.957 6.477 6.592 6.477s6.592-2.905 6.592-6.477C13.184 2.906 10.227 0 6.592 0zm0 10.91c-2.487 0-4.51-1.989-4.51-4.433 0-2.443 2.023-4.432 4.51-4.432 2.487 0 4.51 1.989 4.51 4.432 0 2.444-2.023 4.432-4.51 4.432z"/><path id="b" d="M0 0v21.818h34V0H0zm2.082 2.045H6.14c-.415 2.001-2.022 3.58-4.058 3.988V2.045zm0 17.728v-3.988c2.036.407 3.643 1.987 4.058 3.988H2.082zm29.836 0H27.86c.415-2.001 2.022-3.58 4.058-3.988v3.988zm0-6.063c-3.186.45-5.712 2.932-6.17 6.063H8.252c-.458-3.13-2.984-5.614-6.17-6.063V8.108c3.186-.45 5.712-2.932 6.17-6.063h17.496c.458 3.131 2.984 5.614 6.17 6.063v5.602zm0-7.677c-2.036-.407-3.643-1.987-4.058-3.988h4.058v3.988z"/><path id="c" d="M34 0H0v2.045h34V0z"/></defs></svg>