<svg width="28" height="34" viewBox="0 0 28 34" xmlns="http://www.w3.org/2000/svg" xmlns:xlink="http://www.w3.org/1999/xlink"><title>protection</title><desc>Created using Figma</desc><use xlink:href="#a" transform="translate(5.475 9.023)" fill="#497393"/><use xlink:href="#b" fill="#497393"/><defs><path id="a" d="M16 3.3C15.489 1.812 14.43.714 13.1.287 10.92-.412 9.08.321 8.167.83 7.253.32 5.414-.411 3.234.288 1.903.715.844 1.813.333 3.302c-.657 1.907-.33 4.102.874 5.87A8 8 0 0 1 2.56 12.74c.418 3.247 1.29 4.892 2.668 5.03.054.005.106.008.158.008 1.765 0 2.372-3.054 2.577-4.911.044-.403.122-.69.205-.896.083.205.161.493.206.896.21 1.912.847 5.091 2.735 4.903 1.376-.138 2.25-1.783 2.667-5.03l.028-.206c.164-1.167.623-2.33 1.326-3.366 1.203-1.768 1.528-3.962.872-5.868zm-2.52 4.747c-.875 1.286-1.446 2.741-1.652 4.21l-.031.228c-.218 1.688-.539 2.596-.768 3.024-.227-.5-.519-1.479-.671-2.861-.097-.879-.341-1.598-.725-2.139a1.8 1.8 0 0 0-2.93 0c-.384.54-.627 1.26-.724 2.139-.153 1.382-.445 2.36-.671 2.861-.23-.428-.551-1.336-.769-3.024a9.996 9.996 0 0 0-1.682-4.436c-.851-1.25-1.09-2.783-.637-4.098.305-.887.897-1.53 1.624-1.763 2.031-.651 3.643.56 3.705.607l.603.513.628-.509c.067-.052 1.679-1.262 3.71-.61.726.232 1.318.874 1.624 1.761.452 1.314.215 2.846-.635 4.096z"/><path id="b" d="M26.465 7.72C20.912 6.707 14.387.693 14.321.633L13.641 0l-.679.632C12.897.692 6.381 6.705.82 7.721L0 7.87v8.78c0 4.262 1.57 8.361 4.308 11.246 2.02 2.127 8.58 5.694 8.858 5.845l.476.258.475-.258c.279-.15 6.839-3.718 8.858-5.845 2.738-2.884 4.309-6.984 4.309-11.247V7.87l-.819-.15zm-1.177 8.93c0 3.757-1.37 7.355-3.76 9.873-1.38 1.454-5.785 4.038-7.886 5.203-2.1-1.165-6.506-3.75-7.886-5.203-2.39-2.518-3.76-6.116-3.76-9.873V9.506C6.833 8.291 11.847 4.25 13.642 2.7c1.794 1.55 6.809 5.592 11.646 6.807v7.144z"/></defs></svg>