<svg width="32" height="34" viewBox="0 0 32 34" xmlns="http://www.w3.org/2000/svg" xmlns:xlink="http://www.w3.org/1999/xlink"><title>documentation</title><desc>Created using Figma</desc><use xlink:href="#a" fill="#497393"/><use xlink:href="#b" transform="translate(4.716 8.993)" fill="#497393"/><use xlink:href="#b" transform="translate(4.716 13.144)" fill="#497393"/><use xlink:href="#c" transform="translate(4.716 17.294)" fill="#497393"/><use xlink:href="#b" transform="translate(4.716 4.842)" fill="#497393"/><use xlink:href="#d" transform="translate(25.6)" fill="#497393"/><defs><path id="a" d="M0 29.746h16.924l4.634-4.758v6.833H0v2.076h23.579V0H0v29.746zm17.516-3.543V23.52h2.613l-2.613 2.683zM2.02 2.075h19.537v19.37h-6.063v6.226H2.02V2.075z"/><path id="b" d="M14.147 0H0v2.075h14.147V0z"/><path id="c" d="M14.147 0H0v2.075h14.147V0z"/><path id="d" d="M4.21 2.075V0H2.19v2.075H0v25.859L3.2 34l3.2-6.066V2.075H4.21zm.169 25.333L3.2 29.643l-1.179-2.235V8.3h2.358v19.107zm0-21.182H2.02V4.151h2.358v2.075z"/></defs></svg>