<svg width="34" height="34" viewBox="0 0 34 34" xmlns="http://www.w3.org/2000/svg" xmlns:xlink="http://www.w3.org/1999/xlink"><title>tasks</title><desc>Created using Figma</desc><use xlink:href="#a" transform="translate(11.796)" fill="#497393"/><use xlink:href="#b" transform="translate(0 12.49)" fill="#497393"/><defs><path id="a" d="M5.204 10.408a5.21 5.21 0 0 0 5.204-5.204A5.21 5.21 0 0 0 5.204 0 5.21 5.21 0 0 0 0 5.204a5.21 5.21 0 0 0 5.204 5.204zm0-8.326c1.722 0 3.123 1.4 3.123 3.122S6.926 8.327 5.204 8.327a3.126 3.126 0 0 1-3.122-3.123c0-1.722 1.4-3.122 3.122-3.122z"/><path id="b" d="M24.87 13.878l-.999-4.164h1.803v-1.04C25.674 3.89 21.782 0 17 0c-4.783 0-8.673 3.89-8.673 8.673v1.041h1.802l-1 4.164H0v7.632h15.96v-7.632h-4.69l1-4.164h3.69v2.082h2.08V9.714h3.69l1 4.164h-4.69v7.632H34v-7.632h-9.13zm-10.992 2.081v3.47H2.082v-3.47h11.796zm2.081-8.326H10.49a6.607 6.607 0 0 1 5.47-5.468v5.468zm2.082 0V2.165a6.607 6.607 0 0 1 5.469 5.468h-5.47zm13.877 11.796H20.122v-3.47h11.796v3.47z"/></defs></svg>