<svg width="34" height="34" viewBox="0 0 34 34" xmlns="http://www.w3.org/2000/svg" xmlns:xlink="http://www.w3.org/1999/xlink"><title>clock</title><desc>Created using Figma</desc><use xlink:href="#a" fill="#497393"/><use xlink:href="#b" transform="translate(4.163 4.163)" fill="#497393"/><defs><path id="a" d="M29.02 4.98A16.888 16.888 0 0 0 17 0C12.46 0 8.19 1.768 4.98 4.98A16.889 16.889 0 0 0 0 17c0 4.54 1.768 8.81 4.98 12.02A16.879 16.879 0 0 0 17 34c4.54 0 8.81-1.768 12.02-4.98A16.879 16.879 0 0 0 34 17c0-4.54-1.768-8.81-4.98-12.02zM17 31.917C8.774 31.918 2.082 25.226 2.082 17 2.082 8.774 8.774 2.082 17 2.082c8.226 0 14.918 6.692 14.918 14.918 0 8.226-6.692 14.918-14.918 14.918z"/><path id="b" d="M12.837 0C5.759 0 0 5.758 0 12.837c0 7.078 5.759 12.837 12.837 12.837 7.078 0 12.837-5.759 12.837-12.837C25.674 5.758 19.915 0 12.837 0zm8.302 19.667l-1.433-1.433-1.472 1.472 1.433 1.433a10.708 10.708 0 0 1-5.79 2.402v-2.03h-2.081v2.03a10.706 10.706 0 0 1-5.79-2.402l1.434-1.433-1.472-1.472-1.433 1.433a10.707 10.707 0 0 1-2.403-5.79h2.031v-2.081h-2.03a10.707 10.707 0 0 1 2.402-5.79L5.968 7.44 7.44 5.968 6.007 4.535a10.707 10.707 0 0 1 5.789-2.403v2.031h2.082v-2.03a10.707 10.707 0 0 1 5.789 2.402l-1.433 1.433 1.472 1.472 1.433-1.433a10.706 10.706 0 0 1 2.402 5.789h-8.903a2.095 2.095 0 0 0-.76-.76V6.244h-2.082v4.79a2.082 2.082 0 0 0 1.04 3.883c.77 0 1.442-.419 1.802-1.04h8.903a10.707 10.707 0 0 1-2.402 5.789z"/></defs></svg>