<svg width="34" height="34" viewBox="0 0 34 34" xmlns="http://www.w3.org/2000/svg" xmlns:xlink="http://www.w3.org/1999/xlink"><title>anesthesia</title><desc>Created using Figma</desc><use xlink:href="#a" fill="#497393"/><defs><path id="a" d="M28.547 6.864L34 1.41 32.59 0l-5.454 5.453-6.504-2.119L4.756 19.21l-2.272-2.27-1.41 1.41 5.18 5.18-3.359 3.359-1.484-1.485L0 26.813 7.186 34l1.41-1.41-1.484-1.485 3.358-3.359 5.18 5.18 1.412-1.41-2.272-2.272 15.876-15.876-2.12-6.504zM5.7 29.694l-1.395-1.395 3.358-3.359 1.396 1.396L5.7 29.694zm7.678-1.86L6.166 20.62l3.29-3.289 2.99 2.99 1.41-1.41-2.99-2.99 2.33-2.331 2.99 2.99 1.412-1.41-2.99-2.99 2.33-2.331 2.99 2.99 1.41-1.41-2.99-2.991 2.83-2.829 5.44 1.772 1.772 5.44-15.011 15.012z"/></defs></svg>