<svg width="34" height="28" viewBox="0 0 34 28" xmlns="http://www.w3.org/2000/svg" xmlns:xlink="http://www.w3.org/1999/xlink"><title>dental-care</title><desc>Created using Figma</desc><use xlink:href="#a" transform="translate(0 15.203)" fill="#497393"/><use xlink:href="#b" transform="translate(16.477)" fill="#497393"/><defs><path id="a" d="M33.855 5.287a3.135 3.135 0 0 0-1.427-1.811 2.792 2.792 0 0 0-2.26-.256l-6.75 2.142-7.663-4.336c-1.902-1.075-4.06-1.315-6.08-.674l-3.464 1.25V.67H0v10.642h6.21v-.93l4.411-1.351 9.768 3.767L31.98 9.119a2.847 2.847 0 0 0 1.715-1.517 3.191 3.191 0 0 0 .16-2.315zm-29.635 4H1.99V2.693h2.23v6.596zm27.684-2.566a.867.867 0 0 1-.517.467l-10.935 3.47-9.757-3.763L6.21 8.268v-4.52l4.076-1.471c1.488-.467 3.085-.284 4.5.517l8.41 4.757 7.564-2.4a.85.85 0 0 1 .687.085c.24.138.42.37.507.654.087.284.069.579-.051.831z"/><path id="b" d="M15.006 3.164c-.483-1.426-1.482-2.48-2.74-2.89-2.024-.659-3.735.015-4.606.5C6.788.29 5.077-.385 3.053.274 1.795.685.796 1.739.313 3.167c-.617 1.822-.31 3.918.82 5.607a7.562 7.562 0 0 1 1.246 3.34c.394 3.104 1.225 4.678 2.54 4.812.593.06 1.422-.209 2.007-1.83.276-.764.492-1.782.61-2.863.029-.268.074-.48.124-.645.05.166.095.377.124.645.117 1.081.334 2.099.61 2.864.537 1.489 1.28 1.836 1.857 1.836.051 0 .1-.002.149-.007 1.316-.134 2.147-1.708 2.54-4.812l.026-.193a7.59 7.59 0 0 1 1.222-3.151c1.13-1.689 1.435-3.784.818-5.605zm-2.464 4.468a9.642 9.642 0 0 0-1.575 4.223c-.183 1.437-.444 2.27-.646 2.708-.202-.506-.433-1.389-.559-2.553-.091-.841-.322-1.532-.686-2.052a1.732 1.732 0 0 0-1.416-.743c-.562 0-1.091.277-1.417.743-.363.52-.594 1.21-.685 2.052-.127 1.164-.358 2.047-.56 2.553-.202-.438-.463-1.271-.645-2.708a9.613 9.613 0 0 0-1.574-4.22C2 6.47 1.781 5.045 2.195 3.824c.277-.818.811-1.41 1.466-1.623 1.824-.594 3.28.483 3.384.563l.604.516.625-.515c.098-.076 1.556-1.16 3.384-.564.655.213 1.19.804 1.466 1.622.414 1.22.197 2.645-.582 3.809z"/></defs></svg>