<svg width="29" height="34" viewBox="0 0 29 34" xmlns="http://www.w3.org/2000/svg" xmlns:xlink="http://www.w3.org/1999/xlink"><title>microscope</title><desc>Created using Figma</desc><use xlink:href="#a" fill="#497393"/><defs><path id="a" d="M18.212 6.245h-3.133V4.163h-2.088V0H6.727v4.163H4.639v13.878h4.176v2.081h2.088v-2.081h4.176v-4.163h3.133A3.13 3.13 0 0 1 21.344 17v5.204H4.639v2.082h6.96v2.081H2.871L0 34h29V17c0-5.93-4.84-10.755-10.788-10.755zM8.815 2.082h2.088v2.081H8.815V2.082zm4.176 13.877H6.727V6.245h6.264v9.714zm.696 8.327h7.657v2.081h-7.657v-2.081zm13.225 7.632H3.013l1.305-3.469h19.114v-1.807a3.813 3.813 0 0 0 1.74.42 3.8 3.8 0 0 0 1.74-.42v5.276zm-1.74-6.938a1.74 1.74 0 0 1-1.74-1.735 1.74 1.74 0 0 1 3.48 0 1.74 1.74 0 0 1-1.74 1.735zm1.74-5.133a3.814 3.814 0 0 0-1.74-.418c-.627 0-1.218.151-1.74.418V17c0-2.87-2.342-5.204-5.22-5.204h-3.133v-3.47h3.133c4.797 0 8.7 3.891 8.7 8.674v2.847z"/></defs></svg>