<svg width="38" height="38" viewBox="0 0 38 38" xmlns="http://www.w3.org/2000/svg" xmlns:xlink="http://www.w3.org/1999/xlink"><title>noun_675649_cc</title><desc>Created using Figma</desc><use xlink:href="#a" transform="translate(9.002 8.49)" fill="#497393"/><use xlink:href="#b" transform="translate(17.844)" fill="#497393"/><use xlink:href="#c" transform="translate(17.844 33.13)" fill="#497393"/><use xlink:href="#d" transform="translate(33.126 18.28)" fill="#497393"/><use xlink:href="#e" transform="translate(0 18.28)" fill="#497393"/><use xlink:href="#f" transform="translate(25.33 2.36)" fill="#497393"/><use xlink:href="#g" transform="translate(8.933 31.14)" fill="#497393"/><use xlink:href="#h" transform="translate(31.044 25.81)" fill="#497393"/><use xlink:href="#i" transform="translate(2.261 9.41)" fill="#497393"/><use xlink:href="#j" transform="translate(30.862 8.85)" fill="#497393"/><use xlink:href="#k" transform="translate(2.367 25.74)" fill="#497393"/><use xlink:href="#l" transform="translate(25.511 31.32)" fill="#497393"/><use xlink:href="#m" transform="translate(8.617 2.83)" fill="#497393"/><defs><path id="a" d="M.006 5.108L0 5.47C.017 7.868.587 8.9 1.191 9.99l.107.191c.646 1.113 1.276 2.399 1.258 4.778-.004 3.554.665 5.426 1.228 6.372.584.975 1.024 1.567 2.214 1.567 1.132 0 1.795-.955 1.862-1.876.043-.429.05-.914.059-1.427.017-1.132.04-2.54.475-4.004.173-.563.368-1.202.736-1.755.18-.273.58-.563.96-.563.104 0 .42 0 .754.539.367.591.593 1.256.765 1.825.424 1.419.607 3.063.49 4.396-.086.988.11 1.75.583 2.266a1.82 1.82 0 0 0 1.311.6c1.082 0 1.575-.506 2.214-1.569.562-.945 1.231-2.816 1.229-6.376-.015-2.374.586-3.613 1.27-4.792l.094-.171c.602-1.09 1.172-2.12 1.195-4.528 0-.075-.002-.151-.005-.23l-.004-.162c-.065-1.743-.74-3.033-2.071-3.952C16.843.397 15.348 0 13.655 0c-1.299 0-2.662.263-3.659.701C9.212.355 8.194.117 7.122.031 7.092.03 7.066.027 7.036.03L5.31.05a.73.73 0 0 0-.094.006c-1.233.14-2.32.508-3.15 1.068C.743 2.04.069 3.331.006 5.108zm3.116-2.436c.565-.38 1.346-.64 2.262-.75l1.63-.02c.858.073 1.68.264 2.264.53l.31.137 2.278 1.21a.935.935 0 0 0 .879-1.653l-.307-.162a9.009 9.009 0 0 1 1.269-.092c1.254 0 2.408.292 3.154.795.59.407 1.2 1.02 1.254 2.454l.008.335c-.018 1.924-.394 2.603-.961 3.63l-.086.156c-.741 1.28-1.53 2.883-1.511 5.72.002 3.293-.605 4.804-.964 5.408-.32.532-.441.636-.453.647a.422.422 0 0 1-.092.009c-.034-.049-.141-.255-.09-.83.138-1.58-.067-3.437-.563-5.096-.208-.69-.485-1.5-.967-2.274-.57-.92-1.402-1.426-2.345-1.426-.967 0-1.956.55-2.52 1.4-.518.78-.777 1.627-.966 2.244l-.018.059c-.493 1.664-.519 3.216-.539 4.462-.008.493-.015.92-.052 1.296a.515.515 0 0 1-.047.164l-.094-.002c-.01 0-.015.001-.015.002-.055-.046-.177-.2-.448-.653-.361-.607-.967-2.118-.964-5.405.021-2.845-.769-4.448-1.501-5.707l-.098-.176c-.568-1.026-.943-1.705-.957-3.62l.004-.323c.053-1.454.664-2.067 1.246-2.469z"/><path id="b" d="M.936 4.873c.516 0 .936-.42.936-.936V.936A.936.936 0 0 0 0 .936v3.001c0 .517.419.936.936.936z"/><path id="c" d="M.936 0A.936.936 0 0 0 0 .935v3.002a.936.936 0 0 0 1.872 0V.935A.936.936 0 0 0 .936 0z"/><path id="d" d="M0 .936c0 .517.419.936.936.936h3.001a.936.936 0 1 0 0-1.872H.936A.936.936 0 0 0 0 .936z"/><path id="e" d="M3.937 1.872a.936.936 0 1 0 0-1.872H.936a.936.936 0 0 0 0 1.872h3.001z"/><path id="f" d="M.473 4.357a.938.938 0 0 0 1.277-.349l1.486-2.609A.936.936 0 1 0 1.61.473L.123 3.08a.934.934 0 0 0 .35 1.276z"/><path id="g" d="M1.609.473L.123 3.08a.935.935 0 1 0 1.626.927L3.235 1.4A.935.935 0 1 0 1.61.473z"/><path id="h" d="M1.4.122A.936.936 0 0 0 .472 1.75l2.609 1.486a.936.936 0 0 0 .927-1.626L1.398.122z"/><path id="i" d="M.472 1.749l2.609 1.485a.936.936 0 0 0 .927-1.626L1.398.123a.935.935 0 1 0-.927 1.626z"/><path id="j" d="M.936 3.402a.931.931 0 0 0 .476-.13l2.584-1.53A.937.937 0 0 0 3.04.13L.46 1.66a.936.936 0 0 0 .477 1.741z"/><path id="k" d="M3.041.13L.46 1.66a.936.936 0 0 0 .953 1.611l2.583-1.53a.936.936 0 0 0-.954-1.61z"/><path id="l" d="M.459.13A.937.937 0 0 0 .13 1.413l1.53 2.581a.936.936 0 1 0 1.61-.954L1.74.458A.938.938 0 0 0 .46.13z"/><path id="m" d="M1.66 3.994a.935.935 0 1 0 1.61-.955L1.742.46a.936.936 0 0 0-1.61.954l1.53 2.581z"/></defs></svg>