<svg width="33" height="38" viewBox="0 0 33 38" xmlns="http://www.w3.org/2000/svg" xmlns:xlink="http://www.w3.org/1999/xlink"><title>Vector</title><desc>Created using Figma</desc><use xlink:href="#a" fill="#FFF"/><defs><path id="a" d="M2.141 16.523c1.147 1.981 2.263 4.27 2.232 8.49-.003 5.945 1.094 9.043 2.019 10.6C7.412 37.31 7.992 38 9.662 38c1.559 0 2.48-1.353 2.581-2.67.07-.704.083-1.519.096-2.38.033-1.978.072-4.44.812-6.943l.024-.078c.31-1.009.66-2.153 1.338-3.176.408-.616 1.277-1.238 2.15-1.238.7 0 1.309.407 1.808 1.213.654 1.054 1.048 2.198 1.374 3.27.744 2.503 1.065 5.404.86 7.758-.132 1.514.151 2.663.84 3.417a2.484 2.484 0 0 0 1.794.827h.002c1.579 0 2.255-.703 3.266-2.39.923-1.551 2.022-4.649 2.018-10.603-.028-4.21 1.089-6.502 2.246-8.504l.154-.278c1.04-1.879 1.939-3.5 1.975-7.474 0-.13-.003-.261-.005-.399l-.005-.25c-.105-2.816-1.143-4.812-3.276-6.286C27.98.645 25.54 0 22.847 0h-.083c-2.177 0-4.456.444-6.089 1.184l-.176.078-.165-.073C15.044.6 13.34.198 11.532.053A.976.976 0 0 0 11.44.05L8.492.088a.913.913 0 0 0-.098.006c-2.011.227-3.778.824-5.117 1.73C1.152 3.29.114 5.286.009 8.13l-.005.27C.002 8.523 0 8.64 0 8.76c.033 3.956.932 5.577 1.97 7.455l.171.308zM1.993 8.44l.004-.263c.081-2.194.801-3.603 2.401-4.708.965-.653 2.253-1.107 3.743-1.33l3.955 4.076H7.591a.997.997 0 0 0-.738 1.664l5.473 6.056a.992.992 0 0 0 1.404.071.995.995 0 0 0 .071-1.405L9.833 8.207h4.616a.998.998 0 0 0 .713-1.689l-4.335-4.469.59-.008c1.544.129 3.034.478 4.102.964l.546.242 3.92 2.083a.996.996 0 0 0 .933-1.759L18.91 2.505a15.004 15.004 0 0 1 3.854-.513h.083c2.267 0 4.366.538 5.746 1.47 1.607 1.11 2.327 2.521 2.408 4.692l.004.238c.003.124.005.243.005.351-.032 3.46-.742 4.742-1.725 6.516l-.146.266c-1.228 2.125-2.535 4.787-2.503 9.49.004 5.785-1.087 8.483-1.736 9.575-.847 1.412-1.029 1.42-1.551 1.42a.54.54 0 0 1-.35-.197c-.162-.186-.416-.68-.311-1.884.23-2.628-.112-5.725-.937-8.503-.368-1.208-.815-2.5-1.59-3.748-.86-1.388-2.103-2.152-3.498-2.152-1.656 0-3.106 1.068-3.808 2.128-.837 1.264-1.25 2.611-1.582 3.692l-.027.088c-.82 2.774-.862 5.386-.895 7.486-.013.855-.026 1.594-.089 2.237 0 .01-.08.853-.6.853-.629 0-.71 0-1.562-1.417-.65-1.095-1.74-3.795-1.736-9.571.034-4.715-1.274-7.373-2.49-9.477l-.163-.294c-.983-1.775-1.693-3.057-1.721-6.5-.002-.1 0-.203.003-.312z"/></defs></svg>