<svg width="115" height="53" viewBox="0 0 115 53" xmlns="http://www.w3.org/2000/svg"><title>RA Studio</title><defs><radialGradient cx="69.002%" cy="29%" fx="69.002%" fy="29%" r="76.942%" gradientTransform="matrix(1 0 0 .97742 0 .007)" id="a"><stop stop-color="#85589F" offset="0%"/><stop stop-color="#6C4C86" offset="33%"/><stop stop-color="#403159" offset="100%"/></radialGradient></defs><g fill="none" fill-rule="evenodd"><path d="M21.002.61c.419-.053.84-.073 1.262-.062a.984.984 0 0 1 .395.057c-.172.037-.34.09-.501.158-.27.127-.568.18-.84.305-.273.124-.506.253-.762.366-.34.178-.704.302-1.028.51-.751.384-1.451.854-2.17 1.283a9.67 9.67 0 0 1-.75.515c-.53.381-1.045.79-1.577 1.164-.458.396-.947.74-1.397 1.142-.34.257-.633.57-.968.832a43.543 43.543 0 0 0-2.383 2.294c-.552.607-1.184 1.141-1.74 1.736-.394.396-.765.815-1.136 1.233v-.038c.31-.38.552-.81.826-1.216.803-1.155 1.628-2.3 2.533-3.376a5.29 5.29 0 0 0 .466-.568c.152-.213.359-.377.519-.593.32-.395.7-.73 1.04-1.107.374-.36.735-.734 1.13-1.07a18.494 18.494 0 0 1 2.504-1.915 13.53 13.53 0 0 1 2.054-1.093c.156-.034.298-.117.452-.152.678-.198 1.367-.41 2.08-.416l-.01.01zm19.625 7.45c.074.03.141.076.197.133 1.126.791 2.24 1.594 3.294 2.482.21.194.432.374.665.54.23.198.428.421.663.605.228.195.445.4.653.617a24.348 24.348 0 0 1 2.085 2.259c.331.429.68.844.972 1.303a16.48 16.48 0 0 1 1.036 1.8c.385.785.675 1.615.864 2.47.035.077-.014.197.07.249.115.536.203 1.078.263 1.623.02.396.018.791.043 1.2-.471-1.86-1.323-3.599-2.298-5.242a27.467 27.467 0 0 0-1.62-2.389 39.253 39.253 0 0 0-2.494-3.128 44.227 44.227 0 0 0-2.728-2.817c-.419-.41-.801-.856-1.233-1.253-.154-.139-.294-.295-.432-.447V8.06zM.558 29.42c.016.11.04.22.071.326.125.285.178.594.298.882.183.57.403 1.126.657 1.667a27.299 27.299 0 0 0 1.992 3.546c.27.352.476.75.773 1.08.689.999 1.456 1.94 2.24 2.864a43.307 43.307 0 0 0 3.23 3.387c.41.414.79.853 1.225 1.246.12.11.23.234.34.354a.621.621 0 0 1-.198-.134 42.946 42.946 0 0 1-3.686-2.82 8.324 8.324 0 0 1-.866-.752c-.347-.267-.632-.593-.955-.896a23.473 23.473 0 0 1-2.17-2.446 15.95 15.95 0 0 1-1.264-1.877 12.347 12.347 0 0 1-1.105-2.57c-.124-.367-.171-.75-.288-1.118-.11-.506-.173-1.02-.235-1.535 0-.395-.037-.805-.059-1.206v.002zm43.247 12.162c.27-.27.495-.581.789-.838 0 .095-.113.11-.139.198a42.76 42.76 0 0 1-3.517 4.762c-.244.362-.576.646-.846.988a27.919 27.919 0 0 1-2.205 2.152c-.395.35-.805.659-1.205.989a14.39 14.39 0 0 1-3.373 1.906 6.15 6.15 0 0 1-2.02.49 6.926 6.926 0 0 1-1.138.072c-.348.057-.695-.048-1.046 0 .337-.08.667-.19.986-.326.478-.184.951-.38 1.413-.594.591-.308 1.213-.593 1.795-.925.591-.396 1.219-.722 1.775-1.15.428-.235.777-.58 1.184-.84a42.857 42.857 0 0 0 5.799-5.141c.59-.582 1.181-1.15 1.748-1.743z" fill="#A385BA"/><path d="M95.377 17.079c.1-.03.203-.04.306-.034h1.134c.109-.02.22.018.296.099.038.118.054.242.047.366v14.52c0 .198 0 .396-.012.606a.395.395 0 0 1-.262.328 7.56 7.56 0 0 1-2.337.666 13.97 13.97 0 0 1-2.81.101 4.375 4.375 0 0 1-2.564-1.062 4.599 4.599 0 0 1-1.321-2.328 10.6 10.6 0 0 1-.28-2.73 9.29 9.29 0 0 1 .366-2.47 5.522 5.522 0 0 1 1.454-2.435 4.454 4.454 0 0 1 2.093-1.121c.807-.184 1.641-.133 2.458-.07.452.053.898.145 1.333.275v-4.418a.345.345 0 0 1 .101-.3l-.002.006zm-3.128 6.172a2.875 2.875 0 0 0-1.892 1.163c-.616.868-.829 1.953-.86 3-.03 1.014.025 2.07.463 3.002.27.62.77 1.11 1.395 1.364.76.3 1.596.29 2.393.188a6.692 6.692 0 0 0 1.524-.344c.008-2.679.008-5.359 0-8.039a7.311 7.311 0 0 0-1.99-.374 4.132 4.132 0 0 0-1.031.038l-.002.002zm8.679-5.963a1.223 1.223 0 0 1 1.022.172c.379.271.587.722.548 1.187a1.258 1.258 0 0 1-1.205 1.204 1.275 1.275 0 0 1-1.288-1.27 1.309 1.309 0 0 1 .925-1.293h-.002zm-41.116.277a10.192 10.192 0 0 1 1.832-.018c1.116.073 2.214.318 3.255.726.154.054.302.127.438.218.08.128.08.292 0 .42-.162.41-.298.83-.471 1.235-.036.144-.198.097-.292.053a10.382 10.382 0 0 0-3.946-.814 3.37 3.37 0 0 0-1.617.383c-.46.254-.798.681-.943 1.187a2.012 2.012 0 0 0 .268 1.665c.36.49.894.81 1.428 1.08 1.253.603 2.565 1.066 3.815 1.685.904.458 1.754 1.111 2.24 2.023.465.832.514 1.831.38 2.757a3.987 3.987 0 0 1-1.807 2.758c-.92.594-2.02.805-3.095.84-1.775.032-3.57-.213-5.201-.919a5.923 5.923 0 0 1-.525-.26.305.305 0 0 1-.07-.396c.166-.378.328-.758.49-1.138a.433.433 0 0 1 .187-.25.534.534 0 0 1 .29.074c.977.448 2.01.76 3.072.93a6.975 6.975 0 0 0 2.779-.063c.635-.166 1.266-.5 1.625-1.07.35-.609.43-1.337.22-2.007-.237-.703-.841-1.187-1.462-1.553-1.139-.647-2.405-1.009-3.58-1.582-.8-.376-1.588-.819-2.192-1.475a3.247 3.247 0 0 1-.872-1.913 4.484 4.484 0 0 1 .347-2.323 3.705 3.705 0 0 1 1.643-1.73 5.119 5.119 0 0 1 1.776-.519l-.012-.004zm10.677 1.187a.38.38 0 0 1 .395 0c.034.12.05.243.05.368v2.604c.788.024 1.593 0 2.392.01a.215.215 0 0 1 .252.184c.024.382.029.765.014 1.147a.214.214 0 0 1-.197.26c-.82.02-1.643-.013-2.464.017v7.222c-.03.388.076.775.3 1.094.272.302.704.37 1.09.38.628-.013 1.25-.12 1.875-.179l.087.073c.086.273.112.564.175.843.054.189.069.386.045.581a.53.53 0 0 1-.242.129c-.74.203-1.507.3-2.275.285-.751 0-1.578-.113-2.158-.643-.591-.576-.735-1.442-.755-2.23-.012-2.52 0-5.042 0-7.563-.54-.014-1.081 0-1.621 0a.229.229 0 0 1-.23-.255c0-.271-.011-.54 0-.811a.371.371 0 0 1 .303-.318c.55-.123 1.106-.228 1.656-.352.119-.71.225-1.424.342-2.134a.481.481 0 0 1 .146-.32 3.72 3.72 0 0 1 .828-.374l-.008-.018zm38.777 2.757a5.903 5.903 0 0 1 2.444.197c.662.206 1.26.58 1.736 1.086a5.411 5.411 0 0 1 1.21 2.254c.267 1.057.365 2.15.289 3.238-.063 1.111-.278 2.24-.823 3.221a4.22 4.22 0 0 1-1.745 1.733 5.367 5.367 0 0 1-2.61.532 4.714 4.714 0 0 1-2.84-.89 4.511 4.511 0 0 1-1.474-2.112 9.598 9.598 0 0 1-.462-3.285 7.604 7.604 0 0 1 .758-3.423 4.552 4.552 0 0 1 3.517-2.551zm.197 1.669a2.623 2.623 0 0 0-1.4.725 3.817 3.817 0 0 0-.957 1.7 6.793 6.793 0 0 0-.257 1.745c-.021.74.037 1.48.174 2.207.104.576.342 1.118.696 1.582.379.476.918.797 1.515.904.728.125 1.523.081 2.17-.296.75-.435 1.213-1.23 1.428-2.051a9.27 9.27 0 0 0 .197-3.083 5.388 5.388 0 0 0-.467-1.94 2.67 2.67 0 0 0-1.495-1.385 3.506 3.506 0 0 0-1.608-.114l.004.006zm-33.241-1.472c.187-.038.379-.05.57-.035.335.01.672-.02 1.008.015.148.018.173.198.17.313v5.959c-.008.627.04 1.253.141 1.872a2.8 2.8 0 0 0 .574 1.311 2.27 2.27 0 0 0 1.239.697c.418.09.845.137 1.272.14a14.01 14.01 0 0 0 2.095-.184c.016-.14.02-.282.014-.423v-9.295a.652.652 0 0 1 .05-.316.406.406 0 0 1 .311-.081h1.136a.42.42 0 0 1 .312.083.61.61 0 0 1 .053.316v9.771c.02.413-.105.819-.351 1.15-.294.328-.703.53-1.142.565-.643.083-1.292.125-1.941.146a9.938 9.938 0 0 1-2.46-.164 3.493 3.493 0 0 1-2.854-2.672 10.59 10.59 0 0 1-.31-2.707v-6.089c0-.125-.016-.295.113-.362v-.01zm24.203.042a1.1 1.1 0 0 1 .394-.042h1.065a.25.25 0 0 1 .243.113c.027.125.04.253.036.382v10.572c.009.198 0 .397-.028.593a.22.22 0 0 1-.245.135h-1.136a.608.608 0 0 1-.394-.077.51.51 0 0 1-.063-.323V22.058a.315.315 0 0 1 .12-.32l.008.01zm12.76 13.792c.146-.038.107.211.247.217a.358.358 0 0 0 .507-.221c.104.025.284-.014.335.103a.712.712 0 0 1-.76.506.699.699 0 0 1-.591-.54.766.766 0 0 1 .27-.067l-.008.002zm-57.691.05h.525c.367.899.747 1.795 1.106 2.699l.071-.066c.314-.876.618-1.754.927-2.63.157-.015.315-.018.472-.01-.316.922-.679 1.83-1.01 2.747-.15.372-.255.781-.527 1.088a.805.805 0 0 1-1.006.118c.023-.116.056-.23.099-.342a.917.917 0 0 0 .481 0 .555.555 0 0 0 .284-.336.915.915 0 0 0-.112-.31c-.438-.988-.875-1.977-1.312-2.967l.002.008zm6.707.78c.443-.057.929-.099 1.34.119.33.187.55.52.593.896.097.469-.018.958-.316 1.333a1.339 1.339 0 0 1-1.2.32c-.164-.033-.32-.1-.457-.198-.01.455 0 .91 0 1.365h-.456v-3.728c.16-.045.326-.073.49-.1l.006-.007zm.17.37a1.518 1.518 0 0 0-.198.057c-.01.53-.018 1.062 0 1.592.286.263.693.346 1.06.218a.815.815 0 0 0 .455-.674c.047-.362 0-.791-.282-1.043-.282-.25-.695-.215-1.036-.148v-.002zm2.958-.372a2.097 2.097 0 0 1 1.1.058.71.71 0 0 1 .435.627c.031.468 0 .939.016 1.408a.258.258 0 0 0 .278.221c.01.116.005.232-.016.346a.74.74 0 0 1-.458 0 .594.594 0 0 1-.197-.358c-.161.17-.366.293-.592.354a1.222 1.222 0 0 1-1.014-.142c-.357-.309-.325-.908-.031-1.25a5.626 5.626 0 0 1 1.578-.237c0-.198.012-.473-.197-.594a1.458 1.458 0 0 0-.884-.033c-.16.055-.322.1-.487.136-.022-.12-.109-.255-.054-.372.167-.068.34-.122.515-.164h.008zm.47 1.408c-.216.02-.428.068-.632.14-.124.23-.116.594.158.709.4.115.83-.004 1.115-.307a2.82 2.82 0 0 0 0-.581c-.209 0-.417.012-.624.035l-.017.004zm8.347-1.406c.436-.12.903-.024 1.255.26.264.326.357.76.25 1.166l-.063.026h-1.935a.79.79 0 0 0 .576.79c.414.096.848.05 1.233-.13.046.122.083.247.11.374-.29.14-.61.207-.932.198a1.489 1.489 0 0 1-1.107-.362 1.468 1.468 0 0 1-.34-1.25c.071-.52.446-.945.951-1.08l.002.008zm.093.364a.779.779 0 0 0-.61.724h1.618c0-.24-.057-.528-.284-.655a1.057 1.057 0 0 0-.724-.07v.001zm8.719-.364c.435-.12.902-.024 1.254.26.264.326.357.758.25 1.164l-.06.028h-1.94a.803.803 0 0 0 .579.79c.414.097.848.05 1.232-.13.046.122.083.247.111.374-.29.14-.61.207-.933.198a1.489 1.489 0 0 1-1.107-.362 1.464 1.464 0 0 1-.339-1.25c.07-.52.446-.945.95-1.08l.003.008zm.093.364a.779.779 0 0 0-.608.724h1.617c0-.24-.057-.528-.284-.655a1.057 1.057 0 0 0-.724-.07l-.001.001zm3.907-.366c.49-.065 1.04-.105 1.466.198.426.303.546.876.485 1.369a1.187 1.187 0 0 1-.692 1.03c-.426.175-.91.127-1.292-.129-.012.455 0 .91 0 1.365h-.456c0-1.242-.01-2.486 0-3.728.16-.043.323-.071.49-.1v-.005zm.17.37a1.616 1.616 0 0 0-.197.057c0 .53-.018 1.062 0 1.592.286.263.693.346 1.059.218a.815.815 0 0 0 .455-.674c.048-.362 0-.791-.284-1.045-.284-.253-.692-.215-1.035-.148h.002zm3.174-.37c.435-.12.902-.024 1.254.26.264.326.358.76.25 1.166l-.062.028h-1.94a.805.805 0 0 0 .579.79c.413.097.847.05 1.232-.13.045.122.082.247.11.374a2.248 2.248 0 0 1-1.206.198 1.277 1.277 0 0 1-.924-.455 1.532 1.532 0 0 1-.248-1.147 1.3 1.3 0 0 1 .953-1.082l.002-.002zm.09.364a.779.779 0 0 0-.61.724H91.4c0-.24-.057-.528-.286-.655a1.057 1.057 0 0 0-.724-.07l.002.001zm10.85-.368a2.113 2.113 0 0 1 1.098.06.71.71 0 0 1 .434.625c.032.468 0 .939.018 1.408a.257.257 0 0 0 .278.221 1.19 1.19 0 0 1-.018.346.736.736 0 0 1-.455 0 .594.594 0 0 1-.198-.358c-.161.17-.366.292-.591.354a1.22 1.22 0 0 1-1.014-.144c-.357-.309-.324-.908-.03-1.248a5.624 5.624 0 0 1 1.578-.237c0-.182.02-.406-.132-.538a.74.74 0 0 0-.473-.133 2.053 2.053 0 0 0-.722.127.671.671 0 0 1-.24.063c-.02-.12-.11-.257-.052-.374a3.58 3.58 0 0 1 .514-.166l.004-.006zm.469 1.41c-.216.02-.429.068-.633.14-.125.23-.115.594.158.709.394.11.816-.008 1.098-.305a3.004 3.004 0 0 0 0-.581c-.208 0-.416.013-.623.035v.002zm8.68-1.406c.435-.12.901-.024 1.254.26.263.326.356.76.25 1.166l-.063.028h-1.917a.79.79 0 0 0 .576.79c.414.097.848.051 1.233-.13.045.122.082.247.11.374a2.216 2.216 0 0 1-1.66.087c-.543-.198-.79-.815-.733-1.358a1.312 1.312 0 0 1 .965-1.219l-.016.002zm.092.364a.779.779 0 0 0-.61.724h1.618c0-.24-.057-.528-.286-.655a1.059 1.059 0 0 0-.722-.07v.001zm-51.66-.342h2.192v2.599a3.621 3.621 0 0 1-.442 0v-2.211a28.17 28.17 0 0 0-1.3 0c-.013.735 0 1.473 0 2.21a3.614 3.614 0 0 1-.442 0V36.39h-.007zm8.812 0h.986c.253-.029.509.02.734.138a.64.64 0 0 1 .253.792 1.006 1.006 0 0 1-.235.25c.085.05.167.103.246.16a.76.76 0 0 1-.142 1.118 1.026 1.026 0 0 1-.591.147h-1.263v-2.599l.012-.006zm.477.356c-.025.236-.03.473-.013.71h.666a.44.44 0 0 0 .416-.127.363.363 0 0 0-.232-.567c-.276-.012-.553 0-.827 0l-.01-.016zm0 1.07a3.517 3.517 0 0 0 0 .817h.653c.15.02.301-.005.436-.072a.454.454 0 0 0 .117-.577.49.49 0 0 0-.419-.164h-.789l.002-.004zm2.661-1.426c.637 0 1.275-.012 1.912 0v2.585a3.26 3.26 0 0 1-.442 0v-2.22c-.341-.009-.68 0-1.022 0a.856.856 0 0 0-.02.288 4.86 4.86 0 0 1-.102 1.273c-.05.245-.186.464-.383.617a.787.787 0 0 1-.702.054.83.83 0 0 1 .033-.356c.164.014.363.045.492-.085.135-.208.209-.449.213-.696.047-.489.015-.99.027-1.472l-.006.012zm5.407 0c.147-.01.295-.01.442 0 0 .352-.01.706 0 1.058h1.367c.014-.352 0-.706 0-1.06.147-.01.295-.01.442 0v2.599a3.26 3.26 0 0 1-.442 0c0-.38.01-.762 0-1.141a31.41 31.41 0 0 0-1.365 0c-.018.38 0 .759 0 1.14a3.26 3.26 0 0 1-.442 0v-2.598l-.002.002zm2.937 0c.147-.01.295-.01.442 0 0 .663.01 1.323-.02 1.978.5-.649.97-1.321 1.464-1.978.145-.026.293-.032.44-.018v2.599a3.29 3.29 0 0 1-.444 0c0-.637-.012-1.276.018-1.913a1.24 1.24 0 0 0-.286.335c-.395.526-.777 1.056-1.172 1.582a3.26 3.26 0 0 1-.442 0v-2.599.014zm13.216 0h2.192v2.599a3.6 3.6 0 0 1-.442 0v-2.211c-.433-.01-.865-.01-1.298 0-.014.735 0 1.473 0 2.21a3.26 3.26 0 0 1-.442 0V36.39h-.01zm2.64 0h.5c.28.726.514 1.471.79 2.201h.209c.254-.73.5-1.461.747-2.193a3.6 3.6 0 0 1 .476-.01l.01.046c-.361.988-.716 1.977-1.075 2.966a1.12 1.12 0 0 1-.298.477.742.742 0 0 1-.758.148c0-.118.015-.235.046-.348.134-.046.296-.012.418-.103.197-.125.23-.368.292-.57-.115 0-.23 0-.34-.011a.99.99 0 0 1-.1-.228c-.304-.79-.62-1.582-.92-2.373l.003-.002zm3.075.016c.428-.042.858 0 1.288-.018.318.012.637-.024.955.018v.354c-.296.018-.592 0-.888.01-.01.74 0 1.479 0 2.219h-.456v-2.22c-.296-.015-.591 0-.887-.01v-.353h-.012zm5.5-.016h.455v2.203c.422.007.846.007 1.27 0 .01-.734 0-1.47 0-2.203h.456v2.203h.306c0 .336-.012.674-.03 1.01a1.705 1.705 0 0 1-.335 0c-.04-.197-.03-.395-.051-.593a.762.762 0 0 0-.29-.03h-1.797v-2.598l.015.008zm3.002 0c.147-.011.296-.011.443 0 0 .66 0 1.323-.021 1.978.5-.649.97-1.321 1.463-1.978.146-.025.294-.03.44-.016v2.599a3.26 3.26 0 0 1-.442 0c0-.639-.011-1.276.016-1.913a1.508 1.508 0 0 0-.317.378c-.383.51-.756 1.025-1.14 1.535a3.26 3.26 0 0 1-.442 0v-2.599.016zm5.874 0c.147-.011.295-.011.442 0 0 .66 0 1.323-.022 1.978.501-.649.97-1.321 1.464-1.978.145-.026.293-.032.44-.018v2.599a3.13 3.13 0 0 1-.442 0c0-.637-.012-1.276.015-1.913a1.502 1.502 0 0 0-.317.378c-.383.51-.758 1.027-1.14 1.535a3.26 3.26 0 0 1-.442 0c.01-.855.018-1.715.022-2.581h-.02z" fill="#8D8D8D"/><path d="M25.263.06A5.918 5.918 0 0 1 27.13.1c.744.097 1.478.267 2.19.51a9.458 9.458 0 0 1 1.8.69c.702.29 1.36.674 2.034 1.018.171.118.357.211.536.314.395.297.854.52 1.255.82.667.428 1.278.932 1.925 1.385.91.722 1.807 1.46 2.673 2.233.35.33.71.655 1.07.977.141.152.28.308.433.447.43.395.815.842 1.233 1.254a44.227 44.227 0 0 1 2.728 2.816c.884 1 1.717 2.045 2.495 3.13a27.465 27.465 0 0 1 1.62 2.39c.974 1.643 1.826 3.381 2.298 5.242.163.64.27 1.292.32 1.95.049.532.065 1.067.048 1.602a13.141 13.141 0 0 1-.755 3.88 20.51 20.51 0 0 1-1.404 3.085c-.328.617-.707 1.202-1.076 1.794-.226.312-.435.636-.647.959-.512.63-.938 1.329-1.475 1.94-.592.757-1.227 1.477-1.854 2.205-.286.255-.511.567-.79.838-.565.594-1.157 1.161-1.745 1.733a42.84 42.84 0 0 1-5.8 5.141c-.41.262-.757.608-1.183.841-.564.427-1.183.76-1.775 1.149-.592.338-1.197.619-1.795.925-.464.22-.935.416-1.412.594a6.137 6.137 0 0 1-.987.326 16.64 16.64 0 0 1-1.895.43c-.154.025-.312.017-.466.035-.73.138-1.47 0-2.197-.085a13.025 13.025 0 0 1-1.973-.493c-.493-.134-.953-.364-1.436-.528-.237-.14-.5-.23-.75-.348-.712-.364-1.426-.728-2.11-1.143-.377-.277-.801-.484-1.184-.765a16.854 16.854 0 0 1-1.21-.866c-.666-.463-1.29-.99-1.926-1.484-.325-.3-.688-.557-1.006-.866-.542-.449-1.04-.949-1.578-1.41-.11-.12-.219-.245-.34-.354-.43-.395-.814-.832-1.224-1.246a43.321 43.321 0 0 1-3.231-3.387c-.79-.926-1.553-1.865-2.24-2.864-.299-.33-.502-.73-.772-1.08a27.295 27.295 0 0 1-1.993-3.546 14.009 14.009 0 0 1-.657-1.667c-.12-.286-.171-.593-.297-.882a2.4 2.4 0 0 1-.071-.326 12.413 12.413 0 0 1-.312-2.1 9.537 9.537 0 0 1-.038-1.187c-.011-.18.044-.354.042-.534.026-.697.122-1.39.286-2.068a14.5 14.5 0 0 1 .483-1.614c.344-.945.762-1.862 1.25-2.741a17.15 17.15 0 0 1 .94-1.604c.213-.395.497-.732.73-1.107.232-.376.51-.655.731-1.007.61-.852 1.284-1.657 1.957-2.458.262-.285.485-.61.775-.868.371-.418.736-.843 1.137-1.232.564-.594 1.183-1.13 1.74-1.737a43.543 43.543 0 0 1 2.382-2.294c.335-.263.627-.575.969-.832.447-.396.937-.752 1.396-1.141.535-.38 1.05-.791 1.578-1.167.259-.16.51-.328.75-.514.724-.43 1.424-.902 2.17-1.284.323-.198.688-.332 1.03-.508.258-.115.502-.253.76-.366.26-.113.569-.18.841-.304.114-.052.233-.091.355-.12l.136-.037c.046 0 .095-.023.138-.035l.058-.016h.02c.072-.028.141-.048.22-.073.197-.04.38-.107.57-.158a13.301 13.301 0 0 1 1.604-.254l.03.006zm-12.38 16.156a.966.966 0 0 0-.622.378 1.906 1.906 0 0 0-.252 1.052v15.795c-.023.235.002.47.075.695a.54.54 0 0 0 .426.172h2.004a.762.762 0 0 0 .446-.09.721.721 0 0 0 .106-.446v-7.013c.616-.026 1.233 0 1.849-.012.733.012 1.481-.05 2.2.13.46.095.877.341 1.183.7.357.492.607 1.053.733 1.648.373 1.52.75 3.04 1.12 4.563a.76.76 0 0 0 .216.395c.193.099.41.14.625.117h2.144c.249-.024.298-.34.249-.538-.428-1.717-.866-3.431-1.298-5.142a5.846 5.846 0 0 0-.79-1.932 3.083 3.083 0 0 0-1.183-.95v-.078c.176-.101.363-.178.533-.291a4.373 4.373 0 0 0 1.898-2.903 6.06 6.06 0 0 0-.198-2.943 4.731 4.731 0 0 0-1.814-2.419 5.765 5.765 0 0 0-3.212-.935H13.38a2.19 2.19 0 0 0-.495.043l-.002.004zm19.893 0a1.15 1.15 0 0 0-.69.432c-.17.289-.3.6-.383.925L26.448 33.77c-.079.197-.034.482.197.526.76.023 1.523 0 2.283.01.197 0 .44.02.591-.135.152-.154.198-.44.282-.668.328-1.046.634-2.099.975-3.139 2.072-.009 4.145-.009 6.217 0 .37 1.151.708 2.314 1.067 3.469.034.152.114.29.23.396a.895.895 0 0 0 .441.087h2.282a.406.406 0 0 0 .316-.086.464.464 0 0 0 .04-.46l-5.326-16.35c-.137-.395-.285-.812-.638-1.051-.467-.261-1.02-.182-1.532-.198a5.488 5.488 0 0 0-1.095.051l-.002-.006zm-17.68 2.77a440.33 440.33 0 0 0 0 5.14h3.55a3.814 3.814 0 0 0 1.636-.308 2.27 2.27 0 0 0 1.087-1.226 3.14 3.14 0 0 0-.02-2.209 2.197 2.197 0 0 0-1.438-1.281 4.272 4.272 0 0 0-1.197-.129h-3.622l.004.012zm18.714.67c-.417 1.421-.79 2.855-1.212 4.279-.355 1.248-.727 2.492-1.075 3.744h4.697c-.406-1.412-.826-2.818-1.239-4.228-.36-1.262-.704-2.526-1.067-3.788l-.104-.008z" fill="url(#a)"/><path d="M12.883 16.216a2.19 2.19 0 0 1 .495-.043h5.941a5.765 5.765 0 0 1 3.2.931 4.731 4.731 0 0 1 1.814 2.419c.308.95.375 1.96.198 2.943a4.373 4.373 0 0 1-1.902 2.9c-.17.114-.357.199-.532.292v.079c.467.212.873.537 1.183.947.377.591.644 1.246.79 1.932.431 1.717.869 3.431 1.297 5.142.051.198 0 .514-.248.538-.715.012-1.43 0-2.145 0a1.114 1.114 0 0 1-.625-.117.756.756 0 0 1-.215-.395c-.37-1.521-.748-3.042-1.12-4.563a4.315 4.315 0 0 0-.734-1.647 2.108 2.108 0 0 0-1.184-.7c-.718-.18-1.465-.119-2.2-.13-.615 0-1.232-.015-1.847.011v7.013a.721.721 0 0 1-.107.447.762.762 0 0 1-.446.089h-2.004a.54.54 0 0 1-.426-.172 1.695 1.695 0 0 1-.075-.695V17.642a1.908 1.908 0 0 1 .253-1.052.966.966 0 0 1 .621-.378l.018.004zm2.215 2.77a440.33 440.33 0 0 0 0 5.14h3.55a3.814 3.814 0 0 0 1.636-.308 2.27 2.27 0 0 0 1.087-1.226 3.14 3.14 0 0 0-.02-2.209 2.2 2.2 0 0 0-1.438-1.281 4.272 4.272 0 0 0-1.197-.129h-3.62l.002.012zm17.678-2.77a5.48 5.48 0 0 1 1.097-.047c.513.014 1.065-.065 1.532.198.353.241.501.666.638 1.052l5.325 16.35a.464.464 0 0 1-.043.456.406.406 0 0 1-.316.085h-2.264a.884.884 0 0 1-.442-.087.758.758 0 0 1-.229-.396c-.357-1.155-.698-2.318-1.067-3.469a715.764 715.764 0 0 0-6.217 0c-.342 1.043-.647 2.095-.975 3.139-.079.227-.114.484-.282.668-.168.184-.394.133-.592.135-.761 0-1.522.012-2.282-.01-.235-.044-.28-.336-.197-.526l5.24-16.19c.086-.323.214-.632.384-.919a1.15 1.15 0 0 1 .69-.43v-.009zm1.034 3.436c-.417 1.421-.79 2.855-1.212 4.28-.355 1.247-.727 2.49-1.075 3.743h4.697c-.406-1.412-.826-2.818-1.239-4.228-.36-1.262-.704-2.526-1.067-3.788l-.104-.007z" fill="#FFF"/><path d="M30.928 4.976a4.93 4.93 0 0 1 1.5.427 9.438 9.438 0 0 1 1.664.872c.467.267.907.581 1.311.937.507.382.957.83 1.43 1.252.113.133.245.247.367.368.265.324.582.593.843.928.45.486.838 1.022 1.266 1.526.592.775 1.154 1.56 1.693 2.373.215.342.437.68.66 1.017.081.154.16.308.257.453.264.413.481.852.734 1.273a34.09 34.09 0 0 1 1.613 2.852c.505.994.96 2.013 1.361 3.053.31.744.58 1.503.809 2.275.442 1.534.767 3.118.76 4.722a9.477 9.477 0 0 1-.15 1.644c-.072.44-.17.876-.296 1.305a10.966 10.966 0 0 1-1.429 2.966c-.53.78-1.124 1.515-1.775 2.197-.394.43-.822.823-1.245 1.225-.248.197-.487.42-.723.638-.547.396-1.038.876-1.598 1.258-.637.489-1.302.935-1.961 1.384-.284.147-.533.35-.807.513-.592.36-1.183.694-1.775 1.032a35.724 35.724 0 0 1-5.768 2.94c-.394.125-.74.33-1.136.43-.546.225-1.122.362-1.683.554-.542.15-1.096.247-1.645.37-.42.078-.844.138-1.268.187a5.116 5.116 0 0 1-.862.058 13.598 13.598 0 0 1-1.621-.054c-.13-.012-.255-.051-.385-.07-.62-.04-1.184-.306-1.758-.531a10.9 10.9 0 0 1-1.489-.813c-.37-.211-.694-.494-1.05-.73-.161-.164-.356-.29-.532-.439-.501-.443-1-.89-1.468-1.368-.246-.305-.546-.562-.789-.868a11.634 11.634 0 0 1-.789-.955c-.44-.515-.838-1.064-1.244-1.606-.198-.313-.44-.594-.631-.914-.346-.477-.642-.989-.975-1.471-.063-.12-.124-.244-.197-.358-.264-.41-.485-.845-.73-1.266a36.247 36.247 0 0 1-1.902-3.42c-.44-.91-.864-1.834-1.209-2.786-.171-.33-.254-.694-.394-1.036a22.825 22.825 0 0 1-.868-3.287c-.092-.49-.153-.986-.182-1.485-.035-.257-.013-.518-.055-.775a2.01 2.01 0 0 1 .01-.279c.015-.593.081-1.183.197-1.764.053-.325.125-.646.217-.961.028-.148.11-.277.146-.423a8.7 8.7 0 0 1 .665-1.612c.22-.415.463-.816.73-1.202a15.898 15.898 0 0 1 1.578-1.954c.345-.387.71-.754 1.095-1.1.252-.269.554-.486.822-.742.268-.255.55-.42.803-.658.673-.56 1.38-1.068 2.097-1.582.272-.176.52-.396.809-.538.394-.26.77-.526 1.183-.757.58-.362 1.195-.663 1.775-1.039a35.16 35.16 0 0 1 2.407-1.352c.327-.14.627-.333.959-.47.445-.229.915-.41 1.367-.626.51-.198 1.011-.413 1.52-.61.243-.074.482-.157.714-.256.675-.198 1.342-.43 2.028-.58.306-.099.628-.122.94-.197.232-.038.459-.097.692-.137.232-.04.497-.026.743-.07a1.63 1.63 0 0 1 .312-.02h.312c.065 0 .124 0 .197-.013h.495c.438.023.875.07 1.308.145z" stroke="#A385BA" stroke-width="3.4"/></g></svg>