<svg width="56" height="56" viewBox="0 0 56 56" xmlns="http://www.w3.org/2000/svg" xmlns:xlink="http://www.w3.org/1999/xlink"><title>drone</title><desc>Created using Figma</desc><use xlink:href="#a" fill="#35CCFF"/><use xlink:href="#b" transform="translate(.019 28.984)" fill="#7FA61D"/><use xlink:href="#c" transform="translate(27.995 28.984)" fill="#7FA61D"/><use xlink:href="#d" transform="translate(5.174 28.984)" fill="#006221"/><use xlink:href="#e" transform="translate(27.995 28.984)" fill="#006221"/><use xlink:href="#f" transform="translate(16.355 28.984)" fill="#7FA61D"/><use xlink:href="#g" transform="translate(27.995 28.984)" fill="#7FA61D"/><use xlink:href="#h" transform="translate(15.945 19.103)" fill="#483322"/><use xlink:href="#i" transform="translate(15.287 13.117)" fill="#DB3F02"/><use xlink:href="#j" transform="translate(10.481 13.764)" fill="#FFF"/><use xlink:href="#k" transform="translate(38.645 13.117)" fill="#DB3F02"/><use xlink:href="#l" transform="translate(33.84 13.764)" fill="#FFF"/><use xlink:href="#m" transform="translate(9.301 18.238)" fill="#DB3F02"/><defs><path id="a" d="M28 56c15.464 0 28-12.536 28-28S43.464 0 28 0 0 12.536 0 28s12.536 28 28 28z"/><path id="b" d="M0 0c.519 15.008 12.847 27.016 27.98 27.016 15.135 0 27.463-12.008 27.982-27.016H0z"/><path id="c" d="M0 0v27.016h.005C15.14 27.016 27.467 15.008 27.986 0H0z"/><path id="d" d="M29.171 0h-12.69L0 15.232c5.075 7.131 13.406 11.784 22.826 11.784s17.751-4.653 22.826-11.784L29.172 0z"/><path id="e" d="M6.35 0H0v27.016h.005c9.42 0 17.752-4.653 22.826-11.784L6.351 0z"/><path id="f" d="M0 24.485a27.891 27.891 0 0 0 11.645 2.53 27.89 27.89 0 0 0 11.644-2.53L13.895 0h-4.5L0 24.485z"/><path id="g" d="M11.65 24.485L2.255 0H0v27.015h.005a27.89 27.89 0 0 0 11.645-2.53z"/><path id="h" d="M24.11 11.488h-2.406c0-4.2-4.215-9.082-9.649-9.082-5.434 0-9.649 4.882-9.649 9.082H0c0-2.775 1.288-5.644 3.535-7.87C5.888 1.284 8.914 0 12.055 0s6.167 1.285 8.52 3.617c2.247 2.227 3.535 5.096 3.535 7.87z"/><path id="i" d="M2.067 0H0v7.157h2.067V0z"/><path id="j" d="M11.68 0H0v2.067h11.68V0z"/><path id="k" d="M2.067 0H0v7.157h2.067V0z"/><path id="l" d="M11.68 0H0v2.067h11.68V0z"/><path id="m" d="M37.399 0H0v3.187h6.307c1.368 0 2.584.87 3.026 2.164a3.197 3.197 0 0 0 3.025 2.165H25.04c1.368 0 2.584-.87 3.026-2.165a3.197 3.197 0 0 1 3.026-2.164h6.307V0z"/></defs></svg>