<svg width="76" height="20" viewBox="0 0 76 20" xmlns="http://www.w3.org/2000/svg" xmlns:xlink="http://www.w3.org/1999/xlink"><title>path96</title><desc>Created using Figma</desc><use xlink:href="#a" fill="#483322"/><defs><path id="a" fill-rule="evenodd" d="M3.981 2.014c.926.056 1.614.34 2.064.851.45.511.676 1.203.676 2.074 0 .359-.08.693-.237 1a2.648 2.648 0 0 1-.646.81 3.074 3.074 0 0 1-.95.545c-.36.132-.74.198-1.138.198H2.07v2.121H.998v-6.34a5.49 5.49 0 0 1-.39-.036 1.549 1.549 0 0 1-.365-.096V2.134c.163.04.331.068.506.084a5.254 5.254 0 0 0 1.096-.012l.602-.072a6.695 6.695 0 0 1 1.278-.12h.256zm1.778 2.87c0-.215-.02-.427-.06-.639a1.32 1.32 0 0 0-.257-.567 1.445 1.445 0 0 0-.56-.418c-.243-.111-.568-.18-.974-.203-.227 0-.497.008-.81.024a5.77 5.77 0 0 0-1.028.156v3.212h1.68c.268 0 .52-.036.755-.108a2.01 2.01 0 0 0 .627-.316 1.66 1.66 0 0 0 .438-.495 1.49 1.49 0 0 0 .19-.645zm5.917 4.86a3.95 3.95 0 0 1-1.552-.305 3.929 3.929 0 0 1-1.26-.839 4.1 4.1 0 0 1-.853-1.24 3.681 3.681 0 0 1-.316-1.522c0-.536.105-1.04.316-1.51.211-.472.496-.886.853-1.241a3.956 3.956 0 0 1 2.812-1.145 4 4 0 0 1 1.559.306 3.982 3.982 0 0 1 2.13 2.08c.211.47.317.974.317 1.51 0 .543-.106 1.05-.317 1.522a3.981 3.981 0 0 1-2.13 2.08 3.994 3.994 0 0 1-1.559.305zm.007-6.76c-.406 0-.784.077-1.137.229a3.05 3.05 0 0 0-.923.61 2.855 2.855 0 0 0-.625.906 2.701 2.701 0 0 0-.232 1.109 2.823 2.823 0 0 0 .857 2.025c.264.256.572.46.923.611.353.152.73.228 1.137.228.413 0 .797-.076 1.154-.228.355-.152.666-.355.93-.61a2.793 2.793 0 0 0 .844-2.026c0-.392-.075-.762-.226-1.11a2.777 2.777 0 0 0-.618-.904 3.028 3.028 0 0 0-.93-.611 2.912 2.912 0 0 0-1.154-.228zM25.715 7.9c.495.048.885.144 1.169.288.284.144.499.3.645.467.146.168.24.334.28.498.04.163.061.29.061.377v.084a1.38 1.38 0 0 1-.164.546c-.094.171-.213.32-.36.443a1.727 1.727 0 0 1-1.12.401h-.097a2.889 2.889 0 0 1-.974-.221 3.2 3.2 0 0 1-.755-.456c-.22-.18-.41-.371-.572-.575a8.289 8.289 0 0 1-.427-.582 4.043 4.043 0 0 1-.426.067c-.178.02-.324.041-.438.065-.552.12-1.16.234-1.826.342a12.32 12.32 0 0 1-1.973.162c-.308 0-.627-.014-.956-.042a6.997 6.997 0 0 1-1.004-.162v-.959c0-.088.004-.136.012-.144V2.086h1.072V8.69c.278.024.554.036.832.036.324 0 .684-.016 1.075-.048a13.95 13.95 0 0 0 1.04-.12V2.086h1.095v6.269c.065-.016.134-.033.207-.048l.207-.048c.365-.072.755-.142 1.169-.21.414-.068.791-.122 1.132-.162.049-.32.073-.667.073-1.043 0-.16-.004-.324-.012-.491l-.024-.491a.417.417 0 0 0-.007-.072.438.438 0 0 1-.006-.072l-.024-.522a10.933 10.933 0 0 1-.012-.51c0-.43.04-.832.122-1.204a1.98 1.98 0 0 1 .51-.965c.399-.423.995-.635 1.791-.635V2.96c-.487 0-.82.096-.998.287-.138.136-.23.332-.275.588a5.028 5.028 0 0 0-.067.85c0 .16.005.32.012.48l.025.492a14.862 14.862 0 0 1 .049 1.222c0 .176-.004.348-.012.515a5.343 5.343 0 0 1-.05.504zm-1.206.995c.074.176.181.331.323.468.142.135.296.25.463.34.166.093.328.163.487.21.158.049.294.073.408.073.065 0 .136-.008.213-.024a.825.825 0 0 0 .22-.078.526.526 0 0 0 .175-.15.366.366 0 0 0 .074-.228.433.433 0 0 0-.128-.312.974.974 0 0 0-.329-.215 2.06 2.06 0 0 0-.445-.126 2.726 2.726 0 0 0-.462-.042c-.17 0-.337.008-.5.024-.162.016-.328.036-.499.06zm11.141-6.82v7.563h-1.07v-5.79l-4.505 5.79h-.987V2.074h1.072v5.681l4.468-5.681h1.023zm8.036 0v7.54h-1.072V6.256h-4.431v3.356H37.11v-7.54h1.072v3.141h4.431v-3.14h1.072zm8.827 5.07a3.78 3.78 0 0 1-.742 1.247 3.993 3.993 0 0 1-1.218.923 4.012 4.012 0 0 1-1.79.42c-.39 0-.763-.05-1.12-.15a3.97 3.97 0 0 1-1.832-1.11 3.85 3.85 0 0 1-.938-1.761 3.83 3.83 0 0 1 .049-1.942c.101-.352.245-.681.432-.99.187-.307.418-.586.694-.838.276-.252.589-.466.938-.642a4.16 4.16 0 0 1 1.814-.42 4.027 4.027 0 0 1 2.094.582c.308.188.587.414.834.678.248.263.457.563.627.899.09.167.162.331.22.49-.293 0-.516-.001-.67-.005a14.974 14.974 0 0 0-.341-.006.864.864 0 0 1-.134-.006l-.025-.006a2.727 2.727 0 0 0-1.065-1.162c-.467-.28-.98-.42-1.54-.42-.48 0-.925.104-1.34.312a2.73 2.73 0 0 0-.687.473 2.978 2.978 0 0 0-.822 1.348 2.816 2.816 0 0 0 .195 2.05 2.72 2.72 0 0 0 1.065 1.162c.467.28.984.42 1.552.42.439 0 .877-.104 1.315-.312.284-.135.536-.311.755-.527.22-.216.398-.451.536-.707h1.144zm5.723-.024c.146.296.286.565.42.809.134.244.276.454.426.63.15.175.315.311.493.407.179.096.39.144.633.144v1.042c-.414 0-.773-.08-1.077-.24a2.909 2.909 0 0 1-.798-.61 4.206 4.206 0 0 1-.59-.828c-.167-.303-.323-.6-.469-.886a7.989 7.989 0 0 0-.438-.84 2.554 2.554 0 0 1-.366.222c-.121.06-.243.106-.365.138-.09.04-.197.068-.322.084-.126.016-.23.032-.31.048v2.373h-1.06V7.228a1.153 1.153 0 0 1-.53-.252 1.329 1.329 0 0 1-.43-.51 1.466 1.466 0 0 1-.148-.652v-.072c.016-.264.095-.506.24-.725.143-.22.334-.39.572-.51.04-.016.089-.036.142-.06a.977.977 0 0 1 .19-.06V2.074h1.047v2.361a8.2 8.2 0 0 1 .455.138c.183.06.345.138.491.234.106.063.203.13.29.197.09.068.179.142.268.222.081-.088.16-.18.235-.276a5.128 5.128 0 0 0 .934-1.6c.158-.443.237-.865.237-1.264h1.072a4.63 4.63 0 0 1-.292 1.576 6.748 6.748 0 0 1-.84 1.588c-.114.152-.228.298-.341.438-.114.14-.232.27-.354.39.114.167.218.339.31.515.094.175.186.351.275.527zm-3.314-.779c.098 0 .209-.012.335-.036a3.4 3.4 0 0 0 .375-.096 3.93 3.93 0 0 0 .674-.288 2.386 2.386 0 0 0-.662-.401 1.96 1.96 0 0 0-.77-.174.474.474 0 0 0-.358.144.494.494 0 0 0-.14.36c0 .031.004.073.013.125a.37.37 0 0 0 .066.156.48.48 0 0 0 .165.138c.073.04.172.064.302.072zm13.054-4.267v7.563h-1.071v-5.79L62.4 9.638h-.986V2.074h1.071v5.681l4.469-5.681h1.022zm6.441-.971A2.47 2.47 0 0 0 74.04 1a2.004 2.004 0 0 0-.688 0l-.347.066a.093.093 0 0 0-.037.006 2.564 2.564 0 0 1-1.315.108 1.819 1.819 0 0 1-.402-.114V.024c.139.088.273.146.402.174.13.028.256.042.377.042.114 0 .232-.01.354-.03.121-.02.248-.046.377-.078A3.55 3.55 0 0 1 73.2.036c.154-.024.316-.036.487-.036a2.62 2.62 0 0 1 .73.108v.995zm1.583.97v7.564h-1.072v-5.79l-4.504 5.79h-.987V2.074h1.072v5.681l4.468-5.681H76zM4.359 16.034l3.056 3.847h-1.34l-2.374-3.008-2.386 3.008H0l3.044-3.848L.122 12.33h1.315L3.7 15.194l2.277-2.865h1.315L4.36 16.032zm10.008-3.704c-.26.351-.517.797-.773 1.336-.256.54-.49 1.13-.7 1.768-.106.312-.215.64-.329.983a8.036 8.036 0 0 1-.414 1.013 6.289 6.289 0 0 1-.572.947 3.636 3.636 0 0 1-1.888 1.33c-.413.132-.896.198-1.448.198v-1.15c.316 0 .6-.027.852-.079.252-.052.475-.126.67-.221.194-.096.369-.216.523-.36.154-.144.297-.307.426-.491L7.902 12.33h1.242l2.216 4.207c.121-.352.237-.703.347-1.055.11-.351.227-.701.353-1.049.125-.347.268-.697.426-1.049.158-.351.35-.703.578-1.054h1.303zm7.768.012a2.54 2.54 0 0 1-.128.737 1.81 1.81 0 0 1-.335.6 1.54 1.54 0 0 1-.553.407c-.224.1-.482.15-.774.15a3.45 3.45 0 0 1-.681-.066 5.374 5.374 0 0 1-.707-.198v5.897h-1.071v-6.316a4.055 4.055 0 0 0-.56-.156c-.195-.04-.39-.06-.585-.06-.21 0-.404.036-.578.108-.175.071-.266.231-.274.48h-1.035a1.445 1.445 0 0 1 .56-1.193c.17-.132.372-.232.603-.3.231-.068.48-.102.749-.102.405 0 .769.046 1.09.138.32.091.616.193.888.305.272.112.536.214.792.306.255.092.521.138.797.138.154 0 .28-.016.377-.048a.457.457 0 0 0 .226-.15.614.614 0 0 0 .11-.27c.02-.112.034-.247.042-.407h1.047zM26.725 20a3.951 3.951 0 0 1-2.813-1.145 4.101 4.101 0 0 1-.852-1.24 3.682 3.682 0 0 1-.316-1.522c0-.536.105-1.04.316-1.51.211-.472.495-.886.853-1.241a3.958 3.958 0 0 1 2.812-1.145c.552 0 1.071.102 1.558.305a3.983 3.983 0 0 1 2.131 2.08c.211.471.317.975.317 1.51 0 .544-.106 1.051-.317 1.523a3.982 3.982 0 0 1-2.13 2.08 3.996 3.996 0 0 1-1.56.305zm.006-6.76c-.406 0-.783.076-1.136.228-.351.151-.66.355-.924.61a2.87 2.87 0 0 0-.625.906 2.701 2.701 0 0 0-.231 1.109c0 .4.077.773.231 1.12.155.348.361.65.625.905.264.256.573.46.924.611.353.152.73.228 1.136.228.414 0 .797-.076 1.155-.228a3.05 3.05 0 0 0 .93-.61c.263-.257.468-.558.618-.906a2.79 2.79 0 0 0 .225-1.12 2.76 2.76 0 0 0-.225-1.11 2.78 2.78 0 0 0-.619-.904 3.028 3.028 0 0 0-.93-.611 2.913 2.913 0 0 0-1.154-.228zm8.59-.971c.925.056 1.614.34 2.064.851.45.511.676 1.203.676 2.074 0 .359-.08.693-.238 1a2.65 2.65 0 0 1-.645.81 3.075 3.075 0 0 1-.95.545c-.361.132-.74.198-1.138.198h-1.68v2.121h-1.072v-6.34a5.5 5.5 0 0 1-.39-.036 1.552 1.552 0 0 1-.365-.096v-1.007c.163.04.33.068.506.084a5.22 5.22 0 0 0 1.096-.012l.602-.072a6.852 6.852 0 0 1 1.278-.12h.256zm1.778 2.87c0-.215-.02-.427-.061-.638a1.31 1.31 0 0 0-.256-.568 1.443 1.443 0 0 0-.56-.418c-.244-.112-.568-.18-.974-.203-.227 0-.497.008-.81.024a5.763 5.763 0 0 0-1.028.156v3.212h1.68c.267 0 .52-.036.755-.108a2.01 2.01 0 0 0 .627-.316c.182-.14.328-.306.438-.495a1.49 1.49 0 0 0 .189-.645z"/></defs></svg>