<svg xmlns="http://www.w3.org/2000/svg" viewBox="0 0 31.84 35.95"><defs><style>.cls-1{fill:#fff;}</style></defs><title>notific</title><g id="Слой_2" data-name="Слой 2"><g id="Слой_2-2" data-name="Слой 2"><path class="cls-1" d="M30.59,28.12c-2.86-2.47-5.51-6-5.51-14.68a9.16,9.16,0,0,0-7.86-9.05V1.3a1.3,1.3,0,1,0-2.6,0V4.38a9.16,9.16,0,0,0-7.86,9.05c0,8.73-2.65,12.21-5.51,14.69A3.63,3.63,0,0,0,0,30.85a1,1,0,0,0,1,1h9.89a5.1,5.1,0,0,0,10,0H30.8a1,1,0,0,0,1-1A3.61,3.61,0,0,0,30.59,28.12ZM15.92,33.87a3,3,0,0,1-2.83-2h5.66A3,3,0,0,1,15.92,33.87ZM2.49,29.81l.12-.12C7,25.92,8.84,21.06,8.84,13.43a7.07,7.07,0,0,1,14.15,0c0,7.62,1.86,12.48,6.23,16.26l.12.12Z"/></g></g></svg>