<svg xmlns="http://www.w3.org/2000/svg" viewBox="0 0 26.28 36.07"><defs><style>.cls-1{fill:#fff;}</style></defs><title>rub</title><g id="Слой_2" data-name="Слой 2"><g id="Слой_2-2" data-name="Слой 2"><path class="cls-1" d="M15.67,21.08A10.24,10.24,0,0,0,26.28,10.56,10.32,10.32,0,0,0,15.67,0H4.09V18.64H1.22a1.22,1.22,0,1,0,0,2.43H4.09v4.83H1.3a1.3,1.3,0,0,0,0,2.59H4.09v6.26a1.3,1.3,0,0,0,2.59,0V30.3s0,0,0-.05V28.51h8a1.3,1.3,0,0,0,0-2.59h-8V21.08Zm-9-18.64h9a7.78,7.78,0,0,1,5.74,2.29,7.92,7.92,0,0,1,2.29,5.84,7.89,7.89,0,0,1-2.29,5.79,7.77,7.77,0,0,1-5.74,2.29h-9Z"/></g></g></svg>