<?xml version="1.0" encoding="utf-8"?>
<!-- Generator: Adobe Illustrator 16.0.0, SVG Export Plug-In . SVG Version: 6.00 Build 0)  -->
<!DOCTYPE svg PUBLIC "-//W3C//DTD SVG 1.1//EN" "http://www.w3.org/Graphics/SVG/1.1/DTD/svg11.dtd">
<svg version="1.1" id="Слой_1" xmlns="http://www.w3.org/2000/svg" xmlns:xlink="http://www.w3.org/1999/xlink" x="0px" y="0px"
	 width="500px" height="106.936px" viewBox="0 0 500 106.936" enable-background="new 0 0 500 106.936" xml:space="preserve">
<g>
	<path fill="#FFFFFF" d="M79.734,33.382c1.582-0.231,2.987-0.408,4.218-0.526c1.23-0.118,2.372-0.175,3.428-0.175
		c0.995,0,2.195,0.058,3.603,0.175c1.406,0.118,2.781,0.295,4.129,0.526v31.986c-3.457,1.29-6.869,2.139-10.236,2.549
		c-3.369,0.41-6.254,0.615-8.656,0.615c-5.155,0-9.664-0.805-13.533-2.417c-3.865-1.611-7.103-3.853-9.709-6.722
		c-2.607-2.871-4.555-6.298-5.843-10.283c-1.29-3.983-1.935-8.317-1.935-13.004c0-4.685,0.674-9.036,2.023-13.048
		c1.346-4.013,3.293-7.483,5.842-10.416c2.55-2.927,5.697-5.21,9.447-6.852C66.26,4.152,70.507,3.33,75.253,3.33
		c2.812,0,5.493,0.207,8.039,0.617c2.55,0.411,5.347,1.26,8.394,2.549c-0.118,2.403-0.559,4.745-1.318,7.029
		c-0.762,2.285-1.553,4.216-2.373,5.798c-1.174-0.409-2.24-0.759-3.207-1.054c-0.969-0.292-1.89-0.528-2.768-0.705
		c-0.879-0.173-1.758-0.306-2.637-0.394c-0.879-0.087-1.816-0.132-2.813-0.132c-4.745,0-8.406,1.597-10.984,4.79
		c-2.576,3.193-3.865,7.951-3.865,14.278c0,6.27,1.258,10.94,3.779,14.018c2.516,3.074,6.266,4.611,11.246,4.611
		c1.111,0,2.109-0.088,2.988-0.264V33.382z"/>
	<path fill="#FFFFFF" d="M219.203,56.054c0.234,0,0.541,0.031,0.922,0.09c0.382,0.058,0.953,0.088,1.716,0.088
		c3.28,0,5.724-0.926,7.337-2.77c1.61-1.846,2.416-4.876,2.416-9.095c0-3.75-0.793-6.489-2.373-8.217
		c-1.582-1.727-3.838-2.593-6.768-2.593c-0.701,0-1.348,0.031-1.931,0.088c-0.587,0.061-1.026,0.119-1.319,0.177V56.054z
		 M219.906,21.082c4.744,0,8.802,0.558,12.17,1.667c3.368,1.114,6.137,2.681,8.307,4.702c2.165,2.022,3.745,4.468,4.744,7.336
		c0.993,2.871,1.492,6.063,1.492,9.58c0,3.69-0.512,7.031-1.535,10.018c-1.027,2.987-2.638,5.538-4.834,7.646
		c-2.199,2.107-5.039,3.734-8.523,4.877c-3.487,1.141-7.691,1.711-12.611,1.711c-2.869,0-5.435-0.101-7.688-0.305
		c-2.256-0.207-4.613-0.484-7.074-0.836V22.312c2.461-0.293,5.064-0.571,7.821-0.835C214.926,21.211,217.504,21.082,219.906,21.082"
		/>
	<path fill="#FFFFFF" d="M269.547,34.262c0.291,0.121,0.789,0.208,1.494,0.263c0.702,0.061,1.434,0.088,2.196,0.088
		c2.519,0,4.569-0.731,6.151-2.197c1.579-1.464,2.373-3.69,2.373-6.677c0-1.759-0.251-3.237-0.749-4.44
		c-0.499-1.2-1.186-2.166-2.064-2.898c-0.878-0.732-1.903-1.244-3.073-1.538c-1.174-0.292-2.404-0.441-3.692-0.441h-1.229
		c-0.47,0-0.938,0.032-1.406,0.088V34.262z M254.343,4.561c1.349-0.176,3.413-0.424,6.196-0.747
		c2.781-0.321,6.283-0.483,10.502-0.483c3.105,0,6.24,0.294,9.401,0.878c3.163,0.584,6.02,1.687,8.566,3.296
		c2.551,1.611,4.615,3.88,6.196,6.81c1.582,2.932,2.37,6.738,2.37,11.425c0,4.158-0.629,7.615-1.888,10.368
		c-1.261,2.756-2.928,4.952-5.009,6.591c-2.078,1.641-4.451,2.811-7.116,3.514c-2.668,0.704-5.404,1.056-8.218,1.056
		c-1.111,0-2.239-0.045-3.382-0.132c-1.143-0.088-1.948-0.19-2.416-0.309v20.475c-1.524,0.295-2.9,0.498-4.131,0.616
		c-1.23,0.115-2.373,0.176-3.427,0.176c-2.051,0-4.6-0.264-7.646-0.792V4.561z"/>
	<path fill="#FFFFFF" d="M304.001,22.312c2.751-0.351,5.608-0.642,8.567-0.879c2.956-0.234,5.755-0.35,8.392-0.35
		c7.087,0,12.403,1.332,15.949,3.996c3.542,2.666,5.315,6.401,5.315,11.204c0,1.817-0.204,3.4-0.615,4.746
		c-0.409,1.349-0.907,2.503-1.493,3.472c-0.588,0.965-1.2,1.744-1.845,2.327c-0.646,0.587-1.172,1.055-1.583,1.407l10.018,19.155
		c-1.172,0.234-2.476,0.41-3.909,0.529c-1.437,0.115-2.827,0.176-4.176,0.176c-1.641,0-3.22-0.061-4.744-0.176
		c-1.522-0.119-2.784-0.295-3.779-0.529l-9.754-20.738l1.229-0.702c2.053-1.17,3.458-2.417,4.219-3.734
		c0.76-1.319,1.143-2.739,1.143-4.26c0-1.525-0.454-2.769-1.362-3.735c-0.908-0.97-2.358-1.45-4.348-1.45
		c-1.115,0-1.965,0.057-2.55,0.175v34.534c-1.525,0.293-2.9,0.484-4.13,0.572c-1.23,0.087-2.315,0.131-3.251,0.131
		c-0.997,0-2.08-0.044-3.25-0.131c-1.173-0.088-2.522-0.279-4.043-0.572V22.312z"/>
	<path fill="#FFFFFF" d="M366.467,67.477c-1.523,0.233-2.901,0.411-4.132,0.528c-1.229,0.115-2.342,0.176-3.337,0.176
		c-0.996,0-2.109-0.061-3.338-0.176c-1.231-0.117-2.58-0.295-4.044-0.528V22.136c1.289-0.293,2.563-0.496,3.822-0.615
		c1.258-0.116,2.476-0.176,3.646-0.176c1.111,0,2.313,0.06,3.603,0.176c1.29,0.119,2.551,0.322,3.779,0.615V67.477z"/>
	<path fill="#FFFFFF" d="M373.437,44.895c0-3.515,0.496-6.735,1.494-9.666c0.994-2.929,2.461-5.434,4.393-7.514
		c1.933-2.078,4.305-3.704,7.117-4.877c2.813-1.17,6.033-1.756,9.666-1.756c1.231,0,2.402,0.031,3.515,0.086
		c1.113,0.059,2.21,0.175,3.295,0.352c1.084,0.176,2.198,0.439,3.34,0.791c1.144,0.351,2.417,0.79,3.824,1.317
		c0.116,1.991-0.06,3.971-0.529,5.933c-0.47,1.963-1.201,3.882-2.195,5.755c-0.997-0.352-1.892-0.63-2.682-0.836
		c-0.789-0.205-1.539-0.363-2.239-0.482c-0.705-0.116-1.394-0.19-2.063-0.22c-0.676-0.028-1.394-0.043-2.156-0.043
		c-2.811,0-5.14,0.833-6.984,2.504c-1.844,1.67-2.77,4.555-2.77,8.655c0,2.17,0.278,3.969,0.837,5.403
		c0.557,1.437,1.288,2.565,2.196,3.386s1.963,1.406,3.162,1.756c1.202,0.352,2.475,0.527,3.823,0.527
		c1.698,0,3.176-0.145,4.437-0.439c1.261-0.292,2.738-0.76,4.439-1.406c0.994,1.582,1.785,3.355,2.373,5.317
		c0.584,1.964,0.878,4.203,0.878,6.722c-2.695,1.055-5.156,1.729-7.383,2.021c-2.226,0.292-4.453,0.438-6.676,0.438
		c-3.752,0-7.063-0.556-9.931-1.668c-2.871-1.111-5.287-2.707-7.25-4.789c-1.964-2.08-3.442-4.57-4.437-7.469
		C373.933,51.792,373.437,48.527,373.437,44.895"/>
	<path fill="#FFFFFF" d="M435.727,32.239c-1.878,0-3.485,0.587-4.833,1.759c-1.348,1.173-2.141,2.986-2.371,5.447h14.058
		c-0.118-2.047-0.747-3.763-1.889-5.137C439.551,32.93,437.893,32.239,435.727,32.239 M428.696,49.552
		c0.644,2.403,1.772,4.101,3.385,5.097c1.609,0.995,3.734,1.495,6.369,1.495c1.698,0,3.603-0.207,5.713-0.617
		c2.108-0.408,4.187-1.025,6.239-1.844c0.818,1.521,1.537,3.338,2.152,5.447c0.615,2.107,0.953,4.307,1.01,6.591
		c-5.215,1.933-10.543,2.897-15.993,2.897c-4.216,0-7.836-0.586-10.852-1.756c-3.018-1.173-5.478-2.796-7.382-4.877
		c-1.903-2.077-3.311-4.555-4.217-7.425c-0.91-2.87-1.362-6.006-1.362-9.403c0-3.34,0.469-6.472,1.406-9.403
		c0.938-2.929,2.344-5.478,4.217-7.645c1.875-2.166,4.219-3.881,7.029-5.141c2.813-1.257,6.095-1.888,9.842-1.888
		c3.104,0,5.873,0.527,8.304,1.581s4.497,2.505,6.195,4.349c1.699,1.846,3.001,4.072,3.912,6.679c0.908,2.607,1.36,5.435,1.36,8.479
		c0,1.582-0.073,3.002-0.22,4.263c-0.147,1.26-0.278,2.299-0.396,3.119H428.696z"/>
	<path fill="#FFA300" d="M132.326,45.07c0-3.748-0.631-6.619-1.889-8.611c-1.26-1.99-3.18-2.988-5.756-2.988
		c-2.58,0-4.482,0.998-5.713,2.988c-1.229,1.992-1.844,4.863-1.844,8.611c0,3.692,0.614,6.532,1.844,8.525
		c1.23,1.991,3.133,2.985,5.713,2.985c2.576,0,4.496-0.994,5.756-2.985C131.695,51.602,132.326,48.763,132.326,45.07 M102.099,45.07
		c0-3.571,0.483-6.839,1.448-9.798c0.969-2.958,2.402-5.493,4.307-7.601c1.902-2.109,4.262-3.734,7.074-4.876
		c2.812-1.144,6.062-1.713,9.754-1.713c3.748,0,7.029,0.569,9.842,1.713c2.811,1.142,5.17,2.768,7.072,4.876
		c1.904,2.108,3.34,4.643,4.307,7.601c0.967,2.958,1.449,6.227,1.449,9.798c0,3.516-0.482,6.722-1.449,9.623
		c-0.967,2.898-2.402,5.39-4.307,7.469c-1.902,2.082-4.262,3.678-7.072,4.789c-2.813,1.113-6.094,1.668-9.842,1.668
		c-3.692,0-6.942-0.555-9.754-1.668c-2.813-1.111-5.172-2.707-7.074-4.789c-1.904-2.079-3.338-4.57-4.307-7.469
		C102.582,51.792,102.099,48.586,102.099,45.07"/>
	<path fill="#FFA300" d="M182.404,45.07c0-3.748-0.631-6.619-1.89-8.611c-1.26-1.99-3.179-2.988-5.757-2.988
		s-4.48,0.998-5.711,2.988c-1.23,1.992-1.845,4.863-1.845,8.611c0,3.692,0.614,6.532,1.845,8.525
		c1.23,1.991,3.133,2.985,5.711,2.985s4.497-0.994,5.757-2.985C181.773,51.602,182.404,48.763,182.404,45.07 M152.176,45.07
		c0-3.571,0.483-6.839,1.449-9.798c0.967-2.958,2.402-5.493,4.307-7.601c1.902-2.109,4.261-3.734,7.073-4.876
		c2.812-1.144,6.063-1.713,9.753-1.713c3.75,0,7.031,0.569,9.843,1.713c2.812,1.142,5.17,2.768,7.073,4.876
		c1.903,2.108,3.34,4.643,4.305,7.601c0.968,2.958,1.451,6.227,1.451,9.798c0,3.516-0.483,6.722-1.451,9.623
		c-0.965,2.898-2.401,5.39-4.305,7.469c-1.903,2.082-4.262,3.678-7.073,4.789c-2.812,1.113-6.093,1.668-9.843,1.668
		c-3.69,0-6.941-0.555-9.753-1.668c-2.813-1.111-5.171-2.707-7.073-4.789c-1.904-2.079-3.34-4.57-4.307-7.469
		C152.659,51.792,152.176,48.586,152.176,45.07"/>
	<path fill="#FFA300" d="M149.539,95.236c-3.908,0-7.563-0.219-10.963-0.658c-3.398-0.441-6.525-1.051-9.389-1.834
		c-2.859-0.783-5.462-1.674-7.809-2.678c-2.349-1-4.401-2.064-6.16-3.189c-0.244-0.686-0.415-1.588-0.514-2.713
		c-0.098-1.125-0.147-2.176-0.147-3.154c0-0.928,0.074-2.027,0.221-3.299c0.146-1.271,0.343-2.447,0.587-3.521
		c1.026,0.588,2.557,1.355,4.584,2.311c2.028,0.953,4.51,1.896,7.443,2.822c2.933,0.932,6.271,1.725,10.01,2.385
		c3.742,0.66,7.786,0.988,12.137,0.988c4.354,0,8.398-0.328,12.138-0.988c3.741-0.66,7.079-1.453,10.012-2.385
		c2.933-0.926,5.415-1.869,7.443-2.822c2.028-0.955,3.558-1.723,4.585-2.311c0.244,1.074,0.439,2.25,0.586,3.521
		c0.146,1.271,0.22,2.371,0.22,3.299c0,0.979-0.05,2.029-0.146,3.154c-0.099,1.125-0.269,2.027-0.515,2.713
		c-1.76,1.125-3.813,2.189-6.158,3.189c-2.348,1.004-4.951,1.895-7.813,2.678c-2.858,0.783-5.987,1.393-9.386,1.834
		C157.107,95.017,153.453,95.236,149.539,95.236"/>
</g>
</svg>
