<?xml version="1.0" encoding="utf-8"?>
<!-- Generator: Adobe Illustrator 21.1.0, SVG Export Plug-In . SVG Version: 6.00 Build 0)  -->
<svg version="1.1" id="Layer_1" xmlns="http://www.w3.org/2000/svg" xmlns:xlink="http://www.w3.org/1999/xlink" x="0px" y="0px"
	 viewBox="0 0 108 30" style="enable-background:new 0 0 108 30;" xml:space="preserve">
<style type="text/css">
	.st0{fill:#0A0A0A;}
</style>
<path class="st0" d="M103.2,5.5v13.4h-9.7c-1.6,0-2.4-0.8-2.4-2.4v-11c0-1.6-0.8-2.3-2.4-2.3c-1.6,0-2.4,0.8-2.4,2.3v10.9
	c0,4.8,2.4,7.3,7.2,7.3c4.2,0,8.9-1.3,9.8-1.6c0.2,1.1,1,1.7,2.3,1.7c0,0,0,0,0,0v0c1.6,0,2.4-0.8,2.4-2.4V5.5
	c0-1.8-1.1-2.3-2.4-2.3C104,3.1,103.2,3.9,103.2,5.5 M79.9,3.1c-1.6,0-2.4,0.8-2.4,2.3v13.4h-9.7c-1.6,0-2.4-0.8-2.4-2.4v-11
	c0-1.6-0.8-2.3-2.4-2.3c-1.6,0-2.4,0.8-2.4,2.3v10.9c0,4.8,2.4,7.3,7.2,7.3c4.2,0,8.9-1.3,9.8-1.6c0.2,1.1,1,1.7,2.3,1.7
	c1.6,0,2.4-0.8,2.4-2.3V5.5C82.2,3.8,81.2,3.1,79.9,3.1 M51.8,15.7c0,1.6-1.6,3.2-3.3,3.2h-9.1v-11h9.1c1.6,0,3.3,1.6,3.3,3.1V15.7z
	 M48.5,3.1c-4.8,0-9.2,1.6-9.2,1.6S38.4,3.1,37,3.1c-1.5,0-2.4,0.7-2.4,2.3v22.2c0,1.6,0.8,2.4,2.4,2.4c1.6,0,2.4-0.8,2.4-2.4V22
	c2.1,0.9,6.3,1.7,9.1,1.7c4.6,0,8-3.2,8-8.1v-4.5C56.5,6.3,53.3,3.1,48.5,3.1 M25.6,16.5c0,1.6-0.8,2.4-2.4,2.4h-5.6v-11h5.6
	c1.6,0,2.4,0.8,2.4,2.3V16.5z M7.2,18.9c-1.6,0-2.4-0.8-2.4-2.4v-6.3c0-1.5,0.8-2.3,2.4-2.3h5.6v11H7.2z M15.2,0
	c-1.6,0-2.4,0.8-2.4,2.4v2.4c-1.1-0.9-4.3-1.7-5.6-1.6C2.4,3.2,0,5.5,0,10.2v6.1c0,4.8,2.4,7.4,7.2,7.3c2.1,0,4.8-1.2,5.6-1.7v5.7
	c0,1.6,0.8,2.4,2.4,2.4c1.6,0,2.4-0.8,2.4-2.4V22c1,0.5,3.6,1.7,5.6,1.7c4.8,0,7.2-2.4,7.2-7.3v-6.1c0-4.7-2.4-7.1-7.2-7.1
	c-1.7,0-3.9,0.5-5.6,1.6V2.3C17.6,0.8,16.8,0,15.2,0"/>
</svg>
