<svg width="13" height="12" viewBox="0 0 13 12" xmlns="http://www.w3.org/2000/svg" xmlns:xlink="http://www.w3.org/1999/xlink"><title>speech</title><desc>Created using Figma</desc><use xlink:href="#a" fill="#909090"/><defs><path id="a" d="M11.5 0h-10C.65 0 0 .65 0 1.5V8c0 .85.65 1.5 1.5 1.5h7.95c.05 0 .1 0 .15.05l2.55 2.3c.1.1.2.15.35.15.3 0 .5-.2.5-.5v-10c0-.85-.65-1.5-1.5-1.5zm-.9 7.85c-.35-.2-.75-.35-1.15-.35h-7.2C2.1 7.5 2 7.4 2 7.25v-5c0-.15.1-.25.25-.25h8.5c.15 0 .25.1.25.25V7.6c0 .05 0 .1-.05.15-.05.1-.2.15-.35.1z"/></defs></svg>