<svg width="13" height="13" viewBox="0 0 13 13" xmlns="http://www.w3.org/2000/svg" xmlns:xlink="http://www.w3.org/1999/xlink"><title>emoticon</title><desc>Created using Figma</desc><use xlink:href="#a" transform="translate(3.5 4)" fill="#909090"/><use xlink:href="#a" transform="translate(7.5 4)" fill="#909090"/><use xlink:href="#b" fill="#909090"/><use xlink:href="#c" transform="translate(4 7.5)" fill="#909090"/><defs><path id="a" d="M1 2a1 1 0 1 0 0-2 1 1 0 0 0 0 2z"/><path id="b" d="M6.5 0C2.9 0 0 2.9 0 6.5S2.9 13 6.5 13 13 10.1 13 6.5 10.1 0 6.5 0zm0 11C4 11 2 9 2 6.5S4 2 6.5 2 11 4 11 6.5 9 11 6.5 11z"/><path id="c" d="M4.15.15A.54.54 0 0 0 3.8 0c-.1 0-.25.05-.35.15-.2.2-.6.35-.95.35S1.75.35 1.55.15A.54.54 0 0 0 1.2 0C1.1 0 .95.05.85.15l-.7.7C.05.95 0 1.1 0 1.2c0 .15.05.25.15.35.6.6 1.45.95 2.35.95.9 0 1.75-.35 2.35-.95.1-.1.15-.25.15-.35 0-.15-.05-.25-.15-.35l-.7-.7z"/></defs></svg>