<svg width="13" height="12" viewBox="0 0 13 12" xmlns="http://www.w3.org/2000/svg" xmlns:xlink="http://www.w3.org/1999/xlink"><title>sort</title><desc>Created using Figma</desc><use xlink:href="#a" transform="matrix(1 0 0 -1 0 11)" fill="#473729"/><use xlink:href="#a" transform="matrix(1 0 0 -1 0 7)" fill="#473729"/><use xlink:href="#a" transform="matrix(1 0 0 -1 0 3)" fill="#473729"/><use xlink:href="#b" transform="matrix(1 0 0 -1 8 12)" fill="#473729"/><defs><path id="a" d="M5.5 0h-5C.2 0 0 .2 0 .5v1c0 .3.2.5.5.5h5c.3 0 .5-.2.5-.5v-1c0-.3-.2-.5-.5-.5z"/><path id="b" d="M4.85 4.85l-.7.7c-.1.1-.25.15-.35.15-.15 0-.25-.05-.35-.15l-1-1C2.3 4.4 2 4.5 2 4.75v6.75c0 .25-.25.5-.5.5h-1c-.25 0-.5-.25-.5-.5V.5C0 .35.05.25.15.15.25.05.4 0 .5 0c.15 0 .25.05.35.15l4 4c.1.1.15.2.15.35 0 .15-.05.25-.15.35z"/></defs></svg>