<svg xmlns="http://www.w3.org/2000/svg" viewBox="0 0 49.02 46.77"><defs><style>.cls-1{fill:#fff;}</style></defs><title>акселератор белые</title><g id="Слой_2" data-name="Слой 2"><g id="Слой_11" data-name="Слой 11"><path class="cls-1" d="M48.56,21.1,25.5.48l-.13-.1a1.36,1.36,0,0,0-1.84,0L.45,21a1.36,1.36,0,0,0,1.82,2l4.15-3.72V43.34a3.43,3.43,0,0,0,3.43,3.43h7.28a3.22,3.22,0,0,0,3.22-3.22V31.32a.49.49,0,0,1,.49-.49h7.35a.49.49,0,0,1,.49.49V43.55a3.22,3.22,0,0,0,3.22,3.22h7.28c1.92,0,3.43-1.89,3.43-4.29V19.42l4.15,3.72A1.37,1.37,0,0,0,48.68,23a1.39,1.39,0,0,0-.12-1.93Zm-8.69,6.72V42.45c0,1-.48,1.57-.71,1.57H31.89a.49.49,0,0,1-.49-.49V31.32a3.22,3.22,0,0,0-3.22-3.22H20.83a3.22,3.22,0,0,0-3.22,3.22V43.55a.49.49,0,0,1-.49.49H9.84a.71.71,0,0,1-.71-.71V16.85L24.44,3.18,39.87,17Zm0,0"/></g></g></svg>