<svg xmlns="http://www.w3.org/2000/svg" xmlns:xlink="http://www.w3.org/1999/xlink" viewBox="0 0 45.59 49.86"><defs><style>.cls-1{fill:none;}.cls-2{clip-path:url(#clip-path);}</style><clipPath id="clip-path" transform="translate(0 -0.02)"><rect class="cls-1" width="45.66" height="50"/></clipPath></defs><title>в ногу со временм</title><g id="Слой_2" data-name="Слой 2"><g id="Слой_4" data-name="Слой 4"><g class="cls-2"><path d="M9.28,9.91a19.88,19.88,0,0,1,25.84-.68l-5.92.22a1.37,1.37,0,0,0,.05,2.75h.05l9.08-.34a1.37,1.37,0,0,0,1.32-1.37v-.16l-.34-9a1.38,1.38,0,1,0-2.75.1l.21,5.63a22.61,22.61,0,0,0-29.4.79A22.61,22.61,0,0,0,.64,30,1.37,1.37,0,0,0,2,31a1.2,1.2,0,0,0,.33,0,1.38,1.38,0,0,0,1-1.66,19.86,19.86,0,0,1,6-19.42Zm0,0" transform="translate(0 -0.02)"/><path d="M44.95,19.92a1.37,1.37,0,0,0-2.67.65,19.86,19.86,0,0,1-32,20l6-.54A1.38,1.38,0,0,0,16,37.26L7,38.08a1.37,1.37,0,0,0-1.24,1.5l.81,9.05a1.37,1.37,0,0,0,1.36,1.25H8a1.37,1.37,0,0,0,1.24-1.5l-.49-5.51a22.46,22.46,0,0,0,13.06,5c.39,0,.77,0,1.15,0A22.61,22.61,0,0,0,44.95,19.92Zm0,0" transform="translate(0 -0.02)"/></g></g></g></svg>