<svg xmlns="http://www.w3.org/2000/svg" viewBox="0 0 45.59 49.86"><defs><style>.cls-1{fill:#fff;}</style></defs><title>в ногу со временем белое</title><g id="Слой_2" data-name="Слой 2"><g id="Слой_15" data-name="Слой 15"><path class="cls-1" d="M9.28,9.89A19.88,19.88,0,0,1,35.12,9.2l-5.92.22a1.37,1.37,0,0,0,.05,2.75h.05l9.08-.34a1.37,1.37,0,0,0,1.32-1.37V10.3l-.34-9a1.38,1.38,0,1,0-2.75.1l.21,5.63a22.61,22.61,0,0,0-29.4.79A22.61,22.61,0,0,0,.64,30,1.37,1.37,0,0,0,2,31a1.2,1.2,0,0,0,.33,0,1.38,1.38,0,0,0,1-1.66,19.86,19.86,0,0,1,6-19.42Zm0,0"/><path class="cls-1" d="M44.95,19.91a1.37,1.37,0,0,0-2.67.65,19.86,19.86,0,0,1-32,20l6-.54A1.38,1.38,0,0,0,16,37.24L7,38.06a1.37,1.37,0,0,0-1.24,1.5l.81,9.05a1.37,1.37,0,0,0,1.36,1.25H8a1.37,1.37,0,0,0,1.24-1.5l-.49-5.51a22.46,22.46,0,0,0,13.06,5c.39,0,.77,0,1.15,0A22.61,22.61,0,0,0,44.95,19.91Zm0,0"/></g></g></svg>