<svg xmlns="http://www.w3.org/2000/svg" viewBox="0 0 36 36"><defs><style>.cls-1{fill:#fff;}</style></defs><title>инста</title><g id="Слой_2" data-name="Слой 2"><g id="Слой_1-2" data-name="Слой 1"><path class="cls-1" d="M18,21.6A3.6,3.6,0,1,0,14.4,18,3.61,3.61,0,0,0,18,21.6Z"/><polygon class="cls-1" points="25.87 13.59 25.87 10.57 25.87 10.12 25.42 10.12 22.4 10.13 22.41 13.6 25.87 13.59"/><path class="cls-1" d="M18,0A18,18,0,1,0,36,18,18,18,0,0,0,18,0ZM28.24,15.9v8.38a4,4,0,0,1-4,4H11.72a4,4,0,0,1-4-4V11.72a4,4,0,0,1,4-4H24.28a4,4,0,0,1,4,4Z"/><path class="cls-1" d="M23.6,18a5.6,5.6,0,1,1-10.79-2.1H9.76v8.38a2,2,0,0,0,2,2H24.28a2,2,0,0,0,2-2V15.9H23.18A5.52,5.52,0,0,1,23.6,18Z"/></g></g></svg>