<svg xmlns="http://www.w3.org/2000/svg" viewBox="0 0 49.81 47.56"><defs><style>.cls-1{fill:#fff;}</style></defs><title>избранное белое</title><g id="Слой_2" data-name="Слой 2"><g id="Слой_14" data-name="Слой 14"><path class="cls-1" d="M49.74,18A1.39,1.39,0,0,0,48.63,17L33.09,14.82,26.09.77a1.38,1.38,0,0,0-2.47,0l-6.9,14.1L1.18,17.18a1.39,1.39,0,0,0-1.11.94,1.36,1.36,0,0,0,.36,1.41L11.7,30.46,9.09,45.94a1.39,1.39,0,0,0,1.36,1.62,1.31,1.31,0,0,0,.64-.16L25,40l13.91,7.27a1.41,1.41,0,0,0,.63.15,1.39,1.39,0,0,0,1.38-1.38,1.07,1.07,0,0,0,0-.32L38.17,30.38l11.2-11A1.35,1.35,0,0,0,49.74,18Zm-14,10.95a1.36,1.36,0,0,0-.39,1.23l2.34,13.42L25.6,37.26a1.4,1.4,0,0,0-1.29,0l-12,6.38L14.53,30.2a1.38,1.38,0,0,0-.4-1.22L4.36,19.5l13.48-2a1.37,1.37,0,0,0,1-.76l6-12.24L30.94,16.7a1.4,1.4,0,0,0,1,.76l13.49,1.92Zm0,0"/></g></g></svg>