<svg xmlns="http://www.w3.org/2000/svg" xmlns:xlink="http://www.w3.org/1999/xlink" viewBox="0 0 49.81 47.56"><defs><style>.cls-1{fill:none;}.cls-2{clip-path:url(#clip-path);}</style><clipPath id="clip-path" transform="translate(0 -0.1)"><rect class="cls-1" width="49.81" height="47.78"/></clipPath></defs><title>Ресурс 1</title><g id="Слой_2" data-name="Слой 2"><g id="Слой_1-2" data-name="Слой 1"><g class="cls-2"><path d="M49.74,18.07a1.39,1.39,0,0,0-1.11-.94L33.09,14.93,26.09.87a1.38,1.38,0,0,0-2.47,0L16.72,15,1.18,17.29a1.39,1.39,0,0,0-1.11.94,1.36,1.36,0,0,0,.36,1.41L11.7,30.57,9.09,46a1.39,1.39,0,0,0,1.36,1.62,1.31,1.31,0,0,0,.64-.16L25,40.15l13.91,7.27a1.41,1.41,0,0,0,.63.15,1.39,1.39,0,0,0,1.38-1.38,1.07,1.07,0,0,0,0-.32L38.17,30.49l11.2-11a1.35,1.35,0,0,0,.37-1.42ZM35.74,29a1.36,1.36,0,0,0-.39,1.23l2.34,13.42L25.6,37.37a1.4,1.4,0,0,0-1.29,0l-12,6.38L14.53,30.3a1.38,1.38,0,0,0-.4-1.22L4.36,19.6l13.48-2a1.37,1.37,0,0,0,1-.76l6-12.24,6.07,12.21a1.4,1.4,0,0,0,1,.76l13.49,1.92Zm0,0" transform="translate(0 -0.1)"/></g></g></g></svg>