<svg xmlns="http://www.w3.org/2000/svg" viewBox="0 0 38.74 48.79"><defs><style>.cls-1{fill:#fff;}</style></defs><title>обучающие белые</title><g id="Слой_2" data-name="Слой 2"><g id="Слой_9" data-name="Слой 9"><path class="cls-1" d="M37.4,12.68H7.68a5,5,0,1,1,0-10H37.41a1.34,1.34,0,0,0,0-2.67H7.68A7.69,7.69,0,0,0,0,7.68V41.11a7.69,7.69,0,0,0,7.68,7.68H37.41a1.34,1.34,0,0,0,1.34-1.34V14a1.35,1.35,0,0,0-1.35-1.34ZM36.06,46.12H7.68a5,5,0,0,1-5-5V13.51a7.67,7.67,0,0,0,5,1.86H36.06Zm0,0"/><path class="cls-1" d="M8.1,6.46a1.34,1.34,0,1,0,0,2.67H33.2a1.34,1.34,0,1,0,0-2.67Zm0,0"/><path class="cls-1" d="M12.8,40.27a1.42,1.42,0,0,0,.45.08,1.33,1.33,0,0,0,1.26-.88l1.63-4.55h6.43l1.63,4.56a1.34,1.34,0,0,0,1.26.88,1.42,1.42,0,0,0,.45-.08,1.33,1.33,0,0,0,.8-1.71L20.62,21.49a.63.63,0,0,0,0-.12l0-.06,0-.06a.4.4,0,0,1,0-.07l0,0-.05-.06s0,0,0,0,0,0,0-.05l-.05,0,0,0-.06,0,0,0-.06,0-.06,0-.06,0-.12-.05h0l-.12,0h-.05l-.08,0h-.39l-.08,0H19l-.11,0h0l-.12.05-.06,0-.06,0-.07,0,0,0-.06,0,0,0-.1.1s0,0,0,0l-.05.06,0,0,0,.06,0,.06,0,.06a.6.6,0,0,0,0,.12L12,38.55a1.38,1.38,0,0,0,.83,1.72Zm6.56-14.36,2.26,6.33H17.09Zm0,0"/></g></g></svg>