<svg xmlns="http://www.w3.org/2000/svg" viewBox="0 0 47.95 49.33"><defs><style>.cls-1{fill:#fff;}</style></defs><title>надежно белое</title><g id="Слой_2" data-name="Слой 2"><g id="Слой_13" data-name="Слой 13"><path class="cls-1" d="M46.51,33.54a6.13,6.13,0,0,0,1.43-4.09,6.29,6.29,0,0,0-1.34-3.55,5.51,5.51,0,0,0-1.31-6.34c-1.64-1.5-4.43-2.17-8.28-2a32.36,32.36,0,0,0-5.08.65h0c-.52.09-1.06.21-1.62.33,0-.66.07-2.3,1.29-6C33,8.16,33,4.8,31.33,2.55A6.56,6.56,0,0,0,26.08,0a2.59,2.59,0,0,0-2,.91c-1.14,1.33.58,8.18-9.27,20a25.51,25.51,0,0,0-2.19,3.18,4.26,4.26,0,0,0-2-.52H4.29A4.29,4.29,0,0,0,0,27.87V44.63a4.29,4.29,0,0,0,4.29,4.29h6.29a4.28,4.28,0,0,0,2.48-.78l2.42.29a104,104,0,0,0,13.75.75c1.23.09,2.38.14,3.46.14a23.12,23.12,0,0,0,4.8-.43c3.16-.67,5.31-2,6.41-4a6.31,6.31,0,0,0,.7-4,6.58,6.58,0,0,0,2.34-5.35,7,7,0,0,0-.42-2.07ZM4.29,46.14a1.51,1.51,0,0,1-1.51-1.51V27.86a1.51,1.51,0,0,1,1.51-1.51h6.29a1.51,1.51,0,0,1,1.51,1.51V44.62a1.51,1.51,0,0,1-1.51,1.51H4.29ZM43.87,32.33A1.39,1.39,0,0,0,43.69,34a4.29,4.29,0,0,1,.47,1.72,4.13,4.13,0,0,1-1.94,3.57,1.4,1.4,0,0,0-.47,1.59,3.65,3.65,0,0,1-.28,2.66c-.69,1.24-2.23,2.12-4.56,2.62a27.15,27.15,0,0,1-7.52.23h-.14a101.84,101.84,0,0,1-13.41-.73h0l-1-.12a4.37,4.37,0,0,0,.09-.91V27.86a4.36,4.36,0,0,0-.2-1.28A11,11,0,0,1,16.6,23c8.73-11,8.69-16.82,9.55-20.28.13-.53,2,.16,2.91,1.39,1.05,1.45,1,4.05-.12,7.5-1.73,5.25-1.88,8-.51,9.23a2.25,2.25,0,0,0,2.25.4c.63-.14,1.23-.27,1.79-.36l.13,0c3.17-.69,8.84-1.11,10.81.68a3,3,0,0,1,.35,3.77,1.38,1.38,0,0,0,.25,1.8,3.9,3.9,0,0,1,1.14,2.4,3.83,3.83,0,0,1-1.29,2.78Zm0,0"/></g></g></svg>