<svg xmlns="http://www.w3.org/2000/svg" viewBox="0 0 49.22 43.27"><defs><style>.cls-1{fill:#fff;}</style></defs><title>оценка белые</title><g id="Слой_2" data-name="Слой 2"><g id="Слой_12" data-name="Слой 12"><path class="cls-1" d="M45.25,4A13.63,13.63,0,0,0,26,4L24.63,5.37,23.26,4A13.61,13.61,0,1,0,4,23.26l19.6,19.6a1.4,1.4,0,0,0,2,0L45.22,23.3A13.65,13.65,0,0,0,45.25,4Zm-2,17.29L24.59,39.88,6,21.28A10.8,10.8,0,1,1,21.27,6l2.36,2.36a1.4,1.4,0,0,0,2,0L28,6A10.81,10.81,0,0,1,43.24,21.31Zm0,0"/></g></g></svg>