<svg xmlns="http://www.w3.org/2000/svg" viewBox="0 0 49.22 46.41"><title>выгода</title><g id="Слой_2" data-name="Слой 2"><g id="Слой_5" data-name="Слой 5"><path d="M45.6,16.59h-.72A20.24,20.24,0,0,0,39,8.5a5.32,5.32,0,0,1,.87-4.33A2.72,2.72,0,0,0,37.6,0l-.34,0A11,11,0,0,0,30,3.68a20.29,20.29,0,0,0-4-.69,27.31,27.31,0,0,0-2.88-.16A24.62,24.62,0,0,0,6.82,8.73,19.1,19.1,0,0,0,0,23.19,18,18,0,0,0,.49,27.4s0,.06,0,.08v.05A19.31,19.31,0,0,0,2,31.59a21.41,21.41,0,0,0,3.89,5.87,9.19,9.19,0,0,1,2.44,5.83v.6a1.55,1.55,0,0,0,0,.31A2.61,2.61,0,0,0,11,46.41h7.52a2.59,2.59,0,0,0,2.59-2.59v-.34a26.54,26.54,0,0,0,3.23,0v.3a2.59,2.59,0,0,0,2.59,2.59h7.52A2.59,2.59,0,0,0,37,43.81V42a6.07,6.07,0,0,1,2.08-4.17l.28-.24,0,0a.24.24,0,0,0,.07-.07,20.1,20.1,0,0,0,5.51-8h.6a3.65,3.65,0,0,0,3.64-3.64V20.21a3.61,3.61,0,0,0-3.62-3.62Zm-8-13.87h0l-.17-1.35Zm8.91,23.13a.92.92,0,0,1-.92.92H44a1.37,1.37,0,0,0-1.3,1,17.24,17.24,0,0,1-5.09,7.76l0,0h0l-.27.24,0,0a8.77,8.77,0,0,0-3,6.15v1.76H27V42a1.37,1.37,0,0,0-1.5-1.35,22.71,22.71,0,0,1-2.47.13,23.48,23.48,0,0,1-3.16-.21A1.36,1.36,0,0,0,18.36,42v1.73H11.1V43.2a11.94,11.94,0,0,0-3.21-7.64,18.46,18.46,0,0,1-3.38-5.14s0,0,0-.05a15.88,15.88,0,0,1-1.31-3.49s0,0,0,0v0a15.72,15.72,0,0,1-.43-3.62c0-9.72,9.13-17.63,20.34-17.63a24.79,24.79,0,0,1,2.6.14h.06a13.29,13.29,0,0,1,4.07.82,1.37,1.37,0,0,0,1.78-.43,8,8,0,0,1,6-3.36A8.05,8.05,0,0,0,36.42,9.3a1.39,1.39,0,0,0,.5,1,17.45,17.45,0,0,1,5.71,8.08,1.37,1.37,0,0,0,1.29.94h1.68a.92.92,0,0,1,.92.92v5.59Zm0,0"/></g></g></svg>