<svg xmlns="http://www.w3.org/2000/svg" viewBox="0 0 36 36"><defs><style>.cls-1{fill:#fff;}</style></defs><title>слак</title><g id="Слой_2" data-name="Слой 2"><g id="Слой_1-2" data-name="Слой 1"><rect class="cls-1" x="14.67" y="14.67" width="6.65" height="6.65" transform="translate(-5.78 8.91) rotate(-24.08)"/><path class="cls-1" d="M18,0A18,18,0,1,0,36,18,18,18,0,0,0,18,0ZM29.27,21.43l-1.06.47L28.69,23a2.2,2.2,0,0,1-4,1.8l-.47-1.06-6.08,2.72.47,1.06a2.2,2.2,0,1,1-4,1.8l-.47-1.06L13,28.69a2.2,2.2,0,0,1-1.8-4l1.06-.47L9.59,18.12l-1.06.48a2.2,2.2,0,1,1-1.8-4l1.06-.47L7.31,13a2.2,2.2,0,1,1,4-1.8l.47,1.06,6.07-2.72L17.4,8.52a2.2,2.2,0,0,1,4-1.8l.47,1.06L23,7.31a2.2,2.2,0,0,1,1.8,4l-1.06.47,2.72,6.07,1.06-.48a2.2,2.2,0,0,1,1.8,4Z"/><path class="cls-1" d="M16.32,22.4l-2.71-6.07,6.07-2.72,2.72,6.07Z"/></g></g></svg>