<svg xmlns="http://www.w3.org/2000/svg" viewBox="0 0 35.76 35.76"><defs><style>.cls-1{fill:#fff;}</style></defs><title>твиттер</title><g id="Слой_2" data-name="Слой 2"><g id="Слой_1-2" data-name="Слой 1"><path class="cls-1" d="M17.88,0A17.88,17.88,0,1,0,35.76,17.88,17.9,17.9,0,0,0,17.88,0Zm8,13.79c0,.18,0,.36,0,.53a11.71,11.71,0,0,1-18,9.86,8.31,8.31,0,0,0,6.09-1.7,4.12,4.12,0,0,1-3.84-2.86A4.13,4.13,0,0,0,12,19.55a4.12,4.12,0,0,1-3.3-4s0,0,0-.05a4.1,4.1,0,0,0,1.86.51,4.12,4.12,0,0,1-1.27-5.49,11.68,11.68,0,0,0,8.48,4.3,4.12,4.12,0,0,1,7-3.75,8.21,8.21,0,0,0,2.61-1,4.13,4.13,0,0,1-1.81,2.28,8.18,8.18,0,0,0,2.36-.65A8.28,8.28,0,0,1,25.85,13.79Z"/></g></g></svg>