<svg xmlns="http://www.w3.org/2000/svg" xmlns:xlink="http://www.w3.org/1999/xlink" viewBox="0 0 49.02 46.77"><defs><style>.cls-1{fill:none;}.cls-2{clip-path:url(#clip-path);}</style><clipPath id="clip-path" transform="translate(0 -0.11)"><rect class="cls-1" width="49" height="47"/></clipPath></defs><title>акселератор</title><g id="Слой_2" data-name="Слой 2"><g id="Слой_8" data-name="Слой 8"><g class="cls-2"><path d="M48.56,21.21,25.5.58l-.13-.1a1.36,1.36,0,0,0-1.84,0L.45,21.08a1.36,1.36,0,0,0,1.82,2L6.42,19.4V43.45a3.43,3.43,0,0,0,3.43,3.43h7.28a3.22,3.22,0,0,0,3.22-3.22V31.43a.49.49,0,0,1,.49-.49h7.35a.49.49,0,0,1,.49.49V43.66a3.22,3.22,0,0,0,3.22,3.22h7.28c1.92,0,3.43-1.89,3.43-4.29V19.53l4.15,3.72a1.37,1.37,0,0,0,1.93-.11,1.39,1.39,0,0,0-.12-1.93Zm-8.69,6.72V42.56c0,1-.48,1.57-.71,1.57H31.89a.49.49,0,0,1-.49-.49V31.43a3.22,3.22,0,0,0-3.22-3.22H20.83a3.22,3.22,0,0,0-3.22,3.22V43.66a.49.49,0,0,1-.49.49H9.84a.71.71,0,0,1-.71-.71V17L24.44,3.29l15.43,13.8Zm0,0" transform="translate(0 -0.11)"/></g></g></g></svg>