<svg xmlns="http://www.w3.org/2000/svg" viewBox="0 0 42.14 49.54"><title>встречи</title><g id="Слой_2" data-name="Слой 2"><g id="Слой_7" data-name="Слой 7"><path d="M20.89,26.7h.33a9.47,9.47,0,0,0,7.23-3.13c3.95-4.45,3.29-12.09,3.22-12.81-.26-5.47-2.84-8.08-5-9.31A11.41,11.41,0,0,0,21.18,0H21a11.42,11.42,0,0,0-5.52,1.41c-2.15,1.22-4.78,3.84-5,9.35-.07.73-.73,8.36,3.22,12.81a9.43,9.43,0,0,0,7.22,3.13ZM13.19,11s0-.06,0-.08c.34-7.36,5.56-8.15,7.8-8.15h.12c2.77.06,7.48,1.19,7.8,8.15a.2.2,0,0,0,0,.08c0,.07.73,7-2.53,10.72a6.72,6.72,0,0,1-5.28,2.2H21a6.7,6.7,0,0,1-5.27-2.2C12.48,18.08,13.18,11.07,13.19,11Zm0,0"/><path d="M42.14,39.36v0c0-.08,0-.16,0-.26-.06-2-.19-6.78-4.65-8.3l-.1,0c-4.63-1.18-12-6.38-12.06-6.41a1.38,1.38,0,0,0-1.59,2.27c.17.12,7.8,5.49,12.91,6.81,2.39.85,2.66,3.41,2.73,5.75a2,2,0,0,0,0,.26,18.67,18.67,0,0,1-.22,3.17c-1.66.94-8.18,4.21-18.09,4.21A38,38,0,0,1,3,42.57a17.61,17.61,0,0,1-.22-3.17c0-.08,0-.16,0-.26.07-2.34.34-4.89,2.73-5.75,5.11-1.31,12.5-6.68,12.68-6.8a1.38,1.38,0,1,0-1.59-2.27s-7.18,5.22-11.83,6.4l-.1,0C.21,32.29.07,37,0,39.06a2.08,2.08,0,0,1,0,.26v0A15.73,15.73,0,0,0,.53,44a1.31,1.31,0,0,0,.53.65c.31.21,7.68,4.9,20,4.9s19.72-4.71,20-4.9a1.37,1.37,0,0,0,.53-.65,16.52,16.52,0,0,0,.49-4.64Zm0,0"/></g></g></svg>