<svg xmlns="http://www.w3.org/2000/svg" xmlns:xlink="http://www.w3.org/1999/xlink" viewBox="0 0 49.22 43.27"><defs><style>.cls-1{fill:none;}.cls-2{clip-path:url(#clip-path);}</style><clipPath id="clip-path" transform="translate(0 -0.02)"><rect class="cls-1" width="49.3" height="43.42"/></clipPath></defs><title>оценка</title><g id="Слой_2" data-name="Слой 2"><g id="Слой_2-2" data-name="Слой 2"><g class="cls-2"><path d="M45.25,4A13.63,13.63,0,0,0,26,4L24.63,5.39,23.26,4A13.61,13.61,0,1,0,4,23.28l19.6,19.6a1.4,1.4,0,0,0,2,0L45.22,23.32A13.65,13.65,0,0,0,45.25,4Zm-2,17.29L24.59,39.9,6,21.3A10.8,10.8,0,1,1,21.27,6l2.36,2.36a1.4,1.4,0,0,0,2,0L28,6A10.81,10.81,0,0,1,43.24,21.33Zm0,0" transform="translate(0 -0.02)"/></g></g></g></svg>