<svg width="24" height="25" viewBox="0 0 24 25" xmlns="http://www.w3.org/2000/svg" xmlns:xlink="http://www.w3.org/1999/xlink"><title>Логотип</title><desc>Created using Figma</desc><use xlink:href="#a" transform="translate(0 7.37)" fill="#7E394D"/><use xlink:href="#b" transform="translate(9.4 .93)" fill="#7E394D"/><defs><path id="a" d="M23.817 4.61C23.265 1.638 21.611 0 19.162 0c-3.892 0-5.572 4.37-7.161 8.678C10.41 4.37 8.73 0 4.836 0 2.385 0 .732 1.638.182 4.61c-.75 4.056.94 8.39 2.827 10.7 1.202 1.472 2.523 2.25 3.817 2.25 2.609 0 4.088-2.5 5.175-5.056 1.087 2.556 2.567 5.057 5.172 5.057 1.277 0 2.635-.801 3.822-2.256 1.887-2.312 3.574-6.645 2.822-10.695zm-6.644 11.557c-1.914 0-3.119-2.11-4.436-5.519.14-.373.28-.75.42-1.129l.042-.116c1.451-3.937 2.951-8.01 5.963-8.01 1.765 0 2.878 1.17 3.306 3.475.64 3.449-.787 7.413-2.53 9.547-.921 1.13-1.905 1.752-2.765 1.752zm-10.347 0c-.86 0-1.84-.62-2.761-1.747C2.323 12.287.893 8.322 1.531 4.868c.425-2.305 1.538-3.474 3.305-3.474 3.013 0 4.515 4.074 5.968 8.014l.038.102c.14.382.282.763.422 1.139-1.316 3.408-2.522 5.518-4.438 5.518z"/><path id="b" d="M5.202 4.273C5.202 2.58 4.302 1 2.856.15L2.602 0l-.255.15a4.795 4.795 0 0 0 0 8.245l.255.15.254-.15a4.795 4.795 0 0 0 2.346-4.122zM2.614 7.329l-.012.008-.013-.008a3.755 3.755 0 0 1 0-6.112l.013-.01.012.01a3.755 3.755 0 0 1 0 6.112z"/></defs></svg>