<svg width="16" height="12" viewBox="0 0 16 12" xmlns="http://www.w3.org/2000/svg" xmlns:xlink="http://www.w3.org/1999/xlink"><title>right-arrow</title><desc>Created using Figma</desc><use xlink:href="#a" transform="translate(0 5.37)" fill="#7E394D"/><use xlink:href="#b" transform="translate(9.19)" fill="#7E394D"/><defs><path id="a" d="M15.354 0H.646A.638.638 0 0 0 0 .63c0 .347.29.629.646.629h14.708A.638.638 0 0 0 16 .629.638.638 0 0 0 15.354 0z"/><path id="b" d="M6.619 5.555L1.103.185a.659.659 0 0 0-.914 0 .618.618 0 0 0 0 .89L5.248 6 .189 10.926a.618.618 0 0 0 0 .89.653.653 0 0 0 .457.184.651.651 0 0 0 .457-.184L6.62 6.445a.618.618 0 0 0 0-.89z"/></defs></svg>