<svg width="25" height="15" viewBox="0 0 25 15" xmlns="http://www.w3.org/2000/svg" xmlns:xlink="http://www.w3.org/1999/xlink"><title>download</title><desc>Created using Figma</desc><use xlink:href="#a" transform="rotate(90 9.145 15.855)" fill="#fff"/><use xlink:href="#b" transform="rotate(90 5.319 5.319)" fill="#fff"/><defs><path id="a" d="M.787 0C.352 0 0 .452 0 1.01v22.98C0 24.548.352 25 .787 25c.434 0 .786-.452.786-1.01V1.01C1.573.452 1.221 0 .787 0z"/><path id="b" d="M14.77.296c-.308-.395-.806-.395-1.113 0L7.5 8.199 1.343.296C1.036-.1.538-.1.23.296-.077.69-.077 1.33.23 1.724l6.714 8.617a.708.708 0 0 0 .556.296.708.708 0 0 0 .556-.296l6.714-8.617c.307-.394.307-1.034 0-1.428z"/></defs></svg>