<svg width="14" height="16" viewBox="0 0 14 16" xmlns="http://www.w3.org/2000/svg" xmlns:xlink="http://www.w3.org/1999/xlink"><title>Корзина</title><desc>Created using Figma</desc><use xlink:href="#a" transform="translate(0 4.058)" fill="#333"/><use xlink:href="#b" transform="translate(2.834)" fill="#333"/><defs><path id="a" d="M11.96 0H2.04C.915 0 0 .95 0 2.117v7.708c0 1.167.915 2.117 2.04 2.117h9.92c1.125 0 2.04-.95 2.04-2.117V2.117C14 .95 13.085 0 11.96 0zm.794 9.825c0 .454-.356.824-.794.824H2.04c-.438 0-.794-.37-.794-.824V2.117c0-.455.356-.824.794-.824h9.92c.438 0 .794.37.794.824v7.708z"/><path id="b" d="M4.166 0C1.869 0 0 1.94 0 4.323v2.942c0 .357.279.646.623.646s.623-.29.623-.646V4.323c0-1.67 1.31-3.03 2.92-3.03 1.61 0 2.92 1.36 2.92 3.03v2.942c0 .357.279.646.623.646s.622-.29.622-.646V4.323C8.331 1.94 6.463 0 4.166 0z"/></defs></svg>