<svg width="393" height="535" viewBox="0 0 393 535" xmlns="http://www.w3.org/2000/svg" xmlns:xlink="http://www.w3.org/1999/xlink"><title>Vector</title><desc>Created using Figma</desc><g fill="#F5F5F5"><use xlink:href="#a"/><use xlink:href="#b"/><use xlink:href="#c"/><use xlink:href="#d"/><use xlink:href="#e"/><use xlink:href="#f"/><use xlink:href="#g"/><use xlink:href="#h"/><use xlink:href="#i"/><use xlink:href="#j"/><use xlink:href="#k"/><use xlink:href="#l"/><use xlink:href="#m"/><use xlink:href="#n"/><use xlink:href="#o"/><use xlink:href="#p"/><use xlink:href="#q"/><use xlink:href="#r"/><use xlink:href="#s"/><use xlink:href="#t"/><use xlink:href="#u"/><use xlink:href="#v"/><use xlink:href="#w"/><use xlink:href="#x"/><use xlink:href="#y"/><use xlink:href="#z"/><use xlink:href="#A"/><use xlink:href="#B"/><use xlink:href="#C"/></g><defs><path id="a" d="M165.495 268.123h-30.754a1 1 0 0 1 0-2h30.754a1 1 0 0 1 0 2z"/><path id="b" d="M45.178 268.123H14.42a1 1 0 0 1 0-2h30.76a1 1 0 0 1 0 2z"/><path id="c" d="M121.624 236.457a.999.999 0 0 1-.707-1.707l21.747-21.746a.999.999 0 1 1 1.414 1.414l-21.747 21.746a.997.997 0 0 1-.707.293z"/><path id="d" d="M36.544 321.537a1 1 0 0 1-.707-1.707l21.75-21.75a1 1 0 0 1 1.414 1.414l-21.75 21.75a.993.993 0 0 1-.707.293z"/><path id="e" d="M89.959 223.341a1 1 0 0 1-1-1v-30.755a1 1 0 0 1 2 0v30.755a1 1 0 0 1-1 1z"/><path id="f" d="M89.959 343.662a1 1 0 0 1-1-1v-30.759a1 1 0 0 1 2 0v30.759a1 1 0 0 1-1 1z"/><path id="g" d="M58.293 236.457a.998.998 0 0 1-.707-.293L35.84 214.418a1 1 0 1 1 1.414-1.414L59 234.75a1 1 0 0 1-.707 1.707z"/><path id="h" d="M143.373 321.537a.995.995 0 0 1-.707-.293l-21.75-21.75a1 1 0 0 1 1.414-1.414l21.75 21.75a.999.999 0 0 1-.707 1.707z"/><path id="i" d="M126.437 253.013a1 1 0 0 1-.383-1.923l20.745-8.593a1 1 0 0 1 .765 1.848l-20.745 8.592a.993.993 0 0 1-.382.076z"/><path id="j" d="M32.736 291.825a1 1 0 0 1-.383-1.923l20.746-8.594a.999.999 0 1 1 .766 1.847l-20.746 8.594a.993.993 0 0 1-.383.076z"/><path id="k" d="M105.068 231.645a1.001 1.001 0 0 1-.924-1.383l8.595-20.745a.999.999 0 1 1 1.847.765l-8.594 20.746a1.001 1.001 0 0 1-.924.617z"/><path id="l" d="M66.255 325.347a.999.999 0 0 1-.924-1.383l8.594-20.747a.999.999 0 1 1 1.847.766l-8.593 20.746a1 1 0 0 1-.924.618z"/><path id="m" d="M74.85 231.645c-.393 0-.765-.233-.925-.618l-8.593-20.747a.999.999 0 1 1 1.848-.765l8.593 20.747a.999.999 0 0 1-.923 1.383z"/><path id="n" d="M113.661 325.346c-.392 0-.764-.233-.924-.617l-8.593-20.746a.999.999 0 1 1 1.847-.765l8.593 20.745a1 1 0 0 1-.923 1.383z"/><path id="o" d="M53.48 253.014a.994.994 0 0 1-.382-.076l-20.742-8.593a1 1 0 0 1 .766-1.848l20.742 8.593a1 1 0 0 1-.383 1.924z"/><path id="p" d="M147.181 291.826a.993.993 0 0 1-.382-.076l-20.746-8.594a.999.999 0 1 1 .765-1.847l20.746 8.593a.999.999 0 0 1-.383 1.924z"/><path id="q" d="M391.138 268.498H177.032a1.376 1.376 0 0 1 0-2.75h214.106a1.375 1.375 0 1 1 0 2.75z"/><path id="r" d="M151.529 206.928a1.375 1.375 0 0 1-.972-2.348L354.734.404a1.375 1.375 0 0 1 1.945 1.944L152.501 206.525c-.269.268-.62.403-.972.403z"/><path id="s" d="M89.959 181.425c-.76 0-1.376-.616-1.376-1.375l.001-178.675a1.375 1.375 0 0 1 2.75 0V180.05c0 .759-.617 1.375-1.376 1.375z"/><path id="t" d="M89.959 534.245a1.375 1.375 0 0 1-1.375-1.375V354.198a1.375 1.375 0 1 1 2.75 0V532.87c0 .759-.616 1.375-1.375 1.375z"/><path id="u" d="M355.706 534.245c-.352 0-.703-.134-.972-.403L150.558 329.665a1.374 1.374 0 1 1 1.944-1.944l204.177 204.176a1.375 1.375 0 0 1-.973 2.348z"/><path id="v" d="M170.405 235.177a1.375 1.375 0 0 1-.527-2.645L390.612 141.1a1.376 1.376 0 0 1 1.053 2.541l-220.734 91.431a1.382 1.382 0 0 1-.526.105z"/><path id="w" d="M123.28 188.053a1.375 1.375 0 0 1-1.27-1.901L198.764.849a1.375 1.375 0 0 1 2.541 1.053l-76.754 185.302a1.376 1.376 0 0 1-1.271.849z"/><path id="x" d="M1.375 482.358a1.375 1.375 0 0 1-1.27-1.902l55.262-133.413a1.375 1.375 0 0 1 2.54 1.053L2.647 481.509c-.22.529-.731.849-1.271.849z"/><path id="y" d="M56.638 188.053c-.54 0-1.052-.32-1.271-.849L.105 53.79a1.376 1.376 0 0 1 2.541-1.052L57.908 186.15a1.375 1.375 0 0 1-1.27 1.902z"/><path id="z" d="M200.035 534.245c-.539 0-1.051-.32-1.271-.849l-76.753-185.3a1.374 1.374 0 1 1 2.541-1.053l76.753 185.3a1.376 1.376 0 0 1-1.27 1.902z"/><path id="A" d="M391.138 393.251c-.175 0-.353-.033-.526-.105l-220.733-91.431a1.375 1.375 0 0 1 1.053-2.54l220.733 91.43a1.376 1.376 0 0 1-.527 2.646z"/><path id="B" d="M118.696 262.18c-1.342-7.118-5.361-11.039-11.318-11.039-9.468 0-13.552 10.464-17.416 20.781-3.866-10.317-7.957-20.781-17.425-20.781-5.96 0-9.98 3.921-11.317 11.039-1.824 9.712 2.285 20.089 6.874 25.62 2.926 3.527 6.136 5.39 9.282 5.39 6.345 0 9.942-5.99 12.585-12.111 2.643 6.121 6.242 12.111 12.577 12.111 3.107 0 6.407-1.917 9.295-5.401 4.589-5.535 8.693-15.911 6.863-25.609zm-16.157 27.673c-4.654 0-7.584-5.052-10.788-13.215.341-.892.681-1.795 1.021-2.703l.103-.278c3.53-9.429 7.178-19.178 14.503-19.178 4.293 0 6.997 2.799 8.039 8.32 1.556 8.257-1.916 17.749-6.152 22.86-2.242 2.705-4.632 4.194-6.726 4.194zm-25.162 0c-2.09 0-4.475-1.486-6.714-4.184-4.237-5.105-7.715-14.602-6.163-22.873 1.036-5.519 3.74-8.317 8.037-8.317 7.33 0 10.981 9.755 14.513 19.19l.093.243c.343.915.684 1.826 1.029 2.728-3.203 8.161-6.135 13.213-10.795 13.213z"/><path id="C" d="M96.284 245.954a11.45 11.45 0 0 0-5.706-9.874l-.618-.359-.62.359a11.45 11.45 0 0 0-5.705 9.874c0 4.052 2.187 7.834 5.706 9.871l.619.36.619-.36c3.518-2.037 5.706-5.819 5.706-9.871zm-6.294 7.317l-.031.021-.031-.021a8.956 8.956 0 0 1-3.821-7.317 8.952 8.952 0 0 1 3.821-7.319l.031-.022.031.022a8.955 8.955 0 0 1 3.821 7.319 8.956 8.956 0 0 1-3.82 7.317z"/></defs></svg>