<svg width="67" height="22" viewBox="0 0 67 22" xmlns="http://www.w3.org/2000/svg" xmlns:xlink="http://www.w3.org/1999/xlink"><title>Vector</title><desc>Created using Figma</desc><g transform="translate(567 -3339)"><path fill="#E5E5E5" d="M-567 3339h67v22h-67z"/><clipPath id="a" clip-rule="evenodd"><path d="M-720-664H720v4147H-720V-664z" fill="#FFF"/></clipPath><g clip-path="url(#a)"><path d="M-720-664H720v4147H-720V-664z" fill="#FFF"/><use xlink:href="#b" transform="translate(-720 3016)" fill="#303747"/><g transform="matrix(1 0 0 -1 -567 3361)" style="mix-blend-mode:luminosity"><use xlink:href="#c" fill="url(#d)"/><use xlink:href="#c" fill="#6B7282"/></g></g></g><defs><linearGradient id="d" x2="1" gradientUnits="userSpaceOnUse" gradientTransform="matrix(5.96479 22.4414 -68.3441 1.95859 64.975 -1.42)"><stop offset="0" stop-color="#222357"/><stop offset="1" stop-color="#254AA5"/></linearGradient><path id="b" d="M0 0h1440v467H0V0z"/><path id="c" d="M34.65 14.967c-.037-3.065 2.687-4.775 4.739-5.792 2.108-1.043 2.816-1.712 2.808-2.645-.016-1.428-1.681-2.058-3.24-2.083-2.72-.043-4.302.747-5.56 1.345l-.98-4.663C33.68.538 36.016.023 38.438 0c5.686 0 9.406 2.854 9.426 7.279.022 5.615-7.64 5.926-7.587 8.437.018.76.732 1.573 2.298 1.78.774.104 2.913.183 5.337-.952l.952 4.51c-1.304.484-2.98.946-5.066.946-5.352 0-9.116-2.893-9.146-7.033zm23.357 6.644c-1.038 0-1.913-.616-2.304-1.56L47.581.33h5.682l1.13 3.177h6.944L61.992.33H67l-4.37 21.28h-4.623zm.794-5.748l1.64-7.99-4.49-.001 2.85 7.99zM27.762 21.61L23.284.331h5.414l4.476 21.28h-5.412zm-8.01 0L14.118 7.127l-2.279 12.316c-.268 1.375-1.324 2.168-2.497 2.168H.13L0 20.994c1.891-.418 4.04-1.09 5.342-1.811.796-.44 1.024-.824 1.285-1.87L10.945.331h5.721l8.772 21.28h-5.685z"/></defs></svg>