<svg width="164" height="29" viewBox="0 0 164 29" xmlns="http://www.w3.org/2000/svg" xmlns:xlink="http://www.w3.org/1999/xlink"><title>mc_hrz_pos</title><desc>Created using Figma</desc><g transform="translate(567 -3285)"><path fill="#E5E5E5" d="M-567 3285h164v29h-164z"/><clipPath id="a" clip-rule="evenodd"><path d="M-720-664H720v4147H-720V-664z" fill="#FFF"/></clipPath><g clip-path="url(#a)"><path d="M-720-664H720v4147H-720V-664z" fill="#FFF"/><use xlink:href="#b" transform="translate(-720 3016)" fill="#303747"/><g style="mix-blend-mode:luminosity"><use xlink:href="#c" transform="translate(-510.901 3290.86)" fill="#FFF"/><use xlink:href="#d" transform="translate(-550.03 3288.1)" fill="#FF5F00"/><use xlink:href="#e" transform="translate(-567 3285.01)" fill="#EB001B"/><use xlink:href="#f" transform="translate(-543.74 3285)" fill="#F79E1B"/><use xlink:href="#g" transform="translate(-522.139 3307.91)" fill="#F79E1B"/></g></g></g><defs><path id="b" d="M0 0h1440v467H0V0z"/><path id="c" d="M15.155 13.514v-6.04c0-2.28-1.441-3.813-3.761-3.834a3.676 3.676 0 0 0-1.912.395c-.59.302-1.09.758-1.447 1.32A3.523 3.523 0 0 0 6.689 4.06a3.486 3.486 0 0 0-1.813-.42 3.14 3.14 0 0 0-1.586.343c-.49.252-.907.628-1.21 1.091V3.866H0v9.649h2.1V8.17c0-1.675.92-2.561 2.34-2.561 1.422 0 2.081.906 2.081 2.54v5.364H8.61V8.171c0-1.675.958-2.561 2.34-2.561s2.1.906 2.1 2.54v5.364h2.105zm31.082-9.64h-3.399V.95h-2.1v2.924h-1.941V5.79h1.94v4.393c0 2.24.86 3.572 3.32 3.572a4.858 4.858 0 0 0 2.6-.745l-.6-1.796a3.819 3.819 0 0 1-1.84.544c-1.04 0-1.383-.645-1.383-1.611V5.791h3.399l.004-1.917zm17.743-.242a2.8 2.8 0 0 0-1.453.358 2.831 2.831 0 0 0-1.067 1.056V3.874H59.4v9.64h2.08V8.11c0-1.61.679-2.48 2.04-2.48a3.36 3.36 0 0 1 1.303.241l.639-1.977a4.412 4.412 0 0 0-1.482-.262zM37.156 4.64a7.102 7.102 0 0 0-3.902-1.007c-2.42 0-3.994 1.172-3.994 3.085 0 1.575 1.159 2.541 3.3 2.843l.977.141c1.139.161 1.682.463 1.682 1.007 0 .745-.759 1.172-2.18 1.172a5.067 5.067 0 0 1-3.196-1.007l-.946 1.63a6.856 6.856 0 0 0 4.141 1.253c2.76 0 4.361-1.313 4.361-3.145 0-1.695-1.262-2.581-3.338-2.883l-.979-.141c-.898-.121-1.621-.302-1.621-.947 0-.704.679-1.127 1.82-1.127 1.047.016 2.073.3 2.98.825l.895-1.699zm55.717-1.007a2.8 2.8 0 0 0-1.453.358 2.831 2.831 0 0 0-1.067 1.056V3.874h-2.06v9.64h2.08V8.11c0-1.61.679-2.48 2.04-2.48a3.36 3.36 0 0 1 1.303.241l.639-1.977a4.412 4.412 0 0 0-1.482-.262zM66.081 8.694c0 2.924 2.02 5.062 5.1 5.062a4.98 4.98 0 0 0 3.438-1.152l-.999-1.695a4.179 4.179 0 0 1-2.5.866c-1.66 0-2.879-1.232-2.879-3.085 0-1.852 1.222-3.064 2.88-3.084.903.01 1.78.313 2.5.865l.998-1.695a4.98 4.98 0 0 0-3.439-1.152c-3.079 0-5.1 2.139-5.1 5.062v.008zm19.48 0V3.862h-2.08v1.172a3.632 3.632 0 0 0-1.34-1.077 3.6 3.6 0 0 0-1.68-.337c-2.68 0-4.792 2.118-4.792 5.062 0 2.944 2.1 5.062 4.792 5.062a3.6 3.6 0 0 0 1.68-.337 3.631 3.631 0 0 0 1.34-1.076v1.167h2.08V8.694zm-7.74 0c0-1.695 1.099-3.084 2.9-3.084 1.721 0 2.88 1.332 2.88 3.084s-1.159 3.085-2.88 3.085c-1.801 0-2.9-1.393-2.9-3.085zM52.718 3.632c-2.795 0-4.76 2.058-4.76 5.062 0 3.065 2.04 5.062 4.9 5.062a5.78 5.78 0 0 0 3.922-1.353l-1.02-1.553a4.533 4.533 0 0 1-2.795 1.006c-1.342 0-2.56-.624-2.86-2.36h7.101c.02-.261.04-.523.04-.805 0-3.004-1.861-5.062-4.54-5.062l.011.004zm-.04 1.877c1.342 0 2.2.846 2.42 2.34h-4.956c.22-1.394 1.059-2.34 2.54-2.34h-.004zm52.176 3.185V0h-2.081v5.042a3.604 3.604 0 0 0-3.02-1.413c-2.679 0-4.791 2.117-4.791 5.061s2.1 5.062 4.792 5.062a3.604 3.604 0 0 0 3.019-1.413v1.168h2.081V8.694zm2.432 3.93a.604.604 0 0 1 .435.182.605.605 0 0 1 0 .862.643.643 0 0 1-.196.132.594.594 0 0 1-.239.049.616.616 0 0 1-.575-.85.608.608 0 0 1 .583-.374h-.008zm0 1.088a.445.445 0 0 0 .331-.137.48.48 0 0 0-.148-.777.453.453 0 0 0-.183-.037.47.47 0 0 0-.468.385.486.486 0 0 0 .128.429.474.474 0 0 0 .348.137h-.008zm.036-.765a.253.253 0 0 1 .167.048.164.164 0 0 1 .06.133.153.153 0 0 1-.048.117.22.22 0 0 1-.132.056l.184.213h-.144l-.171-.213h-.056v.213h-.12v-.563l.26-.004zm-.14.104v.153h.14a.131.131 0 0 0 .075 0 .067.067 0 0 0 .022-.024.058.058 0 0 0 .006-.032.059.059 0 0 0-.006-.032.067.067 0 0 0-.022-.024.131.131 0 0 0-.075 0l-.14-.04zm-10.06-4.357c0-1.695 1.098-3.084 2.899-3.084 1.722 0 2.88 1.332 2.88 3.084s-1.158 3.085-2.88 3.085c-1.8 0-2.899-1.393-2.899-3.085zm-70.246 0V3.862h-2.08v1.172a3.63 3.63 0 0 0-1.336-1.067 3.6 3.6 0 0 0-1.671-.335c-2.68 0-4.793 2.119-4.793 5.062 0 2.944 2.101 5.062 4.793 5.062a3.6 3.6 0 0 0 1.68-.337 3.632 3.632 0 0 0 1.339-1.076v1.168h2.08l-.012-4.817zm-7.74 0c0-1.695 1.1-3.084 2.9-3.084 1.721 0 2.88 1.332 2.88 3.084s-1.159 3.085-2.88 3.085c-1.8 0-2.9-1.39-2.9-3.085z"/><path id="d" d="M12.58 0H0v22.797h12.58V0z"/><path id="e" d="M17.769 14.495a14.574 14.574 0 0 1 1.443-6.336 14.45 14.45 0 0 1 4.048-5.06 14.272 14.272 0 0 0-15.167-1.64A14.419 14.419 0 0 0 2.19 6.805 14.587 14.587 0 0 0 0 14.497c0 2.72.759 5.385 2.19 7.691a14.419 14.419 0 0 0 5.903 5.348 14.273 14.273 0 0 0 15.167-1.64 14.451 14.451 0 0 1-4.049-5.062 14.574 14.574 0 0 1-1.442-6.339z"/><path id="f" d="M23.262 14.5c0 2.721-.759 5.387-2.19 7.692a14.419 14.419 0 0 1-5.904 5.348A14.272 14.272 0 0 1 0 25.897a14.475 14.475 0 0 0 4.047-5.062 14.598 14.598 0 0 0 0-12.673A14.475 14.475 0 0 0 0 3.1a14.272 14.272 0 0 1 15.17-1.642 14.419 14.419 0 0 1 5.903 5.35 14.587 14.587 0 0 1 2.19 7.693z"/><path id="g" d="M.28.564V.097h.187V.004H0v.097h.188v.467L.28.564zm.922 0V0h-.124L.911.403.743 0H.595v.564h.084V.14l.156.366h.107L1.098.14v.427l.104-.004z"/></defs></svg>