<svg width="71" height="20" viewBox="0 0 71 20" xmlns="http://www.w3.org/2000/svg" xmlns:xlink="http://www.w3.org/1999/xlink"><title>Mir_Logo_Rus_Gradient_Colour_RGB</title><desc>Created using Figma</desc><g transform="translate(474 -3341)"><path fill="#E5E5E5" d="M-474 3341h71v20h-71z"/><clipPath id="a" clip-rule="evenodd"><path d="M-720-664H720v4147H-720V-664z" fill="#FFF"/></clipPath><g clip-path="url(#a)"><path d="M-720-664H720v4147H-720V-664z" fill="#FFF"/><use xlink:href="#b" transform="translate(-720 3016)" fill="#303747"/><g style="mix-blend-mode:luminosity"><use xlink:href="#c" transform="translate(-445.782 3341)" fill="#319B42"/><use xlink:href="#d" transform="translate(-474 3341)" fill="#319B42"/><use xlink:href="#e" transform="translate(-423.025 3350.09)" fill="#319B42"/><use xlink:href="#f" transform="translate(-423.936 3341)" fill="url(#g)"/></g></g></g><defs><linearGradient id="g" x2="1" gradientUnits="userSpaceOnUse" gradientTransform="matrix(20.9359 0 0 20.9083 0 -6.363)"><stop offset="0" stop-color="#00A3E1"/><stop offset=".304" stop-color="#009ADD"/><stop offset=".799" stop-color="#0082D4"/><stop offset="1" stop-color="#0076CF"/></linearGradient><path id="b" d="M0 0h1440v467H0V0z"/><path id="c" d="M11.312 2.112l-4.485 9.706h-.455V0H0v20h5.408a3.64 3.64 0 0 0 3.305-2.113L13.2 8.182h.455v11.817h6.371V0h-5.407c-1.42 0-2.71.825-3.306 2.112z"/><path id="d" d="M15.626 2.628l-2.655 9.19h-.455l-2.654-9.19A3.64 3.64 0 0 0 6.363 0H0v20h6.372V8.181h.455l3.64 11.817h4.552L18.66 8.182h.455v11.817h6.372V0h-6.364a3.64 3.64 0 0 0-3.498 2.628z"/><path id="e" d="M0 0v10.909h6.36V4.545h6.839A6.823 6.823 0 0 0 19.629 0H0z"/><path id="f" d="M14.11 0H0a10.008 10.008 0 0 0 9.842 8.181H20.8A6.823 6.823 0 0 0 14.109 0z"/></defs></svg>