<svg width="9" height="12" viewBox="0 0 9 12" xmlns="http://www.w3.org/2000/svg" xmlns:xlink="http://www.w3.org/1999/xlink"><title>download</title><desc>Created using Figma</desc><use xlink:href="#a" transform="translate(4.028)" fill="#999"/><use xlink:href="#b" transform="translate(0 6.894)" fill="#999"/><defs><path id="a" d="M.472 0A.479.479 0 0 0 0 .485v11.03c0 .268.211.485.472.485.26 0 .472-.217.472-.485V.485A.478.478 0 0 0 .472 0z"/><path id="b" d="M8.862.142a.463.463 0 0 0-.668 0L4.5 3.936.806.142a.463.463 0 0 0-.668 0 .494.494 0 0 0 0 .686l4.028 4.136a.464.464 0 0 0 .668 0L8.862.828a.494.494 0 0 0 0-.686z"/></defs></svg>