<svg width="18" height="18" viewBox="0 0 18 18" xmlns="http://www.w3.org/2000/svg" xmlns:xlink="http://www.w3.org/1999/xlink"><title>facebook</title><desc>Created using Figma</desc><use xlink:href="#a" fill="#999"/><use xlink:href="#b" transform="translate(6.75 3.375)" fill="#FAFAFA"/><defs><path id="a" d="M15.75 0H2.25C1.01 0 0 1.01 0 2.25v13.5C0 16.99 1.01 18 2.25 18h13.5c1.24 0 2.25-1.01 2.25-2.25V2.25C18 1.01 16.99 0 15.75 0z"/><path id="b" d="M8.438 5.625H5.624v-2.25c0-.621.504-.563 1.125-.563h1.125V0h-2.25A3.375 3.375 0 0 0 2.25 3.375v2.25H0v2.813h2.25v6.187h3.375V8.437h1.688l1.125-2.812z"/></defs></svg>