<svg width="154" height="149" viewBox="0 0 154 149" xmlns="http://www.w3.org/2000/svg" xmlns:xlink="http://www.w3.org/1999/xlink"><title>Group</title><desc>Created using Figma</desc><g transform="translate(0 -2)" fill="#333" fill-opacity=".1"><use xlink:href="#a"/><use xlink:href="#b"/><use xlink:href="#c"/><use xlink:href="#d"/><use xlink:href="#e"/><use xlink:href="#f"/><use xlink:href="#g"/><use xlink:href="#h"/><use xlink:href="#i"/><use xlink:href="#j"/><use xlink:href="#k"/><use xlink:href="#l"/><use xlink:href="#m"/><use xlink:href="#n"/><use xlink:href="#o"/><use xlink:href="#p"/></g><g transform="translate(47.36 43.13)" fill="#7E394D"><use xlink:href="#q"/><use xlink:href="#r"/></g><defs><path id="a" d="M152.075 77.536h-30.754a1 1 0 0 1 0-2h30.754a1 1 0 0 1 0 2z"/><path id="b" d="M31.759 77.536H1a1 1 0 1 1 0-2h30.759a1 1 0 0 1 0 2z"/><path id="c" d="M108.205 45.87a.999.999 0 0 1-.707-1.707l21.747-21.746a1 1 0 1 1 1.414 1.414l-21.747 21.746a.999.999 0 0 1-.707.293z"/><path id="d" d="M23.125 130.95a1 1 0 0 1-.707-1.707l21.75-21.75a1 1 0 0 1 1.414 1.414l-21.75 21.75a.993.993 0 0 1-.707.293z"/><path id="e" d="M76.539 32.754a1 1 0 0 1-1-1V1a1 1 0 0 1 2 0v30.754a1 1 0 0 1-1 1z"/><path id="f" d="M76.539 153.075a1 1 0 0 1-1-1v-30.759a1 1 0 0 1 2 0v30.759a1 1 0 0 1-1 1z"/><path id="g" d="M44.873 45.87a.996.996 0 0 1-.707-.293L22.42 23.831a1 1 0 1 1 1.414-1.413L45.58 44.163a1 1 0 0 1-.707 1.707z"/><path id="h" d="M129.954 130.95a.993.993 0 0 1-.707-.293l-21.75-21.75a.999.999 0 1 1 1.414-1.414l21.75 21.75a1 1 0 0 1-.707 1.707z"/><path id="i" d="M113.018 62.427a1.001 1.001 0 0 1-.384-1.924l20.745-8.592a1 1 0 0 1 .766 1.847L113.4 62.35a1.007 1.007 0 0 1-.382.077z"/><path id="j" d="M19.317 101.238a1 1 0 0 1-.384-1.923L39.68 90.72a.999.999 0 1 1 .765 1.847L19.7 101.162a.994.994 0 0 1-.382.076z"/><path id="k" d="M91.648 41.058a1 1 0 0 1-.924-1.383L99.32 18.93a.999.999 0 1 1 1.847.765l-8.594 20.746a1 1 0 0 1-.924.617z"/><path id="l" d="M52.836 134.76a.999.999 0 0 1-.923-1.383l8.592-20.747a.999.999 0 1 1 1.848.766l-8.593 20.746a1 1 0 0 1-.924.618z"/><path id="m" d="M61.43 41.058a1 1 0 0 1-.924-.617l-8.593-20.748a.999.999 0 1 1 1.847-.765l8.593 20.748a.999.999 0 0 1-.923 1.382z"/><path id="n" d="M100.242 134.759c-.393 0-.765-.233-.925-.617l-8.593-20.746a1 1 0 1 1 1.847-.765l8.594 20.745a1 1 0 0 1-.923 1.383z"/><path id="o" d="M40.061 62.427a.993.993 0 0 1-.382-.076l-20.742-8.593a1 1 0 0 1 .765-1.847l20.742 8.593a1 1 0 0 1-.383 1.923z"/><path id="p" d="M133.762 101.239a.998.998 0 0 1-.383-.076l-20.746-8.594a1 1 0 1 1 .766-1.847l20.746 8.593a1 1 0 0 1-.383 1.924z"/><path id="q" d="M57.919 26.458C56.577 19.341 52.558 15.42 46.6 15.42c-9.466 0-13.55 10.464-17.415 20.78C25.32 25.884 21.23 15.42 11.76 15.42c-5.96 0-9.98 3.92-11.317 11.038-1.824 9.713 2.285 20.09 6.874 25.62 2.926 3.527 6.136 5.39 9.282 5.39 6.345 0 9.942-5.99 12.586-12.11 2.642 6.12 6.24 12.11 12.576 12.11 3.107 0 6.407-1.917 9.295-5.4 4.589-5.535 8.693-15.911 6.863-25.61zM41.762 54.131c-4.654 0-7.583-5.052-10.787-13.215.34-.891.68-1.795 1.02-2.703l.104-.277c3.53-9.43 7.177-19.179 14.502-19.179 4.294 0 6.997 2.8 8.04 8.32 1.555 8.258-1.917 17.75-6.153 22.86-2.242 2.705-4.632 4.194-6.726 4.194zm-25.162 0c-2.09 0-4.475-1.485-6.714-4.183-4.237-5.106-7.715-14.603-6.163-22.873 1.036-5.519 3.74-8.318 8.037-8.318 7.33 0 10.982 9.756 14.514 19.19l.092.244c.343.915.684 1.826 1.03 2.727C24.191 49.08 21.26 54.131 16.6 54.131z"/><path id="r" d="M35.508 10.232c0-4.052-2.188-7.836-5.706-9.873L29.182 0l-.618.359a11.451 11.451 0 0 0-5.706 9.873c0 4.052 2.187 7.834 5.706 9.871l.619.36.619-.36c3.518-2.037 5.706-5.819 5.706-9.87zm-6.294 7.317l-.032.021-.03-.02a8.955 8.955 0 0 1-3.822-7.318 8.952 8.952 0 0 1 3.821-7.318l.031-.022.032.022a8.954 8.954 0 0 1 3.82 7.319 8.955 8.955 0 0 1-3.82 7.316z"/></defs></svg>