<svg width="48" height="48" viewBox="0 0 48 48" xmlns="http://www.w3.org/2000/svg" xmlns:xlink="http://www.w3.org/1999/xlink"><title>fb</title><desc>Created using Figma</desc><use xlink:href="#a" fill="#F5F5F5"/><use xlink:href="#b" transform="translate(14 14)" fill="#1976D2"/><use xlink:href="#c" transform="translate(21.5 17.75)" fill="#FAFAFA"/><defs><path id="a" d="M48 24c0 13.255-10.745 24-24 24S0 37.255 0 24 10.745 0 24 0s24 10.745 24 24z"/><path id="b" d="M17.5 0h-15A2.503 2.503 0 0 0 0 2.5v15C0 18.879 1.121 20 2.5 20h15c1.379 0 2.5-1.121 2.5-2.5v-15C20 1.121 18.879 0 17.5 0z"/><path id="c" d="M9.375 6.25H6.25v-2.5c0-.69.56-.625 1.25-.625h1.25V0h-2.5A3.75 3.75 0 0 0 2.5 3.75v2.5H0v3.125h2.5v6.875h3.75V9.375h1.875l1.25-3.125z"/></defs></svg>