<svg width="164" height="75" viewBox="0 0 164 75" xmlns="http://www.w3.org/2000/svg" xmlns:xlink="http://www.w3.org/1999/xlink"><title>logo 1</title><desc>Created using Figma</desc><use xlink:href="#a" transform="translate(61.473 10.87)" fill="#F4E6CE"/><use xlink:href="#b" transform="translate(77.55)" fill="#F4E6CE"/><g fill="#F4E6CE"><use xlink:href="#c" transform="translate(0 57.02)"/><use xlink:href="#d" transform="translate(22.666 57.31)"/><use xlink:href="#e" transform="translate(62.012 57.31)"/><use xlink:href="#f" transform="translate(132.315 57.31)"/><use xlink:href="#g" transform="translate(153.291 57.31)"/><use xlink:href="#h" transform="translate(36.74 57.31)"/><use xlink:href="#i" transform="translate(88.189 57.31)"/><use xlink:href="#j" transform="translate(110.25 57.31)"/></g><defs><path id="a" d="M40.74 7.778C39.797 2.762 36.97 0 32.78 0c-6.66 0-9.532 7.373-12.25 14.643C17.809 7.373 14.932 0 8.273 0 4.079 0 1.252 2.763.312 7.778-.972 14.622 1.919 21.934 5.148 25.83c2.058 2.483 4.315 3.797 6.529 3.797 4.462 0 6.992-4.22 8.852-8.533 1.86 4.313 4.39 8.534 8.847 8.534 2.185 0 4.508-1.353 6.538-3.806 3.226-3.9 6.114-11.211 4.826-18.045zM29.375 27.277c-3.273 0-5.333-3.56-7.587-9.311.24-.629.478-1.265.718-1.905l.073-.195c2.483-6.645 5.049-13.514 10.2-13.514 3.02 0 4.923 1.972 5.655 5.862 1.095 5.819-1.348 12.507-4.327 16.108-1.578 1.906-3.258 2.955-4.732 2.955zm-17.7 0c-1.469 0-3.147-1.046-4.721-2.948C3.973 20.732 1.527 14.04 2.618 8.213c.729-3.89 2.631-5.861 5.654-5.861 5.154 0 7.723 6.873 10.208 13.522l.064.172c.242.645.482 1.287.724 1.922-2.25 5.75-4.315 9.309-7.592 9.309z"/><path id="b" d="M8.898 7.21A8.071 8.071 0 0 0 4.885.254L4.449 0l-.436.253A8.069 8.069 0 0 0 0 7.211a8.068 8.068 0 0 0 4.013 6.955l.436.254.436-.254a8.072 8.072 0 0 0 4.013-6.955zm-4.427 5.157l-.022.014-.022-.015A6.314 6.314 0 0 1 1.74 7.21a6.31 6.31 0 0 1 2.688-5.157l.022-.016.022.016A6.313 6.313 0 0 1 7.158 7.21a6.313 6.313 0 0 1-2.687 5.157z"/><path id="c" d="M11.892 12.83c0-1.528-.298-2.433-1.063-3.233-.777-.81-2.063-1.3-3.888-1.831-1.441-.42-2.433-.82-3.032-1.223-.69-.463-1.041-1.122-1.041-1.962 0-.907.277-1.603.824-2.06.532-.44 1.336-.655 2.458-.655.793 0 1.623.139 2.535.43.632.198 1.361.513 1.882.754L10.98.999a11.839 11.839 0 0 0-2.17-.71A13.99 13.99 0 0 0 6.081 0C5.306 0 4.55.078 3.835.233a7.093 7.093 0 0 0-1.958.752c-.578.33-1.024.798-1.36 1.428C.174 3.05 0 3.827 0 4.72c0 1.47.368 2.57 1.09 3.27.765.744 2.176 1.43 4.194 2.034 1.497.44 2.477.843 2.992 1.235.586.45.885 1.086.885 1.895 0 .831-.307 1.526-.91 2.062-.585.527-1.41.793-2.452.793-.959 0-1.97-.236-2.83-.467a16.39 16.39 0 0 1-2.399-.83l-.44 2.052c.629.26 1.774.704 2.636.875 1.172.231 2.216.346 3.195.346 1.59 0 2.999-.472 4.188-1.398 1.173-.913 1.743-2.141 1.743-3.758z"/><path id="d" d="M2.653 0H0v17.408h2.653V0z"/><path id="e" d="M7.074 0L0 17.41h1.893l1.847-4.6h8.173l.012.029 1.927 4.571 3.034-.002L9.315 0H7.074zM4.41 11.049l.027-.064 3.287-8.131.046.107 3.407 8.089H4.411z"/><path id="f" d="M2.654 15.652V0H0v17.408h10.704l.628-1.756H2.654z"/><path id="g" d="M2.65 15.652V9.378h5.605l.633-1.755H2.65V1.757h7.425L10.708 0H0v17.408h10.075l.634-1.756h-8.06z"/><path id="h" d="M2.652 0H0v17.41h2.358V3.83l.085.113L12.808 17.41h2.655V0h-2.36v13.58l-.088-.113L2.652 0z"/><path id="i" d="M10.494 1.231C9.298.404 7.832 0 6.011 0H0v17.408h2.652v-6.755h1.635c3.907 0 7.9-.685 7.9-5.752 0-1.676-.554-2.875-1.693-3.67zM8.281 7.895c-.78.567-1.921.84-3.492.84H2.652V1.73h3.01c3.18 0 3.849 1.801 3.849 3.313-.001 1.3-.415 2.258-1.23 2.851z"/><path id="j" d="M10.494 1.231C9.299.404 7.834 0 6.011 0H0v17.408h2.652v-6.755h1.635c3.908 0 7.901-.685 7.901-5.752 0-1.676-.553-2.875-1.694-3.67zM8.282 7.895c-.78.567-1.922.84-3.493.84H2.652V1.73h3.01c3.18 0 3.849 1.801 3.849 3.313 0 1.3-.414 2.258-1.23 2.851z"/></defs></svg>