<svg width="48" height="48" viewBox="0 0 48 48" xmlns="http://www.w3.org/2000/svg" xmlns:xlink="http://www.w3.org/1999/xlink"><title>g+</title><desc>Created using Figma</desc><use xlink:href="#a" fill="#F5F5F5"/><use xlink:href="#b" transform="translate(14 18)" fill="#F34A38"/><use xlink:href="#c" transform="translate(28.1 21.522)" fill="#F34A38"/><defs><path id="a" d="M48 24c0 13.255-10.745 24-24 24S0 37.255 0 24 10.745 0 24 0s24 10.745 24 24z"/><path id="b" d="M7.017 7.718h3.125a3.976 3.976 0 0 1-3.773 2.65 3.981 3.981 0 0 1-3.937-3.812 3.974 3.974 0 0 1 3.966-4.127c1.025 0 1.96.39 2.665 1.03a.43.43 0 0 0 .586-.002l1.147-1.08a.43.43 0 0 0 .002-.624A6.375 6.375 0 0 0 6.526 0C2.998-.068.025 2.825 0 6.353a6.399 6.399 0 0 0 12.786.405c.005-.042.009-1.468.009-1.468H7.017a.429.429 0 0 0-.429.429v1.57c0 .238.192.43.43.43z"/><path id="c" d="M3.954 1.91V.377A.376.376 0 0 0 3.58 0H2.287a.376.376 0 0 0-.376.376V1.91H.376A.376.376 0 0 0 0 2.287v1.292c0 .207.168.375.376.375H1.91V5.49c0 .208.168.376.376.376h1.292a.376.376 0 0 0 .375-.376V3.954H5.49a.376.376 0 0 0 .376-.375V2.287a.376.376 0 0 0-.376-.376H3.954z"/></defs></svg>