<svg width="150" height="150" viewBox="0 0 150 150" xmlns="http://www.w3.org/2000/svg" xmlns:xlink="http://www.w3.org/1999/xlink"><title>Group 2</title><desc>Created using Figma</desc><use xlink:href="#a" transform="translate(117.904 74.019)" fill="#F5E8CF"/><use xlink:href="#b" transform="translate(0 74.019)" fill="#F5E8CF"/><use xlink:href="#c" transform="translate(105.051 21.68)" fill="#F5E8CF"/><use xlink:href="#d" transform="translate(21.68 105.047)" fill="#F5E8CF"/><use xlink:href="#e" transform="translate(74.021)" fill="#F5E8CF"/><use xlink:href="#f" transform="translate(74.021 117.899)" fill="#F5E8CF"/><use xlink:href="#g" transform="translate(21.683 21.68)" fill="#F5E8CF"/><use xlink:href="#h" transform="translate(105.05 105.047)" fill="#F5E8CF"/><use xlink:href="#i" transform="translate(109.766 50.793)" fill="#F5E8CF"/><use xlink:href="#j" transform="translate(17.948 88.823)" fill="#F5E8CF"/><use xlink:href="#k" transform="translate(88.827 17.944)" fill="#F5E8CF"/><use xlink:href="#l" transform="translate(50.794 109.763)" fill="#F5E8CF"/><use xlink:href="#m" transform="translate(50.795 17.943)" fill="#F5E8CF"/><use xlink:href="#n" transform="translate(88.826 109.763)" fill="#F5E8CF"/><use xlink:href="#o" transform="translate(17.951 50.792)" fill="#F5E8CF"/><use xlink:href="#p" transform="translate(109.765 88.824)" fill="#F5E8CF"/><g fill="#7E394D"><use xlink:href="#q" transform="translate(69.151 69.925)"/><use xlink:href="#r" transform="translate(64 62)"/></g><defs><path id="a" d="M31.116 1.96H.98A.98.98 0 0 1 .98 0h30.136a.98.98 0 0 1 0 1.96z"/><path id="b" d="M31.12 1.96H.98A.98.98 0 0 1 .98 0h30.14a.98.98 0 0 1 0 1.96z"/><path id="c" d="M.98 23.27a.98.98 0 0 1-.693-1.673L21.597.287a.98.98 0 1 1 1.386 1.386L1.673 22.982a.977.977 0 0 1-.693.287z"/><path id="d" d="M.98 23.273A.98.98 0 0 1 .287 21.6L21.6.287a.98.98 0 1 1 1.385 1.386L1.673 22.986a.975.975 0 0 1-.693.287z"/><path id="e" d="M.98 32.096a.98.98 0 0 1-.98-.98V.98a.98.98 0 0 1 1.96 0v30.136a.98.98 0 0 1-.98.98z"/><path id="f" d="M.98 32.101a.98.98 0 0 1-.98-.98V.98a.98.98 0 0 1 1.96 0v30.14a.98.98 0 0 1-.98.98z"/><path id="g" d="M22.289 23.269a.977.977 0 0 1-.693-.287L.287 1.672A.98.98 0 1 1 1.673.288L22.98 21.596a.98.98 0 0 1-.692 1.673z"/><path id="h" d="M22.293 23.273a.976.976 0 0 1-.693-.288L.287 1.673A.98.98 0 1 1 1.673.287L22.985 21.6a.98.98 0 0 1-.692 1.673z"/><path id="i" d="M.98 10.38a.981.981 0 0 1-.375-1.886L20.933.074a.98.98 0 0 1 .75 1.811l-20.328 8.42a.984.984 0 0 1-.374.075z"/><path id="j" d="M.98 10.381a.98.98 0 0 1-.375-1.884L20.935.075a.979.979 0 1 1 .75 1.81l-20.33 8.421a.974.974 0 0 1-.374.075z"/><path id="k" d="M.98 22.289a.98.98 0 0 1-.905-1.355L8.497.606a.98.98 0 1 1 1.81.75L1.885 21.684a.98.98 0 0 1-.905.605z"/><path id="l" d="M.98 22.29a.98.98 0 0 1-.905-1.355L8.495.605a.979.979 0 1 1 1.81.75l-8.42 20.33a.98.98 0 0 1-.905.605z"/><path id="m" d="M9.401 22.29a.98.98 0 0 1-.906-.604L.075 1.355a.979.979 0 1 1 1.81-.75l8.42 20.33a.978.978 0 0 1-.904 1.356z"/><path id="n" d="M9.402 22.29a.982.982 0 0 1-.906-.606L.075 1.356a.98.98 0 1 1 1.81-.75l8.421 20.328a.98.98 0 0 1-.904 1.355z"/><path id="o" d="M21.305 10.381a.983.983 0 0 1-.375-.075L.605 1.886a.98.98 0 0 1 .75-1.81l20.325 8.42a.98.98 0 0 1-.375 1.885z"/><path id="p" d="M21.309 10.382a.976.976 0 0 1-.375-.075L.605 1.886a.98.98 0 1 1 .75-1.81l20.33 8.42a.98.98 0 0 1-.376 1.886z"/><path id="q" d="M4.746 6.594l-3.328-3.13L0 4.934l4.861 4.573 7.407-8.15L10.738 0 4.746 6.594z"/><path id="r" d="M19.453 3.31c-2.493-.44-4.788-1.786-5.934-2.548A4.534 4.534 0 0 0 11 0c-.899 0-1.77.263-2.519.762-1.146.762-3.441 2.107-5.934 2.549C1.071 3.572 0 4.834 0 6.31v6.13c0 2.025.573 4 1.704 5.868.884 1.461 2.11 2.858 3.642 4.151 2.577 2.175 5.129 3.309 5.236 3.356L11 26l.418-.184c.107-.047 2.659-1.181 5.236-3.356 1.532-1.293 2.758-2.69 3.642-4.151C21.426 16.44 22 14.466 22 12.44V6.31c0-1.477-1.071-2.739-2.547-3zm.491 9.131c0 3.02-1.543 5.86-4.587 8.441A22.842 22.842 0 0 1 11 23.76c-1.819-.914-8.944-4.902-8.944-11.318v-6.13c0-.492.36-.913.854-1C5.773 4.805 8.349 3.3 9.63 2.448a2.468 2.468 0 0 1 2.74 0c1.281.852 3.857 2.356 6.72 2.864.495.087.854.508.854 1v6.13z"/></defs></svg>