<svg width="150" height="150" viewBox="0 0 150 150" xmlns="http://www.w3.org/2000/svg" xmlns:xlink="http://www.w3.org/1999/xlink"><title>Group 2</title><desc>Created using Figma</desc><use xlink:href="#a" transform="translate(117.904 74.019)" fill="#F5E8CF"/><use xlink:href="#b" transform="translate(0 74.019)" fill="#F5E8CF"/><use xlink:href="#c" transform="translate(105.051 21.68)" fill="#F5E8CF"/><use xlink:href="#d" transform="translate(21.68 105.047)" fill="#F5E8CF"/><use xlink:href="#e" transform="translate(74.021)" fill="#F5E8CF"/><use xlink:href="#f" transform="translate(74.021 117.899)" fill="#F5E8CF"/><use xlink:href="#g" transform="translate(21.683 21.68)" fill="#F5E8CF"/><use xlink:href="#h" transform="translate(105.05 105.047)" fill="#F5E8CF"/><use xlink:href="#i" transform="translate(109.766 50.793)" fill="#F5E8CF"/><use xlink:href="#j" transform="translate(17.948 88.823)" fill="#F5E8CF"/><use xlink:href="#k" transform="translate(88.827 17.944)" fill="#F5E8CF"/><use xlink:href="#l" transform="translate(50.794 109.763)" fill="#F5E8CF"/><use xlink:href="#m" transform="translate(50.795 17.943)" fill="#F5E8CF"/><use xlink:href="#n" transform="translate(88.826 109.763)" fill="#F5E8CF"/><use xlink:href="#o" transform="translate(17.951 50.792)" fill="#F5E8CF"/><use xlink:href="#p" transform="translate(109.765 88.824)" fill="#F5E8CF"/><use xlink:href="#q" transform="translate(62 62)" fill="#7E394D"/><defs><path id="a" d="M31.116 1.96H.98A.98.98 0 0 1 .98 0h30.136a.98.98 0 0 1 0 1.96z"/><path id="b" d="M31.12 1.96H.98A.98.98 0 0 1 .98 0h30.14a.98.98 0 0 1 0 1.96z"/><path id="c" d="M.98 23.27a.98.98 0 0 1-.693-1.673L21.597.287a.98.98 0 1 1 1.386 1.386L1.673 22.982a.977.977 0 0 1-.693.287z"/><path id="d" d="M.98 23.273A.98.98 0 0 1 .287 21.6L21.6.287a.98.98 0 1 1 1.385 1.386L1.673 22.986a.975.975 0 0 1-.693.287z"/><path id="e" d="M.98 32.096a.98.98 0 0 1-.98-.98V.98a.98.98 0 0 1 1.96 0v30.136a.98.98 0 0 1-.98.98z"/><path id="f" d="M.98 32.101a.98.98 0 0 1-.98-.98V.98a.98.98 0 0 1 1.96 0v30.14a.98.98 0 0 1-.98.98z"/><path id="g" d="M22.289 23.269a.977.977 0 0 1-.693-.287L.287 1.672A.98.98 0 1 1 1.673.288L22.98 21.596a.98.98 0 0 1-.692 1.673z"/><path id="h" d="M22.293 23.273a.976.976 0 0 1-.693-.288L.287 1.673A.98.98 0 1 1 1.673.287L22.985 21.6a.98.98 0 0 1-.692 1.673z"/><path id="i" d="M.98 10.38a.981.981 0 0 1-.375-1.886L20.933.074a.98.98 0 0 1 .75 1.811l-20.328 8.42a.984.984 0 0 1-.374.075z"/><path id="j" d="M.98 10.381a.98.98 0 0 1-.375-1.884L20.935.075a.979.979 0 1 1 .75 1.81l-20.33 8.421a.974.974 0 0 1-.374.075z"/><path id="k" d="M.98 22.289a.98.98 0 0 1-.905-1.355L8.497.606a.98.98 0 1 1 1.81.75L1.885 21.684a.98.98 0 0 1-.905.605z"/><path id="l" d="M.98 22.29a.98.98 0 0 1-.905-1.355L8.495.605a.979.979 0 1 1 1.81.75l-8.42 20.33a.98.98 0 0 1-.905.605z"/><path id="m" d="M9.401 22.29a.98.98 0 0 1-.906-.604L.075 1.355a.979.979 0 1 1 1.81-.75l8.42 20.33a.978.978 0 0 1-.904 1.356z"/><path id="n" d="M9.402 22.29a.982.982 0 0 1-.906-.606L.075 1.356a.98.98 0 1 1 1.81-.75l8.421 20.328a.98.98 0 0 1-.904 1.355z"/><path id="o" d="M21.305 10.381a.983.983 0 0 1-.375-.075L.605 1.886a.98.98 0 0 1 .75-1.81l20.325 8.42a.98.98 0 0 1-.375 1.885z"/><path id="p" d="M21.309 10.382a.976.976 0 0 1-.375-.075L.605 1.886a.98.98 0 1 1 .75-1.81l20.33 8.42a.98.98 0 0 1-.376 1.886z"/><path id="q" d="M25.297 12.83a2.22 2.22 0 0 0-1.5-1.75c-1.1-1.948-2.513-3.603-4.113-4.81a11.994 11.994 0 0 0-2.253-1.349 3.03 3.03 0 0 0 .647-1.874A3.05 3.05 0 0 0 15.031 0c-.78 0-1.492.295-2.031.778A3.034 3.034 0 0 0 10.969 0a3.05 3.05 0 0 0-3.047 3.047c0 .73.259 1.401.689 1.927a12.39 12.39 0 0 0-2.096 1.282C4.912 7.464 3.477 9.11 2.344 11.04a2.219 2.219 0 0 0-1.641 1.79C.44 14.407 0 17.277 0 18.79c0 2.95 1.396 5.001 4.15 6.097C6.615 25.868 10.007 26 13 26c2.993 0 6.385-.132 8.85-1.114C24.604 23.79 26 21.74 26 18.79c0-1.513-.44-4.383-.703-5.96zM15.031 2.03a1.017 1.017 0 0 1 0 2.031 1.017 1.017 0 0 1 0-2.03zm-4.062 0a1.017 1.017 0 0 1 0 2.031 1.017 1.017 0 0 1 0-2.03zM13 5.992c4.15 0 6.867 2.822 8.337 4.977h-2.554c-1.67-1.93-3.661-2.946-5.783-2.946-2.122 0-4.113 1.017-5.783 2.946h-2.42C6.994 7.824 9.97 5.992 13 5.992zm0 17.977c-8.098 0-10.969-1.356-10.969-5.18 0-.998.246-3.049.675-5.625A.195.195 0 0 1 2.9 13h5.283l.305-.383c.93-1.169 2.468-2.562 4.512-2.562 2.044 0 3.582 1.393 4.512 2.562l.305.383H23.1c.096 0 .178.069.194.164.429 2.576.675 4.627.675 5.625 0 3.824-2.87 5.18-10.969 5.18z"/></defs></svg>