<svg width="150" height="150" viewBox="0 0 150 150" xmlns="http://www.w3.org/2000/svg" xmlns:xlink="http://www.w3.org/1999/xlink"><title>Group 2</title><desc>Created using Figma</desc><use xlink:href="#a" transform="translate(117.904 74.019)" fill="#F5E8CF"/><use xlink:href="#b" transform="translate(0 74.019)" fill="#F5E8CF"/><use xlink:href="#c" transform="translate(105.051 21.68)" fill="#F5E8CF"/><use xlink:href="#d" transform="translate(21.68 105.047)" fill="#F5E8CF"/><use xlink:href="#e" transform="translate(74.021)" fill="#F5E8CF"/><use xlink:href="#f" transform="translate(74.021 117.899)" fill="#F5E8CF"/><use xlink:href="#g" transform="translate(21.683 21.68)" fill="#F5E8CF"/><use xlink:href="#h" transform="translate(105.05 105.047)" fill="#F5E8CF"/><use xlink:href="#i" transform="translate(109.766 50.793)" fill="#F5E8CF"/><use xlink:href="#j" transform="translate(17.948 88.823)" fill="#F5E8CF"/><use xlink:href="#k" transform="translate(88.827 17.944)" fill="#F5E8CF"/><use xlink:href="#l" transform="translate(50.794 109.763)" fill="#F5E8CF"/><use xlink:href="#m" transform="translate(50.795 17.943)" fill="#F5E8CF"/><use xlink:href="#n" transform="translate(88.826 109.763)" fill="#F5E8CF"/><use xlink:href="#o" transform="translate(17.951 50.792)" fill="#F5E8CF"/><use xlink:href="#p" transform="translate(109.765 88.824)" fill="#F5E8CF"/><use xlink:href="#q" transform="translate(62 64)" fill="#7E394D"/><defs><path id="a" d="M31.116 1.96H.98A.98.98 0 0 1 .98 0h30.136a.98.98 0 0 1 0 1.96z"/><path id="b" d="M31.12 1.96H.98A.98.98 0 0 1 .98 0h30.14a.98.98 0 0 1 0 1.96z"/><path id="c" d="M.98 23.27a.98.98 0 0 1-.693-1.673L21.597.287a.98.98 0 1 1 1.386 1.386L1.673 22.982a.977.977 0 0 1-.693.287z"/><path id="d" d="M.98 23.273A.98.98 0 0 1 .287 21.6L21.6.287a.98.98 0 1 1 1.385 1.386L1.673 22.986a.975.975 0 0 1-.693.287z"/><path id="e" d="M.98 32.096a.98.98 0 0 1-.98-.98V.98a.98.98 0 0 1 1.96 0v30.136a.98.98 0 0 1-.98.98z"/><path id="f" d="M.98 32.101a.98.98 0 0 1-.98-.98V.98a.98.98 0 0 1 1.96 0v30.14a.98.98 0 0 1-.98.98z"/><path id="g" d="M22.289 23.269a.977.977 0 0 1-.693-.287L.287 1.672A.98.98 0 1 1 1.673.288L22.98 21.596a.98.98 0 0 1-.692 1.673z"/><path id="h" d="M22.293 23.273a.976.976 0 0 1-.693-.288L.287 1.673A.98.98 0 1 1 1.673.287L22.985 21.6a.98.98 0 0 1-.692 1.673z"/><path id="i" d="M.98 10.38a.981.981 0 0 1-.375-1.886L20.933.074a.98.98 0 0 1 .75 1.811l-20.328 8.42a.984.984 0 0 1-.374.075z"/><path id="j" d="M.98 10.381a.98.98 0 0 1-.375-1.884L20.935.075a.979.979 0 1 1 .75 1.81l-20.33 8.421a.974.974 0 0 1-.374.075z"/><path id="k" d="M.98 22.289a.98.98 0 0 1-.905-1.355L8.497.606a.98.98 0 1 1 1.81.75L1.885 21.684a.98.98 0 0 1-.905.605z"/><path id="l" d="M.98 22.29a.98.98 0 0 1-.905-1.355L8.495.605a.979.979 0 1 1 1.81.75l-8.42 20.33a.98.98 0 0 1-.905.605z"/><path id="m" d="M9.401 22.29a.98.98 0 0 1-.906-.604L.075 1.355a.979.979 0 1 1 1.81-.75l8.42 20.33a.978.978 0 0 1-.904 1.356z"/><path id="n" d="M9.402 22.29a.982.982 0 0 1-.906-.606L.075 1.356a.98.98 0 1 1 1.81-.75l8.421 20.328a.98.98 0 0 1-.904 1.355z"/><path id="o" d="M21.305 10.381a.983.983 0 0 1-.375-.075L.605 1.886a.98.98 0 0 1 .75-1.81l20.325 8.42a.98.98 0 0 1-.375 1.885z"/><path id="p" d="M21.309 10.382a.976.976 0 0 1-.375-.075L.605 1.886a.98.98 0 1 1 .75-1.81l20.33 8.42a.98.98 0 0 1-.376 1.886z"/><path id="q" d="M25.18 10.296l-2.838-3.85a3.039 3.039 0 0 0-2.432-1.241h-2.035V3.12c0-1.72-1.367-3.12-3.047-3.12H3.047C1.367 0 0 1.4 0 3.12V16.8c0 1.72 1.367 3.12 3.047 3.12h.936C4.403 21.13 5.531 22 6.855 22c1.324 0 2.453-.87 2.873-2.08h6.29c.42 1.21 1.549 2.08 2.873 2.08 1.324 0 2.453-.87 2.872-2.08H26v-7.118a4.25 4.25 0 0 0-.82-2.506zM6.855 19.92a1.03 1.03 0 0 1-1.015-1.04c0-.573.455-1.04 1.015-1.04.56 0 1.016.467 1.016 1.04a1.03 1.03 0 0 1-1.016 1.04zm8.989-2.08H9.728c-.42-1.21-1.549-2.08-2.873-2.08-1.324 0-2.452.87-2.872 2.08h-.936A1.03 1.03 0 0 1 2.03 16.8V3.12c0-.574.456-1.04 1.016-1.04h11.781c.56 0 1.016.466 1.016 1.04v14.72zm2.031-10.555h2.035c.317 0 .62.154.81.413l2.57 3.487h-5.415v-3.9zm1.016 12.635a1.03 1.03 0 0 1-1.016-1.04c0-.573.456-1.04 1.016-1.04s1.015.467 1.015 1.04a1.03 1.03 0 0 1-1.015 1.04zm5.078-2.08h-2.206c-.42-1.21-1.548-2.08-2.872-2.08a2.97 2.97 0 0 0-1.016.18v-2.675h6.094v4.575z"/></defs></svg>