<svg width="18" height="18" viewBox="0 0 18 18" xmlns="http://www.w3.org/2000/svg" xmlns:xlink="http://www.w3.org/1999/xlink"><title>instagram</title><desc>Created using Figma</desc><use xlink:href="#a" fill="#94908B"/><use xlink:href="#b" transform="translate(4.5 4.5)" fill="#94908B"/><use xlink:href="#c" transform="translate(13.238 3.56)" fill="#94908B"/><defs><path id="a" d="M12.375 0h-6.75A5.626 5.626 0 0 0 0 5.625v6.75A5.626 5.626 0 0 0 5.625 18h6.75A5.626 5.626 0 0 0 18 12.375v-6.75A5.626 5.626 0 0 0 12.375 0zm3.938 12.375a3.942 3.942 0 0 1-3.938 3.938h-6.75a3.942 3.942 0 0 1-3.938-3.938v-6.75a3.942 3.942 0 0 1 3.938-3.938h6.75a3.942 3.942 0 0 1 3.938 3.938v6.75z"/><path id="b" d="M4.5 0a4.5 4.5 0 1 0 0 9 4.5 4.5 0 0 0 0-9zm0 7.313A2.816 2.816 0 0 1 1.687 4.5 2.816 2.816 0 0 1 4.5 1.687 2.816 2.816 0 0 1 7.313 4.5 2.816 2.816 0 0 1 4.5 7.313z"/><path id="c" d="M.6 1.2A.6.6 0 1 0 .6 0a.6.6 0 0 0 0 1.2z"/></defs></svg>