<svg width="16" height="14" viewBox="0 0 16 14" xmlns="http://www.w3.org/2000/svg" xmlns:xlink="http://www.w3.org/1999/xlink"><title>Избранное</title><desc>Created using Figma</desc><use xlink:href="#a" transform="translate(14.679 1.312)" fill="#333"/><use xlink:href="#a" fill="#333"/><defs><path id="a" d="M14.681 1.314l-.002-.002A4.55 4.55 0 0 0 8.29 1.31v.001L8 1.599l-.288-.286A4.508 4.508 0 0 0 4.518 0a4.508 4.508 0 0 0-3.195 1.312A4.43 4.43 0 0 0 0 4.479c0 1.196.47 2.32 1.323 3.166l6.22 6.167a.65.65 0 0 0 .915 0l6.22-6.166a4.456 4.456 0 0 0 .003-6.332zm-.916 5.425L8 12.453 2.237 6.739a3.162 3.162 0 0 1-.944-2.26c0-.854.335-1.657.944-2.261a3.23 3.23 0 0 1 2.28-.935c.826 0 1.652.312 2.28.935l.747.74a.65.65 0 0 0 .914 0l.746-.74.001-.001a3.247 3.247 0 0 1 4.558 0l.003.002a3.18 3.18 0 0 1-.002 4.52z"/></defs></svg>