<svg width="16" height="12" viewBox="0 0 16 12" xmlns="http://www.w3.org/2000/svg" xmlns:xlink="http://www.w3.org/1999/xlink"><title>left-arrow</title><desc>Created using Figma</desc><use xlink:href="#a" transform="translate(0 5.371)" fill="#999"/><use xlink:href="#b" fill="#999"/><defs><path id="a" d="M15.354 0H.646A.638.638 0 0 0 0 .63c0 .347.29.629.646.629h14.708A.638.638 0 0 0 16 .629.638.638 0 0 0 15.354 0z"/><path id="b" d="M1.56 6l5.06-4.926a.618.618 0 0 0 0-.89.659.659 0 0 0-.914 0L.189 5.554a.618.618 0 0 0 0 .891l5.516 5.37a.653.653 0 0 0 .457.185c.165 0 .33-.061.457-.184a.618.618 0 0 0 0-.89L1.56 6z"/></defs></svg>