<svg width="164" height="99" viewBox="0 0 164 99" xmlns="http://www.w3.org/2000/svg" xmlns:xlink="http://www.w3.org/1999/xlink"><title>Логотип</title><desc>Created using Figma</desc><g fill="#7E394D"><use xlink:href="#a"/><use xlink:href="#b"/><use xlink:href="#c"/><use xlink:href="#d"/><use xlink:href="#e"/><use xlink:href="#f"/><use xlink:href="#g"/><use xlink:href="#h"/><use xlink:href="#i"/><use xlink:href="#j"/></g><g transform="translate(0 90)" fill="#666"><use xlink:href="#k"/><use xlink:href="#l"/><use xlink:href="#m"/><use xlink:href="#n"/><use xlink:href="#o"/><use xlink:href="#p"/><use xlink:href="#q"/><use xlink:href="#r"/><use xlink:href="#s"/><use xlink:href="#t"/><use xlink:href="#u"/><use xlink:href="#v"/><use xlink:href="#w"/><use xlink:href="#x"/><use xlink:href="#y"/><use xlink:href="#z"/><use xlink:href="#A"/><use xlink:href="#B"/></g><defs><path id="a" d="M102.214 18.644c-.944-5.016-3.77-7.778-7.962-7.778-6.658 0-9.531 7.373-12.25 14.643-2.719-7.27-5.596-14.643-12.255-14.643-4.194 0-7.02 2.763-7.96 7.778-1.284 6.844 1.607 14.156 4.835 18.053 2.058 2.484 4.315 3.798 6.529 3.798 4.462 0 6.992-4.22 8.852-8.533 1.86 4.313 4.39 8.533 8.847 8.533 2.185 0 4.507-1.352 6.538-3.806 3.226-3.9 6.113-11.211 4.826-18.045zm-11.365 19.5c-3.273 0-5.333-3.56-7.587-9.312.239-.629.478-1.265.718-1.905l.073-.195c2.482-6.645 5.049-13.514 10.2-13.514 3.02 0 4.922 1.972 5.655 5.863 1.095 5.818-1.348 12.506-4.328 16.107-1.577 1.907-3.258 2.955-4.73 2.955zm-17.699 0c-1.47 0-3.147-1.047-4.722-2.948-2.98-3.597-5.427-10.29-4.335-16.117.729-3.89 2.631-5.861 5.654-5.861 5.154 0 7.723 6.874 10.208 13.522l.064.172c.242.645.482 1.287.724 1.922-2.252 5.75-4.316 9.31-7.593 9.31z"/><path id="b" d="M86.45 7.21A8.071 8.071 0 0 0 82.437.254L82 0l-.436.253a8.07 8.07 0 0 0-4.013 6.958 8.07 8.07 0 0 0 4.013 6.955l.436.254.436-.254a8.072 8.072 0 0 0 4.013-6.955zm-4.427 5.157L82 12.38l-.022-.015A6.314 6.314 0 0 1 79.29 7.21a6.31 6.31 0 0 1 2.688-5.157L82 2.037l.022.016A6.311 6.311 0 0 1 84.71 7.21a6.313 6.313 0 0 1-2.687 5.157z"/><path id="c" d="M11.893 69.845c0-1.527-.299-2.433-1.061-3.233-.777-.81-2.064-1.3-3.889-1.83-1.44-.42-2.431-.82-3.032-1.223-.69-.463-1.04-1.122-1.04-1.962 0-.907.277-1.603.824-2.06.532-.44 1.336-.656 2.457-.656.794 0 1.624.14 2.536.43.632.199 1.36.515 1.881.755l.413-2.052c-.446-.194-1.292-.526-2.17-.708a13.92 13.92 0 0 0-2.73-.29c-.776 0-1.532.078-2.246.233A7.075 7.075 0 0 0 1.878 58c-.579.332-1.024.8-1.36 1.429C.175 60.066 0 60.843 0 61.735c0 1.47.368 2.57 1.09 3.271.765.743 2.175 1.43 4.193 2.034 1.497.44 2.477.842 2.992 1.235.587.45.884 1.086.884 1.896 0 .83-.306 1.525-.91 2.061-.585.526-1.41.794-2.45.794-.96 0-1.97-.237-2.832-.468a16.303 16.303 0 0 1-2.398-.83l-.441 2.05c.629.262 1.773.706 2.638.877 1.17.232 2.215.345 3.194.345 1.59 0 2.998-.47 4.188-1.397 1.176-.913 1.745-2.142 1.745-3.758z"/><path id="d" d="M25.322 57.315h-2.653v17.409h2.653V57.315z"/><path id="e" d="M69.087 57.315l-7.074 17.409h1.893l1.848-4.6h8.172l.012.03 1.927 4.57h3.033l-7.57-17.409h-2.241zm-2.663 11.048l.027-.066 3.287-8.13.046.108 3.407 8.088h-6.767z"/><path id="f" d="M134.97 72.966v-15.65h-2.654v17.408h10.703l.629-1.758h-8.678z"/><path id="g" d="M155.941 72.966v-6.273h5.605l.634-1.756h-6.239v-5.866h7.425l.633-1.756h-10.707v17.409h10.074l.634-1.758h-8.059z"/><path id="h" d="M39.395 57.307h-2.653v17.409H39.1v-13.58l.085.113L49.55 74.716h2.655V57.307h-2.36v13.58l-.087-.114-10.363-13.466z"/><path id="i" d="M98.684 58.546c-1.196-.828-2.662-1.23-4.483-1.23H88.19v17.408h2.652v-6.756h1.636c3.907 0 7.9-.684 7.9-5.75-.001-1.678-.555-2.878-1.694-3.672zM96.47 65.21c-.78.567-1.921.84-3.492.84h-2.137v-7.005h3.01c3.18 0 3.849 1.801 3.849 3.314-.001 1.299-.415 2.258-1.23 2.851z"/><path id="j" d="M120.745 58.546c-1.195-.828-2.661-1.23-4.483-1.23h-6.011v17.408h2.653v-6.756h1.634c3.909 0 7.902-.684 7.902-5.75 0-1.678-.554-2.878-1.695-3.672zm-2.212 6.664c-.78.567-1.922.84-3.493.84h-2.136v-7.005h3.009c3.181 0 3.849 1.801 3.849 3.314 0 1.299-.414 2.258-1.229 2.851z"/><path id="k" d="M2.616 4.626c.324 0 .609-.043.853-.13a1.69 1.69 0 0 0 .62-.36 1.53 1.53 0 0 0 .379-.564 2.03 2.03 0 0 0 .126-.73c0-.534-.165-.955-.493-1.261-.325-.307-.82-.46-1.485-.46H1.28v3.505h1.335zm0-4.528c.553 0 1.034.065 1.443.196.409.13.747.317 1.016.558.268.237.467.524.595.863.132.34.199.715.199 1.128 0 .412-.07.792-.21 1.14a2.44 2.44 0 0 1-.62.888 2.85 2.85 0 0 1-1.022.582 4.434 4.434 0 0 1-1.401.202H1.28v3.24H0V.099h2.616z"/><path id="l" d="M11.292 4.338c.329 0 .617-.041.866-.123.252-.082.463-.196.631-.343.168-.151.295-.329.379-.533.084-.208.126-.437.126-.686 0-.507-.164-.889-.493-1.146-.325-.257-.814-.386-1.467-.386h-1.209v3.217h1.167zm4.028 4.558h-1.142c-.229 0-.395-.092-.5-.276l-2.134-3.05a.613.613 0 0 0-.222-.215c-.08-.045-.2-.068-.36-.068h-.837v3.609h-1.28V.098h2.489c.557 0 1.036.06 1.437.178.405.114.738.28.998.496.265.212.46.47.583.772.129.302.193.641.193 1.017 0 .306-.046.594-.139.864-.092.27-.228.512-.408.729a2.55 2.55 0 0 1-.65.551 3.164 3.164 0 0 1-.872.356c.16.098.299.234.415.41l2.43 3.425z"/><path id="m" d="M25.946 4.497c0 .658-.104 1.262-.313 1.813a4.18 4.18 0 0 1-.872 1.422 3.957 3.957 0 0 1-1.353.925c-.525.22-1.108.33-1.75.33a4.52 4.52 0 0 1-1.75-.33 3.959 3.959 0 0 1-1.352-.925 4.31 4.31 0 0 1-.872-1.422 5.088 5.088 0 0 1-.313-1.813c0-.654.105-1.256.313-1.807a4.228 4.228 0 0 1 .872-1.422c.377-.4.828-.71 1.353-.931A4.433 4.433 0 0 1 21.659 0c.641 0 1.224.112 1.75.337.524.22.975.53 1.352.931.377.396.668.87.872 1.422a5.07 5.07 0 0 1 .313 1.807zm-1.311 0c0-.523-.07-.993-.21-1.41a2.99 2.99 0 0 0-.602-1.06 2.559 2.559 0 0 0-.938-.667 3.104 3.104 0 0 0-1.226-.233c-.453 0-.864.078-1.233.233a2.628 2.628 0 0 0-.938.668c-.26.29-.461.643-.601 1.06-.14.416-.21.886-.21 1.409 0 .527.07.999.21 1.415a3 3 0 0 0 .6 1.054c.262.29.574.513.939.668.369.15.78.226 1.233.226.453 0 .861-.075 1.226-.226.369-.155.682-.378.938-.668a3 3 0 0 0 .601-1.054c.14-.416.211-.888.211-1.415z"/><path id="n" d="M30.404 1.158v2.947h3.464v1.06h-3.464v3.73h-1.287V.099h5.352v1.06h-4.065z"/><path id="o" d="M42.838 7.836l-.006 1.06H37.48V.098h5.352v1.06h-4.065v2.788h3.271v1.023h-3.27v2.867h4.07z"/><path id="p" d="M50.452 1.532a.495.495 0 0 1-.126.153.275.275 0 0 1-.169.049.444.444 0 0 1-.246-.098 3.596 3.596 0 0 0-.349-.227 2.337 2.337 0 0 0-.493-.227 2.042 2.042 0 0 0-.691-.104c-.253 0-.475.035-.668.104a1.335 1.335 0 0 0-.475.276 1.15 1.15 0 0 0-.294.41 1.32 1.32 0 0 0-.097.51c0 .236.058.432.175.587.12.155.276.288.469.399.192.11.41.206.655.287.245.082.495.168.752.258.256.086.507.186.751.3.245.114.463.26.656.435.192.172.346.384.463.637.12.25.18.556.18.92 0 .387-.066.75-.198 1.09a2.534 2.534 0 0 1-1.486 1.488c-.36.143-.771.215-1.232.215-.277 0-.545-.029-.806-.086a3.908 3.908 0 0 1-.74-.227 4.094 4.094 0 0 1-.655-.361c-.2-.143-.38-.302-.541-.478l.367-.625a.516.516 0 0 1 .126-.122.322.322 0 0 1 .174-.05c.085 0 .18.046.289.135.112.09.249.19.409.3.164.107.359.205.583.295.229.09.505.134.83.134.265 0 .501-.034.71-.104a1.346 1.346 0 0 0 .853-.79 1.65 1.65 0 0 0 .114-.625c0-.257-.058-.468-.174-.631a1.43 1.43 0 0 0-.463-.41 3.36 3.36 0 0 0-.655-.282 894.03 894.03 0 0 1-.752-.24 8 8 0 0 1-.752-.293 2.473 2.473 0 0 1-.655-.43 1.995 1.995 0 0 1-.463-.667c-.116-.27-.174-.6-.174-.992 0-.315.06-.62.18-.913a2.3 2.3 0 0 1 .523-.778c.233-.23.517-.41.854-.546A3.006 3.006 0 0 1 48.366 0c.485 0 .93.08 1.334.239.41.155.764.38 1.065.674l-.313.619z"/><path id="q" d="M58.557 1.532a.495.495 0 0 1-.127.153.275.275 0 0 1-.168.049.444.444 0 0 1-.246-.098 3.596 3.596 0 0 0-.35-.227 2.337 2.337 0 0 0-.492-.227 2.042 2.042 0 0 0-.692-.104 1.97 1.97 0 0 0-.667.104 1.333 1.333 0 0 0-.475.276 1.149 1.149 0 0 0-.295.41 1.32 1.32 0 0 0-.096.51c0 .236.058.432.174.587.12.155.277.288.47.399.192.11.41.206.655.287.244.082.495.168.751.258.257.086.508.186.752.3.245.114.463.26.655.435a1.9 1.9 0 0 1 .463.637c.12.25.18.556.18.92 0 .387-.065.75-.198 1.09a2.534 2.534 0 0 1-1.485 1.488c-.36.143-.772.215-1.232.215-.277 0-.546-.029-.806-.086a3.908 3.908 0 0 1-.74-.227 4.094 4.094 0 0 1-.655-.361 3.401 3.401 0 0 1-.541-.478l.366-.625a.516.516 0 0 1 .127-.122.322.322 0 0 1 .174-.05c.084 0 .18.046.289.135.112.09.248.19.409.3.164.107.358.205.583.295.228.09.505.134.83.134.264 0 .5-.034.71-.104a1.46 1.46 0 0 0 .522-.306c.145-.135.255-.296.331-.484a1.65 1.65 0 0 0 .114-.625c0-.257-.058-.468-.174-.631a1.43 1.43 0 0 0-.463-.41 3.36 3.36 0 0 0-.656-.282l-.751-.24a8 8 0 0 1-.752-.293 2.473 2.473 0 0 1-.655-.43 1.995 1.995 0 0 1-.463-.667c-.116-.27-.175-.6-.175-.992 0-.315.06-.62.18-.913.121-.294.295-.554.524-.778.232-.23.517-.41.854-.546A3.006 3.006 0 0 1 56.47 0c.485 0 .93.08 1.335.239.409.155.764.38 1.064.674l-.312.619z"/><path id="r" d="M63.48 8.896h-1.286V.098h1.287v8.798z"/><path id="s" d="M75.22 4.497a5.09 5.09 0 0 1-.313 1.813 4.182 4.182 0 0 1-.872 1.422 3.958 3.958 0 0 1-1.352.925c-.526.22-1.109.33-1.75.33-.638 0-1.22-.11-1.75-.33a3.958 3.958 0 0 1-1.353-.925 4.31 4.31 0 0 1-.872-1.422 5.088 5.088 0 0 1-.312-1.813c0-.654.104-1.256.312-1.807a4.228 4.228 0 0 1 .872-1.422c.377-.4.828-.71 1.353-.931A4.433 4.433 0 0 1 70.933 0c.641 0 1.224.112 1.75.337.525.22.976.53 1.352.931.377.396.668.87.872 1.422.209.551.313 1.153.313 1.807zm-1.31 0c0-.523-.071-.993-.211-1.41a2.99 2.99 0 0 0-.602-1.06 2.559 2.559 0 0 0-.938-.667 3.104 3.104 0 0 0-1.226-.233c-.453 0-.864.078-1.233.233a2.628 2.628 0 0 0-.938.668c-.26.29-.46.643-.601 1.06-.14.416-.21.886-.21 1.409 0 .527.07.999.21 1.415a3 3 0 0 0 .601 1.054c.26.29.573.513.938.668.369.15.78.226 1.233.226.453 0 .862-.075 1.226-.226.37-.155.682-.378.938-.668.261-.29.461-.641.602-1.054.14-.416.21-.888.21-1.415z"/><path id="t" d="M85.463.098v8.798h-.65a.526.526 0 0 1-.252-.055.765.765 0 0 1-.199-.178l-4.876-6.427c.008.11.014.219.018.325.008.106.012.206.012.3v6.035h-1.124V.098h.661c.112 0 .196.014.252.043a.52.52 0 0 1 .187.178l4.888 6.433a12.085 12.085 0 0 1-.03-.344 9.155 9.155 0 0 1-.006-.318V.098h1.119z"/><path id="u" d="M93.75 5.618l-1.28-3.412a7.71 7.71 0 0 1-.277-.883c-.044.176-.09.34-.139.49a5.982 5.982 0 0 1-.132.405l-1.275 3.4h3.103zm2.531 3.278h-.986a.432.432 0 0 1-.433-.306L94.1 6.55h-3.806l-.764 2.04a.516.516 0 0 1-.156.214.428.428 0 0 1-.277.092h-.986L91.55.098h1.292l3.44 8.798z"/><path id="v" d="M103.865 7.8v1.096h-4.942V.098h1.28v7.701h3.662z"/><path id="w" d="M114.001 7.86c.324 0 .601-.038.829-.116.233-.078.421-.184.566-.319a1.2 1.2 0 0 0 .324-.477c.069-.188.103-.393.103-.613 0-.437-.149-.78-.445-1.03-.297-.253-.756-.38-1.377-.38h-1.804V7.86h1.804zm-1.804-6.739v2.88h1.473c.629 0 1.096-.129 1.401-.386.309-.262.463-.613.463-1.054 0-.502-.146-.868-.439-1.097-.293-.228-.748-.343-1.365-.343h-1.533zM113.73.098c.541 0 1.004.053 1.389.16.389.106.708.259.956.459.249.2.431.443.547.729.121.282.181.602.181.962a1.858 1.858 0 0 1-.391 1.164 2.178 2.178 0 0 1-.499.453 2.89 2.89 0 0 1-.71.337c1.255.253 1.882.921 1.882 2.004 0 .375-.068.718-.204 1.029a2.25 2.25 0 0 1-.595.796 2.747 2.747 0 0 1-.962.521 4.237 4.237 0 0 1-1.299.184h-3.109V.098h2.814z"/><path id="x" d="M125.647 7.836l-.006 1.06h-5.352V.098h5.352v1.06h-4.065v2.788h3.271v1.023h-3.271v2.867h4.071z"/><path id="y" d="M133.381 5.618L132.1 2.206a7.723 7.723 0 0 1-.276-.883 8.205 8.205 0 0 1-.139.49 5.933 5.933 0 0 1-.132.405l-1.275 3.4h3.103zm2.531 3.278h-.986a.43.43 0 0 1-.276-.086.484.484 0 0 1-.157-.22l-.763-2.04h-3.806l-.764 2.04a.517.517 0 0 1-.156.214.43.43 0 0 1-.277.092h-.986L131.18.098h1.293l3.439 8.798z"/><path id="z" d="M141.721 7.848a2.3 2.3 0 0 0 .926-.177c.273-.119.503-.284.692-.497.188-.216.333-.471.433-.766.1-.298.15-.627.15-.986V.098h1.275v5.324c0 .515-.08.99-.241 1.428-.16.437-.391.814-.691 1.133a3.17 3.17 0 0 1-1.095.747c-.428.18-.912.27-1.449.27s-1.02-.09-1.449-.27a3.166 3.166 0 0 1-1.094-.747 3.277 3.277 0 0 1-.692-1.133 4.122 4.122 0 0 1-.24-1.428V.098h1.281v5.318c0 .36.048.688.144.986.1.298.244.556.433.772.188.213.419.378.691.497.273.118.582.177.926.177z"/><path id="A" d="M154.671 1.189h-2.742v7.707h-1.275V1.189H147.9V.098h6.771v1.09z"/><path id="B" d="M160.837 5.416v3.48h-1.275v-3.48L156.4.098h1.124a.41.41 0 0 1 .271.086.602.602 0 0 1 .168.214l1.876 3.29a10.667 10.667 0 0 1 .373.827 6.37 6.37 0 0 1 .15-.398 8.92 8.92 0 0 1 .205-.429l1.87-3.29a.763.763 0 0 1 .162-.202.387.387 0 0 1 .271-.098H164l-3.163 5.318z"/></defs></svg>