<svg width="16" height="15" viewBox="0 0 16 15" xmlns="http://www.w3.org/2000/svg" xmlns:xlink="http://www.w3.org/1999/xlink"><title>menu</title><desc>Created using Figma</desc><use xlink:href="#a" transform="translate(0 6.86)" fill="#333"/><use xlink:href="#b" fill="#333"/><use xlink:href="#c" transform="translate(0 13.72)" fill="#333"/><defs><path id="a" d="M15.354 0H.646A.643.643 0 0 0 0 .64c0 .354.29.641.646.641h14.708A.643.643 0 0 0 16 .641.644.644 0 0 0 15.354 0z"/><path id="b" d="M15.354 0H.646A.644.644 0 0 0 0 .64c0 .354.29.641.646.641h14.708A.643.643 0 0 0 16 .641.644.644 0 0 0 15.354 0z"/><path id="c" d="M15.354 0H.646A.643.643 0 0 0 0 .64c0 .354.29.641.646.641h14.708A.643.643 0 0 0 16 .641.644.644 0 0 0 15.354 0z"/></defs></svg>