<svg width="42" height="41" viewBox="0 0 42 41" xmlns="http://www.w3.org/2000/svg" xmlns:xlink="http://www.w3.org/1999/xlink"><title>Лого</title><desc>Created using Figma</desc><g transform="translate(.47)" fill="#7E394D"><use xlink:href="#a"/><use xlink:href="#b"/></g><defs><path id="a" d="M40.74 18.644c-.944-5.016-3.772-7.778-7.962-7.778-6.659 0-9.532 7.373-12.25 14.643-2.72-7.27-5.596-14.643-12.256-14.643-4.193 0-7.02 2.763-7.96 7.778C-.972 25.488 1.919 32.8 5.147 36.697c2.058 2.484 4.315 3.798 6.53 3.798 4.462 0 6.992-4.22 8.852-8.533 1.859 4.313 4.39 8.533 8.846 8.533 2.186 0 4.508-1.352 6.538-3.806 3.226-3.9 6.114-11.211 4.826-18.045zm-11.366 19.5c-3.273 0-5.333-3.56-7.587-9.312.24-.629.479-1.265.718-1.905l.073-.195c2.483-6.645 5.049-13.514 10.2-13.514 3.02 0 4.923 1.972 5.655 5.863 1.095 5.818-1.348 12.506-4.327 16.107-1.577 1.907-3.258 2.955-4.732 2.955zm-17.699 0c-1.47 0-3.147-1.047-4.722-2.948-2.98-3.597-5.427-10.29-4.335-16.117.73-3.89 2.632-5.861 5.654-5.861 5.154 0 7.723 6.874 10.208 13.522l.064.172c.242.645.482 1.287.724 1.922-2.252 5.75-4.315 9.31-7.593 9.31z"/><path id="b" d="M24.975 7.21A8.071 8.071 0 0 0 20.962.254L20.526 0l-.436.253a8.07 8.07 0 0 0-4.013 6.958 8.07 8.07 0 0 0 4.013 6.955l.436.254.436-.254a8.072 8.072 0 0 0 4.013-6.955zm-4.427 5.157l-.022.014-.022-.015a6.314 6.314 0 0 1-2.688-5.156 6.31 6.31 0 0 1 2.688-5.157l.022-.016.022.016a6.311 6.311 0 0 1 2.687 5.157 6.314 6.314 0 0 1-2.687 5.157z"/></defs></svg>