<svg xmlns="http://www.w3.org/2000/svg" viewBox="0 0 512.001 512.001"><path d="M421.216 195.504c-5.092-26.101-17.723-49.836-36.526-68.64-18.804-18.803-42.54-31.434-68.641-36.527-11.21-2.189-22.073 5.128-24.261 16.339-2.187 11.212 5.128 22.073 16.339 24.26 36.847 7.188 65.3 35.642 72.489 72.489 1.927 9.874 10.581 16.726 20.278 16.726 1.313 0 2.645-.125 3.984-.387 11.21-2.187 18.525-13.049 16.338-24.26zm90.206 1.425c-5.629-50.096-28.373-97.304-64.042-132.927C411.712 28.378 364.475 5.694 314.371.128c-11.355-1.261-21.578 6.92-22.839 18.272-1.261 11.353 6.919 21.578 18.272 22.84 84.961 9.438 150.966 75.36 160.512 160.31 1.188 10.566 10.139 18.374 20.527 18.374.771 0 1.552-.043 2.336-.131 11.351-1.277 19.519-11.512 18.243-22.864zM432.59 312.566l-.186-.025a268.414 268.414 0 0 1-58.619-14.596c-23.91-8.99-51.103-3.191-69.27 14.772l-.083.083-17.148 17.148a339.303 339.303 0 0 1-105.679-105.679l17.149-17.149.082-.083c17.964-18.166 23.762-45.356 14.79-69.223a268.54 268.54 0 0 1-14.614-58.666c-.007-.063-.017-.127-.026-.19-4.591-32.478-32.782-56.734-65.548-56.467H66.053a65.83 65.83 0 0 0-5.853.267C24.143 26.016-2.541 58.001.718 94.058c.01.108.02.215.032.323 7.684 72.354 32.649 142.88 72.197 203.955 35.892 56.461 84.701 105.269 141.162 141.164 60.792 39.406 130.99 64.369 203.013 72.196.127.015.254.027.38.038a66.446 66.446 0 0 0 6.168.267c36.204-.148 65.538-29.722 65.391-65.841v-67.233c.685-33.213-23.546-61.716-56.471-66.361zm15.108 66.129v67.548c.055 13.396-10.8 24.338-24.19 24.393a27.602 27.602 0 0 1-2.135-.086c-65.578-7.161-129.488-29.914-184.837-65.808a8.816 8.816 0 0 0-.161-.103c-51.429-32.68-95.885-77.137-128.565-128.565l-.097-.153c-36.03-55.615-58.785-119.835-65.811-185.728-1.123-13.283 8.728-25.038 22.021-26.239a24.31 24.31 0 0 1 2.145-.098h67.463c.146-.001.294-.003.443-.002 12.021 0 22.322 8.905 24.044 20.819a309.993 309.993 0 0 0 16.871 67.649c3.319 8.832 1.189 18.869-5.427 25.591l-28.517 28.517a20.682 20.682 0 0 0-3.354 24.847 380.673 380.673 0 0 0 142.685 142.685 20.684 20.684 0 0 0 24.848-3.355l28.512-28.512c6.72-6.621 16.765-8.752 25.642-5.415a309.91 309.91 0 0 0 67.61 16.855c12.18 1.757 21.122 12.339 20.816 24.647-.004.171-.006.342-.006.513z"/></svg>