<svg xmlns="http://www.w3.org/2000/svg" viewBox="0 0 252.28 161.57"><defs><style>.cls-1{fill:#323742}.cls-2,.cls-3,.cls-4{fill:#f2e6cf}.cls-3,.cls-4{font-size:20px;letter-spacing:.18em;font-family:Roboto-Regular,Roboto}.cls-4{font-size:6px}.cls-5{letter-spacing:.17em}.cls-6{letter-spacing:.16em}.cls-7{letter-spacing:.17em}.cls-8{letter-spacing:.19em}.cls-9{letter-spacing:.17em}.cls-10{letter-spacing:.19em}.cls-11{letter-spacing:.18em}.cls-12{letter-spacing:.12em}</style></defs><title>Ресурс 212</title><g id="Слой_2" data-name="Слой 2"><g id="Blue"><path id="bg" class="cls-1" d="M0 0h252.28v161.57H0z"/><path class="cls-2" d="M37.45 27.12c-.44-2.34-1.76-3.63-3.72-3.63-3.11 0-4.45 3.44-5.72 6.83-1.27-3.39-2.61-6.83-5.72-6.83-2 0-3.28 1.29-3.72 3.63a11 11 0 0 0 2.26 8.42 4.14 4.14 0 0 0 3 1.77c2.08 0 3.27-2 4.13-4 .87 2 2.05 4 4.13 4a4.21 4.21 0 0 0 3.05-1.77 11 11 0 0 0 2.31-8.42zm-5.31 9.09c-1.53 0-2.49-1.66-3.54-4.34l.33-.89v-.09c1.16-3.1 2.36-6.3 4.76-6.3 1.41 0 2.3.92 2.64 2.73a9.94 9.94 0 0 1-2 7.51 3.18 3.18 0 0 1-2.19 1.38zm-8.26 0a3.17 3.17 0 0 1-2.21-1.37 10 10 0 0 1-2-7.51c.34-1.81 1.23-2.73 2.64-2.73 2.41 0 3.61 3.2 4.77 6.3v.08l.34.9c-1.05 2.67-2.01 4.33-3.54 4.33z"/><path class="cls-2" d="M30.09 21.79a3.76 3.76 0 0 0-1.87-3.24l-.2-.12-.2.12a3.74 3.74 0 0 0 0 6.49l.2.12.2-.12a3.76 3.76 0 0 0 1.87-3.25zM28 24.19a2.93 2.93 0 0 1 0-4.81 2.93 2.93 0 0 1 0 4.81zm143.15 116.47a1.72 1.72 0 0 0-.44-1.33 3.62 3.62 0 0 0-1.6-.75 4.77 4.77 0 0 1-1.25-.5.92.92 0 0 1-.43-.81 1 1 0 0 1 .34-.85 1.56 1.56 0 0 1 1-.27 3.46 3.46 0 0 1 1 .18 7.38 7.38 0 0 1 .78.31l.17-.84a4.81 4.81 0 0 0-.9-.29 5.69 5.69 0 0 0-1.13-.12 4.36 4.36 0 0 0-.93.1 2.88 2.88 0 0 0-.81.31 1.42 1.42 0 0 0-.56.59 2 2 0 0 0-.21.95 1.81 1.81 0 0 0 .45 1.35 4.42 4.42 0 0 0 1.73.84 4.15 4.15 0 0 1 1.23.51.93.93 0 0 1 .36.78 1.09 1.09 0 0 1-.37.85 1.47 1.47 0 0 1-1 .33 4.71 4.71 0 0 1-1.17-.19 6.7 6.7 0 0 1-1-.34l-.18.84a6.62 6.62 0 0 0 1.09.36 6.82 6.82 0 0 0 1.32.14 2.75 2.75 0 0 0 1.73-.58 1.83 1.83 0 0 0 .78-1.57zm4.44-5.16h1.09v7.16h-1.09zm19.14 0l-2.92 7.16h.78l.76-1.89h3.37l.79 1.88h1.25l-3.12-7.16zm-1.1 4.55l1.36-3.35 1.41 3.33zm28.26 1.89v-6.44h-1.09v7.17h4.41l.26-.73h-3.58zm8.64 0v-2.58h2.32l.26-.72h-2.58v-2.41h3.07l.26-.73h-4.42v7.17h4.16l.26-.73h-3.33zm-48.05-6.44h-1.09v7.16h.97v-5.58l.04.04 4.27 5.54h1.1v-7.16h-.98v5.59l-.03-.05-4.28-5.54zm24.45.5a3.15 3.15 0 0 0-1.85-.51h-2.48v7.16h1.09v-2.78h.67c1.61 0 3.26-.28 3.26-2.37a1.7 1.7 0 0 0-.69-1.5zm-.91 2.74a2.43 2.43 0 0 1-1.44.35h-.88v-2.88h1.24c1.31 0 1.59.74 1.59 1.36a1.36 1.36 0 0 1-.53 1.18zM216 136a3.15 3.15 0 0 0-1.85-.51h-2.45v7.16h1.09v-2.78h.67c1.61 0 3.26-.28 3.26-2.37a1.7 1.7 0 0 0-.72-1.5zm-.91 2.74a2.43 2.43 0 0 1-1.44.35h-.88v-2.88H214c1.31 0 1.59.74 1.59 1.36a1.36 1.36 0 0 1-.48 1.18z"/><g id="info"><text class="cls-3" transform="translate(70.28 86.69)">5%</text><text class="cls-4" transform="translate(106.85 78.97)">PRESIDE<tspan class="cls-5" x="31.03" y="0">N</tspan><tspan class="cls-6" x="36.31" y="0">T</tspan><tspan x="0" y="7.2">с</tspan><tspan class="cls-7" x="4.23" y="7.2">та</tspan><tspan class="cls-8" x="12.45" y="7.2">т</tspan><tspan class="cls-9" x="16.45" y="7.2">у</tspan><tspan x="20.34" y="7.2">с клуба привилегий</tspan></text><text class="cls-4" transform="translate(18.43 140.85)"><tspan>43874 SUR</tspan><tspan class="cls-10" x="41.82" y="0">N</tspan><tspan class="cls-11" x="47.24" y="0">AME </tspan><tspan class="cls-10" x="65.63" y="0">N</tspan><tspan x="71.04" y="0">AME</tspan></text></g><text class="cls-4" transform="translate(174.52 29.64)">ww<tspan class="cls-12" x="11.19" y="0">w</tspan><tspan x="16.42" y="0">.sinapple.ru</tspan></text></g></g></svg>