<svg width="16" height="16" viewBox="0 0 16 16" xmlns="http://www.w3.org/2000/svg" xmlns:xlink="http://www.w3.org/1999/xlink"><title>Поиск</title><desc>Created using Figma</desc><use xlink:href="#a" fill="#333"/><use xlink:href="#b" transform="translate(10.459 10.459)" fill="#333"/><defs><path id="a" d="M11.565 1.984A6.73 6.73 0 0 0 6.775 0a6.73 6.73 0 0 0-4.79 1.984A6.73 6.73 0 0 0 0 6.774a6.73 6.73 0 0 0 1.984 4.79 6.73 6.73 0 0 0 4.79 1.985 6.73 6.73 0 0 0 4.79-1.984 6.73 6.73 0 0 0 1.985-4.79 6.73 6.73 0 0 0-1.984-4.79zm-4.79 10.272a5.488 5.488 0 0 1-5.482-5.482 5.488 5.488 0 0 1 5.481-5.481 5.488 5.488 0 0 1 5.482 5.481 5.488 5.488 0 0 1-5.482 5.482z"/><path id="b" d="M5.352 4.438L1.103.19a.646.646 0 1 0-.914.914l4.25 4.25a.644.644 0 0 0 .913 0 .646.646 0 0 0 0-.915z"/></defs></svg>