<svg width="17" height="16" viewBox="0 0 17 16" xmlns="http://www.w3.org/2000/svg" xmlns:xlink="http://www.w3.org/1999/xlink"><title>tag</title><desc>Created using Figma</desc><use xlink:href="#a" fill="#333"/><use xlink:href="#b" transform="translate(3.8 3.837)" fill="#333"/><defs><path id="a" d="M15.368 6.78L8.777.19A.646.646 0 0 0 8.32 0H.646A.646.646 0 0 0 0 .646V8.32c0 .171.068.336.19.457l6.59 6.584.002.001c.412.411.96.638 1.542.638a2.16 2.16 0 0 0 1.542-.64l5.502-5.501.002-.002a2.187 2.187 0 0 0-.002-3.076zm-.915 2.165l-5.501 5.502a.882.882 0 0 1-.628.26.883.883 0 0 1-.63-.261l-6.4-6.394v-6.76h6.759l6.4 6.402a.89.89 0 0 1 .001 1.251z"/><path id="b" d="M1.104.19A.651.651 0 0 0 .646 0 .65.65 0 0 0 .19 1.104a.651.651 0 0 0 .914 0 .65.65 0 0 0 0-.914z"/></defs></svg>