<svg width="14" height="16" viewBox="0 0 14 16" xmlns="http://www.w3.org/2000/svg" xmlns:xlink="http://www.w3.org/1999/xlink"><title>trash</title><desc>Created using Figma</desc><use xlink:href="#a" transform="translate(0 2.941)" fill="#999"/><use xlink:href="#b" transform="translate(1.42 2.941)" fill="#999"/><use xlink:href="#c" transform="translate(3.54)" fill="#999"/><use xlink:href="#d" transform="translate(4.96 6.618)" fill="#999"/><use xlink:href="#e" transform="translate(7.79 6.618)" fill="#999"/><defs><path id="a" d="M13.377 0H.623A.635.635 0 0 0 0 .646c0 .357.279.647.623.647h12.754c.344 0 .623-.29.623-.647A.635.635 0 0 0 13.377 0z"/><path id="b" d="M10.543 0a.635.635 0 0 0-.623.646v10.295c0 .455-.356.825-.794.825H2.04c-.438 0-.794-.37-.794-.825V.646A.635.635 0 0 0 .623 0 .635.635 0 0 0 0 .646v10.295c0 1.168.915 2.117 2.04 2.117h7.086c1.125 0 2.04-.95 2.04-2.117V.646A.635.635 0 0 0 10.543 0z"/><path id="c" d="M4.874 0H2.04C.915 0 0 .95 0 2.117v1.47c0 .358.279.647.623.647s.623-.29.623-.646v-1.47c0-.456.356-.825.794-.825h2.834c.438 0 .795.37.795.824v1.47c0 .358.278.647.622.647s.623-.29.623-.646v-1.47C6.914.95 6 0 4.874 0z"/><path id="d" d="M.623 0A.635.635 0 0 0 0 .646V5.06c0 .356.279.646.623.646s.623-.29.623-.646V.646A.635.635 0 0 0 .623 0z"/><path id="e" d="M.623 0A.635.635 0 0 0 0 .646V5.06c0 .356.279.646.623.646s.623-.29.623-.646V.646A.635.635 0 0 0 .623 0z"/></defs></svg>