<svg width="16" height="16" viewBox="0 0 16 16" xmlns="http://www.w3.org/2000/svg" xmlns:xlink="http://www.w3.org/1999/xlink"><title>user (1)</title><desc>Created using Figma</desc><use xlink:href="#a" transform="translate(0 9.82)" fill="#FFF"/><use xlink:href="#b" transform="translate(4.12)" fill="#FFF"/><defs><path id="a" d="M8 0C3.514 0 0 2.074 0 4.722v.815a.647.647 0 0 0 1.295 0v-.815c0-1.859 3.07-3.43 6.705-3.43 3.634 0 6.704 1.571 6.704 3.43v.815a.647.647 0 0 0 1.296 0v-.815C16 2.074 12.486 0 8 0z"/><path id="b" d="M7.789 3.334a3.876 3.876 0 0 0-1.105-2.19A3.922 3.922 0 0 0 3.341.042 3.913 3.913 0 0 0 .043 4.48a3.88 3.88 0 0 0 1.54 2.565 3.892 3.892 0 0 0 2.907.726 3.913 3.913 0 0 0 3.3-4.437zM4.3 6.493a2.607 2.607 0 0 1-1.945-.487 2.596 2.596 0 0 1-1.03-1.716A2.618 2.618 0 0 1 4.3 1.32a2.602 2.602 0 0 1 2.207 2.203A2.618 2.618 0 0 1 4.3 6.493z"/></defs></svg>