<svg width="16" height="16" viewBox="0 0 16 16" xmlns="http://www.w3.org/2000/svg" xmlns:xlink="http://www.w3.org/1999/xlink"><title>warning</title><desc>Created using Figma</desc><use xlink:href="#a" transform="rotate(-180 8 8)" fill="#333"/><use xlink:href="#b" transform="rotate(-180 4.323 5.794)" fill="#333"/><use xlink:href="#c" transform="rotate(-180 4.323 2.852)" fill="#333"/><defs><path id="a" d="M13.657 2.343A7.947 7.947 0 0 0 8 0a7.948 7.948 0 0 0-5.657 2.343A7.948 7.948 0 0 0 0 8c0 2.137.832 4.146 2.343 5.657A7.948 7.948 0 0 0 8 16a7.948 7.948 0 0 0 5.657-2.343A7.948 7.948 0 0 0 16 8a7.948 7.948 0 0 0-2.343-5.657zM8 14.707A6.715 6.715 0 0 1 1.293 8 6.715 6.715 0 0 1 8 1.293 6.715 6.715 0 0 1 14.707 8 6.715 6.715 0 0 1 8 14.707z"/><path id="b" d="M.646 0A.646.646 0 0 0 0 .646v2.942a.646.646 0 1 0 1.293 0V.646A.646.646 0 0 0 .646 0z"/><path id="c" d="M1.103.19A.65.65 0 0 0 .646 0 .65.65 0 0 0 0 .646a.65.65 0 0 0 1.103.457.65.65 0 0 0 .19-.457.651.651 0 0 0-.19-.457z"/></defs></svg>