<svg width="16" height="16" viewBox="0 0 16 16" xmlns="http://www.w3.org/2000/svg" xmlns:xlink="http://www.w3.org/1999/xlink"><title>worldwide</title><desc>Created using Figma</desc><use xlink:href="#a" fill="#FFF"/><use xlink:href="#b" transform="translate(0 7.35)" fill="#FFF"/><use xlink:href="#c" transform="translate(4.412)" fill="#FFF"/><defs><path id="a" d="M13.657 2.343A7.947 7.947 0 0 0 8 0a7.948 7.948 0 0 0-5.657 2.343A7.948 7.948 0 0 0 0 8c0 2.137.832 4.146 2.343 5.657A7.948 7.948 0 0 0 8 16a7.948 7.948 0 0 0 5.657-2.343A7.948 7.948 0 0 0 16 8a7.948 7.948 0 0 0-2.343-5.657zM8 14.707A6.715 6.715 0 0 1 1.293 8 6.715 6.715 0 0 1 8 1.293 6.715 6.715 0 0 1 14.707 8 6.715 6.715 0 0 1 8 14.707z"/><path id="b" d="M15.354 0H.646a.646.646 0 0 0 0 1.293h14.708a.646.646 0 1 0 0-1.293z"/><path id="c" d="M4.065.21a.646.646 0 0 0-.954 0A11.894 11.894 0 0 0 0 8.013a11.894 11.894 0 0 0 3.11 7.777.646.646 0 0 0 .954 0 11.893 11.893 0 0 0 3.11-7.803A11.893 11.893 0 0 0 4.065.21zm-.477 14.148A10.601 10.601 0 0 1 1.293 8c.051-2.32.86-4.55 2.295-6.358A10.601 10.601 0 0 1 5.883 8a10.6 10.6 0 0 1-2.295 6.357z"/></defs></svg>