<svg width="19" height="22" viewBox="0 0 19 22" xmlns="http://www.w3.org/2000/svg"><title>copy</title><g fill="#D1CDC9"><path d="M.983 18H3.93v3c0 .552.44 1 .983 1h13.103A.991.991 0 0 0 19 21V5c0-.552-.44-1-.983-1H15.07V1c0-.552-.44-1-.983-1H.983A.992.992 0 0 0 0 1v16c0 .552.44 1 .983 1zm16.052 2H5.897V6h11.137v14zM1.965 2h11.138v2h-8.19a.992.992 0 0 0-.982 1v11H1.966V2z"/><path d="M8.845 8a.992.992 0 0 0-.983 1c0 .552.44 1 .983 1h5.241a.992.992 0 0 0 .983-1c0-.552-.44-1-.983-1H8.845zm5.241 4H8.845a.992.992 0 0 0-.983 1c0 .552.44 1 .983 1h5.241a.992.992 0 0 0 .983-1c0-.552-.44-1-.983-1zm0 4H8.845a.992.992 0 0 0-.983 1c0 .552.44 1 .983 1h5.241a.992.992 0 0 0 .983-1c0-.552-.44-1-.983-1z"/></g></svg>