<svg width="10" height="13" viewBox="0 0 10 13" xmlns="http://www.w3.org/2000/svg" xmlns:xlink="http://www.w3.org/1999/xlink"><title>placeholder</title><desc>Created using Figma</desc><g transform="translate(373 479)"><path fill="#E5E5E5" d="M-373-479h10v13h-10z"/><clipPath id="a" clip-rule="evenodd"><path d="M-720-513H720v2804H-720V-513z" fill="#FFF"/></clipPath><g clip-path="url(#a)"><path d="M-720-513H720v2804H-720V-513z" fill="#F3EEE8"/><use xlink:href="#b" transform="translate(-720 -513)" fill="#FFF"/><use xlink:href="#c" transform="translate(-369 -475)" fill="#D1CDC9"/><use xlink:href="#d" transform="translate(-373 -479)" fill="#D1CDC9"/></g></g><defs><path id="b" d="M0 0h1440v127H0V0z"/><path id="c" d="M1 2a1 1 0 1 0 0-2 1 1 0 0 0 0 2z"/><path id="d" d="M5 0C2.25 0 0 2.25 0 5c0 1.1.35 2.15 1 3l3.6 4.8c.1.1.25.2.4.2.15 0 .3-.1.4-.2L9 8c.65-.85 1-1.85 1-3 0-2.75-2.25-5-5-5zm2.4 6.8L5.2 9.75l-.05.05c-.1.1-.25.05-.35-.05L2.6 6.8C2.2 6.3 2 5.65 2 5c0-1.65 1.35-3 3-3s3 1.35 3 3c0 .65-.2 1.3-.6 1.8z"/></defs></svg>