<svg width="15" height="22" viewBox="0 0 15 22" xmlns="http://www.w3.org/2000/svg"><title>shopping-bag</title><path d="M14.022 5.332h-2.935V3.667C11.087 1.645 9.477 0 7.5 0 5.522 0 3.913 1.645 3.913 3.667v1.665H.978a.99.99 0 0 0-.978 1V21c0 .552.438 1 .978 1h13.044A.99.99 0 0 0 15 21V6.332a.99.99 0 0 0-.978-1zM5.87 3.667C5.87 2.747 6.6 2 7.5 2c.899 0 1.63.748 1.63 1.667v1.665H5.87V3.667zM13.043 20H1.957V7.332h1.956v1.666c0 .553.438 1 .978 1a.99.99 0 0 0 .979-1V7.332h3.26v1.666c0 .553.438 1 .979 1a.99.99 0 0 0 .978-1V7.332h1.957V20z" fill="#473729"/></svg>