<svg width="11" height="13" viewBox="0 0 11 13" xmlns="http://www.w3.org/2000/svg"><title>Шапка</title><path d="M8.05 6.375c-.15-.05-.2-.201-.15-.302 0-.05.05-.05.05-.1C8.6 5.32 9 4.467 9 3.513A3.485 3.485 0 0 0 5.5 0C3.55 0 2 1.556 2 3.514c0 .953.4 1.857 1.05 2.459.05.05.05.05.05.1.05.15 0 .251-.15.302C.3 7.328 0 9.888 0 12.498 0 12.8.2 13 .5 13h1c.3 0 .5-.2.5-.502 0-3.463.5-4.517 3.5-4.517S9 9.035 9 12.498c0 .301.2.502.5.502h1c.3 0 .5-.2.5-.502 0-2.61-.3-5.17-2.95-6.123zM5.5 4.969c-.85 0-1.5-.652-1.5-1.506 0-.853.65-1.505 1.5-1.505S7 2.61 7 3.463c0 .854-.65 1.506-1.5 1.506z" fill="#D1CDC9"/></svg>