<svg width="56" height="44" viewBox="0 0 56 44" xmlns="http://www.w3.org/2000/svg" xmlns:xlink="http://www.w3.org/1999/xlink"><title>analytics</title><desc>Created using Figma</desc><use xlink:href="#a" transform="translate(0 16.789)" fill="#242D3C"/><use xlink:href="#b" transform="translate(6.4 35.579)" fill="#242D3C"/><use xlink:href="#c" transform="translate(14.5)" fill="#2ECC71"/><use xlink:href="#d" transform="translate(34.08 12.717)" fill="#FFF"/><use xlink:href="#e" transform="translate(39.95 8.967)" fill="#FFF"/><use xlink:href="#f" transform="translate(22.36 20.218)" fill="#FFF"/><use xlink:href="#g" transform="translate(28.22 16.468)" fill="#FFF"/><g fill="#242D3C"><use xlink:href="#h" transform="translate(11.31 24.058)"/><use xlink:href="#i" transform="translate(11.31 21.301)"/></g><defs><path id="a" d="M12.297 25.295H0v-1.993h10.332V1.992H0V0h12.297v25.295z"/><path id="b" d="M1.966 0H0v1.993h1.966V0z"/><path id="c" d="M.73 22.297a12.824 12.824 0 0 1 6.97 2.068l4.513 2.93h12.933c1.36 0 2.463 1.118 2.463 2.498 0 .745-.318 1.41-.829 1.868l9.278-5.856a19.112 19.112 0 0 0 1.276-6.875C37.334 8.476 28.974 0 18.666 0 8.359 0 0 8.476 0 18.93c0 1.15.107 2.275.3 3.367h.43z"/><path id="d" d="M4.025 0H0v14.576h4.025V0z"/><path id="e" d="M2.161 20.826c0 .56-.18 1.076-.487 1.492h.255l2.097-1.323V0H0v18.348a2.486 2.486 0 0 1 2.161 2.478z"/><path id="f" d="M4.025 6.864V0H0v4.252l4.025 2.612z"/><path id="g" d="M4.024 0H0v10.828h4.024V0z"/><path id="h" d="M20.832 19.942c-.848 0-1.68-.154-2.486-.458L3.66 13.512H0V11.52h4.039l15.016 6.105c.732.277 1.521.38 2.322.295a5.077 5.077 0 0 0 2.232-.786l18.49-12.287a1.55 1.55 0 0 0 .603-1.021 1.564 1.564 0 0 0-.294-1.173l-.03-.04a1.525 1.525 0 0 0-2.042-.384l-9.852 6.22-1.038-1.692 9.853-6.22a3.457 3.457 0 0 1 2.49-.477 3.487 3.487 0 0 1 2.157 1.351l.03.04c.573.77.81 1.717.67 2.67a3.533 3.533 0 0 1-1.412 2.352l-.037.026-18.525 12.31a7.03 7.03 0 0 1-3.84 1.133z"/><path id="i" d="M13.915 13.488H11.95c0-1.927 1.546-3.495 3.447-3.495H28.33c.817 0 1.48-.673 1.48-1.502 0-.828-.663-1.502-1.48-1.502H15.11l-4.755-3.085A11.872 11.872 0 0 0 7.27 2.48a11.779 11.779 0 0 0-3.356-.488H0V0h3.914c1.325 0 2.64.191 3.908.568a13.86 13.86 0 0 1 3.592 1.657l4.27 2.772H28.33c1.9 0 3.446 1.567 3.446 3.495 0 1.927-1.546 3.494-3.446 3.494H15.397c-.817 0-1.482.674-1.482 1.502z"/></defs></svg>