<svg width="23" height="12" viewBox="0 0 23 12" xmlns="http://www.w3.org/2000/svg" xmlns:xlink="http://www.w3.org/1999/xlink"><title>Vector</title><desc>Created using Figma</desc><use xlink:href="#a" fill="#333"/><defs><path id="a" d="M16.499 4.478H6.36V.968a.968.968 0 0 0-.592-.894.956.956 0 0 0-1.046.21l-4.44 4.48a.966.966 0 0 0 0 1.368l4.44 4.479a.96.96 0 0 0 1.36 0 .976.976 0 0 0 0-1.373l-3.76-3.79 2.123-2.144v2.143c0 .533.432.97.96.97h11.099c2.524 0 4.573 2.072 4.573 4.614 0 .533.432.969.96.969.529 0 .96-.436.96-.97 0-3.612-2.913-6.552-6.498-6.552z"/></defs></svg>