<svg width="23" height="12" viewBox="0 0 23 12" xmlns="http://www.w3.org/2000/svg" xmlns:xlink="http://www.w3.org/1999/xlink"><title>Vector</title><desc>Created using Figma</desc><use xlink:href="#a" fill="#2ECC71"/><defs><path id="a" d="M22.717 5.87l-4.435-4.487a.961.961 0 0 0-1.362 0 .975.975 0 0 0 0 1.372l3.763 3.794L18.56 8.69V6.549a.968.968 0 0 0-.96-.969H6.495C3.97 5.58 1.922 3.51 1.922.97A.968.968 0 0 0 .96 0 .968.968 0 0 0 0 .969c0 3.61 2.914 6.548 6.496 6.548h10.141v3.509c0 .393.235.748.593.899a.937.937 0 0 0 1.046-.21l4.441-4.477a.965.965 0 0 0 0-1.367z"/></defs></svg>