<svg width="54" height="47" viewBox="0 0 54 47" xmlns="http://www.w3.org/2000/svg" xmlns:xlink="http://www.w3.org/1999/xlink"><title>browser</title><desc>Created using Figma</desc><use xlink:href="#a" transform="translate(3.24 9.087)" fill="#242D3C"/><use xlink:href="#b" transform="translate(0 12.223)" fill="#242D3C"/><use xlink:href="#c" transform="translate(0 5.952)" fill="#242D3C"/><use xlink:href="#d" transform="translate(48.75 9.087)" fill="#242D3C"/><use xlink:href="#e" transform="translate(46.23 12.223)" fill="#242D3C"/><use xlink:href="#f" transform="translate(46.23 5.952)" fill="#242D3C"/><use xlink:href="#g" transform="translate(7.77 17.237)" fill="#2ECC71"/><use xlink:href="#h" transform="translate(11.64 20.09)" fill="#FFF"/><use xlink:href="#i" transform="translate(37.82 20.09)" fill="#FFF"/><use xlink:href="#j" transform="translate(15.97 13.072)" fill="#242D3C"/><use xlink:href="#k" transform="translate(22.89 9.966)" fill="#242D3C"/><use xlink:href="#l" transform="translate(11.85 31.454)" fill="#242D3C"/><use xlink:href="#m" transform="translate(11.85 41.035)" fill="#242D3C"/><use xlink:href="#n" transform="translate(22.89 31.454)" fill="#242D3C"/><use xlink:href="#o" transform="translate(22.89 41.035)" fill="#242D3C"/><use xlink:href="#p" transform="translate(33.92 31.454)" fill="#242D3C"/><g fill="#242D3C"><use xlink:href="#q" transform="translate(33.92 41.035)"/><use xlink:href="#r" transform="translate(6.76 5.952)"/><use xlink:href="#s" transform="translate(6.76)"/><use xlink:href="#t" transform="translate(10.78 2.976)"/><use xlink:href="#u" transform="translate(14.8 2.976)"/><use xlink:href="#v" transform="translate(18.81 2.976)"/></g><defs><path id="a" d="M2.009 0H0v1.993h2.009V0z"/><path id="b" d="M7.766 30.805H0V0h7.766v1.994H2.008v26.818h5.758v1.993z"/><path id="c" d="M7.766 8.265H0V0h7.766v1.993H2.008v4.279h5.758v1.993z"/><path id="d" d="M2.008 0H0v1.993h2.008V0z"/><path id="e" d="M7.766 30.805H0v-1.993h5.758V1.994H0V0h7.766v30.805z"/><path id="f" d="M7.766 8.265H0V6.272h5.758V1.993H0V0h7.766v8.265z"/><path id="g" d="M38.467 0H0v11.902h38.467V0z"/><path id="h" d="M3.12 6.194L0 3.097 3.12 0l1.42 1.41-1.7 1.687 1.7 1.688-1.42 1.41z"/><path id="i" d="M1.42 6.194L0 4.784l1.7-1.687L0 1.41 1.42 0l3.12 3.097-3.12 3.097z"/><path id="j" d="M22.07 0H0v1.993h22.07V0z"/><path id="k" d="M8.223 0H0v1.994h8.223V0z"/><path id="l" d="M8.223 0H0v8.162h8.223V0z"/><path id="m" d="M8.223 0H0v1.993h8.223V0z"/><path id="n" d="M8.223 0H0v8.162h8.223V0z"/><path id="o" d="M8.223 0H0v1.993h8.223V0z"/><path id="p" d="M8.222 0H0v8.162h8.222V0z"/><path id="q" d="M8.222 0H0v1.993h8.222V0z"/><path id="r" d="M40.476 41.048H0V0h40.476v41.048zM2.008 39.055h36.46V1.993H2.008v37.062z"/><path id="s" d="M40.476 7.945H0V0h40.476v7.945zM2.008 5.952h36.46V1.993H2.008v3.959z"/><path id="t" d="M2.009 0H0v1.994h2.009V0z"/><path id="u" d="M2.008 0H0v1.994h2.008V0z"/><path id="v" d="M2.009 0H0v1.994h2.009V0z"/></defs></svg>