<svg width="45" height="47" viewBox="0 0 45 47" xmlns="http://www.w3.org/2000/svg" xmlns:xlink="http://www.w3.org/1999/xlink"><title>canvas</title><desc>Created using Figma</desc><use xlink:href="#a" transform="translate(5.47 10.36)" fill="#2ECC71"/><use xlink:href="#b" transform="translate(7.94 18.933)" fill="#FFF"/><use xlink:href="#c" transform="translate(26.39 21.797)" fill="#FFF"/><use xlink:href="#d" transform="translate(23.44 13.672)" fill="#FFF"/><g fill="#242D3C"><use xlink:href="#e" transform="translate(.29 5.179)"/><use xlink:href="#f" transform="translate(.28 33.377)"/><use xlink:href="#g" transform="translate(15.53 3.276)"/><use xlink:href="#h" transform="matrix(-1 0 0 1 23 39)"/><use xlink:href="#h" transform="matrix(-1 0 0 1 33 39)"/><use xlink:href="#h" transform="matrix(-1 0 0 1 13 39)"/><use xlink:href="#i" transform="translate(21.24)"/></g><defs><path id="a" d="M33.53 0H0v19.814h33.53V0z"/><path id="b" d="M5.638 4.883L4.342 3.586 0 7.929h18.449L10.52 0 5.638 4.883z"/><path id="c" d="M5.063 0L0 5.065h10.128L5.063 0z"/><path id="d" d="M4.49 2.245A2.245 2.245 0 1 1 0 2.247a2.245 2.245 0 0 1 4.49-.002z"/><path id="e" d="M43.894 30.176H0V0h16.23v1.98H1.98v26.216h39.934V1.98H27.662V0h16.232v30.176z"/><path id="f" d="M43.903 5.79H0V0h43.902v5.79zM1.98 3.81h39.942V1.98H1.98v1.83z"/><path id="g" d="M13.412 5.79H0V0h13.412v5.79zM1.98 3.81h9.452V1.98H1.98v1.83z"/><path id="h" d="M2 0H0v8h2V0z"/><path id="i" d="M1.98 0H0v4.265h1.98V0z"/></defs></svg>