<svg width="62" height="59" viewBox="0 0 62 59" xmlns="http://www.w3.org/2000/svg" xmlns:xlink="http://www.w3.org/1999/xlink"><title>coding</title><desc>Created using Figma</desc><use xlink:href="#a" transform="translate(38.98 35.248)" fill="#2ECC71"/><use xlink:href="#b" transform="translate(42.34 42.764)" fill="#FFF"/><use xlink:href="#c" transform="translate(53.21 42.764)" fill="#FFF"/><use xlink:href="#d" transform="rotate(-164.15 28.625 22.682)" fill="#FFF"/><g fill="#242D3C"><use xlink:href="#e" transform="translate(24.78 20.734)"/><use xlink:href="#f" transform="translate(30.27 27.706)"/><use xlink:href="#g" transform="translate(30.27 31.19)"/><use xlink:href="#h" transform="translate(30.27 41.646)"/><use xlink:href="#i" transform="translate(30.27 45.131)"/><use xlink:href="#j" transform="translate(24.78 24.218)"/><use xlink:href="#k" transform="translate(24.78 34.674)"/><use xlink:href="#l" transform="translate(24.78 38.159)"/><use xlink:href="#m" transform="translate(38.46 27.706)"/><use xlink:href="#n" transform="translate(38.46 31.19)"/><use xlink:href="#o" transform="translate(38.46 24.218)"/><use xlink:href="#p" transform="translate(19.02 9.621)"/><use xlink:href="#q" transform="translate(23.08 12.67)"/><use xlink:href="#r" transform="translate(27.15 12.67)"/><use xlink:href="#s" transform="translate(31.21 12.67)"/><use xlink:href="#t" transform="translate(19.02 15.719)"/><use xlink:href="#u" transform="translate(6.38 49.872)"/><use xlink:href="#v" transform="translate(14.82 49.874)"/><use xlink:href="#w" transform="translate(44.13)"/><use xlink:href="#x" transform="translate(41.07 .001)"/><use xlink:href="#y" transform="translate(38.01 .001)"/><use xlink:href="#z" transform="translate(12.28 25.61)"/><use xlink:href="#A" transform="translate(0 25.61)"/><use xlink:href="#B" transform="translate(3.25 31.364)"/><use xlink:href="#B" transform="translate(6.91 31.364)"/><use xlink:href="#C" transform="translate(10.56 31.364)"/></g><defs><path id="a" d="M11.51 23.02c6.357 0 11.51-5.153 11.51-11.51S17.868 0 11.51 0 0 5.153 0 11.51s5.153 11.51 11.51 11.51z"/><path id="b" d="M3.996 7.992L0 3.996 3.997 0l1.437 1.437-2.558 2.559 2.558 2.559-1.438 1.437z"/><path id="c" d="M1.437 7.992L0 6.555l2.559-2.559L0 1.436 1.437 0l3.996 3.996-3.996 3.996z"/><path id="d" d="M2.034 0H0v10.977h2.034V0z"/><path id="e" d="M5.481 0H0v2.033h5.481V0z"/><path id="f" d="M5.896 0H0v2.033h5.896V0z"/><path id="g" d="M5.896 0H0v2.033h5.896V0z"/><path id="h" d="M5.896 0H0v2.033h5.896V0z"/><path id="i" d="M5.896 0H0v2.033h5.896V0z"/><path id="j" d="M11.376 0H0v2.033h11.376V0z"/><path id="k" d="M5.481 0H0v2.033h5.481V0z"/><path id="l" d="M11.376 0H0v2.033h11.376V0z"/><path id="m" d="M5.896 0H0v2.033h5.896V0z"/><path id="n" d="M11.378 0H0v2.033h11.378V0z"/><path id="o" d="M5.896 0H0v2.033h5.896V0z"/><path id="p" d="M36.594 8.131H0V0h36.594v8.131zM2.033 6.098h32.529V2.033H2.032v4.065z"/><path id="q" d="M2.033 0H0v2.033h2.033V0z"/><path id="r" d="M2.034 0H0v2.033h2.034V0z"/><path id="s" d="M2.034 0H0v2.033h2.034V0z"/><path id="t" d="M17.143 36.459H0V0h36.594v17.447h-2.032V2.033H2.032v32.393h15.111v2.033z"/><path id="u" d="M3.702 7.404A3.706 3.706 0 0 1 0 3.702 3.706 3.706 0 0 1 3.702 0a3.706 3.706 0 0 1 3.702 3.702 3.706 3.706 0 0 1-3.702 3.702zm0-5.371c-.921 0-1.67.748-1.67 1.67a1.67 1.67 0 0 0 3.34-.001c0-.92-.75-1.67-1.67-1.67z"/><path id="v" d="M2.033 0H0v7.405h2.033V0z"/><path id="w" d="M3.702 7.403A3.705 3.705 0 0 1 0 3.701 3.705 3.705 0 0 1 3.702 0a3.705 3.705 0 0 1 3.701 3.701 3.705 3.705 0 0 1-3.701 3.702zm0-5.37c-.92 0-1.67.749-1.67 1.668 0 .92.75 1.67 1.67 1.67.92 0 1.669-.75 1.669-1.67 0-.92-.75-1.668-1.67-1.668z"/><path id="x" d="M2.033 0H0v7.403h2.033V0z"/><path id="y" d="M2.033 0H0v7.403h2.033V0z"/><path id="z" d="M1.016 13.543H0V11.51h1.016a.897.897 0 0 0 .638-.264.896.896 0 0 0 .264-.638V2.935a.895.895 0 0 0-.264-.638.895.895 0 0 0-.638-.264H0V0h1.016c.784 0 1.52.305 2.075.859.555.555.86 1.292.86 2.076v7.673a2.91 2.91 0 0 1-.86 2.074c-.553.555-1.29.86-2.075.86z"/><path id="A" d="M3.95 13.543H2.935a2.92 2.92 0 0 1-2.075-.86A2.917 2.917 0 0 1 0 10.607V2.935C0 2.15.305 1.415.858.86A2.92 2.92 0 0 1 2.934 0h1.017v2.033H2.934a.897.897 0 0 0-.901.902v7.673c0 .24.093.467.264.638.17.17.397.264.637.264h1.017v2.033z"/><path id="B" d="M2.033 0H0v2.033h2.033V0z"/><path id="C" d="M2.033 0H0v2.033h2.033V0z"/></defs></svg>