<svg width="26" height="16" viewBox="0 0 26 16" xmlns="http://www.w3.org/2000/svg" xmlns:xlink="http://www.w3.org/1999/xlink"><title>eye</title><desc>Created using Figma</desc><use xlink:href="#a" fill="#2ECC71"/><use xlink:href="#b" transform="translate(8.52 3.46)" fill="#2ECC71"/><defs><path id="a" d="M25.79 7.389C21.861 2.489 17.622 0 13.175 0 11.413 0 9.63.399 7.868 1.18c-1.385.619-2.76 1.475-4.08 2.547C1.552 5.542.237 7.35.183 7.427A.99.99 0 0 0 .211 8.61C4.132 13.517 8.378 16 12.825 16c1.762 0 3.545-.399 5.307-1.18 1.385-.619 2.76-1.475 4.08-2.547 2.235-1.815 3.55-3.624 3.604-3.7a.99.99 0 0 0-.026-1.184zm-4.814 3.403c-1.847 1.492-4.755 3.27-8.151 3.27-3.667 0-7.244-2.042-10.64-6.07a21.144 21.144 0 0 1 2.834-2.779c1.846-1.492 4.754-3.269 8.15-3.269 3.668 0 7.245 2.041 10.641 6.07a20.818 20.818 0 0 1-2.834 2.778z"/><path id="b" d="M8.003 3.576a.965.965 0 0 0-.956.97c0 1.437-1.151 2.606-2.568 2.606S1.91 5.983 1.91 4.545c0-1.438 1.152-2.606 2.569-2.606a.965.965 0 0 0 .955-.97A.965.965 0 0 0 4.48 0C2.006 0 0 2.041 0 4.545s2.006 4.546 4.479 4.546c2.473 0 4.479-2.042 4.479-4.546 0-.533-.43-.97-.955-.97z"/></defs></svg>