<svg width="52" height="45" viewBox="0 0 52 45" xmlns="http://www.w3.org/2000/svg" xmlns:xlink="http://www.w3.org/1999/xlink"><title>laptop</title><desc>Created using Figma</desc><use xlink:href="#a" transform="translate(5 4.979)" fill="#2ECC71"/><use xlink:href="#b" fill="#242D3C"/><use xlink:href="#c" transform="translate(38.2 27.079)" fill="#242D3C"/><use xlink:href="#d" transform="translate(38.2 23.098)" fill="#242D3C"/><use xlink:href="#e" transform="translate(6.8 6.769)" fill="#242D3C"/><g fill="#FFF"><use xlink:href="#f" transform="translate(21.96 13.896)"/><use xlink:href="#g" transform="translate(16.26 8.22)"/><use xlink:href="#h" transform="translate(33.69 17.92)"/><use xlink:href="#i" transform="translate(16.81 20.481)"/><use xlink:href="#j" transform="translate(16.26 17.92)"/></g><g fill="#242D3C"><use xlink:href="#k" transform="translate(0 37.832)"/><use xlink:href="#l" transform="translate(3.92 37.832)"/></g><defs><path id="a" d="M42 0H0v25.884h42V0z"/><path id="b" d="M52 35.84H0V0h52v35.84zM2 33.85h48V1.991H2V33.85z"/><path id="c" d="M6 0H0v1.991h6V0z"/><path id="d" d="M3 0H0v1.991h3V0z"/><path id="e" d="M6.45 6.422H0V0h6.45v6.422zM2 4.43h2.45V1.99H2v2.44z"/><path id="f" d="M4.043 8.05a4.034 4.034 0 0 0 4.042-4.025A4.034 4.034 0 0 0 4.043 0C1.81 0 0 1.802 0 4.025c0 2.223 1.81 4.024 4.043 4.024z"/><path id="g" d="M19.486 9.7h-2c0-4.25-3.473-7.709-7.743-7.709C5.473 1.991 2 5.45 2 9.701H0C0 4.35 4.37 0 9.743 0c5.372 0 9.743 4.352 9.743 9.7z"/><path id="h" d="M1.988 1.107L0 .882C.034.592.05.295.05 0h2c0 .37-.02.742-.062 1.107z"/><path id="i" d="M8.107 7.079a9.74 9.74 0 0 1-2.126-.48l.659-1.88a7.741 7.741 0 0 0 1.686.38l-.22 1.98zm2.175-.002L10.06 5.1a7.742 7.742 0 0 0 1.685-.382l.662 1.879c-.686.238-1.4.4-2.125.481zM4.017 5.66a9.781 9.781 0 0 1-1.703-1.349l1.41-1.41c.411.406.867.767 1.356 1.073L4.017 5.66zm10.351-.004l-1.064-1.687a7.781 7.781 0 0 0 1.354-1.073l1.413 1.41a9.81 9.81 0 0 1-1.703 1.35zM.952 2.622A9.681 9.681 0 0 1 0 .672L1.886.008a7.7 7.7 0 0 0 .755 1.548L.951 2.622zm16.48-.009L15.74 1.55A7.697 7.697 0 0 0 16.495 0l1.886.661a9.684 9.684 0 0 1-.95 1.952z"/><path id="j" d="M.063 1.107A9.748 9.748 0 0 1 0 0h2c0 .295.017.591.05.882l-1.987.225z"/><path id="k" d="M52 7.168H0V0h2v5.177h48V0h2v7.168z"/><path id="l" d="M44.161 1.991H42.24V0h1.921v1.991zm-3.84 0H38.4V0h1.92v1.991zm-3.84 0h-1.92V0h1.92v1.991zm-3.841 0h-1.92V0h1.92v1.991zm-3.839 0h-1.92V0h1.92v1.991zm-3.84 0h-1.92V0h1.92v1.991zm-3.841 0H19.2V0h1.92v1.991zm-3.84 0h-1.92V0h1.92v1.991zm-3.84 0h-1.92V0h1.92v1.991zm-3.84 0H7.68V0H9.6v1.991zm-3.84 0H3.84V0h1.92v1.991zm-3.84 0H0V0h1.92v1.991z"/></defs></svg>