<svg width="54" height="52" viewBox="0 0 54 52" xmlns="http://www.w3.org/2000/svg" xmlns:xlink="http://www.w3.org/1999/xlink"><title>sprout</title><desc>Created using Figma</desc><use xlink:href="#a" transform="translate(11.2 16.449)" fill="#2ECC71"/><use xlink:href="#b" transform="translate(31.7 11.297)" fill="#242D3C"/><use xlink:href="#c" transform="translate(29.28 44.514)" fill="#242D3C"/><use xlink:href="#d" transform="translate(0 11.297)" fill="#242D3C"/><use xlink:href="#e" transform="translate(7.1 44.514)" fill="#242D3C"/><use xlink:href="#f" transform="translate(12.11)" fill="#2ECC71"/><use xlink:href="#g" transform="translate(28.29)" fill="#2ECC71"/><g fill="#242D3C"><use xlink:href="#h" transform="translate(26 14.892)"/><use xlink:href="#i" transform="translate(18.87 6.759)"/></g><defs><path id="a" d="M19.08 29.065h2.424v-6.466a5.672 5.672 0 0 1 1.663-4.018l8.379-8.379a1.49 1.49 0 0 0 .056-.05C28.86 4.163 22.818 0 15.8 0 8.784 0 2.742 4.163 0 10.152c.018.018.038.034.056.05l8.378 8.38a5.661 5.661 0 0 1 1.664 4.017v6.466h2.422v5.367c1.063.203 2.158.313 3.28.313 1.122 0 2.219-.11 3.28-.313v-5.367z"/><path id="b" d="M12.78 35.216H0V27.75c0-.882.17-1.742.507-2.556a6.643 6.643 0 0 1 1.45-2.169l8.378-8.378a3.816 3.816 0 0 1 2.716-1.124c1.027 0 1.991.4 2.716 1.124a3.817 3.817 0 0 1 1.124 2.716c0 1.026-.399 1.99-1.124 2.716L9.584 26.26a3.816 3.816 0 0 1-2.716 1.126v-2a1.83 1.83 0 0 0 1.302-.54l6.182-6.182a1.83 1.83 0 0 0 .54-1.301 1.83 1.83 0 0 0-.54-1.303 1.826 1.826 0 0 0-1.302-.537 1.83 1.83 0 0 0-1.301.538L3.37 24.44A4.668 4.668 0 0 0 2 27.75l-.001 5.467h8.831a9.47 9.47 0 0 1 .674-2.645 9.473 9.473 0 0 1 2.062-3.088l6.19-6.191a1.822 1.822 0 0 0 .54-1.3V3.84a1.83 1.83 0 0 0-.54-1.302 1.827 1.827 0 0 0-1.3-.539 1.83 1.83 0 0 0-1.303.54 1.83 1.83 0 0 0-.538 1.301v8.108h-2V3.84c0-1.027.4-1.991 1.124-2.717A3.82 3.82 0 0 1 18.456 0c1.027 0 1.991.4 2.717 1.124a3.82 3.82 0 0 1 1.124 2.717v16.15a3.82 3.82 0 0 1-1.126 2.717l-6.189 6.188a7.476 7.476 0 0 0-1.629 2.44 7.462 7.462 0 0 0-.573 2.88v1z"/><path id="c" d="M17.625 6.68h-2V2H2v4.68H0V0h17.625v6.68z"/><path id="d" d="M22.297 35.216H9.517v-1c0-.993-.192-1.962-.572-2.879a7.487 7.487 0 0 0-1.63-2.44l-6.19-6.19a3.806 3.806 0 0 1-.833-1.246A3.817 3.817 0 0 1 0 19.991V3.842c0-1.025.4-1.99 1.124-2.716A3.815 3.815 0 0 1 3.841 0c1.026 0 1.99.4 2.716 1.124A3.818 3.818 0 0 1 7.68 3.841v8.107h-2V3.841a1.83 1.83 0 0 0-.539-1.303A1.83 1.83 0 0 0 3.841 2a1.83 1.83 0 0 0-1.302.538A1.83 1.83 0 0 0 2 3.84v16.151c0 .244.047.48.14.703.093.226.227.427.398.596l6.19 6.193a9.478 9.478 0 0 1 2.065 3.09c.352.85.578 1.736.673 2.643h8.831V27.75c0-.618-.12-1.22-.356-1.792a4.657 4.657 0 0 0-1.014-1.518l-8.38-8.38a1.828 1.828 0 0 0-1.301-.537c-.492 0-.955.19-1.301.538-.348.347-.54.81-.54 1.302 0 .49.192.953.54 1.3l6.183 6.183c.348.348.81.54 1.301.54v2c-1.026 0-1.99-.4-2.716-1.126l-6.182-6.182a3.815 3.815 0 0 1-1.125-2.716c0-1.026.4-1.99 1.124-2.716a3.817 3.817 0 0 1 2.716-1.124c1.027 0 1.991.399 2.716 1.123l8.379 8.38a6.644 6.644 0 0 1 1.448 2.167c.338.816.509 1.676.509 2.557v7.467z"/><path id="e" d="M17.623 6.68h-2V2H2v4.68H0V0h17.623v6.68z"/><path id="f" d="M11.804 11.805a6.14 6.14 0 0 0 0-8.678c-1-.998-2.258-1.53-3.543-1.745L0 0l1.38 8.262c.215 1.287.75 2.546 1.746 3.543a6.139 6.139 0 0 0 8.678 0z"/><path id="g" d="M1.795 11.805a6.141 6.141 0 0 1 0-8.678c1-.998 2.259-1.53 3.544-1.745L13.6 0l-1.38 8.262c-.216 1.287-.75 2.546-1.748 3.543a6.138 6.138 0 0 1-8.677 0z"/><path id="h" d="M2 0H0v18.93h2V0z"/><path id="i" d="M8.132 9.545L0 1.414 1.414 0l6.718 6.718L14.85 0l1.413 1.414-8.131 8.131z"/></defs></svg>