<svg width="34" height="34" viewBox="0 0 34 34" version="1.1" xmlns="http://www.w3.org/2000/svg" xmlns:xlink="http://www.w3.org/1999/xlink">
<title>Vector</title>
<desc>Created using Figma</desc>
<g id="Canvas" transform="translate(-274 439)">
<g id="Vector">
<use xlink:href="#path0_fill" transform="translate(274 -439)" fill="#EBEBEB"/>
</g>
</g>
<defs>
<path id="path0_fill" d="M 24.7322 20.3716C 26.0369 18.2655 26.7224 15.8596 26.7224 13.3612C 26.7224 5.99383 20.7286 0 13.3612 0C 5.99383 0 0 5.99383 0 13.3612C 0 20.7286 5.99383 26.7224 13.3612 26.7224C 15.8596 26.7224 18.2655 26.0369 20.3716 24.7322L 29.6395 34L 34 29.6395L 24.7322 20.3716ZM 20.6154 22.0689L 19.9071 22.5737C 17.986 23.9431 15.7224 24.6668 13.3612 24.6668C 7.12727 24.6668 2.05557 19.5951 2.05557 13.3612C 2.05557 7.12727 7.12727 2.05557 13.3612 2.05557C 19.5951 2.05557 24.6668 7.12727 24.6668 13.3612C 24.6668 15.7224 23.9431 17.986 22.5737 19.9071L 22.0689 20.6154L 31.093 29.6395L 29.6395 31.093L 20.6154 22.0689Z"/>
</defs>
</svg>
