<svg width="34" height="34" viewBox="0 0 34 34" version="1.1" xmlns="http://www.w3.org/2000/svg" xmlns:xlink="http://www.w3.org/1999/xlink">
<title>Vector</title>
<desc>Created using Figma</desc>
<g id="Canvas" transform="translate(429 441)">
<g id="Vector">
<use xlink:href="#path0_fill" transform="translate(-429 -441)" fill="#EBEBEB"/>
</g>
</g>
<defs>
<path id="path0_fill" d="M 31.7399 20.5525C 32.1522 20.1885 32.4491 19.7118 32.5948 19.1684C 32.7901 18.4392 32.6899 17.6774 32.3124 17.0236L 28.3867 10.2241C 27.8833 9.35213 26.9447 8.81052 25.9372 8.81052C 25.6331 8.81052 25.3315 8.86059 25.0444 8.95648C 25.2197 8.43492 25.2386 7.87332 25.0929 7.32966C 24.8975 6.60038 24.4298 5.99084 23.776 5.61345L 16.9764 1.68758C 16.5469 1.43969 16.0588 1.3086 15.5648 1.3086C 14.749 1.3086 13.9786 1.66387 13.4477 2.26173C 13.1853 0.972918 12.0432 0 10.678 0L 2.82652 0C 1.26796 0 0 1.26796 0 2.82652L 0 31.1735C 0 32.732 1.26796 34 2.82652 34L 10.678 34L 31.1735 34C 32.732 34 34 32.732 34 31.1735L 34 23.322C 34 21.9574 33.0279 20.8156 31.7399 20.5525ZM 11.4856 5.54492L 11.4856 12.2747L 11.4856 16.1082L 11.4856 18.4394L 11.4856 25.8241L 11.4856 28.516L 11.4856 29.9804L 11.4856 31.1734C 11.4856 31.6187 11.1233 31.981 10.678 31.981L 2.82652 31.981L 2.82652 31.9811C 2.3812 31.9811 2.01895 31.6188 2.01895 31.1735L 2.01895 2.82652C 2.01895 2.3812 2.3812 2.01895 2.82652 2.01895L 10.678 2.01895C 11.1233 2.01895 11.4856 2.3812 11.4856 2.82652L 11.4856 5.54492ZM 25.5351 10.938C 25.6597 10.866 25.795 10.8294 25.9371 10.8294C 26.2256 10.8294 26.4942 10.9843 26.6381 11.2335L 30.5639 18.0331C 30.6718 18.2199 30.7003 18.4376 30.6446 18.6459C 30.5887 18.8543 30.4551 19.0284 30.2682 19.1363L 22.0859 23.8604L 22.0858 23.8604L 18.766 25.7771L 13.7142 28.6938L 15.0602 26.3626L 17.1017 25.1839L 22.2412 22.2167L 29.1291 18.2399L 25.7418 12.3729L 21.8348 14.6286L 23.1809 12.2972L 25.5351 10.938ZM 24.7005 25.8793L 28.6161 25.8793L 28.6161 28.6161L 24.7005 28.6161L 24.7005 25.8793ZM 22.6816 25.8792L 22.6816 28.616L 18.7661 28.616L 18.7661 28.1084L 20.0656 27.358L 22.6269 25.8792L 22.6816 25.8792ZM 17.5868 21.9862L 18.1698 20.9764L 19.8158 18.1253L 19.8632 18.098L 21.2317 20.4682L 17.8407 22.426L 17.7938 22.3448L 17.5868 21.9862ZM 21.6118 17.0885L 25.0028 15.1307L 26.3712 17.5009L 22.9801 19.4587L 21.6118 17.0885ZM 13.5045 6.0858L 14.8636 3.73163C 15.0076 3.48234 15.2762 3.32748 15.5648 3.32748C 15.7069 3.32748 15.8421 3.36394 15.9669 3.43599L 22.7664 7.36173C 22.9532 7.46964 23.0869 7.64369 23.1427 7.85207C 23.1985 8.06046 23.1698 8.27807 23.062 8.4648L 14.0482 24.0774L 13.5044 25.0191L 13.5044 22.3272L 15.6927 18.5372L 18.6599 13.3977L 21.6272 8.25815L 15.7602 4.87083L 13.5045 8.77778L 13.5045 6.0858ZM 16.9115 12.3882L 15.7265 11.704L 14.5414 11.0198L 16.4993 7.62875L 18.8695 8.99712L 16.9115 12.3882ZM 13.5044 12.8157L 13.5318 12.7683L 14.7169 13.4526L 15.9019 14.1368L 13.9441 17.5279L 13.5044 17.274L 13.5044 12.8157L 13.5044 12.8157ZM 31.1735 31.9811L 13.387 31.9811C 13.3969 31.948 13.4062 31.9147 13.4149 31.8812C 13.4159 31.8771 13.4167 31.8731 13.4178 31.8691C 13.4271 31.8326 13.4355 31.7957 13.4433 31.7587C 13.4457 31.7469 13.4482 31.735 13.4505 31.7231C 13.457 31.6899 13.4631 31.6565 13.4684 31.6229C 13.4698 31.614 13.4715 31.6053 13.4728 31.5965C 13.4791 31.5551 13.4844 31.5132 13.4888 31.4712C 13.4898 31.4611 13.4906 31.4509 13.4916 31.4408C 13.4947 31.4073 13.4973 31.3737 13.4993 31.3399C 13.5 31.3278 13.5007 31.3156 13.5013 31.3034C 13.5032 31.2603 13.5046 31.2171 13.5046 31.1736L 13.5046 31.1463L 14.3898 30.6352L 16.7472 30.6352L 18.7661 30.6352L 22.6817 30.6352L 24.7007 30.6352L 30.6352 30.6352L 30.6352 23.8604L 26.124 23.8604L 28.4552 22.5144L 31.1736 22.5144C 31.6189 22.5144 31.9811 22.8767 31.9811 23.322L 31.9811 31.1735C 31.9811 31.6188 31.6188 31.9811 31.1735 31.9811Z"/>
</defs>
</svg>
