<svg width="29" height="34" viewBox="0 0 29 34" version="1.1" xmlns="http://www.w3.org/2000/svg" xmlns:xlink="http://www.w3.org/1999/xlink">
<title>Vector</title>
<desc>Created using Figma</desc>
<g id="Canvas" transform="translate(536 441)">
<g id="Vector">
<use xlink:href="#path0_fill" transform="translate(-536 -441)" fill="#EBEBEB"/>
</g>
</g>
<defs>
<path id="path0_fill" d="M 19.865 16.975C 20.4307 16.5177 20.8725 15.9278 21.1534 15.2653L 28.6801 15.2653L 28.6801 9.38046L 17.5781 4.52332L 17.5781 0L 16.5373 0C 13.69 0 11.3694 2.29868 11.3336 5.13761C 11.3192 5.14316 11.3051 5.14906 11.2908 5.15468C 11.2545 5.16883 11.2184 5.18333 11.1823 5.19784C 11.1348 5.21685 11.0873 5.236 11.0401 5.25557C 11.0034 5.27069 10.9669 5.28603 10.9304 5.30143C 10.8838 5.32114 10.8373 5.34105 10.791 5.36118C 10.7545 5.377 10.7182 5.39296 10.6819 5.40905C 10.6358 5.42952 10.5898 5.45041 10.5439 5.47136C 10.5079 5.48781 10.4721 5.50425 10.4363 5.52091C 10.3901 5.54249 10.3441 5.56441 10.2983 5.58648C 10.2633 5.60327 10.2282 5.61999 10.1934 5.63706C 10.1462 5.66017 10.0992 5.68376 10.0523 5.70742C 10.0194 5.724 9.98635 5.74045 9.95353 5.75724C 9.90344 5.78298 9.85362 5.80928 9.80387 5.83551C 9.77451 5.85105 9.74502 5.86625 9.71574 5.88193C 9.65253 5.91586 9.5898 5.95049 9.52715 5.98539C 9.51188 5.99392 9.49641 6.00211 9.48114 6.01064C 9.40384 6.05401 9.32696 6.09821 9.2505 6.14297C 9.22462 6.15816 9.19901 6.17378 9.1732 6.18911C 9.12234 6.21936 9.07155 6.24955 9.02103 6.28035C 8.99008 6.2993 8.95935 6.31866 8.92854 6.33788C 8.88364 6.36577 8.83875 6.39367 8.7942 6.42205C 8.76166 6.44279 8.72933 6.46389 8.69699 6.48491C 8.65453 6.51246 8.61206 6.54 8.56987 6.56804C 8.53698 6.58982 8.5043 6.61196 8.47162 6.63402C 8.43026 6.66192 8.38905 6.68995 8.34804 6.71833C 8.31522 6.74102 8.28254 6.76385 8.24993 6.78682C 8.2094 6.81527 8.16902 6.84399 8.12878 6.87286C 8.09637 6.89617 8.06404 6.91955 8.03184 6.94308C 7.99166 6.9725 7.95163 7.0022 7.91173 7.03196C 7.88002 7.05562 7.84838 7.07936 7.81688 7.10329C 7.77663 7.13389 7.73666 7.16484 7.6967 7.19586C 7.6661 7.21966 7.6355 7.24332 7.60511 7.26733C 7.5641 7.29973 7.52351 7.33255 7.48284 7.36537C 7.45398 7.38862 7.42504 7.41179 7.39639 7.43531C 7.3524 7.47147 7.30882 7.5081 7.26524 7.54474C 7.24054 7.56549 7.2157 7.58596 7.19114 7.60691C 7.1316 7.65763 7.07256 7.70898 7.01378 7.76074C 7.00546 7.76803 6.99706 7.77518 6.98873 7.78246C 6.92205 7.84151 6.85586 7.90118 6.79022 7.96148C 6.76836 7.9816 6.74678 8.00207 6.72506 8.02233C 6.68121 8.06307 6.63735 8.10387 6.59399 8.14522C 6.56831 8.16971 6.54292 8.19462 6.51738 8.21926C 6.47839 8.25694 6.43939 8.29468 6.40081 8.33284C 6.37389 8.35949 6.34731 8.38634 6.3206 8.4132C 6.28389 8.45004 6.24726 8.48695 6.2109 8.52422C 6.18356 8.55225 6.1565 8.58049 6.12944 8.60873C 6.09412 8.64558 6.05887 8.68256 6.0239 8.71982C 5.99684 8.74862 5.96998 8.77755 5.94313 8.80655C 5.90851 8.84402 5.87409 8.8817 5.83981 8.91952C 5.81331 8.9488 5.78687 8.97815 5.76057 9.00771C 5.72629 9.04622 5.69229 9.08494 5.65836 9.1238C 5.63283 9.15308 5.60722 9.18243 5.5819 9.21199C 5.54741 9.25223 5.5132 9.29276 5.47914 9.33335C 5.45492 9.36221 5.4307 9.39087 5.40669 9.41994C 5.37138 9.46262 5.33654 9.50578 5.30164 9.54887C 5.27937 9.57641 5.25696 9.60375 5.23489 9.63144C 5.19687 9.67918 5.1594 9.7274 5.12193 9.77569C 5.10354 9.79935 5.08494 9.82274 5.06669 9.84654C 5.01132 9.91877 4.95644 9.99149 4.90225 10.0649C 3.05695 12.5645 2.08163 15.5225 2.08163 18.6191L 2.08163 27.7551L -6.35264e-08 27.7551L -6.35264e-08 34L 25.2109 34L 25.2109 27.7551L 23.1293 27.7551L 23.1293 24.2015L 18.966 20.0383L 18.966 17.5366C 19.286 17.3857 19.5886 17.1982 19.865 16.975ZM 23.1291 31.9184L 2.08142 31.9184L 2.08142 29.8367L 23.1291 29.8367L 23.1291 31.9184ZM 21.0475 27.7551L 4.16306 27.7551L 4.16306 25.6735L 21.0475 25.6735L 21.0475 27.7551ZM 16.8842 17.9679L 16.8842 20.9005L 19.5755 23.5918L 4.16306 23.5918L 4.16306 18.6191C 4.16306 15.9919 4.9894 13.5163 6.43377 11.4773C 6.36931 11.8933 6.33524 12.3181 6.33524 12.749L 6.33524 21.5102L 8.41687 21.5102L 8.41687 12.749C 8.41687 10.0687 10.1378 7.70169 12.6992 6.85898L 13.4148 6.62355L 13.4148 5.20408C 13.4148 3.84707 14.2849 2.68954 15.4964 2.25996L 15.4964 5.88478L 26.5985 10.7419L 26.5985 13.1837L 19.5433 13.1837L 19.3731 14.0158C 19.1473 15.1192 18.1807 15.8898 17.0225 15.8898C 15.6995 15.8898 14.6232 14.8135 14.6232 13.4905L 12.5416 13.4905C 12.5416 15.9149 14.4773 17.8944 16.8842 17.9679Z"/>
</defs>
</svg>
