<svg width="28" height="34" viewBox="0 0 28 34" version="1.1" xmlns="http://www.w3.org/2000/svg" xmlns:xlink="http://www.w3.org/1999/xlink">
<title>Group</title>
<desc>Created using Figma</desc>
<g id="Canvas" transform="translate(-502 441)">
<g id="Group">
<g id="Vector">
<use xlink:href="#path0_fill" transform="translate(502 -441)" fill="#EBEBEB"/>
</g>
<g id="Vector">
<use xlink:href="#path1_fill" transform="translate(506.163 -425.735)" fill="#EBEBEB"/>
</g>
<g id="Vector">
<use xlink:href="#path2_fill" transform="translate(506.163 -436.837)" fill="#EBEBEB"/>
</g>
</g>
</g>
<defs>
<path id="path0_fill" d="M 0 0L 0 34L 27.0612 34L 27.0612 0L 0 0ZM 24.9796 31.9184L 2.08163 31.9184L 2.08163 2.08163L 24.9796 2.08163L 24.9796 31.9184Z"/>
<path id="path1_fill" d="M 18.7347 0L 0 0L 0 14.5714L 18.7347 14.5714L 18.7347 0ZM 4.16327 12.4898L 2.08163 12.4898L 2.08163 10.4082L 4.16327 10.4082L 4.16327 12.4898ZM 4.16327 8.32653L 2.08163 8.32653L 2.08163 6.2449L 4.16327 6.2449L 4.16327 8.32653ZM 4.16327 4.16327L 2.08163 4.16327L 2.08163 2.08163L 4.16327 2.08163L 4.16327 4.16327ZM 8.32653 12.4898L 6.2449 12.4898L 6.2449 10.4082L 8.32653 10.4082L 8.32653 12.4898ZM 8.32653 8.32653L 6.2449 8.32653L 6.2449 6.2449L 8.32653 6.2449L 8.32653 8.32653ZM 8.32653 4.16327L 6.2449 4.16327L 6.2449 2.08163L 8.32653 2.08163L 8.32653 4.16327ZM 12.4898 12.4898L 10.4082 12.4898L 10.4082 10.4082L 12.4898 10.4082L 12.4898 12.4898ZM 12.4898 8.32653L 10.4082 8.32653L 10.4082 6.2449L 12.4898 6.2449L 12.4898 8.32653ZM 12.4898 4.16327L 10.4082 4.16327L 10.4082 2.08163L 12.4898 2.08163L 12.4898 4.16327ZM 16.6531 12.4898L 14.5714 12.4898L 14.5714 6.2449L 16.6531 6.2449L 16.6531 12.4898ZM 16.6531 4.16327L 14.5714 4.16327L 14.5714 2.08163L 16.6531 2.08163L 16.6531 4.16327Z"/>
<path id="path2_fill" d="M 18.7347 0L 0 0L 0 9.02041L 18.7347 9.02041L 18.7347 0ZM 16.6531 6.93878L 2.08163 6.93878L 2.08163 2.08163L 16.6531 2.08163L 16.6531 6.93878Z"/>
</defs>
</svg>
