<svg width="31" height="34" viewBox="0 0 31 34" version="1.1" xmlns="http://www.w3.org/2000/svg" xmlns:xlink="http://www.w3.org/1999/xlink">
<title>Vector</title>
<desc>Created using Figma</desc>
<g id="Canvas" transform="translate(317 441)">
<g id="Vector">
<use xlink:href="#path0_fill" transform="translate(-317 -441)" fill="#EBEBEB"/>
</g>
</g>
<defs>
<path id="path0_fill" d="M 26.209 8.06623L 26.209 4.03312L 18.466 4.03312L 14.4966 0L -4.38804e-08 0L -4.38804e-08 25.9338L 4.60348 25.9338L 4.60348 29.9669L 9.20709 29.9669L 9.20709 34L 30.8125 34L 30.8125 8.06623L 26.209 8.06623ZM 15.0789 3.44814L 15.6546 4.03312L 17.2398 5.64367L 18.2117 6.6312L 15.079 6.6312L 15.079 3.44814L 15.0789 3.44814ZM 1.98799 23.9139L 1.98799 2.01988L 13.0909 2.01988L 13.0909 8.65114L 19.6174 8.65114L 19.6174 23.9139L 4.60348 23.9139L 1.98799 23.9139ZM 6.59147 27.947L 6.59147 25.9338L 21.6053 25.9338L 21.6053 7.22287L 20.4539 6.053L 24.2208 6.053L 24.2208 8.06623L 24.2208 27.947L 9.20709 27.947L 6.59147 27.947ZM 28.8244 31.9801L 11.1951 31.9801L 11.1951 29.9669L 26.209 29.9669L 26.209 10.0861L 28.8245 10.0861L 28.8245 31.9801L 28.8244 31.9801Z"/>
</defs>
</svg>
