<svg width="34" height="32" viewBox="0 0 34 32" version="1.1" xmlns="http://www.w3.org/2000/svg" xmlns:xlink="http://www.w3.org/1999/xlink">
<title>Vector</title>
<desc>Created using Figma</desc>
<g id="Canvas" transform="translate(-373 440)">
<g id="Vector">
<use xlink:href="#path0_fill" transform="translate(373 -440)" fill="#EBEBEB"/>
</g>
</g>
<defs>
<path id="path0_fill" d="M 29.4898 8.32653L 24.2857 8.32653L 24.2857 4.5102C 24.2857 2.02328 22.2624 -2.43518e-08 19.7755 -2.43518e-08L 4.5102 -2.43518e-08C 2.02328 -2.43518e-08 0 2.02328 0 4.5102L 0 11.449C 0 13.8192 1.8378 15.7682 4.16327 15.946L 4.16327 22.9822L 9.71429 17.4312L 9.71429 19.7756C 9.71429 22.2625 11.7376 24.2858 14.2245 24.2858L 22.8138 24.2858L 29.8367 31.3087L 29.8367 24.2725C 32.1622 24.0948 34 22.1457 34 19.7755L 34 12.8367C 34 10.3498 31.9767 8.32653 29.4898 8.32653ZM 9.71429 12.8367L 9.71429 14.4873L 6.2449 17.9566L 6.2449 13.8776L 4.5102 13.8776C 3.17109 13.8776 2.08163 12.7881 2.08163 11.449L 2.08163 4.5102C 2.08163 3.17109 3.17109 2.08163 4.5102 2.08163L 19.7755 2.08163C 21.1146 2.08163 22.2041 3.17109 22.2041 4.5102L 22.2041 8.32653L 14.2245 8.32653C 11.7376 8.32653 9.71429 10.3498 9.71429 12.8367ZM 31.9184 19.7755C 31.9184 21.1146 30.8289 22.2041 29.4898 22.2041L 27.7551 22.2041L 27.7551 26.2832L 23.676 22.2041L 14.2245 22.2041C 12.8854 22.2041 11.7959 21.1146 11.7959 19.7755L 11.7959 12.8367C 11.7959 11.4976 12.8854 10.4082 14.2245 10.4082L 29.4898 10.4082C 30.8289 10.4082 31.9184 11.4976 31.9184 12.8367L 31.9184 19.7755Z"/>
</defs>
</svg>
