<svg width="34" height="34" viewBox="0 0 34 34" version="1.1" xmlns="http://www.w3.org/2000/svg" xmlns:xlink="http://www.w3.org/1999/xlink">
<title>Vector</title>
<desc>Created using Figma</desc>
<g id="Canvas" transform="translate(-2310 2)">
<g id="Vector">
<use xlink:href="#path0_fill" transform="translate(2310 -2)" fill="#70A3CA"/>
</g>
</g>
<defs>
<path id="path0_fill" d="M 28.277 7.49441L 24.9848 7.49441L 24.9848 0L 0 0L 0 29.7582C 0 32.0971 1.90287 34 4.24177 34L 20.7431 34C 23.0819 34 24.9848 32.0971 24.9848 29.7582L 24.9848 26.5056L 28.277 26.5056C 31.4327 26.5056 34 23.9383 34 20.7826L 34 13.2174C 34 10.0617 31.4327 7.49441 28.277 7.49441ZM 20.7431 31.9801L 4.24177 31.9801C 3.38021 31.9801 2.63214 31.4869 2.26372 30.7682L 22.7212 30.7682C 22.3527 31.4868 21.6046 31.9801 20.7431 31.9801ZM 22.9649 7.49441L 22.9649 12.8808L 22.9649 21.1192L 22.9649 26.5056L 22.9649 28.7483L 2.01988 28.7483L 2.01988 2.01988L 22.9649 2.01988L 22.9649 7.49441ZM 24.9848 12.8808L 28.277 12.8808C 28.4626 12.8808 28.6137 13.0318 28.6137 13.2174L 28.6137 20.7826C 28.6137 20.9682 28.4626 21.1192 28.277 21.1192L 24.9848 21.1192L 24.9848 12.8808ZM 31.9801 20.7826C 31.9801 22.8245 30.3189 24.4857 28.277 24.4857L 24.9848 24.4857L 24.9848 23.1391L 28.277 23.1391C 29.5763 23.1391 30.6335 22.082 30.6335 20.7826L 30.6335 13.2174C 30.6335 11.9181 29.5764 10.8609 28.277 10.8609L 24.9848 10.8609L 24.9848 9.51429L 28.277 9.51429C 30.3189 9.51429 31.9801 11.1755 31.9801 13.2174L 31.9801 20.7826Z"/>
</defs>
</svg>
