<svg width="34" height="34" viewBox="0 0 34 34" version="1.1" xmlns="http://www.w3.org/2000/svg" xmlns:xlink="http://www.w3.org/1999/xlink">
<title>Vector</title>
<desc>Created using Figma</desc>
<g id="Canvas" transform="translate(-1728 2)">
<g id="Vector">
<use xlink:href="#path0_fill" transform="translate(1728 -2)" fill="#70A3CA"/>
</g>
</g>
<defs>
<path id="path0_fill" d="M 29.0209 4.97923C 25.81 1.76834 21.5409 3.15414e-12 17.0001 3.15414e-12C 12.4592 3.15414e-12 8.19011 1.76834 4.97916 4.97923C 1.76827 8.19011 0 12.4591 0 17C 0 21.5409 1.76827 25.81 4.97916 29.0208C 8.19005 32.2317 12.4591 34 17.0001 34C 21.541 34 25.8101 32.2317 29.021 29.0208C 32.2319 25.81 34.0001 21.5409 34.0001 17C 34.0001 12.4591 32.2318 8.19005 29.0209 4.97923ZM 6.4075 27.5926C 3.57812 24.7633 2.01989 21.0013 2.01989 17C 2.01989 12.9987 3.57812 9.23681 6.4075 6.40743C 9.23695 3.57812 12.9987 2.01989 17.0001 2.01989C 21.0014 2.01989 24.7633 3.57812 27.5926 6.4075C 29.2229 8.03778 30.4301 9.97798 31.1615 12.0949C 30.43 11.9999 29.6909 11.9503 28.9504 11.9503C 24.4095 11.9503 20.1404 13.7187 16.9295 16.9295C 13.7186 20.1403 11.9503 24.4094 11.9503 28.9503C 11.9503 29.6909 11.9999 30.4301 12.095 31.1615C 9.97811 30.4302 8.03784 29.223 6.4075 27.5926ZM 13.9702 28.9503C 13.9702 24.9489 15.5284 21.1871 18.3578 18.3577C 21.1872 15.5284 24.949 13.9701 28.9504 13.9701C 29.4599 13.9701 29.9685 13.9973 30.4737 14.0484L 14.0484 30.4735C 13.9974 29.9683 13.9702 29.4598 13.9702 28.9503ZM 27.5926 27.5926C 24.7633 30.4219 21.0015 31.9801 17.0001 31.9801C 16.4873 31.9801 15.9785 31.9541 15.475 31.9035L 31.9036 15.4748C 31.9541 15.9784 31.9802 16.4871 31.9802 16.9999C 31.9802 21.0013 30.422 24.7633 27.5926 27.5926Z"/>
</defs>
</svg>
