<svg width="29" height="34" viewBox="0 0 29 34" version="1.1" xmlns="http://www.w3.org/2000/svg" xmlns:xlink="http://www.w3.org/1999/xlink">
<title>Vector</title>
<desc>Created using Figma</desc>
<g id="Canvas" transform="translate(-2310 96)">
<g id="Vector">
<use xlink:href="#path0_fill" transform="translate(2310 -96)" fill="#70A3CA"/>
</g>
</g>
<defs>
<path id="path0_fill" d="M 23.9902 9.31481L 23.9902 6.18103C 23.9902 2.77279 21.2364 0 17.8515 0C 16.4695 0 15.1929 0.462387 14.1658 1.24133C 13.1386 0.462387 11.862 0 10.48 0C 7.09518 0 4.34137 2.77279 4.34137 6.18103L 4.34137 9.31481L 2.02656e-08 9.31481L 2.02656e-08 34L 28.3316 34L 28.3316 9.31481L 23.9902 9.31481ZM 17.8515 2.01988C 20.1226 2.01988 21.9703 3.88663 21.9703 6.18096L 21.9703 9.31474L 16.6187 9.31474L 16.6187 6.18103C 16.6187 4.90045 16.23 3.70979 15.565 2.72206C 16.2197 2.27893 17.0061 2.01988 17.8515 2.01988ZM 14.1658 4.32703C 14.4422 4.88571 14.5988 5.51511 14.5988 6.18103L 14.5988 9.31481L 13.7329 9.31481L 13.7329 6.18103L 13.7328 6.18103C 13.7328 5.51504 13.8893 4.88571 14.1658 4.32703ZM 6.36119 6.18103L 6.36125 6.18103C 6.36125 3.88663 8.20894 2.01995 10.48 2.01995C 11.3254 2.01995 12.1119 2.279 12.7665 2.72206C 12.1016 3.70979 11.7128 4.90052 11.7128 6.18103L 11.7128 9.31481L 6.36119 9.31481L 6.36119 6.18103ZM 18.9401 31.9801L 2.01995 31.9801L 2.01995 11.3347L 18.9401 11.3347L 18.9401 31.9801ZM 20.96 11.3347L 22.6259 11.3347L 22.6259 28.634L 20.96 30.3707L 20.96 11.3347ZM 22.2151 31.9801L 23.6256 30.5096L 24.9978 31.9801L 22.2151 31.9801ZM 26.3116 30.4273L 24.6458 28.642L 24.6458 11.3347L 26.3116 11.3347L 26.3116 30.4273Z"/>
</defs>
</svg>
