<svg width="34" height="34" viewBox="0 0 34 34" version="1.1" xmlns="http://www.w3.org/2000/svg" xmlns:xlink="http://www.w3.org/1999/xlink">
<title>Vector</title>
<desc>Created using Figma</desc>
<g id="Canvas" transform="translate(-2601 190)">
<g id="Vector">
<use xlink:href="#path0_fill" transform="translate(2601 -190)" fill="#70A3CA"/>
</g>
</g>
<defs>
<path id="path0_fill" d="M 23.2927 16.9587L 32.6809 7.57051C 34.4044 5.847 34.4044 3.0426 32.6809 1.31909C 31.8461 0.484102 30.736 0.0243047 29.5552 0.0243047C 28.3745 0.0243047 27.2645 0.484102 26.4296 1.31903L 17.0413 10.7072L 6.33403 0L 0.0826094 6.25142L 10.7898 16.9586L 3.5453 24.2032L 2.02977 28.3911L 0 34L 5.60887 31.9702L 9.79671 30.4547L 17.0412 23.2102L 27.7485 33.9174L 34 27.666L 23.2927 16.9587ZM 27.8568 2.74636C 28.3104 2.29268 28.9136 2.04286 29.5552 2.04286C 30.1967 2.04286 30.7999 2.29274 31.2536 2.74636C 32.1902 3.68289 32.1902 5.20672 31.2536 6.14318L 29.3099 8.08689L 25.9131 4.69001L 27.8568 2.74636ZM 9.54032 12.8546L 8.29082 11.6051L 10.1277 9.76816L 8.70048 8.34089L 6.86355 10.1778L 5.61405 8.92832L 7.45098 7.09139L 6.02371 5.66399L 4.18678 7.50092L 2.93715 6.25142L 6.33403 2.85454L 15.614 12.1345L 12.2171 15.5314L 10.9676 14.2819L 12.8045 12.4449L 11.3773 11.0177L 9.54032 12.8546ZM 3.36401 30.636L 3.60599 29.9672L 4.03278 30.394L 3.36401 30.636ZM 6.1287 29.6354L 4.36448 27.8712L 4.82667 26.594L 7.40589 29.1733L 6.1287 29.6354ZM 15.6141 21.7829L 9.24202 28.1549L 5.84521 24.758L 15.3429 15.2604L 18.4686 12.1346L 24.4858 6.11741L 27.8827 9.51429L 19.0068 18.3901L 15.6141 21.7829ZM 26.4991 29.8133L 28.336 27.9764L 26.9087 26.5491L 25.0718 28.386L 23.8223 27.1365L 25.6592 25.2996L 24.232 23.8723L 22.395 25.7092L 21.1455 24.4597L 22.9825 22.6228L 21.5552 21.1955L 19.7183 23.0325L 18.4688 21.783L 19.3066 20.9449L 21.8655 18.386L 31.1454 27.666L 27.7486 31.0629L 26.4991 29.8133Z"/>
</defs>
</svg>
