<svg width="33" height="34" viewBox="0 0 33 34" version="1.1" xmlns="http://www.w3.org/2000/svg" xmlns:xlink="http://www.w3.org/1999/xlink">
<title>Vector</title>
<desc>Created using Figma</desc>
<g id="Canvas" transform="translate(-2310 190)">
<g id="Vector">
<use xlink:href="#path0_fill" transform="translate(2310 -190)" fill="#70A3CA"/>
</g>
</g>
<defs>
<path id="path0_fill" d="M 32.5529 0L 6.95297e-09 0L 6.95297e-09 6.4757C 6.95297e-09 8.11163 0.643476 9.59999 1.69033 10.7006L 1.69033 34L 30.8626 34L 30.8626 10.7006C 31.9095 9.59999 32.5529 8.11163 32.5529 6.4757L 32.5529 0ZM 30.4498 2.10309L 30.4498 5.42416L 2.10309 5.42416L 2.10309 2.10309L 30.4498 2.10309ZM 3.79342 17.5147L 10.6914 17.5147L 10.6914 26.9897L 3.79342 26.9897L 3.79342 17.5147ZM 12.7945 17.5147L 19.7584 17.5147L 19.7584 31.8969L 12.7945 31.8969L 12.7945 17.5147ZM 21.8615 17.5147L 28.7595 17.5147L 28.7595 26.9897L 21.8615 26.9897L 21.8615 17.5147ZM 3.79342 15.4116L 3.79342 12.1451C 4.51296 12.4428 5.30078 12.6075 6.12652 12.6075C 8.23543 12.6075 10.0989 11.5354 11.2015 9.90725C 12.3041 11.5354 14.1676 12.6075 16.2765 12.6075C 18.3853 12.6075 20.2489 11.5354 21.3514 9.90725C 22.454 11.5354 24.3176 12.6075 26.4264 12.6075C 27.2521 12.6075 28.04 12.4427 28.7595 12.1451L 28.7595 15.4116L 3.79342 15.4116ZM 2.24302 7.52725L 10.01 7.52725C 9.54692 9.24029 7.98173 10.5045 6.12652 10.5045C 4.27131 10.5045 2.70612 9.24022 2.24302 7.52725ZM 12.393 7.52725L 20.16 7.52725C 19.6969 9.24029 18.1317 10.5045 16.2765 10.5045C 14.4213 10.5045 12.8561 9.24022 12.393 7.52725ZM 26.4264 10.5044C 24.5712 10.5044 23.006 9.24022 22.5429 7.52718L 30.3099 7.52718C 29.8468 9.24022 28.2816 10.5044 26.4264 10.5044ZM 3.79342 29.0928L 10.6914 29.0928L 10.6914 31.8969L 3.79342 31.8969L 3.79342 29.0928ZM 21.8615 31.8969L 21.8615 29.0928L 28.7595 29.0928L 28.7595 31.8969L 21.8615 31.8969Z"/>
</defs>
</svg>
