<svg width="34" height="27" viewBox="0 0 34 27" version="1.1" xmlns="http://www.w3.org/2000/svg" xmlns:xlink="http://www.w3.org/1999/xlink">
<title>Vector</title>
<desc>Created using Figma</desc>
<g id="Canvas" transform="translate(-1728 92)">
<g id="Vector">
<use xlink:href="#path0_fill" transform="translate(1728 -92)" fill="#70A3CA"/>
</g>
</g>
<defs>
<path id="path0_fill" d="M 30.8195 14.4943C 29.6248 13.2026 28.1724 12.2401 26.5602 11.6483C 28.1127 10.4613 29.1162 8.59093 29.1162 6.49023C 29.1162 2.91146 26.2047 4.36937e-08 22.6259 4.36937e-08L 6.49023 4.36937e-08C 2.91152 -6.63627e-05 0 2.91146 0 6.49016C 0 8.79194 1.20461 10.8175 3.01631 11.9701C 1.20461 13.1227 0 15.1483 0 17.4501C 0 21.0289 2.91152 23.9404 6.49023 23.9404L 15.8438 23.9404L 15.8438 26.1172L 34 26.1172L 34 22.9301C 34.0001 19.7078 32.8705 16.712 30.8195 14.4943ZM 22.6259 2.02055C 25.0905 2.02055 27.0956 4.02556 27.0956 6.49016C 27.0956 8.95477 25.0905 10.9598 22.6259 10.9598L 11.1919 10.9598C 12.2997 9.79501 12.9805 8.22065 12.9805 6.49016C 12.9805 4.75968 12.2997 3.18525 11.1919 2.02055L 22.6259 2.02055ZM 6.49023 21.9198C 4.02569 21.9198 2.02061 19.9147 2.02061 17.4501C 2.02061 14.9855 4.02569 12.9805 6.49023 12.9805C 8.95483 12.9805 10.9599 14.9856 10.9599 17.4501C 10.9599 19.9147 8.95483 21.9198 6.49023 21.9198ZM 6.49282 10.9598L 6.49016 10.9598C 4.02562 10.9598 2.02055 8.95477 2.02055 6.49016C 2.02055 4.02556 4.02569 2.02055 6.49023 2.02055C 8.95483 2.02055 10.9599 4.02562 10.9599 6.49016C 10.9599 8.95397 8.95623 10.9584 6.49282 10.9598ZM 11.1916 21.9198C 12.2994 20.755 12.9803 19.1806 12.9803 17.4501C 12.9803 16.6907 12.8487 15.9616 12.6079 15.2836C 12.6141 15.2889 12.6201 15.2942 12.626 15.2995C 12.647 15.3184 12.6683 15.3372 12.6891 15.3563C 12.7261 15.3903 12.7626 15.4249 12.799 15.4595C 12.8162 15.4757 12.8335 15.4917 12.8506 15.5081C 12.9006 15.5563 12.95 15.6052 12.999 15.6546C 13.0022 15.6578 13.0053 15.6607 13.0083 15.6639C 13.0606 15.7167 13.1122 15.7704 13.1632 15.8245C 13.1774 15.8396 13.1913 15.8551 13.2054 15.8703C 13.2418 15.9094 13.278 15.9486 13.3137 15.9883C 13.3319 16.0087 13.3499 16.0295 13.3679 16.0501C 13.3989 16.0853 13.4299 16.1205 13.4604 16.1561C 13.4799 16.1789 13.499 16.2021 13.5181 16.225C 13.5467 16.2591 13.5753 16.2931 13.6033 16.3277C 13.6232 16.3521 13.6427 16.3768 13.6623 16.4015C 13.6891 16.4352 13.7159 16.4688 13.7423 16.503C 13.7622 16.5286 13.7818 16.5546 13.8014 16.5805C 13.8269 16.6141 13.8524 16.6479 13.8775 16.6821C 13.8971 16.7087 13.9165 16.7355 13.9358 16.7623C 13.9603 16.7963 13.9847 16.8304 14.0088 16.8648C 14.0279 16.8922 14.0469 16.9196 14.0657 16.9472C 14.0894 16.9818 14.1129 17.0166 14.1363 17.0514C 14.1548 17.0793 14.1732 17.1072 14.1914 17.1352C 14.2144 17.1705 14.2372 17.2061 14.2598 17.2418C 14.2776 17.27 14.2954 17.2983 14.313 17.3268C 14.3353 17.3629 14.3572 17.3991 14.379 17.4355C 14.3962 17.4642 14.4134 17.4929 14.4304 17.5218C 14.452 17.5588 14.4733 17.596 14.4945 17.6334C 14.5109 17.6621 14.5273 17.6909 14.5433 17.7198C 14.5646 17.7581 14.5853 17.7966 14.606 17.8352C 14.6214 17.8638 14.6369 17.8923 14.652 17.921C 14.6729 17.9609 14.6933 18.0013 14.7138 18.0417C 14.728 18.0696 14.7424 18.0975 14.7564 18.1256C 14.7778 18.1689 14.7985 18.2124 14.8193 18.2561C 14.8316 18.2817 14.8441 18.3072 14.8561 18.3329C 14.8797 18.3837 14.9027 18.4349 14.9256 18.4861C 14.9343 18.5053 14.9432 18.5243 14.9516 18.5436C 14.9827 18.6146 15.0132 18.686 15.0428 18.758C 15.0465 18.767 15.0499 18.7761 15.0536 18.7852C 15.0792 18.8479 15.1045 18.9111 15.1289 18.9746C 15.1385 18.9995 15.1476 19.0248 15.157 19.0499C 15.1751 19.0978 15.1931 19.1458 15.2104 19.1942C 15.221 19.2237 15.231 19.2535 15.2415 19.2832C 15.2569 19.3275 15.2725 19.3719 15.2874 19.4166C 15.298 19.4484 15.3081 19.4802 15.3184 19.5122C 15.3323 19.5554 15.3462 19.5986 15.3597 19.6421C 15.3698 19.6751 15.3796 19.7083 15.3894 19.7415C 15.4022 19.7843 15.4148 19.8272 15.4271 19.8703C 15.4367 19.9043 15.446 19.9385 15.4554 19.9728C 15.467 20.0154 15.4785 20.0581 15.4896 20.101C 15.4987 20.1359 15.5075 20.1711 15.5162 20.2062C 15.5269 20.2489 15.5374 20.2917 15.5475 20.3346C 15.5558 20.3702 15.5639 20.4058 15.572 20.4415C 15.5817 20.4846 15.5911 20.5278 15.6003 20.5711C 15.6079 20.607 15.6153 20.6428 15.6226 20.6789C 15.6313 20.7224 15.6398 20.7662 15.6481 20.8102C 15.6548 20.8464 15.6617 20.8827 15.6681 20.9191C 15.676 20.9632 15.6835 21.0076 15.6908 21.052C 15.6968 21.0884 15.7029 21.1247 15.7086 21.1613C 15.7155 21.2063 15.722 21.2515 15.7285 21.2968C 15.7337 21.3331 15.739 21.3694 15.7438 21.4058C 15.7499 21.4521 15.7554 21.4985 15.761 21.545C 15.7653 21.5808 15.7699 21.6165 15.7738 21.6525C 15.7791 21.7007 15.7837 21.7493 15.7884 21.7978C 15.7918 21.8323 15.7954 21.8667 15.7985 21.9014C 15.799 21.9075 15.7994 21.9137 15.7999 21.9198L 11.1916 21.9198ZM 31.9795 24.0965L 17.8643 24.0965L 17.8643 23.9404L 17.8643 22.9301C 17.8643 22.2252 17.8103 21.5311 17.7043 20.8538C 17.326 18.4344 16.2861 16.2269 14.6837 14.4943C 14.1567 13.9244 13.5796 13.4186 12.9607 12.9805L 22.6259 12.9805C 27.9583 12.9805 31.9795 17.2579 31.9795 22.9301L 31.9795 24.0965Z"/>
</defs>
</svg>
