<svg width="34" height="29" viewBox="0 0 34 29" version="1.1" xmlns="http://www.w3.org/2000/svg" xmlns:xlink="http://www.w3.org/1999/xlink">
<title>post-stamp</title>
<desc>Created using Figma</desc>
<g id="Canvas" transform="translate(-2019 -1)">
<g id="post-stamp">
<g id="Group">
<g id="Group">
<g id="Vector">
<use xlink:href="#path0_fill" transform="translate(2019 1)" fill="#70A3CA"/>
</g>
</g>
</g>
<g id="Group">
<g id="Group">
<g id="Vector">
<use xlink:href="#path1_fill" transform="translate(2023.65 5.64844)" fill="#70A3CA"/>
</g>
</g>
</g>
<g id="Group">
<g id="Group">
<g id="Vector">
<use xlink:href="#path2_fill" transform="translate(2026.47 9.40491)" fill="#70A3CA"/>
</g>
</g>
</g>
</g>
</g>
<defs>
<path id="path0_fill" d="M 33.0039 5.02609L 34 5.02609L 34 7.09295e-08L 28.9739 7.09295e-08L 28.9739 0.996094C 28.9739 1.208 28.8015 1.38045 28.5896 1.38045C 28.3776 1.38045 28.2052 1.208 28.2052 0.996094L 28.2052 7.09295e-08L 23.1791 7.09295e-08L 23.1791 0.996094C 23.1791 1.208 23.0066 1.38045 22.7947 1.38045C 22.5828 1.38045 22.4104 1.208 22.4104 0.996094L 22.4104 7.09295e-08L 17.3843 7.09295e-08L 17.3843 0.996094C 17.3843 1.208 17.2118 1.38045 16.9999 1.38045C 16.788 1.38045 16.6156 1.208 16.6156 0.996094L 16.6156 7.09295e-08L 11.5895 7.09295e-08L 11.5895 0.996094C 11.5895 1.208 11.417 1.38045 11.2051 1.38045C 10.9932 1.38045 10.8208 1.208 10.8208 0.996094L 10.8208 7.09295e-08L 5.79481 7.09295e-08L 5.79481 0.996094C 5.79481 1.208 5.62235 1.38045 5.41045 1.38045C 5.19855 1.38045 5.02609 1.208 5.02609 0.996094L 5.02609 7.09295e-08L 0 7.09295e-08L 0 5.02609L 0.996094 5.02609C 1.208 5.02609 1.38045 5.19855 1.38045 5.41045C 1.38045 5.62235 1.208 5.79481 0.996094 5.79481L 0 5.79481L 0 10.8209L 0.996094 10.8209C 1.208 10.8209 1.38045 10.9934 1.38045 11.2053C 1.38045 11.4172 1.208 11.5896 0.996094 11.5896L 0 11.5896L 0 16.6157L 0.996094 16.6157C 1.208 16.6157 1.38045 16.7882 1.38045 17.0001C 1.38045 17.212 1.208 17.3844 0.996094 17.3844L 0 17.3844L 0 22.4105L 0.996094 22.4105C 1.208 22.4105 1.38045 22.583 1.38045 22.7949C 1.38045 23.0068 1.208 23.1792 0.996094 23.1792L 0 23.1792L 0 28.2053L 5.02609 28.2053L 5.02609 27.2092C 5.02609 26.9973 5.19855 26.8249 5.41045 26.8249C 5.62235 26.8249 5.79481 26.9973 5.79481 27.2092L 5.79481 28.2053L 10.8209 28.2053L 10.8209 27.2092C 10.8209 26.9973 10.9934 26.8249 11.2053 26.8249C 11.4172 26.8249 11.5896 26.9973 11.5896 27.2092L 11.5896 28.2053L 16.6157 28.2053L 16.6157 27.2092C 16.6157 26.9973 16.7882 26.8249 17.0001 26.8249C 17.212 26.8249 17.3844 26.9973 17.3844 27.2092L 17.3844 28.2053L 22.4105 28.2053L 22.4105 27.2092C 22.4105 26.9973 22.583 26.8249 22.7949 26.8249C 23.0068 26.8249 23.1792 26.9973 23.1792 27.2092L 23.1792 28.2053L 28.2053 28.2053L 28.2053 27.2092C 28.2053 26.9973 28.3778 26.8249 28.5897 26.8249C 28.8016 26.8249 28.974 26.9973 28.974 27.2092L 28.974 28.2053L 34 28.2053L 34 23.1792L 33.0039 23.1792C 32.792 23.1792 32.6195 23.0068 32.6195 22.7949C 32.6195 22.583 32.792 22.4105 33.0039 22.4105L 34 22.4105L 34 17.3844L 33.0039 17.3844C 32.792 17.3844 32.6195 17.212 32.6195 17.0001C 32.6195 16.7882 32.792 16.6157 33.0039 16.6157L 34 16.6157L 34 11.5896L 33.0039 11.5896C 32.792 11.5896 32.6195 11.4172 32.6195 11.2053C 32.6195 10.9934 32.792 10.8209 33.0039 10.8209L 34 10.8209L 34 5.79481L 33.0039 5.79481C 32.792 5.79481 32.6195 5.62235 32.6195 5.41045C 32.6195 5.19855 32.792 5.02609 33.0039 5.02609ZM 32.0078 3.25284C 31.1935 3.63023 30.6274 4.45546 30.6274 5.41045C 30.6274 6.36544 31.1935 7.19067 32.0078 7.56805L 32.0078 9.04765C 31.1935 9.42504 30.6274 10.2503 30.6274 11.2053C 30.6274 12.1602 31.1935 12.9855 32.0078 13.3629L 32.0078 14.8425C 31.1935 15.2198 30.6274 16.0451 30.6274 17.0001C 30.6274 17.9551 31.1935 18.7803 32.0078 19.1577L 32.0078 20.6373C 31.1935 21.0147 30.6274 21.8399 30.6274 22.7949C 30.6274 23.7499 31.1935 24.5751 32.0078 24.9525L 32.0078 26.2131L 30.7472 26.2131C 30.3698 25.3988 29.5446 24.8327 28.5896 24.8327C 27.6346 24.8327 26.8094 25.3988 26.432 26.2131L 24.9525 26.2131C 24.575 25.3988 23.7499 24.8327 22.7949 24.8327C 21.8399 24.8327 21.0147 25.3988 20.6373 26.2131L 19.1577 26.2131C 18.7803 25.3988 17.9551 24.8327 17.0001 24.8327C 16.0451 24.8327 15.2199 25.3988 14.8425 26.2131L 13.363 26.2131C 12.9855 25.3988 12.1604 24.8327 11.2054 24.8327C 10.2504 24.8327 9.42517 25.3988 9.04778 26.2131L 7.56825 26.2131C 7.1908 25.3988 6.36564 24.8327 5.41065 24.8327C 4.45566 24.8327 3.63043 25.3988 3.25304 26.2131L 1.99219 26.2131L 1.99219 24.9525C 2.80653 24.5751 3.37264 23.7499 3.37264 22.7949C 3.37264 21.8399 2.80653 21.0146 1.99219 20.6372L 1.99219 19.1576C 2.80653 18.7802 3.37264 17.955 3.37264 17C 3.37264 16.045 2.80653 15.2198 1.99219 14.8425L 1.99219 13.3629C 2.80653 12.9855 3.37264 12.1602 3.37264 11.2053C 3.37264 10.2503 2.80653 9.42504 1.99219 9.04765L 1.99219 7.56805C 2.80653 7.19067 3.37264 6.36544 3.37264 5.41045C 3.37264 4.45546 2.80653 3.63023 1.99219 3.25284L 1.99219 1.99219L 3.25278 1.99219C 3.63023 2.80653 4.45539 3.37264 5.41038 3.37264C 6.36537 3.37264 7.1906 2.80653 7.56799 1.99219L 9.04752 1.99219C 9.42497 2.80653 10.2501 3.37264 11.2051 3.37264C 12.1601 3.37264 12.9853 2.80653 13.3627 1.99219L 14.8423 1.99219C 15.2197 2.80653 16.0449 3.37264 16.9999 3.37264C 17.9549 3.37264 18.7801 2.80653 19.1575 1.99219L 20.637 1.99219C 21.0145 2.80653 21.8396 3.37264 22.7946 3.37264C 23.7496 3.37264 24.5748 2.80653 24.9522 1.99219L 26.4317 1.99219C 26.8092 2.80653 27.6344 3.37264 28.5894 3.37264C 29.5443 3.37264 30.3696 2.80653 30.747 1.99219L 32.0078 1.99219L 32.0078 3.25284Z"/>
<path id="path1_fill" d="M 0 -1.8239e-07L 0 18.9084L 24.7031 18.9084L 24.7031 -1.8239e-07L 0 -1.8239e-07ZM 5.70609 16.9162L 8.61535 13.5538L 11.5247 16.9162L 5.70609 16.9162ZM 14.159 16.9163L 11.6745 14.0447L 15.5055 9.61702L 21.821 16.9163L 14.159 16.9163ZM 22.7109 14.9001L 15.5055 6.57229L 10.3573 12.5224L 8.61535 10.5091L 3.07169 16.9163L 1.99219 16.9163L 1.99219 1.99219L 22.7109 1.99219L 22.7109 14.9001Z"/>
<path id="path2_fill" d="M 2.89551 -1.297e-07C 1.29891 -1.297e-07 1.01328e-07 1.29891 1.01328e-07 2.89551C 1.01328e-07 4.49212 1.29891 5.79102 2.89551 5.79102C 4.49212 5.79102 5.79102 4.49212 5.79102 2.89551C 5.79102 1.29891 4.49212 -1.297e-07 2.89551 -1.297e-07ZM 2.89551 3.79897C 2.39747 3.79897 1.99219 3.39376 1.99219 2.89564C 1.99219 2.39753 2.39747 1.99232 2.89551 1.99232C 3.39356 1.99232 3.79884 2.3976 3.79884 2.89564C 3.79884 3.39369 3.39356 3.79897 2.89551 3.79897Z"/>
</defs>
</svg>
