<svg width="34" height="32" viewBox="0 0 34 32" version="1.1" xmlns="http://www.w3.org/2000/svg" xmlns:xlink="http://www.w3.org/1999/xlink">
<title>Vector</title>
<desc>Created using Figma</desc>
<g id="Canvas" transform="translate(-1728 190)">
<g id="Vector">
<use xlink:href="#path0_fill" transform="translate(1728 -190)" fill="#70A3CA"/>
</g>
</g>
<defs>
<path id="path0_fill" d="M 28.4136 20.5672L 28.4136 20.5671L 34 16.843L 29.1541 16.843L 29.8418 16.0344L 23.4487 8.51728L 30.6922 -3.51074e-09L 9.23153 -3.51074e-09L 1.988 8.51722L 8.38107 16.0344L 1.13761 24.5516L 5.58649 24.5516L 0 28.2758L 5.58649 28.2758L 0 32L 22.4367 32L 34 24.2914L 28.4135 24.2914L 34 20.5672L 28.4136 20.5672ZM 10.1716 2.00005L 26.3503 2.00005L 21.6582 7.51723L 5.47958 7.51723L 10.1716 2.00005ZM 5.47958 9.51721L 21.6582 9.51721L 26.3503 15.0344L 10.1717 15.0344L 5.47958 9.51721ZM 5.47951 22.5516L 10.1716 17.0344L 26.3503 17.0344L 24.8122 18.8431L 21.6583 22.5517L 8.58659 22.5517L 5.47951 22.5517L 5.47951 22.5516ZM 27.3829 26.2913L 21.8198 30L 6.61705 30L 9.20344 28.2757L 22.4367 28.2757L 25.4134 26.2913L 27.3829 26.2913ZM 24.7966 24.2913L 21.8199 26.2758L 8.58659 26.2758L 6.61705 26.2758L 9.20344 24.5516L 22.4367 24.5516L 25.4135 22.5671L 27.383 22.5671L 24.7966 24.2913Z"/>
</defs>
</svg>
