<svg width="69" height="76" viewBox="0 0 69 76" xmlns="http://www.w3.org/2000/svg" xmlns:xlink="http://www.w3.org/1999/xlink"><title>Vector</title><desc>Created using Figma</desc><use xlink:href="#a" transform="translate(1 1)" fill="#E5E5E5"/><defs><path id="a" d="M67 1a1 1 0 1 0 0-2v2zm.707 66.707a1 1 0 0 0 0-1.414l-6.364-6.364a1 1 0 0 0-1.414 1.414L65.586 67l-5.657 5.657a1 1 0 0 0 1.414 1.414l6.364-6.364zM33.5 1H67v-2H33.5v2zm0 67H67v-2H33.5v2zm0-69C14.446-1-1 14.446-1 33.5h2C1 15.55 15.55 1 33.5 1v-2zm0 67C15.55 66 1 51.45 1 33.5h-2C-1 52.554 14.446 68 33.5 68v-2z"/></defs></svg>