<svg width="22" height="22" viewBox="0 0 22 22" xmlns="http://www.w3.org/2000/svg" xmlns:xlink="http://www.w3.org/1999/xlink"><title>Vector</title><desc>Created using Figma</desc><use xlink:href="#a" transform="translate(1 1)" fill="#66B5D5"/><defs><path id="a" d="M14 10l1 .02v-.04L14 10zm-8 0l-1-.02v.04L6 10zm4 11c6.075 0 11-4.925 11-11h-2a9 9 0 0 1-9 9v2zm11-11c0-6.075-4.925-11-11-11v2a9 9 0 0 1 9 9h2zM10-1C3.925-1-1 3.925-1 10h2a9 9 0 0 1 9-9v-2zM-1 10c0 6.075 4.925 11 11 11v-2a9 9 0 0 1-9-9h-2zm1 1h20V9H0v2zM9.262.674c2.392 2.596 3.68 5.817 3.738 9.347l2-.042c-.097-3.886-1.652-7.772-4.262-10.653L9.262.674zM13 9.98c-.057 3.53-1.346 6.751-3.738 9.347l1.476 1.348c2.61-2.88 4.165-6.767 4.262-10.653l-2-.042zm-2.262 9.347C8.346 16.73 7.058 13.509 7 9.979l-2 .042c.097 3.886 1.652 7.772 4.262 10.653l1.476-1.348zM7 10.02c.057-3.53 1.346-6.75 3.738-9.346L9.262-.674C6.652 2.206 5.097 6.093 5 9.979l2 .042z"/></defs></svg>