<svg width="23" height="23" viewBox="0 0 23 23" xmlns="http://www.w3.org/2000/svg" xmlns:xlink="http://www.w3.org/1999/xlink"><title>phone-incoming</title><desc>Created using Figma</desc><use xlink:href="#a" transform="translate(14.963 2)" fill="#66B5D5"/><use xlink:href="#b" transform="translate(14.963 1)" fill="#66B5D5"/><use xlink:href="#c" transform="translate(1 2)" fill="#66B5D5"/><defs><path id="a" d="M1 0a1 1 0 1 0-2 0h2zM0 6.02h-1a1 1 0 0 0 1 1v-1zm6.032 1a1 1 0 0 0 0-2v2zM-1 0v6.02h2V0h-2zm1 7.02h6.032v-2H0v2z"/><path id="b" d="M7.744.708A1 1 0 1 0 6.33-.708L7.744.708zm-8.45 5.608A1 1 0 1 0 .706 7.732L-.706 6.316zM6.33-.708L-.706 6.316.706 7.732 7.744.708 6.33-.708z"/><path id="c" d="M19.995 14.971l-1-.024v.024h1zm0 3.01h-1v.005l1-.004zm-2.192 2.007l-.108.995c.006 0 .012 0 .018.002l.09-.997zm-8.676-3.08l.543-.84-.008-.005-.535.845zm-6.032-6.02l.843-.538-.005-.007-.838.544zm-3.087-8.7l-.996.09.002.015.994-.105zm2-2.188v-1 1zm3.017 0v1h.01l-.01-1zm2.01 1.726l.992-.131-.001-.01-.99.141zm.704 2.82l-.936.35v.002l.936-.352zm-.452 2.117l.706.708.004-.004-.71-.704zM6.01 7.937l-.706-.708a1 1 0 0 0-.163 1.203l.87-.495zm6.032 6.02l-.493.87a1 1 0 0 0 1.2-.161l-.707-.708zm1.277-1.274l-.702-.711-.004.004.706.707zm2.121-.451l-.35.936.001.001.35-.937zm2.825.702l.14-.99-.01-.001-.13.991zm.73 2.037v3.01h2v-3.01h-2zm0 3.015c0 .282-.117.553-.327.745l1.35 1.475c.625-.572.98-1.381.977-2.228l-2 .008zm-.327.745c-.21.192-.491.287-.775.262l-.18 1.992a3.013 3.013 0 0 0 2.306-.779l-1.351-1.475zm-.757.263a18.503 18.503 0 0 1-8.24-2.925l-1.088 1.678a21.357 21.357 0 0 0 9.112 3.236l.216-1.989zm-8.249-2.93a18.17 18.17 0 0 1-5.724-5.714l-1.687 1.074a21.022 21.022 0 0 0 6.34 6.328l1.071-1.688zm-5.729-5.721a18.417 18.417 0 0 1-2.93-8.261l-1.99.211a21.269 21.269 0 0 0 3.243 9.139l1.677-1.09zM1.004 2.097c-.025-.28.069-.56.26-.768L-.212-.021a3.004 3.004 0 0 0-.776 2.299l1.992-.18zm.26-.768c.19-.21.461-.329.746-.329l-.002-2c-.845 0-1.65.356-2.22.98l1.476 1.349zM2.009 1h3.016v-2H2.009v2zm3.026 0a1.01 1.01 0 0 1 1.01.866l1.98-.28A3.01 3.01 0 0 0 5.016-1l.02 2zm1.01.857c.136 1.02.399 2.075.758 3.039l1.873-.7a11.445 11.445 0 0 1-.649-2.601l-1.983.262zm.759 3.041c.138.367.05.781-.227 1.061l1.42 1.408a3.004 3.004 0 0 0 .678-3.174l-1.871.705zM6.58 5.955L5.304 7.23l1.413 1.416 1.276-1.274-1.412-1.416zM5.14 8.432a17.504 17.504 0 0 0 6.408 6.396l.987-1.74a14.66 14.66 0 0 1-5.657-5.646l-1.738.99zm7.608 6.234l1.276-1.275-1.412-1.415-1.277 1.274 1.413 1.416zm1.272-1.27a1.012 1.012 0 0 1 1.068-.228l.703-1.872a3.014 3.014 0 0 0-3.175.676l1.404 1.423zm1.07-.227c.966.358 2.023.62 3.044.757l.26-1.983a11.504 11.504 0 0 1-2.606-.648l-.698 1.874zm3.035.756c.51.071.882.512.869 1.021l2 .05a3.008 3.008 0 0 0-2.59-3.052l-.279 1.98z"/></defs></svg>