<svg width="18" height="20" viewBox="0 0 18 20" xmlns="http://www.w3.org/2000/svg" xmlns:xlink="http://www.w3.org/1999/xlink"><title>Vector</title><desc>Created using Figma</desc><use xlink:href="#a" transform="translate(1 1)" fill="#66B5D5"/><defs><path id="a" d="M15 18a1 1 0 1 0 2 0h-2zm-16 0a1 1 0 1 0 2 0h-2zm18 0v-2h-2v2h2zm0-2a5 5 0 0 0-5-5v2a3 3 0 0 1 3 3h2zm-5-5H4v2h8v-2zm-8 0a5 5 0 0 0-5 5h2a3 3 0 0 1 3-3v-2zm-5 5v2h2v-2h-2zm9-7a5 5 0 0 0 5-5h-2a3 3 0 0 1-3 3v2zm5-5a5 5 0 0 0-5-5v2a3 3 0 0 1 3 3h2zM8-1a5 5 0 0 0-5 5h2a3 3 0 0 1 3-3v-2zM3 4a5 5 0 0 0 5 5V7a3 3 0 0 1-3-3H3z"/></defs></svg>