<svg width="50" height="50" viewBox="0 0 50 50" xmlns="http://www.w3.org/2000/svg" xmlns:xlink="http://www.w3.org/1999/xlink"><title>coin (1)</title><desc>Created using Figma</desc><use xlink:href="#a" transform="translate(6.946 38.52)" fill="#66B5D5"/><use xlink:href="#b" transform="translate(0 26.09)" fill="#66B5D5"/><use xlink:href="#c" transform="translate(31.813 4.66)" fill="#66B5D5"/><use xlink:href="#d" transform="translate(22.501)" fill="#66B5D5"/><defs><path id="a" d="M.989 1.953a.983.983 0 0 0 .988-.976A.983.983 0 0 0 .99 0 .983.983 0 0 0 0 .977c0 .539.443.976.989.976z"/><path id="b" d="M49.673 6.642c-.855-1.912-3.125-2.78-5.06-1.937l-.015.007-6.378 2.905a.972.972 0 0 0-.483 1.296.994.994 0 0 0 1.311.478l6.37-2.901a1.872 1.872 0 0 1 2.446.941 1.83 1.83 0 0 1-.95 2.423l-13.05 5.693a7.637 7.637 0 0 1-6.43-.144l-4.777-2.345a9.632 9.632 0 0 0-8.108-.181l-.082.036-3.56-7.965 4.945-2.157a9.961 9.961 0 0 1 7.41-.234l9.606 3.485a1.702 1.702 0 0 1 1.034 2.143 1.727 1.727 0 0 1-2.177 1.06l-7.429-2.483a.991.991 0 0 0-1.253.612.974.974 0 0 0 .62 1.238l7.429 2.482c.39.13.788.193 1.179.193 1.537 0 2.978-.957 3.502-2.47.645-1.862-.352-3.93-2.223-4.609L23.943.724a11.952 11.952 0 0 0-8.89.28l-4.979 2.171a2.496 2.496 0 0 0-3.077-.895L.637 5.054a.976.976 0 0 0-.589.89L0 22.931a.974.974 0 0 0 .47.834.997.997 0 0 0 .964.04l12.441-6.208a2.451 2.451 0 0 0 1.366-2.887l.107-.047a7.637 7.637 0 0 1 6.429.144l4.777 2.345a9.632 9.632 0 0 0 8.108.181l13.05-5.692c1.936-.844 2.816-3.087 1.961-4.999zM13.32 15.544a.501.501 0 0 1-.269.278L1.982 21.344l.012-4.198 2.863-1.39a.971.971 0 0 0 .452-1.306.994.994 0 0 0-1.323-.447L2 14.967l.024-8.383 5.772-2.517a.511.511 0 0 1 .67.256L13.31 15.16c.055.123.058.26.009.384z"/><path id="c" d="M5.022 7.594H3.209c-.68 0-1.232-.546-1.232-1.217V5.335c0-.67.553-1.216 1.232-1.216h2.009a1.03 1.03 0 0 1 1.035 1.023c0 .54.443.977.99.977a.983.983 0 0 0 .988-.977c0-1.641-1.352-2.976-3.013-2.976h-.114V.976A.983.983 0 0 0 4.115 0a.983.983 0 0 0-.988.977v1.19C1.395 2.212 0 3.616 0 5.336v1.042c0 1.748 1.44 3.17 3.209 3.17h1.813c.68 0 1.232.545 1.232 1.216v1.042c0 .671-.553 1.217-1.232 1.217H3.013a1.03 1.03 0 0 1-1.036-1.024.983.983 0 0 0-.988-.976.983.983 0 0 0-.989.976c0 1.642 1.352 2.977 3.013 2.977h.114v1.189c0 .54.442.976.988.976a.983.983 0 0 0 .989-.976v-1.191c1.731-.044 3.127-1.447 3.127-3.168v-1.042c0-1.747-1.44-3.17-3.21-3.17z"/><path id="d" d="M13.427 0C6.023 0 0 5.95 0 13.263s6.023 13.263 13.427 13.263c7.403 0 13.426-5.95 13.426-13.263S20.83 0 13.427 0zm0 24.573c-6.314 0-11.45-5.074-11.45-11.31 0-6.236 5.136-11.31 11.45-11.31 6.313 0 11.45 5.074 11.45 11.31 0 6.236-5.137 11.31-11.45 11.31z"/></defs></svg>