<svg width="50" height="50" viewBox="0 0 50 50" xmlns="http://www.w3.org/2000/svg" xmlns:xlink="http://www.w3.org/1999/xlink"><title>witness</title><desc>Created using Figma</desc><use xlink:href="#a" transform="translate(0 8.79)" fill="#FFF"/><use xlink:href="#b" transform="translate(44.276 24.02)" fill="#FFF"/><use xlink:href="#c" transform="translate(3.772 24.02)" fill="#FFF"/><use xlink:href="#d" transform="translate(24.024)" fill="#FFF"/><use xlink:href="#e" transform="translate(7.348 7.15)" fill="#FFF"/><use xlink:href="#f" transform="translate(37.9 7.15)" fill="#FFF"/><use xlink:href="#g" transform="translate(24.024 44.09)" fill="#FFF"/><use xlink:href="#h" transform="translate(37.9 38.1)" fill="#FFF"/><use xlink:href="#i" transform="translate(7.348 38.1)" fill="#FFF"/><defs><path id="a" d="M49.82 15.6c-.188-.266-4.701-6.579-11.57-11.12l-.114-.076a33.228 33.228 0 0 0-2.01-1.222C32.352 1.07 28.61 0 25 0c-3.61 0-7.353 1.07-11.125 3.182A33.03 33.03 0 0 0 11.87 4.4l-.124.082C4.88 9.02.368 15.334.18 15.601a.976.976 0 0 0 0 1.128c.112.16 2.806 3.937 7.19 7.766 2.588 2.26 5.227 4.064 7.845 5.361 3.315 1.642 6.607 2.475 9.785 2.475s6.47-.833 9.785-2.475c2.618-1.297 5.258-3.1 7.845-5.36 4.384-3.83 7.078-7.608 7.19-7.767a.976.976 0 0 0 0-1.128zM37.786 8.184a12.99 12.99 0 0 1 .191.795l.017.081c.026.127.05.255.071.382l.015.088a12.802 12.802 0 0 1 .06.403v.002a13.145 13.145 0 0 1 .116 1.762 13.66 13.66 0 0 1-.033.949l-.006.078c-.01.135-.023.272-.038.41-.006.057-.012.115-.02.176-.035.29-.08.577-.131.853l-.007.036c-.02.103-.04.206-.062.309v.002l-.043.186a10.67 10.67 0 0 1-.07.29l-.004.014-.052.197-.003.01a12.017 12.017 0 0 1-.12.412l-.004.012c-.01.036-.023.072-.034.109l-.006.017a15.386 15.386 0 0 1-.142.42l-.019.051-8.635-3.955 2.322-1.063.103-.047 6.53-2.991a.45.45 0 0 1 .004.012zm-11.71 4.977l3.89 1.783A5.399 5.399 0 0 1 25 18.22a5.405 5.405 0 0 1-5.399-5.4 5.405 5.405 0 0 1 5.4-5.398 5.4 5.4 0 0 1 4.488 2.4l-3.414 1.563a.976.976 0 0 0 0 1.775zM25 20.173a7.351 7.351 0 0 0 6.742-4.417l4.919 2.253A13.29 13.29 0 0 1 25 24.953c-5.352 0-9.973-3.188-12.065-7.765h6.155A7.346 7.346 0 0 0 25 20.172zM13.042 5.969l.218-.14.187-.12.293-.182.168-.104.335-.2.126-.074c.153-.09.307-.177.46-.263C18.306 2.94 21.729 1.953 25 1.953c3.271 0 6.694.987 10.172 2.934.15.084.303.17.455.26.056.032.112.067.168.1l.292.173.196.122.266.164.21.135c.067.042.133.085.2.129.056.117.11.236.163.355L31.282 9A7.353 7.353 0 0 0 25 5.468c-4.055 0-7.353 3.299-7.353 7.352 0 .846.145 1.658.409 2.414h-5.834a13.226 13.226 0 0 1-.48-3.538c0-2.01.437-3.937 1.299-5.727zm28.27 17.084C37.48 26.395 31.538 30.378 25 30.378c-6.538 0-12.48-3.983-16.312-7.325a49.771 49.771 0 0 1-6.492-6.888c1.047-1.362 3.977-4.955 8.05-8.18a15.203 15.203 0 0 0-.456 3.711c0 1.218.145 2.403.417 3.539h-1.85a.977.977 0 0 0 0 1.953h2.458c2.207 5.68 7.733 9.718 14.184 9.718a15.245 15.245 0 0 0 14.023-9.311l.025-.06.056-.134.004-.01.076-.192.004-.011h2.454a.977.977 0 0 0 0-1.953h-1.845c.13-.55.23-1.109.299-1.673l.002-.015.007-.058c.024-.21.045-.422.061-.635l.008-.121c.007-.107.014-.215.018-.323l.006-.091.005-.188.002-.042.002-.08a15.399 15.399 0 0 0 0-.578v-.044l-.002-.042v-.024a10.77 10.77 0 0 0-.009-.279l-.006-.122a12.713 12.713 0 0 0-.025-.392l-.01-.12-.005-.063-.003-.045a9.604 9.604 0 0 0-.024-.238l-.001-.01-.007-.058-.004-.036a6.678 6.678 0 0 0-.037-.296 1.273 1.273 0 0 0-.01-.075l-.016-.108a14.728 14.728 0 0 0-.073-.459l-.006-.03-.023-.122a15.2 15.2 0 0 0-.033-.176l-.003-.015-.023-.106a13.586 13.586 0 0 0-.05-.236l-.006-.023a8.25 8.25 0 0 0-.054-.232l-.002-.007-.005-.022-.017-.066c4.068 3.224 7.002 6.818 8.051 8.18a49.763 49.763 0 0 1-6.492 6.888z"/><path id="b" d="M1.933.786a.985.985 0 0 0-.266-.5.99.99 0 0 0-.882-.268A.987.987 0 0 0 0 .976a.962.962 0 0 0 .164.542.991.991 0 0 0 .27.27 1.046 1.046 0 0 0 .351.145.97.97 0 0 0 1.148-.766.963.963 0 0 0 0-.381z"/><path id="c" d="M1.934.786a.983.983 0 0 0-.267-.5A.986.986 0 0 0 .603.075a1.007 1.007 0 0 0-.317.21.935.935 0 0 0-.21.318A.996.996 0 0 0 0 .976a.963.963 0 0 0 .075.373.97.97 0 0 0 .901.604.982.982 0 0 0 .958-.786.963.963 0 0 0 0-.381z"/><path id="d" d="M.977 0A.977.977 0 0 0 0 .977v3.958a.977.977 0 0 0 1.953 0V.977A.977.977 0 0 0 .977 0z"/><path id="e" d="M4.466 3.085L1.667.285A.977.977 0 0 0 .286 1.668l2.799 2.799a.974.974 0 0 0 1.38 0 .977.977 0 0 0 0-1.381z"/><path id="f" d="M4.466.286a.977.977 0 0 0-1.381 0L.286 3.085a.977.977 0 0 0 1.381 1.38l2.799-2.798a.977.977 0 0 0 0-1.381z"/><path id="g" d="M.977 0A.977.977 0 0 0 0 .977v3.957a.977.977 0 0 0 1.953 0V.977A.977.977 0 0 0 .977 0z"/><path id="h" d="M4.466 3.085L1.667.285A.977.977 0 0 0 .286 1.668l2.799 2.799a.974.974 0 0 0 1.38 0 .977.977 0 0 0 0-1.381z"/><path id="i" d="M4.466.286a.977.977 0 0 0-1.381 0L.286 3.085a.977.977 0 0 0 1.381 1.38l2.799-2.798a.977.977 0 0 0 0-1.381z"/></defs></svg>