<svg width="50" height="42" viewBox="0 0 50 42" xmlns="http://www.w3.org/2000/svg" xmlns:xlink="http://www.w3.org/1999/xlink"><title>coin</title><desc>Created using Figma</desc><use xlink:href="#a" transform="translate(48.042 5.79)" fill="#FFF"/><use xlink:href="#b" transform="translate(0 23.59)" fill="#FFF"/><use xlink:href="#c" transform="translate(34.335 29.02)" fill="#FFF"/><use xlink:href="#d" transform="translate(32.155 30.99)" fill="#FFF"/><use xlink:href="#e" transform="translate(29.607 32.44)" fill="#FFF"/><use xlink:href="#f" transform="translate(26.804 33.32)" fill="#FFF"/><use xlink:href="#g" transform="translate(37.787 18.18)" fill="#FFF"/><use xlink:href="#h" transform="translate(37.767 21.09)" fill="#FFF"/><use xlink:href="#i" transform="translate(36.046 26.65)" fill="#FFF"/><use xlink:href="#j" transform="translate(37.209 23.96)" fill="#FFF"/><use xlink:href="#k" transform="translate(10.727 23.11)" fill="#FFF"/><use xlink:href="#l" transform="translate(11.492 14.51)" fill="#FFF"/><use xlink:href="#m" transform="translate(10.617 17.3)" fill="#FFF"/><use xlink:href="#n" transform="translate(12.948 11.97)" fill="#FFF"/><use xlink:href="#o" transform="translate(14.914 9.8)" fill="#FFF"/><use xlink:href="#p" transform="translate(17.294 8.09)" fill="#FFF"/><use xlink:href="#q" transform="translate(19.99 6.93)" fill="#FFF"/><use xlink:href="#r" transform="translate(22.879 6.37)" fill="#FFF"/><use xlink:href="#s" transform="translate(10.361 20.2)" fill="#FFF"/><use xlink:href="#t" transform="translate(20.547 11.47)" fill="#FFF"/><use xlink:href="#u" transform="translate(17.145)" fill="#FFF"/><use xlink:href="#v" transform="translate(0 34.23)" fill="#FFF"/><defs><path id="a" d="M.979 1.945c.54 0 .979-.435.979-.973A.976.976 0 0 0 .978 0 .976.976 0 0 0 0 .972c0 .538.438.973.979.973z"/><path id="b" d="M29.839 12.422H26.05a.976.976 0 0 0-.979.972c0 .537.438.973.979.973h3.789c.583 0 1.058.471 1.058 1.05 0 .58-.475 1.052-1.058 1.052H19.64a5.142 5.142 0 0 1-3.953-1.842l-2.439-2.912a7.095 7.095 0 0 0-5.25-2.537V3.452h3.592c1.772 0 3.45.673 4.725 1.896l5.264 5.048a.952.952 0 0 1 .039 1.33.963.963 0 0 1-1.35.055l-4.133-3.764a.983.983 0 0 0-1.383.06.968.968 0 0 0 .06 1.374l4.133 3.764a2.913 2.913 0 0 0 1.968.759c.786 0 1.57-.313 2.143-.93a2.899 2.899 0 0 0-.117-4.047l-5.264-5.048a8.749 8.749 0 0 0-6.085-2.442H7.821A2.426 2.426 0 0 0 5.575 0H.979A.976.976 0 0 0 0 .972v7.094c0 .537.438.973.979.973.54 0 .979-.436.979-.973V1.945h3.617c.256 0 .465.207.465.462v7.775a.464.464 0 0 1-.465.462H4.56a.976.976 0 0 0-.979.973c0 .537.438.972.979.972h1.014a2.426 2.426 0 0 0 2.232-1.472 5.141 5.141 0 0 1 3.936 1.842l2.439 2.912a7.1 7.1 0 0 0 5.458 2.543h10.199c1.662 0 3.015-1.344 3.015-2.996s-1.353-2.996-3.015-2.996z"/><path id="c" d="M1.64.25A.983.983 0 0 0 .244.335a.966.966 0 0 0 .084 1.37.983.983 0 0 0 1.381-.08L.985.972l.727.65A.968.968 0 0 0 1.64.25z"/><path id="d" d="M1.774.399A.987.987 0 0 0 .404.187a.968.968 0 0 0-.217 1.359.98.98 0 0 0 1.367.214l.008-.006A.964.964 0 0 0 1.774.4z"/><path id="e" d="M1.88.572A.982.982 0 0 0 .59.082a.97.97 0 0 0-.517 1.265.979.979 0 0 0 1.317.511.97.97 0 0 0 .488-1.286z"/><path id="f" d="M1.946.774A.98.98 0 0 0 .794.019a.973.973 0 0 0-.779 1.126.977.977 0 0 0 1.174.78.972.972 0 0 0 .757-1.151z"/><path id="g" d="M1.94.79L.98.972l.96-.186A.978.978 0 0 0 .794.018a.973.973 0 0 0-.775 1.14l.005.023a.981.981 0 0 0 1.159.756A.97.97 0 0 0 1.94.789z"/><path id="h" d="M1.066.004A.977.977 0 0 0 .005.887L.003.911A.977.977 0 0 0 .98 1.958a.973.973 0 0 0 .974-.898L.98.972l.975.086a.974.974 0 0 0-.89-1.054z"/><path id="i" d="M1.465.126A.986.986 0 0 0 .128.495.97.97 0 0 0 .495 1.82a.98.98 0 0 0 1.34-.374.965.965 0 0 0-.37-1.321z"/><path id="j" d="M1.266.042a.98.98 0 0 0-1.221.65.971.971 0 0 0 .934 1.262.978.978 0 0 0 .934-.683l.006-.017A.97.97 0 0 0 1.266.042z"/><path id="k" d="M1.933.756a.98.98 0 0 0-1.91.426l.007.03a.976.976 0 0 0 1.181.714.973.973 0 0 0 .722-1.17z"/><path id="l" d="M1.386.086A.981.981 0 0 0 .09.572L.079.6a.969.969 0 0 0 .514 1.275.98.98 0 0 0 1.285-.508.97.97 0 0 0-.492-1.28z"/><path id="m" d="M1.181.02A.979.979 0 0 0 .023.775L.018.797a.975.975 0 0 0 .962 1.16.975.975 0 0 0 .959-.786.972.972 0 0 0-.758-1.15z"/><path id="n" d="M1.554.182A.985.985 0 0 0 .19.404l.79.574L.187.406a.968.968 0 0 0 .216 1.359.98.98 0 0 0 1.367-.215l.01-.014A.967.967 0 0 0 1.555.182z"/><path id="o" d="M1.712.322A.983.983 0 0 0 .329.25L.321.257a.964.964 0 0 0-.068 1.37.987.987 0 0 0 1.386.069.968.968 0 0 0 .073-1.374z"/><path id="p" d="M1.843.498A.982.982 0 0 0 .49.135a.97.97 0 0 0-.36 1.329.98.98 0 0 0 1.335.357.97.97 0 0 0 .377-1.323z"/><path id="q" d="M1.922.675A.978.978 0 0 0 .692.047l.287.93-.288-.93A.971.971 0 0 0 .98 1.95a.982.982 0 0 0 .288-.043L1.29 1.9A.974.974 0 0 0 1.922.675z"/><path id="r" d="M1.959.887A.977.977 0 0 0 .898.004h-.01a.97.97 0 0 0-.884 1.054.98.98 0 0 0 1.066.883.974.974 0 0 0 .889-1.054z"/><path id="s" d="M1.957.947A.978.978 0 0 0 .95 0 .972.972 0 0 0 0 .998L.98.985 0 1a.976.976 0 0 0 .979.959h.014A.975.975 0 0 0 1.958.97V.947z"/><path id="t" d="M5.46 8.486H3.446c-.82 0-1.488-.663-1.488-1.478V5.844c0-.816.667-1.479 1.488-1.479h2.231c.701 0 1.27.566 1.27 1.262 0 .538.44.973.98.973s.979-.435.979-.973c0-1.768-1.449-3.207-3.228-3.207h-.246V.972A.976.976 0 0 0 4.452 0a.976.976 0 0 0-.978.972V2.42h-.029C1.545 2.42 0 3.956 0 5.844v1.164c0 1.887 1.546 3.423 3.446 3.423H5.46c.82 0 1.488.663 1.488 1.478v1.164c0 .816-.668 1.479-1.488 1.479H3.228c-.7 0-1.27-.566-1.27-1.262a.976.976 0 0 0-.98-.973.976.976 0 0 0-.978.973c0 1.768 1.448 3.207 3.228 3.207h.246v1.447c0 .537.438.973.979.973.54 0 .979-.436.979-.973v-1.447h.028c1.9 0 3.446-1.536 3.446-3.424V11.91c0-1.887-1.546-3.423-3.446-3.423z"/><path id="u" d="M31.875 8.963a.976.976 0 0 0-.979.973v6.5H27.28a.464.464 0 0 1-.465-.462V8.199c0-.255.209-.462.465-.462h.943c.54 0 .979-.436.979-.973a.976.976 0 0 0-.98-.972h-.942a2.426 2.426 0 0 0-2.245 1.504 5.14 5.14 0 0 1-3.923-1.84l-2.439-2.913A7.099 7.099 0 0 0 13.214 0H3.015C1.353 0 0 1.344 0 2.996s1.353 2.996 3.015 2.996h4.17c.541 0 .98-.435.98-.973a.976.976 0 0 0-.98-.972h-4.17a1.056 1.056 0 0 1-1.057-1.051c0-.58.474-1.051 1.057-1.051h10.199c1.532 0 2.973.671 3.953 1.841l2.44 2.913a7.095 7.095 0 0 0 5.25 2.537v5.726h-3.593a6.794 6.794 0 0 1-4.725-1.896l-5.264-5.049a.952.952 0 0 1-.039-1.329.963.963 0 0 1 1.35-.056l4.133 3.764a.983.983 0 0 0 1.383-.06.968.968 0 0 0-.06-1.373l-4.133-3.764a2.933 2.933 0 0 0-4.11.17 2.899 2.899 0 0 0 .117 4.048l5.263 5.048a8.75 8.75 0 0 0 6.085 2.442h3.782a2.426 2.426 0 0 0 2.233 1.474h4.596c.54 0 .979-.436.979-.973V9.936a.975.975 0 0 0-.979-.973z"/><path id="v" d="M.979 1.945c.54 0 .979-.435.979-.973A.976.976 0 0 0 .978 0 .976.976 0 0 0 0 .972c0 .538.438.973.979.973z"/></defs></svg>