<svg width="50" height="32" viewBox="0 0 50 32" xmlns="http://www.w3.org/2000/svg" xmlns:xlink="http://www.w3.org/1999/xlink"><title>laptop</title><desc>Created using Figma</desc><use xlink:href="#a" fill="#FFF"/><use xlink:href="#b" transform="translate(6.693 3.33)" fill="#FFF"/><use xlink:href="#c" transform="translate(22.835 27.6)" fill="#FFF"/><use xlink:href="#d" transform="translate(12.5 17.71)" fill="#FFF"/><use xlink:href="#e" transform="translate(19.924 18.79)" fill="#FFF"/><use xlink:href="#f" transform="translate(19.924 13.71)" fill="#FFF"/><use xlink:href="#g" transform="translate(27.256 18.74)" fill="#FFF"/><use xlink:href="#h" transform="translate(27.256 15.15)" fill="#FFF"/><use xlink:href="#i" transform="translate(35.138 18.74)" fill="#FFF"/><use xlink:href="#j" transform="translate(35.138 14.74)" fill="#FFF"/><use xlink:href="#k" transform="translate(35.138 11.06)" fill="#FFF"/><use xlink:href="#l" transform="translate(12.401 7.05)" fill="#FFF"/><defs><path id="a" d="M49.016 25.052h-2.412V4.086c0-2.253-1.843-4.086-4.11-4.086H7.505C5.24 0 3.397 1.833 3.397 4.086v20.966H.984A.981.981 0 0 0 0 26.03v.195C0 29.41 2.605 32 5.807 32h38.386C47.395 32 50 29.41 50 26.226v-.195c0-.54-.44-.98-.984-.98zM5.364 4.086c0-1.174.96-2.129 2.14-2.129h34.991c1.18 0 2.14.955 2.14 2.129v20.966H5.366V4.086zm38.829 25.957H5.807a3.84 3.84 0 0 1-3.757-3.034h45.9a3.84 3.84 0 0 1-3.757 3.034z"/><path id="b" d="M35.63 0H.984A.981.981 0 0 0 0 .979v18.397c0 .54.44.979.984.979H35.63a.981.981 0 0 0 .984-.979V.98c0-.54-.44-.979-.984-.979zm-.984 18.398H1.969V1.958h32.677v16.44z"/><path id="c" d="M3.346 0H.984A.981.981 0 0 0 0 .979c0 .54.44.978.984.978h2.362A.981.981 0 0 0 4.331.98.983.983 0 0 0 3.346 0z"/><path id="d" d="M.984 0A.981.981 0 0 0 0 .979v.64c0 .54.44.979.984.979a.981.981 0 0 0 .985-.979V.98A.983.983 0 0 0 .984 0z"/><path id="e" d="M.984 0A.981.981 0 0 0 0 .979v.195c0 .54.44.979.984.979a.981.981 0 0 0 .985-.979V.98A.983.983 0 0 0 .984 0z"/><path id="f" d="M.984 0A.981.981 0 0 0 0 .979v.195c0 .54.44.979.984.979a.981.981 0 0 0 .985-.979V.98A.983.983 0 0 0 .984 0z"/><path id="g" d="M.984 0A.981.981 0 0 0 0 .979v.244c0 .54.44.979.984.979a.981.981 0 0 0 .985-.979V.98A.983.983 0 0 0 .984 0z"/><path id="h" d="M.984 0A.981.981 0 0 0 0 .979v.244c0 .54.44.979.984.979a.981.981 0 0 0 .985-.979V.98A.983.983 0 0 0 .984 0z"/><path id="i" d="M.984 0A.981.981 0 0 0 0 .979v.244c0 .54.44.979.984.979a.981.981 0 0 0 .985-.979V.98A.983.983 0 0 0 .984 0z"/><path id="j" d="M.984 0A.981.981 0 0 0 0 .979v.572c0 .54.44.978.984.978a.981.981 0 0 0 .985-.978V.979A.982.982 0 0 0 .984 0z"/><path id="k" d="M.984 0A.981.981 0 0 0 0 .979v.244c0 .54.44.979.984.979a.981.981 0 0 0 .985-.979V.98A.983.983 0 0 0 .984 0z"/><path id="l" d="M24.36.463a.987.987 0 0 0-1.355-.316l-7.391 4.558-7.05-2.213a.989.989 0 0 0-.824.107L.457 7.2a.975.975 0 0 0-.303 1.35.985.985 0 0 0 1.358.302L8.41 4.496l7.043 2.211a.989.989 0 0 0 .815-.101l7.776-4.795A.976.976 0 0 0 24.36.463z"/></defs></svg>