<svg width="50" height="50" viewBox="0 0 50 50" xmlns="http://www.w3.org/2000/svg" xmlns:xlink="http://www.w3.org/1999/xlink"><title>laptop (1)</title><desc>Created using Figma</desc><use xlink:href="#a" fill="#FFF"/><use xlink:href="#b" transform="translate(7.733 17.02)" fill="#FFF"/><use xlink:href="#c" transform="translate(24.016 9.33)" fill="#FFF"/><use xlink:href="#d" transform="translate(44.631 38.06)" fill="#FFF"/><use xlink:href="#e" transform="translate(21.457 27.11)" fill="#FFF"/><use xlink:href="#f" transform="translate(26.456 26.89)" fill="#FFF"/><defs><path id="a" d="M49.016 41.972h-19.77a.98.98 0 0 0-.984.977c0 .897-.736 1.627-1.64 1.627h-3.27c-.904 0-1.639-.73-1.639-1.627a.98.98 0 0 0-.984-.977H5.37V16.878c0-1.122.92-2.034 2.05-2.034h12.27l.01.085-2.045 1.915a9.295 9.295 0 0 0-2.791 6.66v4.36a.976.976 0 0 0 .984.977.988.988 0 0 0 .659-.251l4.305-3.856c.124.21.325.372.57.444 1.156.34 2.354.513 3.56.517h.043c1.22 0 2.432-.174 3.602-.517a.98.98 0 0 0 .58-.464l4.328 3.876a.988.988 0 0 0 1.06.167.976.976 0 0 0 .583-.892v-4.36a9.295 9.295 0 0 0-2.77-6.64l-1.891-1.877.018-.145H42.58c1.13 0 2.05.913 2.05 2.035v17.905c0 .54.441.977.984.977a.98.98 0 0 0 .984-.977V16.878c0-2.199-1.802-3.988-4.018-3.988H30.72A16.149 16.149 0 0 0 26.53.736l-.173-.189A1.687 1.687 0 0 0 25.112 0h-.013c-.477.004-.933.21-1.248.566l-.326.367a16.215 16.215 0 0 0-4.033 11.957H7.42c-2.216 0-4.018 1.79-4.018 3.988v25.094H.984A.98.98 0 0 0 0 42.95v1.522C0 47.52 2.499 50 5.57 50h38.86C47.5 50 50 47.52 50 44.471V42.95a.98.98 0 0 0-.984-.977zM29.694 21.138l.47-3.697.81.805a7.361 7.361 0 0 1 2.195 5.259v2.164l-3.637-3.258.162-1.273zM25.002 2.224l.113-.127a14.204 14.204 0 0 1 3.574 11.338l-.226 1.78v.003l-.948 7.455-.1.793c-.797.183-1.611.276-2.43.276h-.038a10.82 10.82 0 0 1-2.378-.273l-.776-7.426-.087-.835-.216-2.071a14.261 14.261 0 0 1 3.512-10.913zm-4.524 20.178l-3.647 3.266v-2.164c0-1.982.776-3.846 2.184-5.25l.939-.878.524 5.026zM44.43 48.047H5.57c-1.986 0-3.602-1.604-3.602-3.576v-.546H19.88a3.61 3.61 0 0 0 3.471 2.604h3.27a3.61 3.61 0 0 0 3.47-2.604h17.94v.546c0 1.972-1.616 3.576-3.602 3.576z"/><path id="b" d="M33.88 0h-4.953a.98.98 0 0 0-.984.977c0 .539.44.976.984.976h3.97v18.92H1.966V1.953H5.09a.98.98 0 0 0 .983-.976A.98.98 0 0 0 5.09 0H.984A.98.98 0 0 0 0 .977V21.85c0 .539.44.976.984.976H33.88a.98.98 0 0 0 .984-.976V.977A.98.98 0 0 0 33.88 0z"/><path id="c" d="M.984 1.953a.98.98 0 0 0 .984-.976A.98.98 0 0 0 .984 0 .98.98 0 0 0 0 .977c0 .539.44.976.984.976z"/><path id="d" d="M.984 1.953a.98.98 0 0 0 .984-.976A.98.98 0 0 0 .984 0 .98.98 0 0 0 0 .977c0 .539.44.976.984.976z"/><path id="e" d="M.984 0A.98.98 0 0 0 0 .977v3.975c0 .539.44.976.984.976a.98.98 0 0 0 .984-.976V.977A.98.98 0 0 0 .984 0z"/><path id="f" d="M.984 0A.98.98 0 0 0 0 .977v5.861c0 .54.44.977.984.977a.98.98 0 0 0 .984-.977V.977A.98.98 0 0 0 .984 0z"/></defs></svg>