<svg width="50" height="36" viewBox="0 0 50 36" xmlns="http://www.w3.org/2000/svg" xmlns:xlink="http://www.w3.org/1999/xlink"><title>handshake</title><desc>Created using Figma</desc><use xlink:href="#a" transform="translate(0 2.21)" fill="#66B5D5"/><use xlink:href="#b" transform="translate(41.831 12.13)" fill="#66B5D5"/><use xlink:href="#c" transform="translate(6.119 12.23)" fill="#66B5D5"/><use xlink:href="#d" transform="translate(11.824 .08)" fill="#66B5D5"/><use xlink:href="#e" transform="translate(36.208)" fill="#66B5D5"/><defs><path id="a" d="M49.714 9.757L40.459.518a.978.978 0 0 0-1.382 0 .974.974 0 0 0 0 1.38l8.565 8.549-5.008 4.998a.394.394 0 0 1-.556 0l-9.888-9.87a.392.392 0 0 1 0-.556l3.36-3.354a.974.974 0 0 0 0-1.38.978.978 0 0 0-1.38 0L30.808 3.64a2.343 2.343 0 0 0-.498 2.575l-1.137 1.134h-7.946l-1.434-1.43a2.36 2.36 0 0 0 .084-.624c0-.626-.244-1.214-.687-1.657L15.92.374a.978.978 0 0 0-1.381 0 .974.974 0 0 0 0 1.38l3.27 3.264a.39.39 0 0 1 0 .555l-.273.271-9.618 9.6-.01.01a.393.393 0 0 1-.544-.01l-5.007-5 8.68-8.663a.974.974 0 0 0 0-1.38.978.978 0 0 0-1.382 0L.286 9.756a.974.974 0 0 0 0 1.38l5.698 5.687a2.342 2.342 0 0 0 2.473.538l3.207 3.202c-.249.467-.39.998-.39 1.562a3.34 3.34 0 0 0 3.339 3.334h.012a3.34 3.34 0 0 0 3.327 3.333v.004a3.34 3.34 0 0 0 4.906 2.942l1.194 1.192c.56.558 1.305.866 2.096.866a2.95 2.95 0 0 0 2.096-.866c.53-.53.834-1.224.865-1.967a3.01 3.01 0 0 0 1.984-.877 2.99 2.99 0 0 0 .884-2.172v-.006a3.255 3.255 0 0 0 2.21-1.053 3.26 3.26 0 0 0 .866-2.224 3.172 3.172 0 0 0 2.162-.931 3.16 3.16 0 0 0 .935-2.264 3.167 3.167 0 0 0-.34-1.424l3.203-2.924a2.346 2.346 0 0 0 3.003-.263l5.698-5.688a.974.974 0 0 0 0-1.379zm-35.101 13.75c-.764 0-1.386-.62-1.386-1.383a1.386 1.386 0 0 1 2.771 0c0 .763-.621 1.383-1.385 1.383zm4.383 2.87a3.2 3.2 0 0 0-.117.116 1.386 1.386 0 0 1-2.3-1.035 1.385 1.385 0 0 1 2.77 0c0 .353-.134.675-.353.92zm3.287 3.38l-.014.013-.013.015a1.386 1.386 0 0 1-2.35-.99c0-.353.134-.675.353-.92.04-.037.078-.075.116-.115a1.386 1.386 0 0 1 2.3 1.035c0 .374-.15.713-.392.963zm13.551-7.437a1.231 1.231 0 0 1-.875.361c-.33 0-.642-.128-.876-.361l-2.03-2.026a.978.978 0 0 0-1.38 0 .974.974 0 0 0 0 1.379l2.029 2.026.006.006a1.32 1.32 0 0 1 .04 1.83 1.316 1.316 0 0 1-.93.428 1.315 1.315 0 0 1-.958-.362l-1.954-1.846a.978.978 0 0 0-1.381.038.974.974 0 0 0 .037 1.378l2.128 2.01c.21.2.329.469.333.758a1.068 1.068 0 0 1-1.818.766l-.987-.984a.978.978 0 0 0-1.668.69c0 .25.096.499.287.69l1.025 1.023c.19.19.296.444.296.713a1 1 0 0 1-.296.713c-.19.19-.444.295-.714.295-.27 0-.523-.105-.714-.295l-1.195-1.193c.249-.466.39-.998.39-1.562a3.34 3.34 0 0 0-3.327-3.333v-.004a3.34 3.34 0 0 0-3.338-3.333h-.012a3.34 3.34 0 0 0-4.907-2.942l-3.053-3.048 8.637-8.622 1.503 1.502a.978.978 0 0 0 .691.285h1.265l-3.856 3.85a3.093 3.093 0 0 0-.915 2.203c0 .832.325 1.615.915 2.203.59.589 1.373.913 2.207.913a3.1 3.1 0 0 0 2.207-.913l3.27-3.265 3.581.04 6.331 6.235c.237.233.367.544.368.876.002.331-.127.643-.362.878zm.706-3.793l-5.951-5.862-.009-.008a.975.975 0 0 0-.8-.274l-4.253-.047a.98.98 0 0 0-.701.286l-3.561 3.555c-.221.22-.514.341-.826.341a1.16 1.16 0 0 1-.826-.341 1.157 1.157 0 0 1-.342-.824c0-.312.122-.604.342-.825L24.851 9.3h4.728c.26 0 .508-.103.69-.286l1.302-1.299 8.031 8.017-3.062 2.795z"/><path id="b" d="M.975 1.946A.974.974 0 1 0 .977-.002a.974.974 0 0 0-.002 1.948z"/><path id="c" d="M.975 1.946A.974.974 0 1 0 .977-.002a.974.974 0 0 0-.002 1.948z"/><path id="d" d="M.975 1.946A.974.974 0 1 0 .977-.002a.974.974 0 0 0-.002 1.948z"/><path id="e" d="M.975 1.946A.974.974 0 1 0 .977-.002a.974.974 0 0 0-.002 1.948z"/></defs></svg>