<svg width="50" height="48" viewBox="0 0 50 48" xmlns="http://www.w3.org/2000/svg" xmlns:xlink="http://www.w3.org/1999/xlink"><title>crown</title><desc>Created using Figma</desc><use xlink:href="#a" fill="#FFF"/><use xlink:href="#b" transform="translate(20.193 19.59)" fill="#FFF"/><use xlink:href="#c" transform="translate(34.753 21.55)" fill="#FFF"/><use xlink:href="#d" transform="translate(7.83 21.55)" fill="#FFF"/><use xlink:href="#e" transform="translate(9.616 42.61)" fill="#FFF"/><use xlink:href="#f" transform="translate(25 23.51)" fill="#FFF"/><defs><path id="a" d="M49.038 39.184h-1.923V10.773a4.924 4.924 0 0 0 1.923-3.916c0-2.7-2.156-4.898-4.807-4.898-2.651 0-4.808 2.197-4.808 4.898 0 1.233.45 2.36 1.19 3.221l-2.746 5.596h-4.58l-2.561-5.218a6.91 6.91 0 0 0 1.005-3.599C31.73 3.077 28.71 0 25 0s-6.73 3.076-6.73 6.857a6.91 6.91 0 0 0 1.004 3.6l-2.56 5.216h-4.581l-2.746-5.595a4.929 4.929 0 0 0 1.19-3.22c0-2.702-2.157-4.899-4.808-4.899C3.12 1.96.962 4.156.962 6.857c0 1.6.756 3.021 1.923 3.916v28.41H.962a.97.97 0 0 0-.962.98v6.857c0 .541.43.98.962.98h48.077a.97.97 0 0 0 .961-.98v-6.857a.97.97 0 0 0-.962-.98zM44.231 3.919c1.59 0 2.884 1.318 2.884 2.938a2.95 2.95 0 0 1-1.584 2.622l-.035.019c-.052.025-.105.05-.158.073l-.017.006c-.05.02-.099.04-.149.057l-.03.01a2.875 2.875 0 0 1-.158.05l-.01.002a2.844 2.844 0 0 1-.35.072l-.039.005c-.045.006-.09.01-.136.014-.015 0-.03.002-.044.003a2.817 2.817 0 0 1-.31.002c-.02 0-.038-.002-.057-.003l-.076-.006a2.91 2.91 0 0 1-.21-.028l-.042-.008a3.116 3.116 0 0 1-.091-.018l-.025-.006a2.883 2.883 0 0 1-.337-.1h-.001l-.075-.03-.053-.02-.055-.025a2.524 2.524 0 0 1-.207-.102l-.016-.01a2.95 2.95 0 0 1-1.504-2.579c0-1.62 1.294-2.939 2.885-2.939zM25 1.959c2.651 0 4.808 2.198 4.808 4.898 0 2.357-1.643 4.33-3.823 4.794l-.035.008a4.842 4.842 0 0 1-.43.067c-.047.005-.095.01-.142.013l-.113.009a4.836 4.836 0 0 1-.53 0c-.037-.002-.075-.006-.113-.01a5.436 5.436 0 0 1-.295-.032 5.082 5.082 0 0 1-.277-.047l-.035-.008c-2.18-.464-3.823-2.437-3.823-4.794 0-2.7 2.157-4.898 4.808-4.898zM10.678 17.091a.96.96 0 0 0 .86.542h5.77a.96.96 0 0 0 .86-.542l2.461-5.015a6.583 6.583 0 0 0 3.338 1.557 6.775 6.775 0 0 0 .307.04l.058.007a3.8 3.8 0 0 0 .262.02l.075.006a6.734 6.734 0 0 0 .662 0l.075-.005c.087-.005.175-.012.262-.02l.058-.007c.097-.01.194-.023.29-.038l.017-.002a6.586 6.586 0 0 0 3.338-1.558l2.461 5.015a.96.96 0 0 0 .86.542h5.77a.96.96 0 0 0 .86-.542l2.85-5.808.046.02c.06.03.122.057.184.083l.043.017a4.686 4.686 0 0 0 .455.16l.031.009c.074.021.148.04.223.058l.032.007c.073.017.148.032.222.045l.037.007c.072.012.145.022.218.03l.044.007c.07.007.141.013.213.018.016 0 .033.003.05.004a4.794 4.794 0 0 0 .503 0c.245-.012.485-.043.719-.091v27.527H4.808V11.657a4.701 4.701 0 0 0 1.222.09l.05-.003a4.91 4.91 0 0 0 .212-.018l.045-.006a4.85 4.85 0 0 0 .218-.031l.036-.007c.075-.013.15-.028.223-.045l.032-.007a4.585 4.585 0 0 0 .709-.227l.043-.017c.062-.026.123-.054.184-.082l.046-.02 2.85 5.807zM5.77 3.918c1.59 0 2.885 1.319 2.885 2.94A2.95 2.95 0 0 1 7.15 9.436l-.016.009a2.722 2.722 0 0 1-.096.05l-.037.018-.074.034c-.018.008-.036.017-.055.024l-.053.022-.075.029c-.111.04-.224.074-.338.1l-.025.006a2.843 2.843 0 0 1-.214.039l-.057.007a2.86 2.86 0 0 1-.148.014l-.056.004a3.093 3.093 0 0 1-.31-.003c-.016 0-.03-.002-.045-.003a2.694 2.694 0 0 1-.136-.014l-.04-.005a2.85 2.85 0 0 1-.35-.072l-.009-.002a2.961 2.961 0 0 1-.158-.05l-.03-.01a2.89 2.89 0 0 1-.149-.057l-.017-.006a2.873 2.873 0 0 1-.158-.073l-.035-.019a2.95 2.95 0 0 1-1.584-2.622c0-1.62 1.294-2.938 2.884-2.938zm42.308 42.123H1.923v-1.47h5.77a.97.97 0 0 0 .96-.98.97.97 0 0 0-.96-.979h-5.77v-1.469h46.154v4.898z"/><path id="b" d="M9.334 2.246L7.41.286A.953.953 0 0 0 6.73 0H2.885c-.255 0-.5.103-.68.287L.282 2.247A.99.99 0 0 0 0 2.938v9.796c0 .26.101.509.282.692l1.923 1.96c.18.183.425.286.68.286H6.73c.255 0 .5-.103.68-.287l1.923-1.959a.99.99 0 0 0 .281-.692V2.939a.99.99 0 0 0-.281-.693zM7.692 12.33l-1.36 1.385h-3.05L1.924 12.33V5.877h.962a.97.97 0 0 0 .961-.98.97.97 0 0 0-.961-.979h-.962v-.573l1.36-1.386h3.05l1.36 1.386v8.984z"/><path id="c" d="M7.136 1.686L5.762.286A.953.953 0 0 0 5.082 0H2.335c-.255 0-.5.103-.68.287l-1.373 1.4A.99.99 0 0 0 0 2.378v6.997c0 .26.101.509.282.693l1.373 1.4c.18.183.425.286.68.286h2.747c.255 0 .5-.103.68-.287l1.374-1.4a.99.99 0 0 0 .281-.692V2.379a.989.989 0 0 0-.281-.693zM5.494 8.97l-.81.826h-1.95l-.811-.826V2.785l.81-.826h1.951l.81.826V8.97z"/><path id="d" d="M7.136 1.686L5.762.286A.953.953 0 0 0 5.082 0H2.335c-.255 0-.5.103-.68.287l-1.373 1.4A.99.99 0 0 0 0 2.378v6.997c0 .26.101.509.282.693l1.373 1.4c.18.183.425.286.68.286h2.747c.255 0 .5-.103.68-.287l1.374-1.4a.99.99 0 0 0 .281-.692V2.379a.988.988 0 0 0-.281-.693zM5.495 8.97l-.81.826H2.733l-.81-.826V2.785l.81-.826h1.95l.81.826V8.97z"/><path id="e" d="M1.904.788A.964.964 0 0 0 .774.019a.913.913 0 0 0-.346.146.916.916 0 0 0-.266.27A1.008 1.008 0 0 0 0 .98a.99.99 0 0 0 .282.693.916.916 0 0 0 .311.211.929.929 0 0 0 .735 0 .935.935 0 0 0 .313-.212.925.925 0 0 0 .208-.318.984.984 0 0 0 .055-.565z"/><path id="f" d="M1.641.288A.925.925 0 0 0 1.33.076a.93.93 0 0 0-.9.09.995.995 0 0 0-.146 1.506.916.916 0 0 0 .311.212.965.965 0 0 0 .368.076.937.937 0 0 0 .68-.287.996.996 0 0 0 0-1.385z"/></defs></svg>