<svg width="22" height="20" viewBox="0 0 22 20" xmlns="http://www.w3.org/2000/svg" xmlns:xlink="http://www.w3.org/1999/xlink"><title>activity</title><desc>Created using Figma</desc><use xlink:href="#a" transform="translate(1 1)" fill="#66B5D5"/><defs><path id="a" d="M20 10a1 1 0 1 0 0-2v2zm-4-1V8a1 1 0 0 0-.949.684L16 9zm-3 9l-.949.316a1 1 0 0 0 1.898 0L13 18zM7 0l.949-.316a1 1 0 0 0-1.898 0L7 0zM4 9v1a1 1 0 0 0 .949-.684L4 9zM0 8a1 1 0 1 0 0 2V8zm20 0h-4v2h4V8zm-4.949.684l-3 9 1.898.632 3-9-1.898-.632zm-1.102 9l-6-18L6.05.316l6 18 1.898-.632zm-7.898-18l-3 9 1.898.632 3-9L6.05-.316zM4 8H0v2h4V8z"/></defs></svg>