<svg width="22" height="22" viewBox="0 0 22 22" xmlns="http://www.w3.org/2000/svg" xmlns:xlink="http://www.w3.org/1999/xlink"><title>alert-octagon</title><desc>Created using Figma</desc><use xlink:href="#a" transform="translate(1 1)" fill="#66B5D5"/><use xlink:href="#b" transform="translate(11 7)" fill="#66B5D5"/><use xlink:href="#c" transform="translate(10 14)" fill="#66B5D5"/><defs><path id="a" d="M5.86-1a1 1 0 0 0 0 2v-2zm8.28 1l.707-.707A1 1 0 0 0 14.14-1v1zM20 5.86h1a1 1 0 0 0-.293-.707L20 5.86zm0 8.28l.707.707A1 1 0 0 0 21 14.14h-1zM14.14 20v1a1 1 0 0 0 .707-.293L14.14 20zm-8.28 0l-.707.707A1 1 0 0 0 5.86 21v-1zM0 14.14h-1a1 1 0 0 0 .293.707L0 14.14zm0-8.28l-.707-.707A1 1 0 0 0-1 5.86h1zM5.86 1h8.28v-2H5.86v2zm7.573-.293l5.86 5.86 1.414-1.414-5.86-5.86L13.433.707zM19 5.86v8.28h2V5.86h-2zm.293 7.573l-5.86 5.86 1.414 1.414 5.86-5.86-1.414-1.414zM14.14 19H5.86v2h8.28v-2zm-7.573.293l-5.86-5.86-1.414 1.414 5.86 5.86 1.414-1.414zM1 14.14V5.86h-2v8.28h2zM.707 6.567l5.86-5.86L5.153-.707l-5.86 5.86L.707 6.567z"/><path id="b" d="M1 0a1 1 0 1 0-2 0h2zm-2 4a1 1 0 0 0 2 0h-2zm0-4v4h2V0h-2z"/><path id="c" d="M0 1a1 1 0 1 1 2 0 1 1 0 0 1-2 0z"/></defs></svg>