<svg width="18" height="22" viewBox="0 0 18 22" xmlns="http://www.w3.org/2000/svg" xmlns:xlink="http://www.w3.org/1999/xlink"><title>file-text</title><desc>Created using Figma</desc><use xlink:href="#a" transform="translate(1 1)" fill="#66B5D5"/><use xlink:href="#b" transform="translate(11 1)" fill="#66B5D5"/><use xlink:href="#c" transform="translate(5 12)" fill="#66B5D5"/><use xlink:href="#c" transform="translate(5 16)" fill="#66B5D5"/><use xlink:href="#d" transform="translate(5 8)" fill="#66B5D5"/><defs><path id="a" d="M10 0l.707-.707A1 1 0 0 0 10-1v1zm6 6h1a1 1 0 0 0-.293-.707L16 6zm-6-7H2v2h8v-2zM2-1a3 3 0 0 0-3 3h2a1 1 0 0 1 1-1v-2zm-3 3v16h2V2h-2zm0 16a3 3 0 0 0 3 3v-2a1 1 0 0 1-1-1h-2zm3 3h12v-2H2v2zm12 0a3 3 0 0 0 3-3h-2a1 1 0 0 1-1 1v2zm3-3V6h-2v12h2zm-.293-12.707l-6-6L9.293.707l6 6 1.414-1.414z"/><path id="b" d="M1 0a1 1 0 1 0-2 0h2zM0 6h-1a1 1 0 0 0 1 1V6zm6 1a1 1 0 0 0 0-2v2zm-7-7v6h2V0h-2zm1 7h6V5H0v2z"/><path id="c" d="M8 1a1 1 0 1 0 0-2v2zM0-1a1 1 0 1 0 0 2v-2zm8 0H0v2h8v-2z"/><path id="d" d="M2 1a1 1 0 0 0 0-2v2zM0-1a1 1 0 1 0 0 2v-2zm2 0H1v2h1v-2zM1-1H0v2h1v-2z"/></defs></svg>