<svg width="20" height="22" viewBox="0 0 20 22" xmlns="http://www.w3.org/2000/svg" xmlns:xlink="http://www.w3.org/1999/xlink"><title>Vector</title><desc>Created using Figma</desc><use xlink:href="#a" transform="translate(1 1)" fill="#66B5D5"/><defs><path id="a" d="M11 0l.707-.707a1 1 0 0 0-1.414 0L11 0zm4 4l.707.707a1 1 0 0 0 0-1.414L15 4zM4 15v1a1 1 0 0 0 .707-.293L4 15zm-4 0h-1a1 1 0 0 0 1 1v-1zm0-4l-.707-.707A1 1 0 0 0-1 11h1zm0 8a1 1 0 1 0 0 2v-2zm18 2a1 1 0 1 0 0-2v2zM10.293.707l4 4 1.414-1.414-4-4L10.293.707zm4 2.586l-11 11 1.414 1.414 11-11-1.414-1.414zM4 14H0v2h4v-2zm-3 1v-4h-2v4h2zm-.293-3.293l11-11-1.414-1.414-11 11 1.414 1.414zM0 21h18v-2H0v2z"/></defs></svg>