<svg width="22" height="16" viewBox="0 0 22 16" xmlns="http://www.w3.org/2000/svg" xmlns:xlink="http://www.w3.org/1999/xlink"><title>Vector</title><desc>Created using Figma</desc><use xlink:href="#a" transform="translate(1 1)" fill="#66B5D5"/><defs><path id="a" d="M11 14h-1a1 1 0 0 0 1.614.79L11 14zm9-7l.614.79a1 1 0 0 0 0-1.58L20 7zm-9-7l.614-.79A1 1 0 0 0 10 0h1zM0 14h-1a1 1 0 0 0 1.614.79L0 14zm9-7l.614.79a1 1 0 0 0 0-1.58L9 7zM0 0l.614-.79A1 1 0 0 0-1 0h1zm11.614 14.79l9-7-1.228-1.58-9 7 1.228 1.58zm9-8.58l-9-7L10.386.79l9 7 1.228-1.58zM10 0v14h2V0h-2zM.614 14.79l9-7-1.228-1.58-9 7 1.228 1.58zm9-8.58l-9-7L-.614.79l9 7 1.228-1.58zM-1 0v14h2V0h-2z"/></defs></svg>