<svg width="24" height="18" viewBox="0 0 24 18" xmlns="http://www.w3.org/2000/svg" xmlns:xlink="http://www.w3.org/1999/xlink"><title>eye</title><desc>Created using Figma</desc><use xlink:href="#a" transform="translate(1 1)" fill="#66B5D5"/><use xlink:href="#b" transform="translate(9 6)" fill="#66B5D5"/><defs><path id="a" d="M0 8l-.894-.447a1 1 0 0 0 0 .894L0 8zm22 0l.894.447a1 1 0 0 0 0-.894L22 8zM0 8a171.447 171.447 0 0 1 .894.448v-.002l.007-.012.03-.056a16.06 16.06 0 0 1 .644-1.085c.47-.73 1.135-1.658 2.03-2.61C5.395 2.774 7.9 1 11 1v-2C7.1-1 4.104 1.226 2.145 3.316a21.15 21.15 0 0 0-2.25 2.891 18.98 18.98 0 0 0-.732 1.235 8.058 8.058 0 0 0-.052.1l-.003.007a.426.426 0 0 1-.002.003L0 8zm11-7c3.1 0 5.605 1.774 7.395 3.684a18.223 18.223 0 0 1 2.704 3.75l.006.012.001.002L22 8l.894-.448-.002-.003-.003-.007a6.623 6.623 0 0 1-.052-.1 19.025 19.025 0 0 0-.732-1.235 21.154 21.154 0 0 0-2.25-2.89C17.895 1.226 14.899-1 11-1v2zm11 7a179.225 179.225 0 0 1-.894-.448v.002l-.007.012a6.275 6.275 0 0 1-.156.287 18.224 18.224 0 0 1-2.547 3.463C16.604 13.226 14.1 15 11 15v2c3.9 0 6.895-2.226 8.855-4.316a21.15 21.15 0 0 0 2.25-2.891 19.025 19.025 0 0 0 .732-1.235 8.077 8.077 0 0 0 .052-.1l.003-.007.002-.002v-.001L22 8zm-11 7c-3.1 0-5.604-1.774-7.395-3.684A18.224 18.224 0 0 1 .9 7.566l-.006-.012-.001-.002L0 8l-.894.448.002.003.003.007a5.568 5.568 0 0 0 .052.1 18.98 18.98 0 0 0 .732 1.235c.497.77 1.27 1.842 2.25 2.89C4.105 14.774 7.1 17 11 17v-2z"/><path id="b" d="M3 7a4 4 0 0 0 4-4H5a2 2 0 0 1-2 2v2zm4-4a4 4 0 0 0-4-4v2a2 2 0 0 1 2 2h2zM3-1a4 4 0 0 0-4 4h2a2 2 0 0 1 2-2v-2zm-4 4a4 4 0 0 0 4 4V5a2 2 0 0 1-2-2h-2z"/></defs></svg>