<svg width="50" height="50" viewBox="0 0 50 50" xmlns="http://www.w3.org/2000/svg" xmlns:xlink="http://www.w3.org/1999/xlink"><title>target</title><desc>Created using Figma</desc><use xlink:href="#a" transform="translate(43.208 24.022)" fill="#909090"/><use xlink:href="#b" fill="#909090"/><defs><path id="a" d="M1.923.945A.964.964 0 0 0 .943 0 .96.96 0 0 0 0 .978a.962.962 0 0 0 1.923 0V.945z"/><path id="b" d="M45.187 10.252l4.531-4.531a.962.962 0 0 0-.642-1.64l-3.037-.12-.12-3.037a.961.961 0 0 0-1.64-.642l-4.531 4.53C35.45 1.663 30.37 0 25 0 18.322 0 12.044 2.6 7.322 7.322 2.6 12.044 0 18.322 0 25c0 6.678 2.6 12.956 7.322 17.678C12.044 47.4 18.322 50 25 50c6.678 0 12.956-2.6 17.678-7.322C47.4 37.956 50 31.678 50 25c0-5.37-1.662-10.45-4.813-14.748zm-4.671-3.487v-.001l3.568-3.568.068 1.729c.02.501.422.903.923.923l1.729.068-3.568 3.567v.001l-.238.237-2.617-.102-.103-2.617.238-.237zM25 48.077C12.275 48.077 1.923 37.725 1.923 25 1.923 12.275 12.275 1.923 25 1.923c4.878 0 9.497 1.485 13.424 4.303l-.008.02a1.054 1.054 0 0 0-.022.057l-.014.042a.934.934 0 0 0-.015.06l-.01.041a.974.974 0 0 0-.008.069l-.005.036a.984.984 0 0 0-.002.106l.137 3.505-.598.6c-.002 0-.003.002-.004.003l-.004.004-2.019 2.019A16.278 16.278 0 0 0 25 8.654C15.987 8.654 8.654 15.987 8.654 25S15.987 41.346 25 41.346 41.346 34.013 41.346 25c0-4.161-1.564-7.964-4.134-10.852l1.325-1.325a18.025 18.025 0 0 1 4.46 9.392.962.962 0 0 0 1.9-.292 19.935 19.935 0 0 0-4.94-10.396l3.386.133h.037l.05-.002c.01 0 .022 0 .033-.002a1 1 0 0 0 .09-.012l.012-.002a.934.934 0 0 0 .1-.025l.028-.01a.958.958 0 0 0 .069-.026l.011-.005c2.82 3.927 4.304 8.546 4.304 13.424 0 12.725-10.352 23.077-23.077 23.077zm-.68-22.397a.959.959 0 0 0 1.36 0l4.709-4.709A6.695 6.695 0 0 1 31.73 25c0 3.711-3.02 6.73-6.731 6.73A6.738 6.738 0 0 1 18.27 25 6.738 6.738 0 0 1 25 18.27c1.51 0 2.905.499 4.029 1.341l-4.709 4.71a.962.962 0 0 0 0 1.359zm6.078-7.438A8.612 8.612 0 0 0 25 16.346c-4.772 0-8.654 3.882-8.654 8.654s3.882 8.654 8.654 8.654 8.654-3.882 8.654-8.654c0-2.04-.71-3.917-1.896-5.398l4.093-4.093A14.363 14.363 0 0 1 39.423 25c0 7.953-6.47 14.423-14.423 14.423S10.577 32.953 10.577 25 17.047 10.577 25 10.577c3.631 0 6.953 1.35 9.49 3.572l-4.092 4.093z"/></defs></svg>