<svg width="50" height="50" viewBox="0 0 50 50" xmlns="http://www.w3.org/2000/svg" xmlns:xlink="http://www.w3.org/1999/xlink"><title>bug (1)</title><desc>Created using Figma</desc><use xlink:href="#a" transform="translate(4.677 4.677)" fill="#27AE60"/><use xlink:href="#b" fill="#27AE60"/><use xlink:href="#c" transform="translate(39.458 38.099)" fill="#27AE60"/><use xlink:href="#d" transform="translate(11.5 11.978)" fill="#27AE60"/><defs><path id="a" d="M26.407 4.525c-6.033-6.033-15.85-6.033-21.882 0-6.033 6.033-6.033 15.85 0 21.882a15.425 15.425 0 0 0 10.94 4.525c3.963 0 7.925-1.508 10.942-4.525 6.033-6.033 6.033-15.85 0-21.882zm-1.36 20.522c-5.283 5.283-13.88 5.283-19.162 0-5.283-5.283-5.283-13.88 0-19.162a13.508 13.508 0 0 1 9.581-3.963c3.47 0 6.94 1.321 9.581 3.963 5.283 5.283 5.283 13.879 0 19.162z"/><path id="b" d="M48.36 40.423l-7.399-7.398a.962.962 0 0 0-1.36 0l-2.608 2.608-1.944-1.944c7.183-7.895 6.962-20.164-.663-27.79A20.011 20.011 0 0 0 20.142 0 20.011 20.011 0 0 0 5.9 5.9 20.01 20.01 0 0 0 0 20.142a20.01 20.01 0 0 0 5.9 14.243 20.01 20.01 0 0 0 14.242 5.9c5.059 0 9.832-1.853 13.547-5.236l1.944 1.944-2.608 2.608a.962.962 0 0 0 0 1.36l7.398 7.398A5.594 5.594 0 0 0 44.391 50a5.595 5.595 0 0 0 3.968-1.64 5.618 5.618 0 0 0 0-7.937zm-15.334-7.398a18.1 18.1 0 0 1-12.884 5.337A18.1 18.1 0 0 1 7.26 33.025a18.1 18.1 0 0 1-5.336-12.883A18.1 18.1 0 0 1 7.26 7.26a18.1 18.1 0 0 1 12.883-5.336A18.1 18.1 0 0 1 33.025 7.26c7.103 7.104 7.103 18.663 0 25.766zM46.998 47a3.692 3.692 0 0 1-5.216 0l-3.971-3.971 1.248-1.248a.962.962 0 0 0-1.36-1.36l-1.248 1.248-1.387-1.387 2.608-2.607v-.001l2.608-2.608L47 41.783A3.692 3.692 0 0 1 47 47z"/><path id="c" d="M1.905.774a.898.898 0 0 0-.056-.18.915.915 0 0 0-.354-.432.978.978 0 0 0-.345-.143.952.952 0 0 0-.722.143.969.969 0 0 0-.428.8.97.97 0 0 0 .428.798.956.956 0 0 0 .534.163.967.967 0 0 0 .943-.774.939.939 0 0 0 0-.375z"/><path id="d" d="M16.607 12.48l-2.475-.765c.054-.313.084-.633.084-.96v-.132h2.107a.962.962 0 0 0 0-1.923h-2.107V7.39l2.392-.74a.962.962 0 0 0-.569-1.838l-1.92.594a3.418 3.418 0 0 0-3.315-2.604h-.286l.873-1.306A.962.962 0 0 0 9.79.427L8.682 2.09 7.57.427a.961.961 0 1 0-1.6 1.069l.873 1.306h-.362a3.418 3.418 0 0 0-3.315 2.604l-1.92-.594A.962.962 0 1 0 .678 6.65l2.39.74V8.7H.963a.962.962 0 0 0 0 1.924H3.07v.131c0 .328.03.649.084.96l-2.475.767a.962.962 0 0 0 .568 1.837l2.563-.793a5.576 5.576 0 0 0 4.834 2.803c2.065 0 3.87-1.13 4.833-2.803l2.563.793a.96.96 0 0 0 1.203-.634.962.962 0 0 0-.635-1.203zm-8.926 1.796a3.657 3.657 0 0 1-2.69-3.521V9.366h2.69v4.91zm4.612-3.521a3.657 3.657 0 0 1-2.689 3.52V9.367h2.69v1.389zm0-4.08v.769H4.992v-1.23c0-.82.668-1.489 1.49-1.489h4.322c.82 0 1.49.668 1.49 1.49v.46z"/></defs></svg>