<svg width="50" height="45" viewBox="0 0 50 45" xmlns="http://www.w3.org/2000/svg" xmlns:xlink="http://www.w3.org/1999/xlink"><title>Group</title><desc>Created using Figma</desc><use xlink:href="#a" transform="translate(0 .294)" fill="#909090"/><defs><path id="a" d="M49.023 42.724H44.02l-.045-21.22a.984.984 0 0 0-.977-.989h-.002a.984.984 0 0 0-.974.993l.044 21.216h-6.062l-.045-23.184a.996.996 0 0 0-.016-.174v-1.12a9.65 9.65 0 0 0-.435-2.872 6.966 6.966 0 0 1 3.404-.887h.016a6.94 6.94 0 0 1 4.886 1.982 6.658 6.658 0 0 1 2.024 4.774l.016 4.424a.984.984 0 0 0 .977.987h.003a.984.984 0 0 0 .973-.994l-.015-4.423a8.635 8.635 0 0 0-2.62-6.193 8.849 8.849 0 0 0-3.165-1.997 4.721 4.721 0 0 0 1.307-3.287c-.006-2.598-2.09-4.708-4.65-4.708h-.01c-2.565.006-4.646 2.126-4.641 4.728a4.721 4.721 0 0 0 1.37 3.333c.028.029.058.056.087.085a8.86 8.86 0 0 0-.74.351 9.832 9.832 0 0 0-5.439-4.554 5.237 5.237 0 0 0 1.601-3.778C30.891 2.34 28.584 0 25.748 0s-5.143 2.34-5.143 5.217c0 1.562.68 2.964 1.755 3.92a9.836 9.836 0 0 0-5.037 4.387 8.833 8.833 0 0 0-1.055-.469 4.736 4.736 0 0 0 1.318-3.286c0-2.601-2.086-4.718-4.65-4.718-2.565 0-4.65 2.117-4.65 4.718 0 1.346.558 2.56 1.452 3.42-3.187 1.328-5.429 4.444-5.429 8.067v4.425c0 .547.437.99.977.99a.983.983 0 0 0 .976-.99v-4.425c0-3.732 3.1-6.77 6.912-6.77 1.19 0 2.34.296 3.366.858a9.633 9.633 0 0 0-.444 2.901v24.479h-5.89v-21.21a.984.984 0 0 0-.976-.99.984.984 0 0 0-.977.99v21.21H.977a.984.984 0 0 0-.977.991c0 .547.437.99.977.99h48.046c.54 0 .977-.443.977-.99a.984.984 0 0 0-.977-.99zM38.657 7.035h.006c1.484 0 2.694 1.223 2.697 2.73a2.74 2.74 0 0 1-.786 1.936 2.661 2.661 0 0 1-1.906.806h-.006a2.66 2.66 0 0 1-1.903-.797 2.738 2.738 0 0 1-.794-1.933c-.003-1.51 1.204-2.74 2.692-2.743zm-25.721 5.471c-1.488 0-2.698-1.227-2.698-2.736 0-1.509 1.21-2.736 2.698-2.736 1.487 0 2.697 1.227 2.697 2.736 0 1.509-1.21 2.736-2.697 2.736zM25.748 1.982c1.759 0 3.19 1.452 3.19 3.237 0 1.784-1.431 3.236-3.19 3.236s-3.19-1.452-3.19-3.236c0-1.785 1.431-3.237 3.19-3.237zm-5.18 40.743h-2.52V30.526a4.88 4.88 0 0 0 2.52.95v11.248zm10.068-25.177a.984.984 0 0 0-.976.991v24.186h-2.81v-11.96a.984.984 0 0 0-.977-.991.984.984 0 0 0-.976.99v11.961h-2.376V18.538a.984.984 0 0 0-.976-.99.984.984 0 0 0-.977.99v10.947c-1.422-.194-2.52-1.386-2.52-2.823v-8.417a7.632 7.632 0 0 1 .584-2.94c1.228-2.958 4.127-4.87 7.386-4.87 3.275 0 6.179 1.925 7.4 4.903.378.925.57 1.903.57 2.907v8.417c0 1.388-1.025 2.547-2.376 2.8V18.538a.984.984 0 0 0-.977-.99zm.977 25.177v-11.26a4.883 4.883 0 0 0 2.413-.967l.024 12.227h-2.437z"/></defs></svg>