<svg width="50" height="43" viewBox="0 0 50 43" xmlns="http://www.w3.org/2000/svg" xmlns:xlink="http://www.w3.org/1999/xlink"><title>line-graph</title><desc>Created using Figma</desc><use xlink:href="#a" transform="translate(33.414 13.028)" fill="#909090"/><use xlink:href="#b" transform="translate(33.702 23.945)" fill="#909090"/><use xlink:href="#c" transform="translate(33.702)" fill="#909090"/><use xlink:href="#d" transform="translate(33.702 30.005)" fill="#909090"/><use xlink:href="#e" transform="translate(33.702 36.066)" fill="#909090"/><use xlink:href="#f" transform="translate(0 6.061)" fill="#909090"/><defs><path id="a" d="M1.34 0C.6 0 0 .597 0 1.33c0 .735.601 1.331 1.34 1.331.739 0 1.34-.596 1.34-1.33C2.68.597 2.079 0 1.34 0z"/><path id="b" d="M.996 0A.993.993 0 0 0 0 .99v2.88c0 .547.446.99.996.99s.996-.443.996-.99V.99A.993.993 0 0 0 .996 0z"/><path id="c" d="M.996 0A.993.993 0 0 0 0 .99v2.88c0 .547.446.99.996.99s.996-.443.996-.99V.99A.993.993 0 0 0 .996 0z"/><path id="d" d="M.996 0A.993.993 0 0 0 0 .99v2.88c0 .547.446.99.996.99s.996-.443.996-.99V.99A.993.993 0 0 0 .996 0z"/><path id="e" d="M.996 0A.993.993 0 0 0 0 .99v2.88c0 .547.446.99.996.99s.996-.443.996-.99V.99A.993.993 0 0 0 .996 0z"/><path id="f" d="M46.259 13.512c-.824 0-1.587.267-2.206.717l-4.51-3.583a5.242 5.242 0 0 0 .553-2.348c0-2.607-1.903-4.779-4.402-5.221V.989A.993.993 0 0 0 34.698 0a.993.993 0 0 0-.996.99v2.107c-2.443.487-4.29 2.633-4.29 5.2 0 .38.042.75.119 1.108l-8.358 3.723a3.745 3.745 0 0 0-2.926-1.404c-2.062 0-3.74 1.667-3.74 3.715 0 1.422.809 2.66 1.993 3.284l-1.74 7.32h-.014c-2.063 0-3.741 1.667-3.741 3.716 0 .066.002.133.005.198l-4.12 1.265a3.747 3.747 0 0 0-3.149-1.713C1.678 29.509 0 31.175 0 33.224s1.678 3.715 3.741 3.715 3.741-1.666 3.741-3.715c0-.038-.002-.075-.003-.112l4.165-1.278a3.747 3.747 0 0 0 3.101 1.64c2.063 0 3.742-1.667 3.742-3.715a3.711 3.711 0 0 0-1.808-3.18l1.767-7.43c1.97-.102 3.542-1.727 3.542-3.71 0-.166-.012-.33-.034-.491l8.35-3.72a5.355 5.355 0 0 0 3.398 2.271v2.195c0 .546.446.989.996.989s.996-.443.996-.99V13.52a5.343 5.343 0 0 0 2.648-1.294l4.473 3.554a3.666 3.666 0 0 0-.297 1.449c0 2.048 1.678 3.715 3.741 3.715S50 19.276 50 17.228c0-2.049-1.678-3.716-3.741-3.716zM3.741 34.961c-.964 0-1.749-.78-1.749-1.737 0-.958.785-1.737 1.75-1.737.964 0 1.748.779 1.748 1.737 0 .958-.784 1.737-1.749 1.737zm11.005-3.465c-.965 0-1.75-.78-1.75-1.737 0-.958.785-1.738 1.75-1.738.964 0 1.749.78 1.749 1.738 0 .957-.785 1.736-1.75 1.736zm3.501-14.32c-.964 0-1.749-.78-1.749-1.737 0-.958.785-1.737 1.75-1.737.964 0 1.748.78 1.748 1.737 0 .958-.784 1.737-1.749 1.737zm16.507-5.551c-1.847 0-3.35-1.493-3.35-3.327 0-1.834 1.503-3.327 3.35-3.327 1.847 0 3.35 1.493 3.35 3.327 0 1.834-1.503 3.326-3.35 3.326zm11.505 7.34c-.965 0-1.749-.78-1.749-1.738 0-.957.785-1.736 1.749-1.736.964 0 1.749.779 1.749 1.736 0 .958-.785 1.738-1.749 1.738z"/></defs></svg>