<svg width="50" height="50" viewBox="0 0 50 50" xmlns="http://www.w3.org/2000/svg" xmlns:xlink="http://www.w3.org/1999/xlink"><title>Vector</title><desc>Created using Figma</desc><use xlink:href="#a" fill="#FF3A3A"/><defs><path id="a" d="M46.923 30.192a.962.962 0 0 0-.77-.384h-4.855v-5.77h4.856a.961.961 0 0 0 .86-.531l2.884-5.77a.962.962 0 0 0-1.72-.86l-2.619 5.238h-4.29a16.584 16.584 0 0 0-.063-.768.958.958 0 0 0 .013-.312c-.899-7.207-6.45-12.847-13.409-14.06l3.493-2.329c.03-.02.06-.043.088-.067l.022-.02a.913.913 0 0 0 .132-.146l.015-.021a.957.957 0 0 0 .055-.09l.002-.003a.956.956 0 0 0 .046-.099l.01-.026a.925.925 0 0 0 .046-.187l.005-.03a.94.94 0 0 0 .007-.11V.961a.962.962 0 0 0-1.923 0v2.37L25 6.537l-4.807-3.205V.962a.961.961 0 1 0-1.923 0v2.885c0 .037.002.073.006.11l.005.03a.934.934 0 0 0 .047.187l.01.026a.913.913 0 0 0 .045.1l.003.003c.016.03.034.06.054.088l.016.022a.957.957 0 0 0 .131.145l.023.02a.966.966 0 0 0 .088.068l3.481 2.321C14.79 8.235 9.08 14.48 8.635 22.115H4.441l-2.62-5.237a.962.962 0 1 0-1.72.86l2.885 5.769a.962.962 0 0 0 .86.531h4.76v5.77h-4.76a.962.962 0 0 0-.769.384L.192 34.038a.962.962 0 0 0 1.539 1.154l2.596-3.461h4.279v2.268c0 1.903.334 3.73.947 5.424H5.769a.961.961 0 0 0-.878.57l-3.846 8.655a.962.962 0 0 0 1.757.78l3.592-8.082h4.001C13.061 46.482 18.43 50 24.606 50h.692c6.176 0 11.545-3.518 14.21-8.654h4.098l3.592 8.083a.961.961 0 1 0 1.757-.781l-3.846-8.654a.961.961 0 0 0-.878-.571h-3.88c.612-1.695.947-3.52.947-5.424v-2.268h4.375l2.596 3.461a.96.96 0 0 0 1.346.192.962.962 0 0 0 .192-1.346l-2.884-3.846zM24.04 48.064c-5.288-.21-9.835-3.351-12.058-7.84a.959.959 0 0 0-.223-.471 13.995 13.995 0 0 1-1.23-5.754v-2.931a.96.96 0 0 0 0-.598v-4.51h4.856a.961.961 0 1 0 0-1.923h-4.856l.004-1.25c.004-.226.014-.45.029-.673h13.523l-.045 25.95zM10.866 20.192c1.346-6.641 7.226-11.526 14.109-11.538 6.955.01 12.771 4.97 14.11 11.538h-28.22zM39.375 34c0 7.54-5.957 13.713-13.412 14.061l.045-25.945h13.334c.021.318.033.639.033.962V34z"/></defs></svg>