<svg width="48" height="50" viewBox="0 0 48 50" xmlns="http://www.w3.org/2000/svg" xmlns:xlink="http://www.w3.org/1999/xlink"><title>money-bag</title><desc>Created using Figma</desc><use xlink:href="#a" transform="translate(6.66 38.739)" fill="#FF3A3A"/><use xlink:href="#b" transform="translate(43.847 27.094)" fill="#FF3A3A"/><use xlink:href="#c" transform="translate(29.291 14.379)" fill="#FF3A3A"/><use xlink:href="#d" fill="#FF3A3A"/><defs><path id="a" d="M.971 1.953a.974.974 0 0 0 .971-.976A.974.974 0 0 0 .971 0 .974.974 0 0 0 0 .977c0 .539.435.976.971.976z"/><path id="b" d="M.971 1.953a.974.974 0 0 0 .971-.976A.974.974 0 0 0 .971 0 .974.974 0 0 0 0 .977c0 .539.435.976.971.976z"/><path id="c" d="M4.288 6.358H2.797a.858.858 0 0 1-.855-.86v-.872c0-.474.383-.86.855-.86h1.651c.383 0 .694.313.694.698 0 .54.435.977.971.977a.974.974 0 0 0 .971-.977 2.646 2.646 0 0 0-2.57-2.65V.978A.974.974 0 0 0 3.541 0a.974.974 0 0 0-.97.977v.846A2.81 2.81 0 0 0 0 4.626v.872a2.808 2.808 0 0 0 2.797 2.813h1.491c.47 0 .854.385.854.86v.872a.858.858 0 0 1-.854.859H2.636a.697.697 0 0 1-.694-.698.974.974 0 0 0-.971-.976.974.974 0 0 0-.971.976 2.646 2.646 0 0 0 2.571 2.65v.838c0 .539.435.976.971.976a.974.974 0 0 0 .971-.976v-.847a2.81 2.81 0 0 0 2.571-2.803V9.17a2.808 2.808 0 0 0-2.796-2.812z"/><path id="d" d="M47.683 33.106a3.69 3.69 0 0 0-2.05-1.968 3.659 3.659 0 0 0-2.848.072l-6.117 2.837a.979.979 0 0 0-.475 1.296.969.969 0 0 0 1.289.477l6.108-2.833a1.754 1.754 0 0 1 2.316.908c.19.433.201.914.031 1.356-.17.441-.5.79-.93.98L32.49 41.79a7.184 7.184 0 0 1-6.147-.14l-4.581-2.289a9.11 9.11 0 0 0-7.795-.178l-.058.026-3.396-7.735 4.722-2.097a9.374 9.374 0 0 1 7.09-.228l9.212 3.403a1.647 1.647 0 0 1 .978 2.064 1.627 1.627 0 0 1-2.059 1.02l-7.125-2.424a.97.97 0 0 0-1.23.612.978.978 0 0 0 .608 1.238l7.125 2.424c.377.128.76.189 1.138.189 1.484 0 2.875-.94 3.38-2.427.623-1.83-.34-3.862-2.145-4.53l-9.213-3.402a11.458 11.458 0 0 0-1.89-.52v-5.398c0-5.322 4.306-9.653 9.599-9.653h3.546c5.292 0 9.598 4.33 9.598 9.653v2.545c0 .54.435.977.971.977a.974.974 0 0 0 .971-.977v-2.545c0-5.637-4.016-10.347-9.322-11.39V7.065l2.453-4.22a.981.981 0 0 0-.437-1.383L35.474.087a.966.966 0 0 0-.73-.03l-2.234.81L30.531.07a.967.967 0 0 0-.71-.005l-3.15 1.222a.981.981 0 0 0-.5 1.385l2.417 4.381v2.934c-5.357 1.002-9.425 5.737-9.425 11.41v5.211a11.33 11.33 0 0 0-4.713.981l-4.757 2.112a2.39 2.39 0 0 0-1.127-.909 2.376 2.376 0 0 0-1.84.042L.582 31.543a.977.977 0 0 0-.581.894v16.586a.978.978 0 0 0 .97.977c.15 0 .3-.035.438-.105l11.93-6.062a2.398 2.398 0 0 0 1.247-1.328 2.416 2.416 0 0 0 .081-1.499l.084-.037a7.183 7.183 0 0 1 6.147.14l4.581 2.29a9.112 9.112 0 0 0 7.795.177l12.517-5.558a3.691 3.691 0 0 0 1.957-2.062 3.72 3.72 0 0 0-.065-2.85zM34.525 9.791H30.53V7.777h3.995v2.014zM28.41 2.705l1.753-.68 1.969.792c.22.089.465.093.689.012l2.208-.8 1.67.764-1.761 3.031H30.13l-1.72-3.119zM12.53 42.058l-.045.022-10.542 5.356v-3.957l2.73-1.349a.98.98 0 0 0 .443-1.307.968.968 0 0 0-1.3-.446l-1.873.926v-8.228l5.567-2.453a.46.46 0 0 1 .612.238l.223.507v.001l4.423 10.074a.469.469 0 0 1-.237.616z"/></defs></svg>