<svg width="50" height="50" viewBox="0 0 50 50" xmlns="http://www.w3.org/2000/svg" xmlns:xlink="http://www.w3.org/1999/xlink"><title>browser</title><desc>Created using Figma</desc><use xlink:href="#a" fill="#66B5D5"/><use xlink:href="#b" transform="translate(24.029 9.38)" fill="#66B5D5"/><use xlink:href="#c" transform="translate(27.255 9.38)" fill="#66B5D5"/><use xlink:href="#d" transform="translate(3.028 2.83)" fill="#66B5D5"/><use xlink:href="#e" transform="translate(9.625 2.83)" fill="#66B5D5"/><use xlink:href="#f" transform="translate(16.222 2.83)" fill="#66B5D5"/><use xlink:href="#g" transform="translate(5.217 18.97)" fill="#66B5D5"/><use xlink:href="#h" transform="translate(5.229 25.98)" fill="#66B5D5"/><use xlink:href="#i" transform="translate(20.538 25.98)" fill="#66B5D5"/><use xlink:href="#j" transform="translate(23.967 25.98)" fill="#66B5D5"/><use xlink:href="#k" transform="translate(0 32.1)" fill="#66B5D5"/><defs><path id="a" d="M49.998 10.351a.974.974 0 0 0-.284-.69L40.339.286a.975.975 0 0 0-.69-.284V0H3.02A3.025 3.025 0 0 0 0 3.021v37.213c0 .54.437.977.977.977h5.761a.977.977 0 1 0 0-1.953H1.953v-27.93H21.66a.977.977 0 0 0 0-1.953H1.953V3.021c0-.589.48-1.068 1.068-1.068h35.65v6.445a2.933 2.933 0 0 0 2.93 2.93h6.446v27.93h-4.98a.977.977 0 0 0 0 1.953h5.956c.54 0 .977-.437.977-.977V10.352h-.002zm-8.396-.976a.978.978 0 0 1-.977-.977V3.334l6.04 6.041h-5.063z"/><path id="b" d="M.99 0H.977a.977.977 0 1 0 0 1.953H.99A.977.977 0 1 0 .99 0z"/><path id="c" d="M8.162 0H.977a.977.977 0 1 0 0 1.953h7.185a.977.977 0 1 0 0-1.953z"/><path id="d" d="M2.832 0A2.835 2.835 0 0 0 0 2.832a2.835 2.835 0 0 0 2.832 2.832 2.835 2.835 0 0 0 2.832-2.832A2.835 2.835 0 0 0 2.832 0zm0 3.71a.88.88 0 0 1 0-1.757.88.88 0 0 1 0 1.758z"/><path id="e" d="M2.832 0A2.835 2.835 0 0 0 0 2.832a2.835 2.835 0 0 0 2.832 2.832 2.835 2.835 0 0 0 2.832-2.832A2.835 2.835 0 0 0 2.832 0zm0 3.71a.88.88 0 0 1 0-1.757.88.88 0 0 1 0 1.758z"/><path id="f" d="M2.832 0A2.835 2.835 0 0 0 0 2.832a2.835 2.835 0 0 0 2.832 2.832 2.835 2.835 0 0 0 2.832-2.832A2.835 2.835 0 0 0 2.832 0zm0 3.71a.88.88 0 0 1 0-1.757.88.88 0 0 1 0 1.758z"/><path id="g" d="M38.522 0H.977a.977.977 0 1 0 0 1.953H38.52a.977.977 0 0 0 0-1.953z"/><path id="h" d="M13.27 0H.977a.977.977 0 1 0 0 1.953H13.27a.977.977 0 1 0 0-1.953z"/><path id="i" d="M1.001 0H.977a.977.977 0 1 0 0 1.953H1A.977.977 0 1 0 1 0z"/><path id="j" d="M19.783 0H.977a.977.977 0 1 0 0 1.953h18.806a.977.977 0 1 0 0-1.953z"/><path id="k" d="M49.023 15.944H38.54a13.728 13.728 0 0 0-.055-.605l2.795-2.525a.976.976 0 0 0 .19-1.213l-3.63-6.278a.976.976 0 0 0-1.146-.44L33.115 6.04a13.528 13.528 0 0 0-2.746-1.589L29.58.772A.977.977 0 0 0 28.626 0h-7.251a.976.976 0 0 0-.955.772l-.788 3.68c-.975.419-1.895.951-2.747 1.588l-3.579-1.157a.976.976 0 0 0-1.146.44L8.53 11.6a.977.977 0 0 0 .19 1.214l2.795 2.525c-.023.2-.04.403-.055.605H.977a.977.977 0 0 0 0 1.953h48.046a.977.977 0 1 0 0-1.953zm-27.948 0A4.052 4.052 0 0 1 25 12.879a4.052 4.052 0 0 1 3.925 3.065h-7.85zm9.842 0A6.007 6.007 0 0 0 25 10.926a6.007 6.007 0 0 0-5.917 5.018h-1.318c.48-3.565 3.54-6.322 7.235-6.322 3.694 0 6.754 2.757 7.235 6.322h-1.318zm5.566-.833c.043.275.075.554.099.833h-2.378C33.713 11.3 29.773 7.669 25 7.669c-4.773 0-8.713 3.63-9.204 8.275h-2.378c.024-.28.056-.558.1-.833a.976.976 0 0 0-.311-.876l-2.591-2.34 2.84-4.911 3.32 1.073a.977.977 0 0 0 .915-.17 11.592 11.592 0 0 1 3.138-1.815.977.977 0 0 0 .604-.707l.731-3.412h5.672l.73 3.412c.07.323.297.589.605.707a11.592 11.592 0 0 1 3.138 1.815.98.98 0 0 0 .915.17l3.32-1.073 2.84 4.91-2.591 2.34a.976.976 0 0 0-.31.877z"/></defs></svg>