<svg width="45" height="50" viewBox="0 0 45 50" xmlns="http://www.w3.org/2000/svg" xmlns:xlink="http://www.w3.org/1999/xlink"><title>browser (1)</title><desc>Created using Figma</desc><use xlink:href="#a" transform="translate(2.765 2.61)" fill="#66B5D5"/><use xlink:href="#b" transform="translate(8.559 2.61)" fill="#66B5D5"/><use xlink:href="#c" transform="translate(14.355 2.61)" fill="#66B5D5"/><use xlink:href="#d" fill="#66B5D5"/><use xlink:href="#e" transform="translate(3.947 22.94)" fill="#66B5D5"/><use xlink:href="#f" transform="translate(32.926 29.1)" fill="#66B5D5"/><use xlink:href="#g" transform="translate(32.926 38.28)" fill="#66B5D5"/><use xlink:href="#h" transform="translate(32.926 19.93)" fill="#66B5D5"/><use xlink:href="#i" transform="translate(29.291 19.93)" fill="#66B5D5"/><use xlink:href="#j" transform="translate(29.291 43.75)" fill="#66B5D5"/><use xlink:href="#k" transform="translate(3.947 12.3)" fill="#66B5D5"/><use xlink:href="#l" transform="translate(21.523 8.35)" fill="#66B5D5"/><defs><path id="a" d="M2.554 0A2.55 2.55 0 0 0 0 2.54a2.55 2.55 0 0 0 2.554 2.538A2.55 2.55 0 0 0 5.108 2.54 2.55 2.55 0 0 0 2.554 0zm0 3.125a.588.588 0 0 1-.59-.586.589.589 0 0 1 1.18 0 .588.588 0 0 1-.59.586z"/><path id="b" d="M2.554 0A2.55 2.55 0 0 0 0 2.54a2.55 2.55 0 0 0 2.554 2.538A2.55 2.55 0 0 0 5.108 2.54 2.55 2.55 0 0 0 2.554 0zm0 3.125a.588.588 0 0 1-.59-.586.589.589 0 0 1 1.18 0 .588.588 0 0 1-.59.586z"/><path id="c" d="M2.554 0A2.55 2.55 0 0 0 0 2.54a2.55 2.55 0 0 0 2.554 2.538A2.55 2.55 0 0 0 5.108 2.54 2.55 2.55 0 0 0 2.554 0zm0 3.125a.588.588 0 0 1-.59-.586.589.589 0 0 1 1.18 0 .588.588 0 0 1-.59.586z"/><path id="d" d="M42.268 0H2.732A2.727 2.727 0 0 0 0 2.716v46.307c0 .54.44.977.982.977h43.036a.98.98 0 0 0 .982-.977V2.716A2.727 2.727 0 0 0 42.268 0zm.767 8.348h-17.64a.98.98 0 0 0-.983.977c0 .54.44.977.982.977h17.641v37.745H1.965V10.302h17.543a.98.98 0 0 0 .982-.977.98.98 0 0 0-.982-.977H1.965V2.716c0-.42.344-.763.767-.763h39.536c.423 0 .767.342.767.763v5.632z"/><path id="e" d="M21.808 0H.982A.98.98 0 0 0 0 .977v9.63c0 .54.44.977.982.977h20.826a.98.98 0 0 0 .982-.977V.977A.98.98 0 0 0 21.808 0zm-.982 9.63H1.965V1.954h18.86v7.678z"/><path id="f" d="M6.483 0h-5.5A.98.98 0 0 0 0 .977v5.468c0 .54.44.977.982.977h5.501a.98.98 0 0 0 .982-.977V.977A.98.98 0 0 0 6.483 0zm-.982 5.469H1.965V1.953H5.5V5.47z"/><path id="g" d="M6.483 0h-5.5A.98.98 0 0 0 0 .977v5.468c0 .54.44.977.982.977h5.501a.98.98 0 0 0 .982-.977V.977A.98.98 0 0 0 6.483 0zm-.982 5.469H1.965V1.953H5.5V5.47z"/><path id="h" d="M6.483 0h-5.5A.98.98 0 0 0 0 .977v5.468c0 .54.44.977.982.977h5.501a.98.98 0 0 0 .982-.977V.977A.98.98 0 0 0 6.483 0zm-.982 5.469H1.965V1.953H5.5V5.47z"/><path id="i" d="M.982 0A.98.98 0 0 0 0 .977v20.306c0 .54.44.976.982.976a.98.98 0 0 0 .983-.976V.977A.98.98 0 0 0 .982 0z"/><path id="j" d="M1.677.286A.992.992 0 0 0 .982 0 .981.981 0 0 0 0 .977a.98.98 0 0 0 1.677.69.981.981 0 0 0 .288-.69.981.981 0 0 0-.288-.69z"/><path id="k" d="M35.462 0H.982A.98.98 0 0 0 0 .977v3.906c0 .54.44.976.982.976h34.48a.98.98 0 0 0 .982-.976V.977A.98.98 0 0 0 35.462 0zm-.983 3.906H1.965V1.953h32.514v1.953z"/><path id="l" d="M.994 0H.982A.98.98 0 0 0 0 .977c0 .539.44.976.982.976h.012a.98.98 0 0 0 .983-.976A.98.98 0 0 0 .994 0z"/></defs></svg>