<svg width="32" height="32" viewBox="0 0 32 32" xmlns="http://www.w3.org/2000/svg" xmlns:xlink="http://www.w3.org/1999/xlink"><title>resume (1)</title><desc>Created using Figma</desc><use xlink:href="#a" transform="translate(1.1 9.989)" fill="#FFF"/><use xlink:href="#b" transform="translate(1.3 9.042)" fill="#EDEDED"/><use xlink:href="#c" transform="translate(0 8.548)" fill="#A1B1B7"/><use xlink:href="#d" transform="translate(14.5 8.548)" fill="#8FA3AD"/><use xlink:href="#e" transform="translate(5 1.184)" fill="#FCD735"/><use xlink:href="#f" transform="translate(5.3 .494)" fill="#FABF2D"/><use xlink:href="#g" transform="translate(4.1)" fill="#FE6F00"/><use xlink:href="#h" transform="translate(18.6)" fill="#E55100"/><use xlink:href="#i" transform="translate(6.9 7.145)" fill="#FE5722"/><use xlink:href="#j" transform="translate(10.9 9.989)" fill="#FFF"/><use xlink:href="#k" transform="translate(11 9.042)" fill="#EDEDED"/><use xlink:href="#l" transform="translate(9.7 8.548)" fill="#A1B1B7"/><use xlink:href="#m" transform="translate(24.2 8.548)" fill="#8FA3AD"/><use xlink:href="#n" transform="translate(12.5 19.86)" fill="#37474F"/><use xlink:href="#o" transform="translate(18.5 20.099)" fill="#788F9B"/><use xlink:href="#p" transform="translate(18.5 22.745)" fill="#788F9B"/><use xlink:href="#q" transform="translate(18.5 25.391)" fill="#788F9B"/><defs><path id="a" d="M15.573 21.21H.088A.089.089 0 0 1 0 21.122V.09C0 .04.04 0 .088 0h15.485a.09.09 0 0 1 .088.09v21.03c0 .05-.04.09-.088.09z"/><path id="b" d="M3.475.275C1.556.275 0 .949 0 2.91v18.984h2.107V5.289c0-1.709 1.355-3.094 3.027-3.094h1.22V0L3.475.275z"/><path id="c" d="M0 22.72c0 .404.321.732.717.732h16.33a.71.71 0 0 0 .507-.214.741.741 0 0 0 .21-.519V6.718h3.78a.725.725 0 0 0 .717-.733v-1.7C22.26 1.923 20.38 0 18.069 0H4.192C1.881 0 0 1.922 0 4.286v18.433zM4.192 1.465c1.521 0 2.759 1.265 2.759 2.82v1.7c0 .404.32.732.717.732h8.662v15.268H1.435v-17.7c0-1.555 1.237-2.82 2.758-2.82z"/><path id="d" d="M4.192 4.286v1.7a.725.725 0 0 1-.717.732H7.06a.725.725 0 0 0 .717-.733v-1.7C7.777 1.923 5.897 0 3.585 0H0c2.312 0 4.192 1.922 4.192 4.286z"/><path id="e" d="M15.573 21.21H.088A.089.089 0 0 1 0 21.122V.09C0 .04.04 0 .088 0h15.485a.09.09 0 0 1 .088.09v21.03c0 .05-.04.09-.088.09z"/><path id="f" d="M3.475.275C1.556.275 0 .949 0 2.91v18.984h2.107V5.289c0-1.709 1.355-3.094 3.027-3.094h1.22V0L3.475.275z"/><path id="g" d="M0 22.72c0 .404.321.732.717.732h16.33a.71.71 0 0 0 .507-.214.741.741 0 0 0 .21-.519v-16h3.78a.725.725 0 0 0 .717-.734v-1.7C22.26 1.923 20.38 0 18.069 0H4.192C1.881 0 0 1.922 0 4.286v18.433zM4.192 1.465c1.521 0 2.759 1.265 2.759 2.82v1.7c0 .404.32.732.717.732h8.662v15.269H1.435v-17.7c0-1.555 1.237-2.82 2.758-2.82z"/><path id="h" d="M4.192 4.286v1.7a.725.725 0 0 1-.717.732H7.06a.725.725 0 0 0 .717-.733v-1.7C7.777 1.923 5.897 0 3.585 0H0c2.312 0 4.192 1.922 4.192 4.286z"/><path id="i" d="M4.004 0H.734A.742.742 0 0 0 0 .75v2.985c0 .415.329.75.734.75h3.27a.742.742 0 0 0 .735-.75V.75A.742.742 0 0 0 4.003 0z"/><path id="j" d="M15.66 0H0v21.21h15.66V0z"/><path id="k" d="M3.475.275C1.556.275 0 .949 0 2.91v18.984h2.107V5.289c0-1.709 1.355-3.094 3.027-3.094h1.22V0L3.475.275z"/><path id="l" d="M0 22.72c0 .404.321.732.717.732h16.33a.71.71 0 0 0 .507-.214.741.741 0 0 0 .21-.519V6.718h3.78a.725.725 0 0 0 .717-.733v-1.7c0-2.363-1.88-4.285-4.192-4.285H4.192C1.881 0 0 1.922 0 4.286v18.433zM4.192 1.465c1.521 0 2.759 1.265 2.759 2.82v1.7c0 .404.32.732.717.732h8.663v15.268H1.434v-17.7c0-1.555 1.237-2.82 2.758-2.82z"/><path id="m" d="M4.192 4.286v1.7a.725.725 0 0 1-.717.732H7.06a.725.725 0 0 0 .717-.733v-1.7C7.777 1.923 5.897 0 3.585 0H0c2.312 0 4.192 1.922 4.192 4.286z"/><path id="n" d="M4.004 0H.734A.742.742 0 0 0 0 .75v2.985c0 .415.329.75.734.75h3.27a.742.742 0 0 0 .735-.75V.75A.742.742 0 0 0 4.003 0z"/><path id="o" d="M5.139 1.5H.734A.742.742 0 0 1 0 .75C0 .336.329 0 .734 0H5.14c.405 0 .734.336.734.75 0 .415-.329.75-.734.75z"/><path id="p" d="M5.139 1.5H.734A.742.742 0 0 1 0 .75C0 .336.329 0 .734 0H5.14c.405 0 .734.336.734.75 0 .415-.329.75-.734.75z"/><path id="q" d="M5.139 1.5H.734A.742.742 0 0 1 0 .75C0 .336.329 0 .734 0H5.14c.405 0 .734.336.734.75 0 .415-.329.75-.734.75z"/></defs></svg>