<svg width="24" height="32" viewBox="0 0 24 32" xmlns="http://www.w3.org/2000/svg" xmlns:xlink="http://www.w3.org/1999/xlink"><title>calculator</title><desc>Created using Figma</desc><use xlink:href="#a" fill="#3F51B4"/><use xlink:href="#b" transform="translate(20.61)" fill="#303F9E"/><use xlink:href="#c" transform="translate(2.03 1.875)" fill="#76FE03"/><use xlink:href="#d" transform="translate(19.59 1.875)" fill="#64DC17"/><use xlink:href="#e" transform="translate(2.03 10.674)" fill="#7985CA"/><use xlink:href="#e" transform="translate(12.84 10.674)" fill="#7985CA"/><use xlink:href="#f" transform="translate(2.03 21.167)" fill="#7985CA"/><use xlink:href="#f" transform="translate(12.84 21.167)" fill="#7985CA"/><g fill="#388D3C"><use xlink:href="#g" transform="translate(18.08 2.689)"/><use xlink:href="#h" transform="translate(14.93 6.291)"/></g><g fill="#FFF"><use xlink:href="#i" transform="translate(14.12 14.195)"/><use xlink:href="#j" transform="translate(14.12 26.129)"/><use xlink:href="#k" transform="translate(14.12 23.246)"/><use xlink:href="#l" transform="translate(3.31 11.945)"/><use xlink:href="#m" transform="translate(3.56 22.687)"/></g><defs><path id="a" d="M22.99 0H1.01C.452 0 0 .448 0 1v30c0 .552.452 1 1.01 1h21.98c.558 0 1.01-.448 1.01-1V1c0-.552-.452-1-1.01-1z"/><path id="b" d="M2.377 0H0c.558 0 1.01.448 1.01 1v30c0 .552-.452 1-1.01 1h2.377c.558 0 1.01-.448 1.01-1V1c0-.552-.452-1-1.01-1z"/><path id="c" d="M19.943 0H0v7.208h19.943V0z"/><path id="d" d="M2.377 0H0v7.208h2.377V0z"/><path id="e" d="M9.13 0H0v9.042h9.13V0z"/><path id="f" d="M9.13 0H0v9.042h9.13V0z"/><path id="g" d="M1.01 5.61c-.558 0-1.01-.448-1.01-1V1c0-.552.452-1 1.01-1 .557 0 1.01.448 1.01 1v3.61c0 .552-.453 1-1.01 1z"/><path id="h" d="M1.01 2.008c-.558 0-1.01-.447-1.01-1C0 .456.452 0 1.01 0c.557 0 1.01.44 1.01.992v.016c0 .553-.453 1-1.01 1z"/><path id="i" d="M5.554 2H1.01C.452 2 0 1.552 0 1s.452-1 1.01-1h4.544c.558 0 1.01.448 1.01 1s-.452 1-1.01 1z"/><path id="j" d="M5.554 2H1.01C.452 2 0 1.552 0 1s.452-1 1.01-1h4.544c.558 0 1.01.448 1.01 1s-.452 1-1.01 1z"/><path id="k" d="M5.554 2H1.01C.452 2 0 1.552 0 1s.452-1 1.01-1h4.544c.558 0 1.01.448 1.01 1s-.452 1-1.01 1z"/><path id="l" d="M5.553 2.25H4.291V1c0-.552-.452-1-1.01-1-.557 0-1.01.448-1.01 1v1.25H1.01c-.558 0-1.01.448-1.01 1s.452 1 1.01 1h1.262V5.5c0 .552.452 1 1.01 1 .557 0 1.01-.448 1.01-1V4.25h1.26c.559 0 1.01-.448 1.01-1s-.451-1-1.009-1z"/><path id="m" d="M4.458 3.001L5.763 1.71a.993.993 0 0 0 0-1.415 1.017 1.017 0 0 0-1.428 0L3.03 1.587 1.724.293a1.017 1.017 0 0 0-1.428 0 .993.993 0 0 0 0 1.414L1.602 3 .297 4.292a.993.993 0 0 0 0 1.414 1.012 1.012 0 0 0 1.428 0l1.305-1.29 1.305 1.292c.197.196.455.293.714.293.258 0 .517-.097.714-.292a.993.993 0 0 0 0-1.415L4.458 3.001z"/></defs></svg>