<svg width="32" height="31" viewBox="0 0 32 31" xmlns="http://www.w3.org/2000/svg" xmlns:xlink="http://www.w3.org/1999/xlink"><title>map (1)</title><desc>Created using Figma</desc><use xlink:href="#a" transform="translate(0 8.824)" fill="#FE9700"/><use xlink:href="#b" transform="translate(0 8.864)" fill="#E22B27"/><use xlink:href="#c" transform="translate(10.93 8.863)" fill="#FE5722"/><use xlink:href="#d" transform="translate(21.07 8.824)" fill="#FE9700"/><use xlink:href="#e" transform="translate(21.07 8.824)" fill="#F47C00"/><use xlink:href="#f" transform="translate(13.5)" fill="#303F9E"/><use xlink:href="#g" transform="translate(19.83)" fill="#283592"/><use xlink:href="#h" transform="translate(17.9 4.535)" fill="#FFF"/><use xlink:href="#i" transform="translate(17.9 4.535)" fill="#CED7DB"/><defs><path id="a" d="M31.6.2a.996.996 0 0 0-.881-.16l-9.646 2.926v-.002L10.927.039v.002L.719 2.966A1.004 1.004 0 0 0 0 3.93v17.241a1.007 1.007 0 0 0 1 1.005.995.995 0 0 0 .281-.04l9.646-2.925v.001l10.146 2.925v-.001l10.208-2.925c.426-.126.719-.519.719-.965V1.006c0-.318-.148-.615-.4-.805z"/><path id="b" d="M10.927 0L.719 2.925A1.004 1.004 0 0 0 0 3.89v17.242a1.007 1.007 0 0 0 1 1.005.995.995 0 0 0 .281-.041l9.646-2.925V0z"/><path id="c" d="M10.147 2.925L0 0v19.173l10.147 2.925"/><path id="d" d="M0 22.136l10.208-2.925c.426-.126.718-.519.718-.965V1.006c0-.318-.148-.615-.4-.805a.996.996 0 0 0-.88-.16L0 2.966v19.17z"/><path id="e" d="M10.526.2a.996.996 0 0 0-.88-.16l-2.15.653a1 1 0 0 1 .055.312v17.241c0 .446-.292.84-.718.965L0 21.168v.967l10.208-2.925c.426-.126.719-.519.719-.965V1.006c0-.318-.149-.615-.401-.805z"/><path id="f" d="M7.5 0C3.364 0 0 3.408 0 7.598c0 6.145 6.523 12.631 6.8 12.905a.995.995 0 0 0 1.405-.006C8.482 20.22 15 13.64 15 7.597 15 3.409 11.636 0 7.5 0z"/><path id="g" d="M1.17 0C.772 0 .385.04.003.101c3.582.571 6.334 3.71 6.334 7.497 0 5.188-4.803 10.769-6.337 12.42.26.275.43.445.47.484a.995.995 0 0 0 1.405-.005c.277-.277 6.795-6.857 6.795-12.9C8.67 3.409 5.306 0 1.17 0z"/><path id="h" d="M3 6.086c1.657 0 3-1.363 3-3.043C6 1.363 4.657 0 3 0S0 1.362 0 3.043c0 1.68 1.343 3.043 3 3.043z"/><path id="i" d="M1.583 3.043c0-1.402.937-2.58 2.209-2.933A2.958 2.958 0 0 0 3 0C1.343 0 0 1.362 0 3.043c0 1.68 1.343 3.043 3 3.043.274 0 .54-.04.792-.111a3.035 3.035 0 0 1-2.209-2.932z"/></defs></svg>