<svg width="31" height="32" viewBox="0 0 31 32" xmlns="http://www.w3.org/2000/svg" xmlns:xlink="http://www.w3.org/1999/xlink"><title>email (1)</title><desc>Created using Figma</desc><use xlink:href="#a" transform="translate(0 6.665)" fill="#BCC426"/><use xlink:href="#b" transform="translate(5.04 1)" fill="#FFF"/><use xlink:href="#c" transform="translate(5.04 1)" fill="#EDEDED"/><use xlink:href="#d" transform="translate(4.04)" fill="#A1B1B7"/><use xlink:href="#e" transform="translate(21.79)" fill="#8FA3AD"/><use xlink:href="#f" transform="translate(9.99 9.472)" fill="#4CAE50"/><use xlink:href="#g" transform="translate(9.99 12.873)" fill="#4CAE50"/><use xlink:href="#h" transform="translate(9.99 16.274)" fill="#4CAE50"/><use xlink:href="#i" transform="translate(0 14.96)" fill="#CCDB39"/><use xlink:href="#j" transform="translate(0 14.96)" fill="#B5BC22"/><defs><path id="a" d="M29.201 8.44L15.366.143a1.017 1.017 0 0 0-1.044 0L.487 8.44A.999.999 0 0 0 0 9.29a.998.998 0 0 0 .475.854l14.165 8.75a1.015 1.015 0 0 0 1.086-.011l13.505-8.75a.997.997 0 0 0-.03-1.693z"/><path id="b" d="M4.163 0C1.863 0 0 1.847 0 4.125v23.369l19.317-.003V6.7c0-2.028 1.658-3.671 3.703-3.671L4.163 0z"/><path id="c" d="M4.163 0C1.863 0 0 1.847 0 4.125v23.369l4.18-.003V6.7c0-2.028 1.659-3.671 3.705-3.671L4.163 0z"/><path id="d" d="M20.57 29.494H1.01c-.558 0-1.01-.448-1.01-1V5.125C0 2.3 2.32 0 5.172 0h16.62c2.852 0 5.172 2.3 5.172 5.126v1.973c0 .266-.106.52-.295.707-.19.188-.446.293-.714.293h-4.377v20.395a1.01 1.01 0 0 1-1.009 1zm-18.552-2H19.56V8.099H9.335c-.558 0-1.01-.447-1.01-1V5.126C8.325 3.402 6.911 2 5.172 2c-1.74 0-3.154 1.402-3.154 3.125v22.369z"/><path id="e" d="M4.036 0H0c2.852 0 5.172 2.3 5.172 5.125V7.1c0 .266-.106.52-.296.708a1.015 1.015 0 0 1-.713.292h4.035c.268 0 .525-.105.714-.292a.996.996 0 0 0 .296-.708V5.125C9.208 2.3 6.888 0 4.036 0z"/><path id="f" d="M8.864 2H1.009C.452 2 0 1.552 0 1s.452-1 1.01-1h7.854c.557 0 1.009.448 1.009 1s-.452 1-1.01 1z"/><path id="g" d="M8.864 2H1.009C.452 2 0 1.552 0 1s.452-1 1.01-1h7.854c.557 0 1.009.448 1.009 1s-.452 1-1.01 1z"/><path id="h" d="M8.864 2H1.009C.452 2 0 1.552 0 1s.452-1 1.01-1h7.854c.557 0 1.009.448 1.009 1s-.452 1-1.01 1z"/><path id="i" d="M29.187.136A1.017 1.017 0 0 0 28.182.13L15.167 7.428 1.488.12a1.017 1.017 0 0 0-.996.02A.998.998 0 0 0 0 1v15.04c0 .552.452 1 1.01 1h27.669c.557 0 1.009-.448 1.009-1V1a.998.998 0 0 0-.501-.864z"/><path id="j" d="M29.187.136A1.017 1.017 0 0 0 28.182.13l-1.458.817v12.587c0 .552-.452 1-1.01 1H0v1.506c0 .553.452 1 1.01 1h27.669c.557 0 1.009-.447 1.009-1V1a.998.998 0 0 0-.501-.864z"/></defs></svg>