<svg width="20" height="24" viewBox="0 0 20 24" xmlns="http://www.w3.org/2000/svg" xmlns:xlink="http://www.w3.org/1999/xlink"><title>email</title><desc>Created using Figma</desc><use xlink:href="#a" transform="translate(0 10.675)" fill="#F07C00"/><use xlink:href="#b" transform="matrix(1 0 0 -1 5.29 8.625)" fill="#F07C00"/><defs><path id="a" d="M18 0H2C.897 0 0 .92 0 2.05v9.225c0 1.13.897 2.05 2 2.05h16c1.103 0 2-.92 2-2.05V2.05C20 .92 19.103 0 18 0zm-1.887 2.05L10 5.965 3.887 2.05h12.226zM2 11.275V3.258l7.47 4.786a.983.983 0 0 0 1.06 0L18 3.257l.001 8.018H2z"/><path id="b" d="M3.707 3.925v4.7h2v-4.7L8 6.275l1.414-1.45L4.707 0 0 4.825l1.414 1.45 2.293-2.35z"/></defs></svg>