<svg width="31" height="32" viewBox="0 0 31 32" xmlns="http://www.w3.org/2000/svg" xmlns:xlink="http://www.w3.org/1999/xlink"><title>image</title><desc>Created using Figma</desc><use xlink:href="#a" transform="translate(1.46 2)" fill="#FFF"/><use xlink:href="#b" transform="translate(1.75 .674)" fill="#EDEDED"/><use xlink:href="#c" fill="#A1B1B7"/><use xlink:href="#d" transform="translate(20.17)" fill="#8FA3AD"/><use xlink:href="#e" transform="translate(9.22 17.103)" fill="#4CAE50"/><use xlink:href="#f" transform="translate(3.75 18.973)" fill="#CCDB39"/><use xlink:href="#g" transform="translate(5.3 9.943)" fill="#FCD735"/><use xlink:href="#h" transform="translate(7.95 9.943)" fill="#FABF2D"/><defs><path id="a" d="M0 29.028h21.85V0H4.099A4.1 4.1 0 0 0 0 4.104v24.924z"/><path id="b" d="M4.84.375C2.167.375 0 1.295 0 3.972v25.903h2.934V7.217a4.219 4.219 0 0 1 4.215-4.222h1.699V0L4.84.375z"/><path id="c" d="M0 31a1 1 0 0 0 1 1h22.74a.998.998 0 0 0 1-1l-.001-21.833h5.264a1 1 0 0 0 .998-1v-2.32C31 2.624 28.38 0 25.162 0H5.838C2.618 0 0 2.623 0 5.848V31zM5.838 2A3.849 3.849 0 0 1 9.68 5.848v2.319a1 1 0 0 0 .999 1H22.74V30H1.997V5.848A3.849 3.849 0 0 1 5.838 2z"/><path id="d" d="M5.838 5.848v2.319a1 1 0 0 1-.998 1h4.992a1 1 0 0 0 .998-1v-2.32C10.83 2.624 8.211 0 4.992 0H0c3.22 0 5.838 2.623 5.838 5.848z"/><path id="e" d="M11.11 8.795L4.85.403A1.001 1.001 0 0 0 3.288.348L.243 3.885A1.005 1.005 0 0 0 .348 5.3a.997.997 0 0 0 1.184.086l1.984 3.162a1 1 0 0 0 .531 1.851h6.261a1.002 1.002 0 0 0 .803-1.604z"/><path id="f" d="M10.365 6.991L6.275.47a1 1 0 0 0-.83-.47.982.982 0 0 0-.847.44L.173 6.96a1.005 1.005 0 0 0 .829 1.567h8.515a1.002 1.002 0 0 0 .848-1.537z"/><path id="g" d="M3.423 0a3.43 3.43 0 0 0 0 6.856 3.43 3.43 0 0 0 0-6.856z"/><path id="h" d="M.772 0C.506 0 .25.034 0 .091a3.43 3.43 0 0 1 2.65 3.337A3.43 3.43 0 0 1 0 6.765c.249.057.507.091.772.091A3.43 3.43 0 0 0 .772 0z"/></defs></svg>