<svg width="13" height="13" viewBox="0 0 13 13" xmlns="http://www.w3.org/2000/svg" xmlns:xlink="http://www.w3.org/1999/xlink"><title>options</title><desc>Created using Figma</desc><use xlink:href="#a" transform="translate(7.04 7.042)" fill="#909090"/><use xlink:href="#b" fill="#909090"/><use xlink:href="#b" transform="translate(7.04)" fill="#909090"/><use xlink:href="#b" transform="translate(0 7.042)" fill="#909090"/><defs><path id="a" d="M2.98 0C1.353 0 0 1.354 0 2.98c0 1.624 1.354 2.978 2.98 2.978 1.624 0 2.978-1.354 2.978-2.979S4.604 0 2.98 0zm0 3.792a.833.833 0 0 1-.813-.813c0-.433.379-.812.812-.812.433 0 .813.379.813.812 0 .433-.38.813-.813.813z"/><path id="b" d="M5.417 0H.542C.217 0 0 .217 0 .542v4.875c0 .325.217.541.542.541h4.875c.325 0 .541-.216.541-.541V.542C5.958.217 5.742 0 5.417 0zM3.792 3.52c0 .163-.109.272-.271.272H2.438c-.163 0-.271-.109-.271-.271V2.438c0-.163.108-.271.27-.271h1.084c.162 0 .27.108.27.27v1.084z"/></defs></svg>