<svg width="24" height="24" viewBox="0 0 24 24" xmlns="http://www.w3.org/2000/svg" xmlns:xlink="http://www.w3.org/1999/xlink"><title>gps</title><desc>Created using Figma</desc><use xlink:href="#a" transform="translate(4.29 4.24)" fill="#03A8F3"/><use xlink:href="#b" transform="translate(10.82 4.24)" fill="#2195F2"/><g transform="translate(.39 .395)" fill="#3F51B4"><use xlink:href="#c"/><use xlink:href="#d"/><use xlink:href="#e"/><use xlink:href="#f"/></g><defs><path id="a" d="M7.713 0C3.46 0 0 3.46 0 7.713s3.46 7.712 7.713 7.712 7.712-3.46 7.712-7.712C15.425 3.46 11.965 0 7.713 0z"/><path id="b" d="M1.182 0C.779 0 .386.04 0 .1c3.692.572 6.53 3.763 6.53 7.613 0 3.85-2.838 7.04-6.53 7.612.386.06.779.1 1.182.1 4.253 0 7.713-3.46 7.713-7.712C8.895 3.46 5.435 0 1.182 0z"/><path id="c" d="M1.99 5.308v-1.91l7.119 7.118a.995.995 0 0 0 1.407-1.408L3.398 1.99h1.91a.992.992 0 0 0 .995-.995A.995.995 0 0 0 5.308 0H.995A.995.995 0 0 0 0 .995v4.313a.995.995 0 1 0 1.99 0z"/><path id="d" d="M21.22 17.903v1.91l-7.118-7.118a.995.995 0 0 0-1.407 1.407l7.118 7.118h-1.91a.995.995 0 1 0 0 1.99h4.313a.995.995 0 0 0 .995-.995v-4.312a.995.995 0 0 0-1.99 0z"/><path id="e" d="M22.216 0h-4.313a.995.995 0 0 0 0 1.99h1.91l-7.118 7.12a.995.995 0 0 0 1.407 1.407l7.118-7.118v1.91a.995.995 0 1 0 1.99 0V.995A.995.995 0 0 0 22.217 0z"/><path id="f" d="M3.398 21.22l7.118-7.118a.995.995 0 0 0-1.407-1.408L1.99 19.813v-1.91a.995.995 0 1 0-1.99 0v4.312c0 .55.445.995.995.995h4.313a.992.992 0 0 0 .995-.995.995.995 0 0 0-.996-.995h-1.91z"/></defs></svg>