<svg width="34" height="23" viewBox="0 0 34 23" xmlns="http://www.w3.org/2000/svg" xmlns:xlink="http://www.w3.org/1999/xlink"><title>infographic</title><desc>Created using Figma</desc><use xlink:href="#a" fill="#BDBDBD"/><use xlink:href="#b" transform="translate(0 11.953)" fill="#BDBDBD"/><use xlink:href="#c" transform="translate(3.98 3.984)" fill="#BDBDBD"/><use xlink:href="#c" transform="translate(3.98 16.004)" fill="#BDBDBD"/><defs><path id="a" d="M29.657 4.276L26.67 1.288a.995.995 0 0 0-.704-.292h-18A4.955 4.955 0 0 0 4.98 0 4.986 4.986 0 0 0 0 4.98a4.986 4.986 0 0 0 4.98 4.98 4.955 4.955 0 0 0 2.985-.995h18a.996.996 0 0 0 .704-.292l2.988-2.988a.996.996 0 0 0 0-1.409zM4.98 7.97a2.992 2.992 0 0 1-2.988-2.99A2.992 2.992 0 0 1 4.98 1.992 2.992 2.992 0 0 1 7.97 4.98a2.992 2.992 0 0 1-2.99 2.99zm20.572-.996H9.544A4.95 4.95 0 0 0 9.96 4.98a4.95 4.95 0 0 0-.417-1.992h16.008l1.992 1.992-1.992 1.993z"/><path id="b" d="M33.716 4.35l-2.988-3.054a.996.996 0 0 0-.712-.3H7.939A4.875 4.875 0 0 0 4.98 0C2.227 0 0 2.293 0 5.047c0 2.753 2.227 5.047 4.98 5.047a4.88 4.88 0 0 0 2.959-.996h22.077a.996.996 0 0 0 .712-.3l2.988-3.055a.996.996 0 0 0 0-1.393zM4.98 8.102c-1.62 0-2.988-1.4-2.988-3.055 0-1.656 1.369-3.055 2.988-3.055 1.62 0 2.989 1.399 2.989 3.055 0 1.656-1.369 3.055-2.989 3.055zm24.617-.997H9.523a5.04 5.04 0 0 0 .438-2.058 5.04 5.04 0 0 0-.438-2.059h20.074l2.013 2.059-2.013 2.058z"/><path id="c" d="M.996 1.992A.996.996 0 1 0 .996 0a.996.996 0 0 0 0 1.992z"/></defs></svg>