<svg width="42" height="42" viewBox="0 0 42 42" xmlns="http://www.w3.org/2000/svg" xmlns:xlink="http://www.w3.org/1999/xlink"><title>Group</title><desc>Created using Figma</desc><use xlink:href="#a" fill="#FFF"/><defs><path id="a" d="M35.84 6.153A20.853 20.853 0 0 0 20.995 0 20.853 20.853 0 0 0 6.152 6.153 20.862 20.862 0 0 0 0 21c0 5.609 2.186 10.88 6.152 14.847A20.853 20.853 0 0 0 20.996 42c3.257 0 6.23-.605 8.588-1.737 2.238-1.08 3.862-2.627 4.58-4.347.855-2.065.37-4.217-1.323-5.911l-.06-.06c.026-.035.06-.061.086-.087 1.21-1.27 1.21-2.938-.017-4.165l-2.99-2.99c-.587-.605-1.296-.934-2.047-.934-.752 0-1.469.32-2.074.925l-1.555 1.555a2.751 2.751 0 0 0-.225-.112 5.411 5.411 0 0 1-.51-.277c-1.58-1.002-3.015-2.316-4.389-4-.604-.761-1.02-1.41-1.33-2.049.389-.363.751-.735 1.106-1.097.147-.156.302-.303.458-.458 1.27-1.27 1.27-2.913 0-4.183l-1.478-1.478c-.173-.173-.337-.337-.501-.51a28.765 28.765 0 0 0-1.028-1.02c-.588-.579-1.288-.881-2.03-.881-.744 0-1.452.302-2.057.881l-.017.018-1.858 1.858a4.245 4.245 0 0 0-1.261 2.713c-.13 1.642.345 3.163.717 4.157.89 2.403 2.22 4.632 4.199 7.017 2.402 2.87 5.296 5.142 8.605 6.741 1.27.605 2.973 1.314 4.89 1.443.122.009.243.009.364.009 1.339 0 2.47-.484 3.352-1.443l.035-.035c.026-.034.06-.069.095-.104l.052.052c1.105 1.106 1.408 2.368.872 3.656-.993 2.36-4.856 4.779-11.25 4.779-10.437 0-18.921-8.487-18.921-18.926 0-10.44 8.484-18.926 18.922-18.926 10.437 0 18.922 8.486 18.922 18.926 0 1.72-.234 3.414-.683 5.047a1.04 1.04 0 1 0 2.005.553c.5-1.815.76-3.699.76-5.6a20.906 20.906 0 0 0-6.16-14.847zM29.652 30.17c-.492.527-1.045.76-1.814.76-.078 0-.156 0-.234-.008-1.555-.104-3.024-.717-4.12-1.244-3.034-1.47-5.695-3.552-7.907-6.197-1.823-2.195-3.041-4.226-3.853-6.404-.484-1.313-.665-2.316-.596-3.266a2.16 2.16 0 0 1 .665-1.417l1.857-1.85c.147-.138.372-.302.614-.302s.45.155.579.294l.026.025c.328.303.64.623.968.96.172.173.345.354.518.527l1.477 1.478c.458.458.458.795 0 1.253l-.466.466c-.458.459-.882.9-1.348 1.314-.017.009-.026.026-.043.043-.648.648-.424 1.323-.355 1.547.01.026.018.043.026.07.398.959.95 1.857 1.798 2.929l.008.009c1.52 1.875 3.12 3.327 4.89 4.45.234.147.467.268.692.38.19.095.363.182.51.277a1.488 1.488 0 0 0 .769.216c.38 0 .734-.156 1.036-.467l1.858-1.858c.147-.147.363-.32.605-.32.224 0 .432.165.561.303l.018.017 2.99 2.99c.423.424.423.813-.018 1.27l-.009.01c-.198.216-.415.423-.648.648-.345.337-.708.691-1.054 1.097z"/></defs></svg>