<svg width="32" height="32" viewBox="0 0 32 32" xmlns="http://www.w3.org/2000/svg" xmlns:xlink="http://www.w3.org/1999/xlink"><title>map</title><desc>Created using Figma</desc><use xlink:href="#a" transform="translate(0 11.728)" fill="#8AC24A"/><use xlink:href="#b" transform="translate(2.52 11.728)" fill="#455A64"/><use xlink:href="#c" transform="translate(0 11.728)" fill="#FEC007"/><use xlink:href="#d" transform="translate(0 16.608)" fill="#03A8F3"/><use xlink:href="#e" transform="translate(17.64 26.146)" fill="#8AC24A"/><use xlink:href="#f" transform="translate(13.77)" fill="#FEC007"/><use xlink:href="#g" transform="translate(20.02)" fill="#FEAA00"/><use xlink:href="#h" transform="translate(18.17 4.402)" fill="#FFF"/><use xlink:href="#i" transform="translate(18.17 4.403)" fill="#CED7DB"/><defs><path id="a" d="M31 0H1C.448 0 0 .437 0 .976v18.32c0 .54.448.976 1 .976h30c.552 0 1-.437 1-.976V.976A.988.988 0 0 0 31 0z"/><path id="b" d="M29.484 7.704L16.288 0H0l29.484 18.007V7.704z"/><path id="c" d="M2.516 0H1C.448 0 0 .437 0 .976v10.966L10.507 4.88 2.516 0z"/><path id="d" d="M10.507 0L0 7.062v7.354c0 .54.448.976 1 .976h16.642l8.482-5.854L10.507 0z"/><path id="e" d="M8.481 0L0 5.854h13.358c.552 0 1-.437 1-.976v-1.29L8.48 0z"/><path id="f" d="M7.5 0C3.365 0 0 3.309 0 7.376c0 5.966 6.523 12.263 6.8 12.528.195.185.447.278.7.278.255 0 .51-.094.705-.283C8.482 19.629 15 13.242 15 7.376 15 3.309 11.636 0 7.5 0z"/><path id="g" d="M1.254 0C.827 0 .41.043.004.111c3.54.588 6.25 3.618 6.25 7.265 0 4.946-4.634 10.263-6.254 11.97.308.32.51.516.554.558.195.186.447.278.7.278.254 0 .51-.094.704-.283.278-.27 6.795-6.657 6.796-12.523C8.754 3.309 5.389 0 1.254 0z"/><path id="h" d="M3 5.908c1.657 0 3-1.322 3-2.954C6 1.323 4.657 0 3 0S0 1.323 0 2.954c0 1.632 1.343 2.954 3 2.954z"/><path id="i" d="M1.583 2.954c0-1.361.937-2.505 2.209-2.847A3.04 3.04 0 0 0 3 0C1.343 0 0 1.322 0 2.954c0 1.631 1.343 2.954 3 2.954.275 0 .54-.04.792-.107-1.272-.343-2.209-1.486-2.209-2.847z"/></defs></svg>