<svg width="13" height="13" viewBox="0 0 13 13" xmlns="http://www.w3.org/2000/svg" xmlns:xlink="http://www.w3.org/1999/xlink"><title>Group</title><desc>Created using Figma</desc><use xlink:href="#a" fill="#FFF" fill-opacity=".5"/><use xlink:href="#b" transform="translate(5.5 3)" fill="#FFF" fill-opacity=".5"/><use xlink:href="#c" transform="translate(5.5 6)" fill="#FFF" fill-opacity=".5"/><defs><path id="a" d="M11.1 1.9A6.42 6.42 0 0 0 6.5 0C4.7 0 3.1.75 1.9 1.9A6.42 6.42 0 0 0 0 6.5c0 1.8.75 3.4 1.9 4.6C3.1 12.3 4.7 13 6.5 13c1.8 0 3.4-.75 4.6-1.9C12.3 9.9 13 8.3 13 6.5c0-1.8-.75-3.4-1.9-4.6zM9.7 9.7c-.85.85-2 1.3-3.2 1.3-1.2 0-2.35-.45-3.2-1.3-.85-.85-1.3-2-1.3-3.2 0-1.2.45-2.35 1.3-3.2.85-.85 2-1.3 3.2-1.3 1.2 0 2.35.45 3.2 1.3.85.85 1.3 2 1.3 3.2 0 1.2-.45 2.35-1.3 3.2z"/><path id="b" d="M1.5 0h-1C.2 0 0 .2 0 .5v1c0 .3.2.5.5.5h1c.3 0 .5-.2.5-.5v-1c0-.3-.2-.5-.5-.5z"/><path id="c" d="M1.5 0h-1C.2 0 0 .2 0 .5v3c0 .3.2.5.5.5h1c.3 0 .5-.2.5-.5v-3c0-.3-.2-.5-.5-.5z"/></defs></svg>