<svg width="12" height="12" viewBox="0 0 12 12" xmlns="http://www.w3.org/2000/svg" xmlns:xlink="http://www.w3.org/1999/xlink"><title>Group</title><desc>Created using Figma</desc><use xlink:href="#a" transform="translate(6.971 6.957)" fill="#FFF" fill-opacity=".5"/><use xlink:href="#b" transform="translate(0 .008)" fill="#FFF" fill-opacity=".5"/><use xlink:href="#c" transform="translate(6.971)" fill="#FFF" fill-opacity=".5"/><use xlink:href="#d" transform="translate(0 6.957)" fill="#FFF" fill-opacity=".5"/><defs><path id="a" d="M0 4.582V3.575c0-.302.2-.503.498-.503h.498c.199 0 .348-.252.199-.454L.199 1.611a.49.49 0 0 1 0-.705L.896.201a.478.478 0 0 1 .697 0L2.59 1.21c.15.15.448.05.448-.202V.504c0-.303.2-.504.498-.504h.996c.299 0 .498.201.498.504v4.028c0 .302-.2.504-.498.504H.548C.199 5.086 0 4.884 0 4.582z"/><path id="b" d="M3.436 4.834L2.44 3.827c-.15-.151-.448-.05-.448.201v.504c0 .302-.2.504-.498.504H.498C.199 5.036 0 4.834 0 4.532V.504C0 .2.2 0 .498 0H4.48c.3 0 .498.201.498.504V1.51c0 .302-.199.503-.498.503h-.498c-.199 0-.348.252-.199.453l.996 1.008c.2.2.2.503 0 .704l-.697.705c-.15.152-.448.152-.647-.05z"/><path id="c" d="M0 .46v1.008c0 .302.2.504.498.504h.498c.199 0 .348.251.199.453L.199 3.432a.49.49 0 0 0 0 .705l.697.705c.2.201.498.201.697 0l.996-1.007c.15-.151.448-.05.448.201v.504c0 .302.2.503.498.503h.996c.299 0 .498-.201.498-.503V.51c0-.302-.2-.503-.498-.503H.548C.199-.042 0 .158 0 .46z"/><path id="d" d="M3.436.201L2.44 1.21c-.15.15-.448.05-.448-.202V.504C1.992.2 1.792 0 1.494 0H.498C.199 0 0 .201 0 .504v4.028c0 .302.2.504.498.504H4.48c.3 0 .498-.202.498-.504V3.525c0-.302-.199-.504-.498-.504h-.498c-.199 0-.348-.251-.199-.453l.996-1.007a.49.49 0 0 0 0-.705L4.083.151C3.933 0 3.635 0 3.436.201z"/></defs></svg>