<svg width="13" height="11" viewBox="0 0 13 11" xmlns="http://www.w3.org/2000/svg" xmlns:xlink="http://www.w3.org/1999/xlink"><title>Group</title><desc>Created using Figma</desc><use xlink:href="#a" fill="#FFF" fill-opacity=".5"/><use xlink:href="#b" transform="translate(8 3)" fill="#FFF" fill-opacity=".5"/><defs><path id="a" d="M12.5 0H.5C.2 0 0 .2 0 .5v10c0 .3.2.5.5.5h12c.3 0 .5-.2.5-.5V.5c0-.3-.2-.5-.5-.5zm-4 9H2.25C2.1 9 2 8.9 2 8.75V8.2c0-.1.05-.15.1-.2.75-.45 1.95-1 2.9-1 .6 0 1.6.5 2.55 1 .35.15.7.35 1.05.5.25.15.15.5-.1.5zM11 7c0 .15-.15.3-.35.25-.7-.25-1.45-.65-2.2-1C7.2 5.6 6.05 5 4.95 5c-.9 0-1.85.3-2.65.65-.15.05-.35-.05-.35-.25V2.25c0-.15.1-.25.25-.25h8.5c.15 0 .25.1.25.25V7H11z"/><path id="b" d="M1 2a1 1 0 1 0 0-2 1 1 0 0 0 0 2z"/></defs></svg>