<svg width="13" height="13" viewBox="0 0 13 13" xmlns="http://www.w3.org/2000/svg" xmlns:xlink="http://www.w3.org/1999/xlink"><title>Group</title><desc>Created using Figma</desc><use xlink:href="#a" transform="translate(8.08 2.954)" fill="#FFF" fill-opacity=".5"/><use xlink:href="#b" fill="#FFF" fill-opacity=".5"/><defs><path id="a" d="M.985 1.97a.985.985 0 1 0 0-1.97.985.985 0 0 0 0 1.97z"/><path id="b" d="M12.508 0H6.894a.447.447 0 0 0-.345.148L.148 6.549a.476.476 0 0 0 0 .69l5.613 5.613a.476.476 0 0 0 .69 0l6.401-6.401A.447.447 0 0 0 13 6.106V.492C13 .197 12.803 0 12.508 0zM11.03 5.417c0 .049-.049.147-.049.197l-4.678 4.678a.238.238 0 0 1-.345 0l-3.2-3.201a.238.238 0 0 1 0-.345l4.678-4.678c.049-.05.098-.05.197-.05h3.2c.148 0 .246.1.246.247v3.152h-.049z"/></defs></svg>