<svg width="13" height="13" viewBox="0 0 13 13" xmlns="http://www.w3.org/2000/svg" xmlns:xlink="http://www.w3.org/1999/xlink"><title>flag</title><desc>Created using Figma</desc><use xlink:href="#a" fill="#FFF" fill-opacity=".5"/><defs><path id="a" d="M12.5.5c-.05 0-.1 0-.2.05-.6.25-1.2.45-1.85.45-1.35 0-2.65-1-4-1s-2.65 1-4 1c-.3 0-.5.2-.5.5v9.25c0 .15-.1.25-.25.25H.5c-.3 0-.5.2-.5.5v1c0 .3.2.5.5.5h5c.3 0 .5-.2.5-.5v-1c0-.3-.2-.5-.5-.5H4.25c-.15 0-.25-.1-.25-.25v-1.9c0-.1.05-.2.15-.25.75-.3 1.55-.65 2.35-.65 1.35 0 2.65 1 4 1 .7 0 1.35-.25 2-.5.05 0 .1-.05.2-.05.2-.05.3-.25.3-.45v-6.9c0-.35-.2-.55-.5-.55zM11 4.35v2.3c0 .1-.1.2-.2.25-.1.05-.2.05-.3.05-.3 0-.8-.2-1.3-.35-.8-.3-1.65-.65-2.7-.65-.8 0-1.55.2-2.15.45-.15.05-.35-.05-.35-.25v-3.2c0-.1.05-.2.2-.25.35-.1.7-.25 1.05-.35.5-.2 1-.35 1.3-.35.3 0 .8.2 1.3.35.8.3 1.65.65 2.7.65h.25c.15 0 .25.1.25.25v1.1H11z"/></defs></svg>