<svg width="20" height="22" viewBox="0 0 20 22" xmlns="http://www.w3.org/2000/svg" xmlns:xlink="http://www.w3.org/1999/xlink"><title>pdf</title><desc>Created using Figma</desc><use xlink:href="#a" transform="translate(1)" fill="#F07C00"/><use xlink:href="#b" transform="translate(1 19)" fill="#F07C00"/><use xlink:href="#c" transform="translate(7 9)" fill="#F07C00"/><use xlink:href="#d" transform="translate(14 9)" fill="#F07C00"/><use xlink:href="#e" transform="translate(0 9)" fill="#F07C00"/><defs><path id="a" d="M2 2h10v4h4v1h2V4.586L13.414 0H2C.897 0 0 .898 0 2v5h2V2z"/><path id="b" d="M16 1H2V0H0v1c0 1.103.897 2 2 2h14c1.103 0 2-.897 2-2V0h-2v1z"/><path id="c" d="M0 0v8h2c2.206 0 4-1.794 4-4S4.206 0 2 0H0zm4 4c0 1.103-.897 2-2 2V2c1.103 0 2 .898 2 2z"/><path id="d" d="M6 2V0H2C.897 0 0 .898 0 2v6h2V5h3V3H2V2h4z"/><path id="e" d="M2 6h1c1.654 0 3-1.346 3-3S4.654 0 3 0H0v8h2V6zm0-4h1a1.001 1.001 0 0 1 0 2H2V2z"/></defs></svg>