<svg width="32" height="32" viewBox="0 0 32 32" xmlns="http://www.w3.org/2000/svg" xmlns:xlink="http://www.w3.org/1999/xlink"><title>pie-chart</title><desc>Created using Figma</desc><use xlink:href="#a" fill="#3F51B4"/><use xlink:href="#b" transform="translate(0 .28)" fill="#303F9E"/><use xlink:href="#c" transform="translate(15.3)" fill="#FED500"/><use xlink:href="#d" transform="translate(15.3 4.454)" fill="#F34336"/><defs><path id="a" d="M16 0C7.178 0 0 7.178 0 16c0 8.823 7.178 16 16 16 8.823 0 16-7.177 16-16 0-8.822-7.177-16-16-16z"/><path id="b" d="M20.125 30.339c-8.822 0-16-7.178-16-16C4.125 8.06 7.761 2.619 13.036 0 5.626 1.394 0 7.91 0 15.72c0 8.823 7.178 16 16 16 2.545 0 4.95-.6 7.089-1.661-.961.18-1.951.28-2.964.28z"/><path id="c" d="M11.76 4.454A15.94 15.94 0 0 0 0 .018v16.196l11.76-11.76z"/><path id="d" d="M.01 11.76l11.422 11.642c3.234-2.93 5.269-7.16 5.269-11.856C16.7 7.01 14.8 2.914 11.76 0L0 11.76h.01z"/></defs></svg>