<svg width="24" height="24" viewBox="0 0 24 24" xmlns="http://www.w3.org/2000/svg" xmlns:xlink="http://www.w3.org/1999/xlink"><title>expand (1)</title><desc>Created using Figma</desc><use xlink:href="#a" transform="translate(17.29)" fill="#F07C00"/><use xlink:href="#b" transform="translate(0 17.29)" fill="#F07C00"/><use xlink:href="#c" fill="#F07C00"/><use xlink:href="#d" transform="translate(17.29 17.29)" fill="#F07C00"/><use xlink:href="#e" transform="translate(7 7)" fill="#F07C00"/><defs><path id="a" d="M.707 0v2h2.586L0 5.293l1.414 1.414 3.293-3.293V6h2V0h-6z"/><path id="b" d="M5.293 0L2 3.293V.707H0v6h6v-2H3.414l3.293-3.293L5.293 0z"/><path id="c" d="M6 2V0H0v6h2V3.414l3.293 3.293 1.414-1.414L3.414 2H6z"/><path id="d" d="M4.707 3.293L1.414 0 0 1.414l3.293 3.293H.707v2h6v-6h-2v2.586z"/><path id="e" d="M8 0H2a2 2 0 0 0-2 2v6a2 2 0 0 0 2 2h6a2 2 0 0 0 2-2V2c0-1.103-.896-2-2-2zm-.003 8H2V2h6l-.003 6z"/></defs></svg>