<svg width="418" height="435" viewBox="0 0 418 435" xmlns="http://www.w3.org/2000/svg" xmlns:xlink="http://www.w3.org/1999/xlink"><title>path138</title><desc>Created using Figma</desc><g filter="url(#a)" transform="translate(-6701 382)"><use xlink:href="#b" transform="matrix(.13333 0 0 -.13333 6721 13)" fill="#FFF"/><mask id="c"><use xlink:href="#b" fill="#fff" transform="matrix(.13333 0 0 -.13333 6721 13)"/></mask><g mask="url(#c)"><use xlink:href="#d" transform="matrix(.13333 0 0 -.13333 6721 13)" fill="#7FA61D"/></g></g><defs><filter id="a" filterUnits="userSpaceOnUse" x="6701" y="-382" width="419" height="436" color-interpolation-filters="sRGB"><feFlood flood-opacity="0" result="BackgroundImageFix"/><feColorMatrix in="SourceAlpha" values="0 0 0 0 0 0 0 0 0 0 0 0 0 0 0 0 0 0 255 0"/><feOffset dx="10" dy="10"/><feGaussianBlur stdDeviation="15"/><feColorMatrix values="0 0 0 0 0.133333 0 0 0 0 0.133333 0 0 0 0 0.133333 0 0 0 0.15 0"/><feBlend in2="BackgroundImageFix" result="effect1_dropShadow"/><feBlend in="SourceGraphic" in2="effect1_dropShadow" result="shape"/></filter><path id="b" d="M0 320.683l74.853 560.778L223.866 2000.38l532.98 300.55 905.164 511.57L2685 2704.29l-152.48-1448.63L2400.14 0 0 320.683z"/><path id="d" d="M0 320.683l-2.649-19.824-19.821 2.649 2.645 19.821L0 320.683zm74.853 560.778l19.825-2.64-.001-.006-19.824 2.646zM223.866 2000.38l-19.825 2.64 1.316 9.88 8.685 4.9 9.824-17.42zm532.98 300.55l9.84-17.41h-.008l-.008-.01-9.824 17.42zm905.164 511.57l-9.84 17.41 5.58 3.15 6.36-.67-2.1-19.89zM2685 2704.29l2.1 19.89 19.88-2.11-2.09-19.88-19.89 2.1zm-152.48-1448.63l19.89-2.09v-.01l-19.89 2.1zM2400.14 0l19.89-2.097-2.15-20.45-20.39 2.723L2400.14 0zM-19.825 323.329L55.03 884.107l39.648-5.292-74.853-560.778-39.648 5.292zm74.853 560.772L204.04 2003.02l39.65-5.28L94.678 878.821l-39.65 5.28zM214.042 2017.8l532.98 300.56 19.648-34.85-532.981-300.55-19.647 34.84zm532.963 300.55l905.165 511.56 19.68-34.82-905.164-511.57-19.681 34.83zm917.105 514.04l1022.99-108.21-4.2-39.78-1022.99 108.21 4.2 39.78zm1040.78-130.2l-152.48-1448.62-39.78 4.18 152.48 1448.63 39.78-4.19zm-152.48-1448.63L2420.03-2.097l-39.78 4.194 132.38 1255.663 39.78-4.2zM2397.49-19.824L-2.649 300.859l5.297 39.648L2402.79 19.824l-5.3-39.648z"/></defs></svg>