<svg width="32" height="29" viewBox="0 0 32 29" xmlns="http://www.w3.org/2000/svg" xmlns:xlink="http://www.w3.org/1999/xlink"><title>placeholder</title><desc>Created using Figma</desc><use xlink:href="#a" transform="translate(5.12 12.038)" fill="#D22F2F"/><use xlink:href="#b" transform="translate(21.7 12.038)" fill="#D22F2F"/><use xlink:href="#c" transform="translate(0 12.038)" fill="#FE7043"/><use xlink:href="#d" transform="translate(3.14 15.263)" fill="#D22F2F"/><use xlink:href="#e" transform="translate(3.14 15.263)" fill="#B61C1C"/><use xlink:href="#f" transform="translate(16.58 12.038)" fill="#FE7043"/><use xlink:href="#g" transform="translate(19.71 15.263)" fill="#D22F2F"/><use xlink:href="#h" transform="translate(12.08)" fill="#FE9700"/><use xlink:href="#i" transform="translate(4.2)" fill="#FEC007"/><use xlink:href="#j" transform="translate(10.31 6.253)" fill="#FFF"/><use xlink:href="#k" transform="translate(10.31 6.253)" fill="#CED7DB"/><defs><path id="a" d="M4.642 0H1.555c-.552 0-1 .45-1 1.007 0 .543.428.983.963 1.003l-.48 12.938H1c-.552 0-1 .45-1 1.007 0 .556.448 1.007 1 1.007h3.642a.998.998 0 0 0 .75-.342c.201-.23 4.909-5.675 4.909-10.455C10.3 2.593 7.92 0 4.642 0z"/><path id="b" d="M4.642 0H1.555c-.552 0-1 .45-1 1.007 0 .543.428.983.963 1.003l-.48 12.938H1c-.552 0-1 .45-1 1.007 0 .556.448 1.007 1 1.007h3.642a.998.998 0 0 0 .751-.342c.2-.23 4.908-5.675 4.908-10.455C10.3 2.593 7.92 0 4.642 0z"/><path id="c" d="M6.123 0C2.747 0 0 2.766 0 6.165c0 4.888 5.189 10.268 5.41 10.495a.996.996 0 0 0 .713.302h.004a.996.996 0 0 0 .715-.307c.22-.23 5.405-5.683 5.405-10.49C12.247 2.765 9.5 0 6.123 0z"/><path id="d" d="M2.905 0C1.303 0 0 1.312 0 2.925 0 4.538 1.303 5.85 2.905 5.85c1.602 0 2.906-1.312 2.906-2.925C5.81 1.312 4.506 0 2.905 0z"/><path id="e" d="M1.667 2.925c0-1.321.875-2.44 2.072-2.8A2.874 2.874 0 0 0 2.905 0C1.303 0 0 1.312 0 2.925 0 4.538 1.303 5.85 2.905 5.85c.29 0 .57-.044.834-.124a2.926 2.926 0 0 1-2.072-2.8z"/><path id="f" d="M6.124 0C2.747 0 0 2.766 0 6.165c0 4.888 5.189 10.268 5.41 10.495a.996.996 0 0 0 .713.302h.004a.996.996 0 0 0 .715-.307c.22-.23 5.405-5.683 5.405-10.49C12.247 2.765 9.5 0 6.124 0z"/><path id="g" d="M2.905 0C1.303 0 0 1.312 0 2.925 0 4.538 1.303 5.85 2.905 5.85c1.602 0 2.905-1.312 2.905-2.925C5.81 1.312 4.507 0 2.905 0z"/><path id="h" d="M12.29 2.802C10.722.995 8.496 0 6.023 0H1C.448 0 0 .45 0 1.007c0 .556.448 1.007 1 1.007h.015l.33 22.306a1.003 1.003 0 0 0-.985 1.006c0 .556.448 1.007 1 1.007h4.662a.998.998 0 0 0 .75-.342c.32-.366 7.83-9.051 7.83-16.592 0-2.54-.821-4.882-2.311-6.597z"/><path id="i" d="M9.335 0C4.188 0 0 4.216 0 9.399c0 7.698 8.27 16.27 8.621 16.632a.997.997 0 0 0 .714.302h.004a.998.998 0 0 0 .715-.307c.352-.367 8.616-9.06 8.616-16.627C18.67 4.216 14.483 0 9.335 0z"/><path id="j" d="M3.1 6.241c1.711 0 3.099-1.397 3.099-3.12C6.199 1.397 4.81 0 3.099 0S0 1.397 0 3.12c0 1.724 1.388 3.121 3.1 3.121z"/><path id="k" d="M1.833 3.12A3.12 3.12 0 0 1 4.016.14 3.078 3.078 0 0 0 3.1 0 3.11 3.11 0 0 0 0 3.12c0 1.724 1.388 3.122 3.1 3.122.319 0 .627-.05.916-.14a3.12 3.12 0 0 1-2.183-2.981z"/></defs></svg>