<svg width="32" height="30" viewBox="0 0 32 30" xmlns="http://www.w3.org/2000/svg" xmlns:xlink="http://www.w3.org/1999/xlink"><title>electricity</title><desc>Created using Figma</desc><use xlink:href="#a" transform="translate(21.13)" fill="#AFBDC4"/><use xlink:href="#b" transform="translate(26.8)" fill="#AFBDC4"/><use xlink:href="#c" transform="translate(22.45)" fill="#8FA3AD"/><use xlink:href="#d" transform="translate(28.12)" fill="#8FA3AD"/><use xlink:href="#e" transform="translate(4.79 1.372)" fill="#3F51B4"/><use xlink:href="#f" transform="translate(0 13.935)" fill="#CCDB39"/><use xlink:href="#g" transform="translate(4.59 13.935)" fill="#B5BC2B"/><use xlink:href="#h" transform="translate(19.63 5.047)" fill="#00BBD3"/><use xlink:href="#i" transform="translate(24.99 5.047)" fill="#029EAA"/><defs><path id="a" d="M1.85 0C.83 0 0 .844 0 1.882v4.182c0 .42.336.763.75.763h2.2c.415 0 .75-.342.75-.763V1.882C3.7.844 2.87 0 1.85 0z"/><path id="b" d="M1.85 0C.83 0 0 .844 0 1.882v4.182c0 .42.336.763.75.763h2.2c.415 0 .75-.342.75-.763V1.882C3.7.844 2.87 0 1.85 0z"/><path id="c" d="M.531 0A1.77 1.77 0 0 0 0 .089c.76.234 1.319.944 1.319 1.793v4.182a.757.757 0 0 1-.75.763H1.63c.415 0 .75-.342.75-.763V1.882C2.381.844 1.551 0 .531 0z"/><path id="d" d="M.531 0A1.77 1.77 0 0 0 0 .089c.76.234 1.319.944 1.319 1.793v4.182a.757.757 0 0 1-.75.763H1.63c.415 0 .75-.342.75-.763V1.882C2.381.844 1.551 0 .531 0z"/><path id="e" d="M16.045 23.381c-3.3 0-5.986-2.731-5.986-6.088V6.089c0-2.236-1.788-4.055-3.986-4.055h-.086C3.788 2.034 2 3.854 2 6.09v7.772c0 .562-.448 1.017-1 1.017s-1-.455-1-1.017V6.089C0 2.73 2.686 0 5.987 0h.085c3.301 0 5.987 2.731 5.987 6.089v11.204c0 2.235 1.788 4.054 3.986 4.054 2.199 0 3.987-1.819 3.987-4.054v-6.045c0-.562.448-1.018 1-1.018s1 .456 1 1.018v6.045c0 3.357-2.686 6.088-5.987 6.088z"/><path id="f" d="M5.843 0C4.283 0 2.815.618 1.71 1.74A5.955 5.955 0 0 0 0 5.943c0 4.705 4.937 9.628 5.147 9.835a.987.987 0 0 0 1.398-.005c.21-.21 5.141-5.203 5.141-9.83C11.686 2.666 9.065 0 5.843 0z"/><path id="g" d="M1.253 0C.827 0 .41.05.003.14c2.623.584 4.594 2.962 4.594 5.803 0 3.766-3.268 7.775-4.597 9.249.31.34.518.547.557.586a.987.987 0 0 0 1.398-.005c.21-.21 5.142-5.203 5.142-9.83C7.097 2.666 4.475 0 1.253 0z"/><path id="h" d="M11.366 0H1C.448 0 0 .455 0 1.017v2.591c0 2.705 2.163 4.905 4.822 4.905h2.722c2.659 0 4.822-2.2 4.822-4.905v-2.59c0-.563-.448-1.018-1-1.018z"/><path id="i" d="M6.01 0H3.821c.552 0 1 .455 1 1.017v2.591c0 2.705-2.163 4.905-4.822 4.905h2.188c2.658 0 4.822-2.2 4.822-4.905v-2.59A1.007 1.007 0 0 0 6.01 0z"/></defs></svg>