<svg width="28" height="32" viewBox="0 0 28 32" xmlns="http://www.w3.org/2000/svg" xmlns:xlink="http://www.w3.org/1999/xlink"><title>plant</title><desc>Created using Figma</desc><use xlink:href="#a" transform="translate(12.72 10.293)" fill="#009587"/><use xlink:href="#b" transform="translate(0 21.795)" fill="#795548"/><use xlink:href="#c" transform="translate(11.79 21.795)" fill="#6D4C41"/><use xlink:href="#d" transform="translate(6.14 27.183)" fill="#A0877F"/><use xlink:href="#e" transform="translate(11.27 26.155)" fill="#A0877F"/><use xlink:href="#f" transform="translate(11.78)" fill="#CCDB39"/><use xlink:href="#g" transform="translate(11.9)" fill="#B8BF32"/><use xlink:href="#h" transform="translate(.54 4.31)" fill="#00C753"/><use xlink:href="#i" transform="translate(.54 4.393)" fill="#00B248"/><defs><path id="a" d="M1.021 13.524A1.012 1.012 0 0 1 0 12.521V1.003C0 .45.457 0 1.021 0c.564 0 1.022.45 1.022 1.003v11.518c0 .554-.458 1.003-1.022 1.003z"/><path id="b" d="M21.855 1.721c-.298 0-.598.022-.896.067A3.32 3.32 0 0 0 17.024 1a6.219 6.219 0 0 0-6.596-.103 3.34 3.34 0 0 0-3.677.855 5.998 5.998 0 0 0-.606-.03C3.087 1.72 0 4.033 0 9.201c0 .554.457 1.003 1.021 1.003H26.98c.564 0 1.021-.45 1.021-1.004 0-5.167-3.086-7.48-6.145-7.48z"/><path id="c" d="M10.066 1.721c-.298 0-.597.022-.896.067A3.32 3.32 0 0 0 5.235 1 6.22 6.22 0 0 0 0 .284 6.2 6.2 0 0 1 1.533 1a3.326 3.326 0 0 1 3.935.788 6.1 6.1 0 0 1 .896-.067c3.059 0 6.145 2.313 6.145 7.48 0 .555-.457 1.004-1.021 1.004h3.702c.564 0 1.021-.45 1.021-1.003 0-5.168-3.086-7.481-6.145-7.481z"/><path id="d" d="M.766 1.493a.771.771 0 0 1-.541-.22.745.745 0 0 1 0-1.064c.286-.281.796-.276 1.082 0a.745.745 0 0 1 0 1.064.78.78 0 0 1-.541.22z"/><path id="e" d="M.766 1.493a.78.78 0 0 1-.541-.216A.757.757 0 0 1 0 .741C0 .545.082.349.225.209c.28-.276.796-.281 1.082 0 .143.14.225.336.225.532 0 .2-.082.39-.225.531a.782.782 0 0 1-.541.221z"/><path id="f" d="M14.223.988A1.013 1.013 0 0 0 13.21 0c-.308 0-7.877-.02-11.364 3.406A6.095 6.095 0 0 0 0 7.783c0 1.653.656 3.208 1.846 4.377A6.338 6.338 0 0 0 6.3 13.97a6.34 6.34 0 0 0 4.456-1.81C14.303 8.676 14.228 1.3 14.223.988z"/><path id="g" d="M14.108.988A1.013 1.013 0 0 0 13.095 0h-.118c-.15 2.393-.787 7.127-3.42 9.714a6.34 6.34 0 0 1-4.456 1.81 6.338 6.338 0 0 1-4.456-1.81A6.277 6.277 0 0 1 0 8.962a6.112 6.112 0 0 0 1.73 3.198 6.339 6.339 0 0 0 4.456 1.81 6.34 6.34 0 0 0 4.455-1.81C14.187 8.676 14.113 1.3 14.108.988z"/><path id="h" d="M12.379 3.406C8.892-.018 1.327-.003 1.014 0A1.013 1.013 0 0 0 .001.988C-.004 1.3-.08 8.677 3.468 12.16a6.317 6.317 0 0 0 4.455 1.813 6.317 6.317 0 0 0 4.456-1.813 6.096 6.096 0 0 0 1.845-4.377 6.096 6.096 0 0 0-1.845-4.377z"/><path id="i" d="M12.89 8.942a6.317 6.317 0 0 1-4.456 1.813 6.317 6.317 0 0 1-4.456-1.813C1.604 6.609.854 2.534.618 0 .26.152.008.499 0 .906c-.005.312-.08 7.688 3.467 11.171a6.317 6.317 0 0 0 4.455 1.814 6.317 6.317 0 0 0 4.456-1.813 6.095 6.095 0 0 0 1.813-5.005 6.183 6.183 0 0 1-1.303 1.87z"/></defs></svg>