<svg width="32" height="28" viewBox="0 0 32 28" xmlns="http://www.w3.org/2000/svg" xmlns:xlink="http://www.w3.org/1999/xlink"><title>street-view</title><desc>Created using Figma</desc><use xlink:href="#a" fill="#7FD7FE"/><use xlink:href="#b" transform="translate(24.73)" fill="#40C3FE"/><use xlink:href="#c" transform="translate(0 15.439)" fill="#8AC24A"/><use xlink:href="#d" transform="translate(24.73 15.439)" fill="#7CB242"/><use xlink:href="#e" transform="translate(3.91 15.439)" fill="#37474F"/><use xlink:href="#f" transform="translate(15.25 17.444)" fill="#8FA3AD"/><use xlink:href="#g" transform="translate(15.25 21.912)" fill="#8FA3AD"/><defs><path id="a" d="M28.727 0H3.273C1.468 0 0 1.478 0 3.296v21.408C0 26.521 1.468 28 3.273 28h25.454C30.532 28 32 26.521 32 24.704V3.296C32 1.478 30.532 0 28.727 0z"/><path id="b" d="M4 0H0c1.805 0 3.273 1.478 3.273 3.296v21.408C3.273 26.521 1.805 28 0 28h4c1.805 0 3.273-1.479 3.273-3.296V3.296C7.273 1.478 5.805 0 4 0z"/><path id="c" d="M0 0v9.265c0 1.818 1.468 3.296 3.273 3.296h25.454c1.805 0 3.273-1.478 3.273-3.296V0H0z"/><path id="d" d="M3.273 0v9.265c0 1.818-1.468 3.296-3.273 3.296h4c1.805 0 3.273-1.478 3.273-3.296V0h-4z"/><path id="e" d="M0 12.561h24.24L16.6 0H7.642L0 12.561z"/><path id="f" d="M.75 2.895A.753.753 0 0 1 0 2.139V.755C0 .338.336 0 .75 0s.75.338.75.755V2.14a.753.753 0 0 1-.75.756z"/><path id="g" d="M.75 3.587A.753.753 0 0 1 0 2.832V.755C0 .338.336 0 .75 0s.75.338.75.755v2.077a.753.753 0 0 1-.75.755z"/></defs></svg>