<svg width="32" height="32" viewBox="0 0 32 32" xmlns="http://www.w3.org/2000/svg" xmlns:xlink="http://www.w3.org/1999/xlink"><title>calendar</title><desc>Created using Figma</desc><use xlink:href="#a" transform="translate(0 2.447)" fill="#FE5722"/><use xlink:href="#b" transform="translate(26.76 2.447)" fill="#F34336"/><use xlink:href="#c" transform="translate(0 2.447)" fill="#C52828"/><use xlink:href="#d" transform="translate(26.76 2.447)" fill="#B61C1C"/><use xlink:href="#e" transform="translate(3.92)" fill="#9B1818"/><use xlink:href="#f" transform="translate(26.08)" fill="#9B1818"/><use xlink:href="#g" transform="translate(23.26 11.412)" fill="#FEC007"/><use xlink:href="#h" transform="translate(16.92 11.412)" fill="#FEC007"/><use xlink:href="#i" transform="translate(10.58 11.412)" fill="#FEC007"/><use xlink:href="#j" transform="translate(4.24 11.412)" fill="#FEC007"/><use xlink:href="#k" transform="translate(23.26 17.727)" fill="#FEC007"/><use xlink:href="#l" transform="translate(10.58 17.727)" fill="#FEC007"/><use xlink:href="#m" transform="translate(4.24 17.727)" fill="#FEC007"/><use xlink:href="#n" transform="translate(23.26 24.042)" fill="#FEC007"/><use xlink:href="#o" transform="translate(16.92 24.042)" fill="#FEC007"/><use xlink:href="#p" transform="translate(10.58 24.042)" fill="#FEC007"/><use xlink:href="#q" transform="translate(4.24 24.042)" fill="#FEC007"/><use xlink:href="#r" transform="translate(16.75 17.655)" fill="#FFF"/><defs><path id="a" d="M31 0H1C.448 0 0 .453 0 1.011v27.532c0 .558.448 1.01 1 1.01h30c.552 0 1-.452 1-1.01V1.01C32 .453 31.552 0 31 0z"/><path id="b" d="M4.242 0H0c.552 0 1 .453 1 1.011v27.532c0 .558-.448 1.01-1 1.01h4.242c.553 0 1-.452 1-1.01V1.01c0-.558-.447-1.011-1-1.011z"/><path id="c" d="M32 1.011C32 .453 31.552 0 31 0H1C.448 0 0 .453 0 1.011v5.412h32V1.011z"/><path id="d" d="M4.242 0H0c.552 0 1 .453 1 1.011v5.412h4.242V1.011c0-.558-.447-1.011-1-1.011z"/><path id="e" d="M1 7.163c-.552 0-1-.453-1-1.011v-5.14C0 .451.448 0 1 0s1 .453 1 1.011v5.14c0 .56-.448 1.012-1 1.012z"/><path id="f" d="M1 7.163c-.552 0-1-.453-1-1.011v-5.14C0 .451.448 0 1 0s1 .453 1 1.011v5.14c0 .56-.448 1.012-1 1.012z"/><path id="g" d="M2.25 0C1.01 0 0 1.02 0 2.275s1.01 2.276 2.25 2.276S4.5 3.53 4.5 2.275C4.5 1.021 3.49 0 2.25 0z"/><path id="h" d="M2.25 0C1.01 0 0 1.02 0 2.275s1.01 2.276 2.25 2.276S4.5 3.53 4.5 2.275C4.5 1.021 3.49 0 2.25 0z"/><path id="i" d="M2.25 0C1.01 0 0 1.02 0 2.275s1.01 2.276 2.25 2.276S4.5 3.53 4.5 2.275C4.5 1.021 3.49 0 2.25 0z"/><path id="j" d="M2.25 0C1.01 0 0 1.02 0 2.275s1.01 2.276 2.25 2.276S4.5 3.53 4.5 2.275C4.5 1.021 3.49 0 2.25 0z"/><path id="k" d="M2.25 0C1.01 0 0 1.02 0 2.275s1.01 2.276 2.25 2.276S4.5 3.53 4.5 2.275C4.5 1.021 3.49 0 2.25 0z"/><path id="l" d="M2.25 0C1.01 0 0 1.02 0 2.275s1.01 2.276 2.25 2.276S4.5 3.53 4.5 2.275C4.5 1.021 3.49 0 2.25 0z"/><path id="m" d="M2.25 0C1.01 0 0 1.02 0 2.275s1.01 2.276 2.25 2.276S4.5 3.53 4.5 2.275C4.5 1.021 3.49 0 2.25 0z"/><path id="n" d="M2.25 0C1.01 0 0 1.02 0 2.275s1.01 2.276 2.25 2.276S4.5 3.53 4.5 2.275C4.5 1.021 3.49 0 2.25 0z"/><path id="o" d="M2.25 0C1.01 0 0 1.02 0 2.275s1.01 2.276 2.25 2.276S4.5 3.53 4.5 2.275C4.5 1.021 3.49 0 2.25 0z"/><path id="p" d="M2.25 0C1.01 0 0 1.02 0 2.275s1.01 2.276 2.25 2.276S4.5 3.53 4.5 2.275C4.5 1.021 3.49 0 2.25 0z"/><path id="q" d="M2.25 0C1.01 0 0 1.02 0 2.275s1.01 2.276 2.25 2.276S4.5 3.53 4.5 2.275C4.5 1.021 3.49 0 2.25 0z"/><path id="r" d="M3.75 0h-3C.336 0 0 .34 0 .758v3.034c0 .419.336.759.75.759h3c.414 0 .75-.34.75-.759V.758A.754.754 0 0 0 3.75 0z"/></defs></svg>