<svg width="20" height="15" viewBox="0 0 20 15" xmlns="http://www.w3.org/2000/svg" xmlns:xlink="http://www.w3.org/1999/xlink"><title>006-youtube</title><desc>Created using Figma</desc><use xlink:href="#a" transform="translate(0 .941)" fill="#FFF"/><defs><path id="a" d="M19.22 1.202C18.5.348 17.166 0 14.62 0H5.38C2.776 0 1.42.37.7 1.28 0 2.164 0 3.47 0 5.277v3.444C0 12.222.832 14 5.38 14h9.24c2.208 0 3.43-.307 4.222-1.06.812-.773 1.158-2.034 1.158-4.218V5.278c0-1.906-.054-3.219-.78-4.076zm-6.38 6.273L8.644 9.657a.648.648 0 0 1-.944-.569V4.739c0-.224.118-.432.31-.548a.648.648 0 0 1 .633-.021l4.196 2.167a.641.641 0 0 1 .001 1.138z"/></defs></svg>