<svg width="10" height="20" viewBox="0 0 10 20" xmlns="http://www.w3.org/2000/svg" xmlns:xlink="http://www.w3.org/1999/xlink"><title>008-facebook</title><desc>Created using Figma</desc><use xlink:href="#a" fill="#FFF"/><defs><path id="a" d="M.32 10.652h2.17v9.025a.32.32 0 0 0 .319.323h3.679a.32.32 0 0 0 .32-.323v-8.982h2.494a.32.32 0 0 0 .317-.286l.379-3.323a.325.325 0 0 0-.079-.251.318.318 0 0 0-.238-.108H6.807V4.644c0-.628.335-.947.995-.947h1.879A.32.32 0 0 0 10 3.375V.325a.32.32 0 0 0-.32-.323H7.093A2.52 2.52 0 0 0 6.973 0c-.45 0-2.01.09-3.244 1.236-1.367 1.27-1.177 2.791-1.132 3.055v2.436H.32a.32.32 0 0 0-.32.322v3.28c0 .178.143.323.32.323z"/></defs></svg>