<svg width="20" height="17" viewBox="0 0 20 17" xmlns="http://www.w3.org/2000/svg" xmlns:xlink="http://www.w3.org/1999/xlink"><title>007-twitter</title><desc>Created using Figma</desc><use xlink:href="#a" transform="translate(0 .765)" fill="#FFF"/><defs><path id="a" d="M19.547 1.847a7.707 7.707 0 0 1-.968.344c.391-.432.69-.94.871-1.496a.31.31 0 0 0-.106-.343.329.329 0 0 0-.366-.024 7.72 7.72 0 0 1-2.25.869A4.368 4.368 0 0 0 13.723 0c-2.368 0-4.294 1.882-4.294 4.195 0 .182.012.363.036.542A11.07 11.07 0 0 1 1.92.827a.326.326 0 0 0-.529.04 4.12 4.12 0 0 0 .44 4.829 3.68 3.68 0 0 1-.574-.251.329.329 0 0 0-.317.002.314.314 0 0 0-.162.266v.056c0 1.51.83 2.868 2.101 3.608a3.783 3.783 0 0 1-.326-.046.327.327 0 0 0-.302.1.31.31 0 0 0-.066.305c.47 1.435 1.681 2.49 3.145 2.812a7.727 7.727 0 0 1-4.06 1.133 8.11 8.11 0 0 1-.91-.052.324.324 0 0 0-.341.206.311.311 0 0 0 .13.372A11.777 11.777 0 0 0 6.408 16c4.372 0 7.106-2.014 8.63-3.704 1.901-2.107 2.991-4.895 2.991-7.65 0-.116-.002-.232-.005-.348a8.236 8.236 0 0 0 1.92-1.988.31.31 0 0 0-.02-.378.327.327 0 0 0-.378-.085z"/></defs></svg>