<svg width="20" height="14" viewBox="0 0 20 14" xmlns="http://www.w3.org/2000/svg" xmlns:xlink="http://www.w3.org/1999/xlink"><title>004-google-plus</title><desc>Created using Figma</desc><use xlink:href="#a" transform="translate(13.886 3.982)" fill="#FFF"/><use xlink:href="#b" transform="translate(0 .529)" fill="#FFF"/><defs><path id="a" d="M5.638 1.737H4.381V.477A.477.477 0 0 0 3.905 0H2.21a.477.477 0 0 0-.476.477v1.26H.476A.477.477 0 0 0 0 2.214v1.7c0 .263.213.477.476.477h1.257v1.26c0 .263.213.477.476.477h1.696a.477.477 0 0 0 .476-.478V4.391h1.257a.477.477 0 0 0 .476-.477v-1.7a.477.477 0 0 0-.476-.477z"/><path id="b" d="M6.47 3.106c.577 0 1.132.156 1.605.45l.54.372a.476.476 0 0 0 .604-.055l1.577-1.565a.477.477 0 0 0-.066-.733l-.916-.63a.474.474 0 0 0-.059-.034L8.868.472A6.48 6.48 0 0 0 6.438 0a6.41 6.41 0 0 0-4.513 1.84C.695 3.045.012 4.683 0 6.453c-.012 1.77.65 3.418 1.864 4.64C3.068 12.305 4.777 13 6.552 13c1.756 0 3.404-.683 4.52-1.875.885-.943 1.428-2.204 1.57-3.645a.47.47 0 0 0 .002-.041l.017-1.295a.466.466 0 0 0-.006-.08l-.069-.442a.476.476 0 0 0-.47-.403H6.613a.477.477 0 0 0-.477.477v1.908c0 .263.214.477.477.477h2.805a3.35 3.35 0 0 1-.587.858c-.56.605-1.392.953-2.287.953-.913 0-1.787-.359-2.399-.984-1.273-1.301-1.259-3.568.031-4.852a3.278 3.278 0 0 1 2.294-.95z"/></defs></svg>