<svg width="32" height="30" viewBox="0 0 32 30" xmlns="http://www.w3.org/2000/svg" xmlns:xlink="http://www.w3.org/1999/xlink"><title>wallet (1)</title><desc>Created using Figma</desc><use xlink:href="#a" fill="#8AC24A"/><use xlink:href="#b" fill="#689E38"/><use xlink:href="#c" transform="translate(0 6.442)" fill="#5D4037"/><use xlink:href="#d" transform="translate(0 6.442)" fill="#4E342E"/><use xlink:href="#e" transform="translate(20.36 13.312)" fill="#FE9700"/><use xlink:href="#f" transform="translate(20.36 13.312)" fill="#F47C00"/><use xlink:href="#g" transform="translate(23.59 17.064)" fill="#1D1D1B"/><defs><path id="a" d="M22.728 7.063L20.783.71a1.002 1.002 0 0 0-1.278-.655L.678 6.495A1.005 1.005 0 0 0 1 8.451a.988.988 0 0 0 .322-.054l2.819-.964 16.587-.07.089.291a.999.999 0 0 0 1.25.665c.527-.163.824-.725.661-1.256z"/><path id="b" d="M22.724 7.063L20.777.71A1.002 1.002 0 0 0 19.5.054L.673 6.495A1 1 0 0 0 0 7.467l16.313-5.582a.996.996 0 0 1 1.278.656l1.478 4.829 1.654-.007.089.29a.999.999 0 0 0 1.25.666c.527-.163.824-.725.662-1.256z"/><path id="c" d="M27.463 8.88c.553 0 1-.45 1-1.005V2.878A2.875 2.875 0 0 0 25.598 0H1C.448 0 0 .45 0 1.005v21.549c0 .555.448 1.004 1 1.004h24.598a2.875 2.875 0 0 0 2.865-2.878v-4.997c0-.555-.447-1.005-1-1.005V8.88z"/><path id="d" d="M28.463 7.875V2.878A2.875 2.875 0 0 0 25.598 0h-.554a2.87 2.87 0 0 1 .574 1.72v4.998c0 .555-.448 1.004-1 1.004v5.8c.552 0 1 .449 1 1.004v4.997a2.875 2.875 0 0 1-2.866 2.878H0v.153c0 .555.448 1.004 1 1.004h24.598a2.875 2.875 0 0 0 2.865-2.878v-4.997c0-.555-.447-1.005-1-1.005V8.88c.553 0 1-.45 1-1.005z"/><path id="e" d="M10.637 0H1C.448 0 0 .45 0 1.005v7.808c0 .554.448 1.004 1 1.004h9.637c.552 0 1-.45 1-1.004V1.005c0-.555-.448-1.005-1-1.005z"/><path id="f" d="M10.637 0h-.062v7.054c0 .555-.448 1.005-1 1.005H0v.754c0 .554.448 1.004 1 1.004h9.637c.552 0 1-.45 1-1.004V1.005c0-.555-.448-1.005-1-1.005z"/><path id="g" d="M0 1.157C0 .517.515 0 1.152 0c.636 0 1.15.518 1.15 1.157 0 .64-.514 1.157-1.15 1.157A1.154 1.154 0 0 1 0 1.157z"/></defs></svg>