<svg width="24" height="24" viewBox="0 0 24 24" xmlns="http://www.w3.org/2000/svg" xmlns:xlink="http://www.w3.org/1999/xlink"><title>wallet (2)</title><desc>Created using Figma</desc><use xlink:href="#a" fill="#F07C00"/><use xlink:href="#b" transform="translate(17 13)" fill="#F07C00"/><defs><path id="a" d="M23 10h-1V6c0-1.103-.897-2-2-2h-.382L17.894.553a1 1 0 0 0-1.266-.481L2.808 4H2C.897 4 0 4.897 0 6v16c0 1.103.897 2 2 2h18c1.103 0 2-.897 2-2v-4h1a1 1 0 0 0 1-1v-6a1 1 0 0 0-1-1zm-6.483-7.73L17.382 4H8.193l8.324-1.73zM19.997 22H2V6h18v4h-3a.998.998 0 0 0-.707.294l-3 3a.999.999 0 0 0 0 1.414l3 3c.187.186.442.292.707.292h2.998v4zM22 16h-4.586l-2-2 2-2H22v4z"/><path id="b" d="M1 2a1 1 0 1 0 0-2 1 1 0 0 0 0 2z"/></defs></svg>