<svg width="18" height="20" viewBox="0 0 18 20" xmlns="http://www.w3.org/2000/svg" xmlns:xlink="http://www.w3.org/1999/xlink"><title>Vector</title><desc>Created using Figma</desc><use xlink:href="#a" fill="#FFF"/><defs><path id="a" d="M18 5c0-2.757-2.244-5-5-5-1.744 0-3.133.518-4 1.418C8.133.518 6.743 0 5 0 2.243 0 0 2.243 0 5c0 1.919.69 3.835 1.87 5.245-.59 2.624.849 7.91 1.169 9.03a1 1 0 0 0 .91.724l.05.001c.408 0 .776-.247.93-.628C5.383 18.238 7.104 15 8.999 15c1.887 0 3.615 3.238 4.072 4.373.16.396.566.647.98.625a.996.996 0 0 0 .908-.722c.32-1.122 1.758-6.406 1.17-9.03 1.18-1.411 1.87-3.327 1.87-5.246zm-3.708 4.294a1 1 0 0 0-.188 1.153c.383.764.104 3.244-.444 5.78C12.65 14.691 11.068 13 9 13s-3.65 1.691-4.662 3.23c-.547-2.537-.826-5.015-.443-5.781a.999.999 0 0 0-.188-1.154C2.882 8.469 2 6.907 2 5c0-1.654 1.346-3 3-3 1.12 0 3 .26 3 2a1 1 0 1 0 2 0c0-1.74 1.878-2 3-2 1.653 0 3 1.346 3 3 0 1.907-.883 3.469-1.708 4.294z"/></defs></svg>